<svg width="28" height="9" viewBox="0 0 28 9" fill="none" xmlns="http://www.w3.org/2000/svg">
<path fill-rule="evenodd" clip-rule="evenodd" d="M0.148005 1.65274C0.346171 1.84841 1.33535 2.43625 1.53269 3.02408C1.73085 3.6111 2.12719 7.36899 3.31453 8.34899C4.53903 9.35764 9.15794 8.98185 10.0423 8.54548C12.0214 7.56712 12.2642 4.40689 12.6143 3.02326C12.8116 2.23975 13.999 2.23975 13.999 2.23975C13.999 2.23975 15.1863 2.23975 15.3845 3.02244C15.7346 4.40689 15.979 7.57612 17.9565 8.55284C18.8416 8.99086 23.4606 9.36664 24.6867 8.35799C25.8724 7.37799 26.2679 3.61028 26.4661 3.02244C26.6626 2.43543 27.6534 1.84759 27.8508 1.65192C28.0497 1.45625 28.0497 0.67274 27.8508 0.476249C27.4552 0.0849046 22.786 -0.263867 17.7583 0.280577C16.7551 0.389465 16.3737 0.671921 13.9981 0.671921C11.6243 0.671921 11.2412 0.388647 10.2388 0.280577C5.21444 -0.263048 0.544337 0.0857229 0.148005 0.477067C-0.049335 0.67274 -0.049335 1.45707 0.148005 1.65274Z" fill="#31373D"/>
</svg>
