<svg width="19" height="19" viewBox="0 0 19 19" fill="none" xmlns="http://www.w3.org/2000/svg">
<g clip-path="url(#clip0_747_1065)">
<path d="M17.1 14.4083L10.2916 9.30205V8.58163C11.5979 8.19371 12.5083 6.86371 12.2154 5.37538C12.0095 4.3383 11.1862 3.47538 10.1491 3.23788C8.34413 2.82621 6.72913 4.1958 6.72913 5.93746H8.31246C8.31246 5.28038 8.84288 4.74996 9.49996 4.74996C10.157 4.74996 10.6875 5.28038 10.6875 5.93746C10.6875 6.60246 10.1412 7.1408 9.47621 7.12496C9.04871 7.11705 8.70829 7.48121 8.70829 7.90871V9.30205L1.89996 14.4083C1.29038 14.8675 1.61496 15.8333 2.37496 15.8333H9.49996H16.625C17.385 15.8333 17.7095 14.8675 17.1 14.4083ZM4.74996 14.25L9.49996 10.6875L14.25 14.25H4.74996Z" fill="black"/>
</g>
<defs>
<clipPath id="clip0_747_1065">
<rect width="19" height="19" rx="8" fill="white"/>
</clipPath>
</defs>
</svg>
