<svg width="19" height="18" viewBox="0 0 19 18" fill="none" xmlns="http://www.w3.org/2000/svg">
<path d="M19 4.844V8.594C16.3454 9.688 13.0488 10.313 9.5 10.313C5.95125 10.313 2.65464 9.688 0 8.594V4.844C0 4.156 0.503388 3.594 1.11765 3.594H5.72772V2.656C5.72772 1.218 6.78993 0 8.1025 0H10.8966C12.2101 0 13.2714 1.219 13.2714 2.656V3.594H17.8815C18.4966 3.594 19 4.157 19 4.844ZM7.12522 2.656V3.594H11.8757V2.656C11.8757 2.062 11.4286 1.562 10.8975 1.562H8.10339C7.57228 1.562 7.12522 2.062 7.12522 2.656ZM8.10339 8.375V9C8.10339 9.188 8.21515 9.313 8.38325 9.313H10.6185C10.7866 9.313 10.8984 9.188 10.8984 9V8.375C10.8984 8.187 10.7866 8.062 10.6185 8.062H8.38325C8.21515 8.062 8.10339 8.187 8.10339 8.375ZM0 16.75V9.937C2.68235 10.968 5.95125 11.562 9.5 11.562C13.0488 11.562 16.3176 10.968 19 9.937V16.75C19 17.438 18.4966 18 17.8824 18H1.11765C0.502494 18 0 17.437 0 16.75ZM10.8975 13.531V12.906C10.8975 12.718 10.7857 12.593 10.6176 12.593H8.38235C8.21426 12.593 8.1025 12.718 8.1025 12.906V13.531C8.1025 13.719 8.21426 13.844 8.38235 13.844H10.6176C10.7857 13.844 10.8975 13.719 10.8975 13.531Z" fill="black"/>
</svg>
