<svg width="18" height="18" viewBox="0 0 18 18" fill="none" xmlns="http://www.w3.org/2000/svg">
<path d="M17.875 0.15664C17.7854 0.0562315 17.6586 0 17.5258 0H10.7555C10.6226 0 10.4958 0.0562315 10.4063 0.15664C10.3163 0.256565 10.2718 0.390468 10.2829 0.52615L10.3384 1.19325H17.9428L17.9982 0.52615C18.0094 0.390468 17.9651 0.256603 17.875 0.15664Z" fill="black"/>
<path d="M11.3642 13.5094H16.9176L17.8661 2.11145H10.415L11.3642 13.5094Z" fill="black"/>
<path d="M11.4167 16.047C11.4167 16.7094 11.9419 17.2463 12.5898 17.2463H15.6917C16.3396 17.2463 16.8648 16.7094 16.8648 16.047V14.5154H11.4167V16.047Z" fill="black"/>
<path d="M9.57768 12.8925H3.59961L1.19612 14.0067C1.19079 14.009 1.18499 14.0103 1.17969 14.0128V15.1264C1.17969 16.2975 2.10838 17.2463 3.25345 17.2463H7.89337C9.03844 17.2463 9.96713 16.2975 9.96713 15.1264V13.2906C9.96717 13.0706 9.79285 12.8925 9.57768 12.8925Z" fill="black"/>
<path d="M7.80858 10.9418L5.39453 12.0609H8.51619C8.6155 12.0609 8.70738 12.0076 8.75952 11.9215C8.81094 11.8342 8.815 11.7267 8.77008 11.6359C8.61438 11.3261 8.34013 11.0966 8.01261 11.001L7.80858 10.9418Z" fill="black"/>
<path d="M8.19853 9.28879C8.23478 9.18961 8.2313 9.08022 8.18859 8.98397L8.08449 8.75084C7.93125 8.40526 7.59797 8.20081 7.24944 8.20081C7.1231 8.20081 6.99443 8.22825 6.87167 8.28452L0.538048 11.2203C0.0772562 11.4338 -0.126851 11.9892 0.0818645 12.4602L0.185424 12.6939C0.228168 12.7896 0.306436 12.865 0.403065 12.902C0.446789 12.9187 0.493598 12.9271 0.539826 12.9271C0.595415 12.9271 0.650461 12.9152 0.701297 12.8919L7.9945 9.51127C8.08866 9.46761 8.1617 9.38801 8.19853 9.28879Z" fill="black"/>
</svg>
