<svg width="12" height="19" viewBox="0 0 12 19" fill="none" xmlns="http://www.w3.org/2000/svg">
<path d="M11.7045 2.10397C11.5193 1.95554 11.2813 1.91728 11.0669 2.00252L3.09288 5.15676C2.08741 5.10284 1.40257 4.79146 0.930616 4.44416C0.78852 4.33978 0.757724 4.27832 0.757724 4.27832C0.672558 4.18206 0.639726 4.04869 0.663858 3.91128C0.688482 3.77387 0.77519 3.66139 0.892137 3.615L8.02841 0.7924C8.13564 0.749502 8.25465 0.768613 8.34698 0.842831C8.35518 0.849807 8.36238 0.859084 8.37006 0.866024L8.89228 0.652648C8.85997 0.450294 8.76299 0.267051 8.61167 0.146448C8.42646 -0.00258123 8.18843 -0.0402466 7.97401 0.0443985L0.469395 3.0131C0.188257 3.12443 0 3.42478 0 3.76106V3.96806V17.0419C0 17.0419 0.494544 18.8602 3.09285 19L11.0607 15.8481C11.623 15.6254 12 15.0253 12 14.3515V2.75048C12 2.49361 11.8898 2.25241 11.7045 2.10397Z" fill="black"/>
<path d="M1.65039 3.94319L1.96689 4.11367L9.17707 1.26093L8.86001 1.09045L1.65039 3.94319Z" fill="black"/>
<path d="M2.8374 4.57766L10.0383 1.72841L9.72334 1.55737L2.52087 4.40718L2.8374 4.57766Z" fill="black"/>
</svg>
