<svg width="17" height="18" viewBox="0 0 17 18" fill="none" xmlns="http://www.w3.org/2000/svg">
<path d="M10.5613 5.625C10.3771 5.28047 10.1008 4.99922 9.76083 4.80234L12.8421 0.492188L12.155 0L8.925 4.51406C8.84 4.50703 8.755 4.5 8.66292 4.5C8.57083 4.5 8.47875 4.50703 8.38667 4.52109L6.00667 0.907031L5.29833 1.37109L7.55792 4.80234C7.225 4.99922 6.94875 5.2875 6.76458 5.625H0V16.875H1.69292V18H15.2929V16.875H17V5.625H10.5613ZM13.0262 15.1875H1.69292V7.3125H13.0262V15.1875ZM15.0096 15.1875C14.62 15.1875 14.3012 14.8711 14.3012 14.4844C14.3012 14.0977 14.62 13.7812 15.0096 13.7812C15.3992 13.7812 15.7179 14.0977 15.7179 14.4844C15.7179 14.8711 15.3992 15.1875 15.0096 15.1875ZM15.0096 12.5016C14.62 12.5016 14.3012 12.1852 14.3012 11.7984C14.3012 11.4117 14.62 11.0953 15.0096 11.0953C15.3992 11.0953 15.7179 11.4117 15.7179 11.7984C15.7179 12.1852 15.3992 12.5016 15.0096 12.5016Z" fill="black"/>
</svg>
