<svg width="20" height="15" viewBox="0 0 20 15" fill="none" xmlns="http://www.w3.org/2000/svg">
<path d="M5.83335 0C4.45494 0 3.33322 1.18765 3.33322 2.64706V4.03435C3.96825 4.44288 4.48351 5.0774 4.78186 5.86799L5.56641 7.94118H14.4324L15.2609 5.7508C15.5435 5.00433 16.0456 4.41137 16.6673 4.02401V2.64706C16.6673 1.18765 15.5455 0 14.1671 0H5.83335ZM18.3568 5.29412C17.6743 5.29412 17.0606 5.73421 16.8073 6.40568L15.5604 9.70588H4.43516L3.23393 6.52286C2.99058 5.87875 2.45163 5.36803 1.79993 5.30273C1.46658 5.2692 1.14275 5.33756 0.847731 5.50609C0.0835232 5.94021 -0.189343 6.96991 0.133174 7.82227L1.54927 11.5723C1.92929 12.5764 2.84863 13.2353 3.87036 13.2353H4.1666V15H5.83335V13.2353H14.1671V15H15.8339V13.2353H16.1236C17.1462 13.2353 18.0655 12.5755 18.4447 11.5705L19.8689 7.80159C20.1773 6.98453 19.9337 6.00615 19.2211 5.55262C18.9544 5.38233 18.661 5.29412 18.3568 5.29412Z" fill="black"/>
</svg>
