<svg width="20" height="18" viewBox="0 0 20 18" fill="none" xmlns="http://www.w3.org/2000/svg">
<path fill-rule="evenodd" clip-rule="evenodd" d="M3.40501 0C2.36434 0 1.52072 0.848302 1.52072 1.89474V3.63573L0.0981389 7.92711C-0.268864 9.0343 0.434804 10.1741 1.52072 10.386V16.1053C1.52072 17.1517 2.36434 18 3.40501 18H7.17358H8.11572H11.8843H12.8264H16.595C17.6357 18 18.4793 17.1517 18.4793 16.1053V10.386C19.5652 10.1741 20.2689 9.0343 19.9018 7.92711L18.4793 3.63573V1.89474C18.4793 0.848302 17.6357 0 16.595 0H3.40501ZM12.8264 16.1053H16.595V10.4211H15.1818H10H4.81822H3.40501V16.1053H7.17358V13.2632C7.17358 11.6935 8.43897 10.4211 10 10.4211C11.561 10.4211 12.8264 11.6935 12.8264 13.2632V16.1053ZM9.05786 16.1053H10.9422V13.2632C10.9422 12.7399 10.5204 12.3158 10 12.3158C9.47966 12.3158 9.05786 12.7399 9.05786 13.2632V16.1053ZM1.88573 8.52632L3.14192 4.73684H4.6482L4.0201 8.52632H2.46286H1.88573ZM5.93038 8.52632L6.55848 4.73684H9.05786V8.52632H5.93038ZM10.9422 8.52632V4.73684H13.4416L14.0696 8.52632H10.9422ZM15.9799 8.52632L15.3519 4.73684H16.8581L18.1143 8.52632H17.5372H15.9799ZM16.595 1.89474V2.84211H14.2397H10H5.76036H3.40501V1.89474H16.595Z" fill="black"/>
</svg>
