<svg width="21" height="12" viewBox="0 0 21 12" fill="none" xmlns="http://www.w3.org/2000/svg">
<path d="M1.125 0C1.125 0 0 3.375 0 7.875H8.25C9 7.875 10.2096 9.375 10.2 9.375H21C21 4.875 16.5 4.5 15 4.5H12C10.5 1.5 7.5 0 7.5 0H7.125C6 2.26262 3.02471 2.26262 1.5 0H1.125ZM8.25 1.5C8.66421 1.5 9 1.83579 9 2.25C9 2.66421 8.66421 3 8.25 3C7.83579 3 7.5 2.66421 7.5 2.25C7.5 1.83579 7.83579 1.5 8.25 1.5ZM9.75 3C10.1642 3 10.5 3.33579 10.5 3.75C10.5 4.16421 10.1642 4.5 9.75 4.5C9.33579 4.5 9 4.16421 9 3.75C9 3.33579 9.33579 3 9.75 3ZM0 9V12H7.875V9H0ZM10.95 10.5C10.95 10.5 12 12 12.75 12H21V10.5H10.95Z" fill="black"/>
</svg>
