<svg width="21" height="14" viewBox="0 0 21 14" fill="none" xmlns="http://www.w3.org/2000/svg">
<path d="M20.562 9.90978L20.8642 8.81409C21.4143 6.81815 20.2438 4.75304 18.2481 4.20254L3.2721 0.0680132C2.27407 -0.207275 1.24179 0.377845 0.966614 1.37643L0.165867 4.27955C0.073828 4.61199 0.269226 4.95669 0.601247 5.04847L1.32218 5.24704V7.82744C1.32218 7.94309 1.36898 8.05682 1.45191 8.13883C1.5339 8.22113 1.64731 8.26827 1.76322 8.26827H12.2639L14.3162 8.83419C14.3052 8.94984 14.2901 9.0689 14.2687 9.19301C14.1789 9.71273 13.9838 10.267 13.6307 10.6661C13.4627 10.8562 13.26 11.0143 13.0044 11.1336H0V12.8129C0 13.4683 0.531521 14 1.18711 14H19.5313C20.1863 14 20.7184 13.4683 20.7184 12.8129V11.1336H20.0568V10.3601C20.2915 10.3227 20.4941 10.1543 20.562 9.90978ZM2.20397 7.38624V5.49086L9.07014 7.38624H2.20397ZM17.616 7.41205C17.7288 7.00133 18.1535 6.76034 18.5637 6.87378C18.9749 6.98722 19.2162 7.41205 19.1034 7.82305C18.99 8.23344 18.5647 8.47443 18.1535 8.36099C17.7432 8.24784 17.5023 7.82301 17.616 7.41205ZM19.1747 11.1337H14.3857C14.4338 11.0737 14.4812 11.0124 14.5236 10.9496C14.838 10.4861 15.0093 9.97358 15.1073 9.50132C15.1378 9.35268 15.1591 9.21003 15.1767 9.07177L19.1747 10.176V11.1337Z" fill="black"/>
</svg>
