<svg width="23" height="13" viewBox="0 0 23 13" fill="none" xmlns="http://www.w3.org/2000/svg">
<path d="M3.68865 5.39905C1.65144 5.39905 0 7.10058 0 9.19953C0 11.2985 1.65149 13 3.68865 13C5.72591 13 7.3774 11.2985 7.3774 9.19953C7.3774 7.10058 5.72591 5.39905 3.68865 5.39905ZM3.68865 11.3109C2.55869 11.3109 1.63938 10.3638 1.63938 9.19953C1.63938 8.03527 2.55869 7.08811 3.68865 7.08811C4.81866 7.08811 5.73797 8.03527 5.73797 9.19953C5.73797 10.3638 4.81866 11.3109 3.68865 11.3109Z" fill="black"/>
<path d="M18.6974 5.39904C18.2811 5.39904 17.8815 5.47114 17.5082 5.60209L16.4936 3.97374C16.712 3.80807 16.9355 3.65885 17.1583 3.53834V1.66885L15.5289 2.42554L14.0176 9.48069e-05L11.0643 0L10.5217 0.465426L12.999 1.29663L14.1123 3.08339L11.1731 4.50163L8.29942 2.54867L3.6886 1.79208V3.00618L7.07632 5.68054L9.1737 10.1677H13.2413L14.2919 6.23522C14.2919 6.23522 14.7146 5.67176 15.3269 5.0327L16.1882 6.41489C15.4629 7.10883 15.0087 8.0993 15.0087 9.19952C15.0087 11.2985 16.6602 13 18.6974 13C20.7347 13 22.3862 11.2985 22.3862 9.19952C22.3862 7.10058 20.7347 5.39904 18.6974 5.39904ZM18.6974 11.3109C17.5675 11.3109 16.6481 10.3638 16.6481 9.19952C16.6481 8.69995 16.8177 8.24064 17.1003 7.87875L18.1897 9.62715L19.4831 8.77176L18.4445 7.10475C18.5275 7.09413 18.6117 7.0881 18.6974 7.0881C19.8274 7.0881 20.7468 8.03527 20.7468 9.19952C20.7468 10.3638 19.8274 11.3109 18.6974 11.3109Z" fill="black"/>
</svg>
