<svg width="50" height="50" viewBox="0 0 50 50" fill="none" xmlns="http://www.w3.org/2000/svg">
<path d="M0 8C0 3.58172 3.58172 0 8 0H42C46.4183 0 50 3.58172 50 8V42C50 46.4183 46.4183 50 42 50H8C3.58172 50 0 46.4183 0 42V8Z" fill="#F5F5F5"/>
<path d="M7.68515 36L8.78915 31.8H10.1691L11.2731 36H10.4571L10.2291 35.076H8.72915L8.50115 36H7.68515ZM8.91515 34.344H10.0431L9.53315 32.298H9.42515L8.91515 34.344Z" fill="black"/>
<path d="M13.1979 36.084C12.9099 36.084 12.6479 36.024 12.4119 35.904C12.1799 35.784 11.9959 35.61 11.8599 35.382C11.7239 35.154 11.6559 34.878 11.6559 34.554V34.47C11.6559 34.146 11.7239 33.87 11.8599 33.642C11.9959 33.414 12.1799 33.24 12.4119 33.12C12.6479 33 12.9099 32.94 13.1979 32.94C13.4819 32.94 13.7259 32.99 13.9299 33.09C14.1339 33.19 14.2979 33.328 14.4219 33.504C14.5499 33.676 14.6339 33.872 14.6739 34.092L13.9419 34.248C13.9259 34.128 13.8899 34.02 13.8339 33.924C13.7779 33.828 13.6979 33.752 13.5939 33.696C13.4939 33.64 13.3679 33.612 13.2159 33.612C13.0639 33.612 12.9259 33.646 12.8019 33.714C12.6819 33.778 12.5859 33.876 12.5139 34.008C12.4459 34.136 12.4119 34.294 12.4119 34.482V34.542C12.4119 34.73 12.4459 34.89 12.5139 35.022C12.5859 35.15 12.6819 35.248 12.8019 35.316C12.9259 35.38 13.0639 35.412 13.2159 35.412C13.4439 35.412 13.6159 35.354 13.7319 35.238C13.8519 35.118 13.9279 34.962 13.9599 34.77L14.6919 34.944C14.6399 35.156 14.5499 35.35 14.4219 35.526C14.2979 35.698 14.1339 35.834 13.9299 35.934C13.7259 36.034 13.4819 36.084 13.1979 36.084Z" fill="black"/>
<path d="M16.7135 36.084C16.4255 36.084 16.1635 36.024 15.9275 35.904C15.6955 35.784 15.5115 35.61 15.3755 35.382C15.2395 35.154 15.1715 34.878 15.1715 34.554V34.47C15.1715 34.146 15.2395 33.87 15.3755 33.642C15.5115 33.414 15.6955 33.24 15.9275 33.12C16.1635 33 16.4255 32.94 16.7135 32.94C16.9975 32.94 17.2415 32.99 17.4455 33.09C17.6495 33.19 17.8135 33.328 17.9375 33.504C18.0655 33.676 18.1495 33.872 18.1895 34.092L17.4575 34.248C17.4415 34.128 17.4055 34.02 17.3495 33.924C17.2935 33.828 17.2135 33.752 17.1095 33.696C17.0095 33.64 16.8835 33.612 16.7315 33.612C16.5795 33.612 16.4415 33.646 16.3175 33.714C16.1975 33.778 16.1015 33.876 16.0295 34.008C15.9615 34.136 15.9275 34.294 15.9275 34.482V34.542C15.9275 34.73 15.9615 34.89 16.0295 35.022C16.1015 35.15 16.1975 35.248 16.3175 35.316C16.4415 35.38 16.5795 35.412 16.7315 35.412C16.9595 35.412 17.1315 35.354 17.2475 35.238C17.3675 35.118 17.4435 34.962 17.4755 34.77L18.2075 34.944C18.1555 35.156 18.0655 35.35 17.9375 35.526C17.8135 35.698 17.6495 35.834 17.4455 35.934C17.2415 36.034 16.9975 36.084 16.7135 36.084Z" fill="black"/>
<path d="M20.1871 36.084C19.8911 36.084 19.6291 36.022 19.4011 35.898C19.1771 35.77 19.0011 35.592 18.8731 35.364C18.7491 35.132 18.6871 34.86 18.6871 34.548V34.476C18.6871 34.164 18.7491 33.894 18.8731 33.666C18.9971 33.434 19.1711 33.256 19.3951 33.132C19.6191 33.004 19.8791 32.94 20.1751 32.94C20.4671 32.94 20.7211 33.006 20.9371 33.138C21.1531 33.266 21.3211 33.446 21.4411 33.678C21.5611 33.906 21.6211 34.172 21.6211 34.476V34.734H19.4551C19.4631 34.938 19.5391 35.104 19.6831 35.232C19.8271 35.36 20.0031 35.424 20.2111 35.424C20.4231 35.424 20.5791 35.378 20.6791 35.286C20.7791 35.194 20.8551 35.092 20.9071 34.98L21.5251 35.304C21.4691 35.408 21.3871 35.522 21.2791 35.646C21.1751 35.766 21.0351 35.87 20.8591 35.958C20.6831 36.042 20.4591 36.084 20.1871 36.084ZM19.4611 34.17H20.8531C20.8371 33.998 20.7671 33.86 20.6431 33.756C20.5231 33.652 20.3651 33.6 20.1691 33.6C19.9651 33.6 19.8031 33.652 19.6831 33.756C19.5631 33.86 19.4891 33.998 19.4611 34.17Z" fill="black"/>
<path d="M23.53 36.084C23.142 36.084 22.824 36 22.576 35.832C22.328 35.664 22.178 35.424 22.126 35.112L22.822 34.932C22.85 35.072 22.896 35.182 22.96 35.262C23.028 35.342 23.11 35.4 23.206 35.436C23.306 35.468 23.414 35.484 23.53 35.484C23.706 35.484 23.836 35.454 23.92 35.394C24.004 35.33 24.046 35.252 24.046 35.16C24.046 35.068 24.006 34.998 23.926 34.95C23.846 34.898 23.718 34.856 23.542 34.824L23.374 34.794C23.166 34.754 22.976 34.7 22.804 34.632C22.632 34.56 22.494 34.462 22.39 34.338C22.286 34.214 22.234 34.054 22.234 33.858C22.234 33.562 22.342 33.336 22.558 33.18C22.774 33.02 23.058 32.94 23.41 32.94C23.742 32.94 24.018 33.014 24.238 33.162C24.458 33.31 24.602 33.504 24.67 33.744L23.968 33.96C23.936 33.808 23.87 33.7 23.77 33.636C23.674 33.572 23.554 33.54 23.41 33.54C23.266 33.54 23.156 33.566 23.08 33.618C23.004 33.666 22.966 33.734 22.966 33.822C22.966 33.918 23.006 33.99 23.086 34.038C23.166 34.082 23.274 34.116 23.41 34.14L23.578 34.17C23.802 34.21 24.004 34.264 24.184 34.332C24.368 34.396 24.512 34.49 24.616 34.614C24.724 34.734 24.778 34.898 24.778 35.106C24.778 35.418 24.664 35.66 24.436 35.832C24.212 36 23.91 36.084 23.53 36.084Z" fill="black"/>
<path d="M26.6765 36.084C26.2885 36.084 25.9705 36 25.7225 35.832C25.4745 35.664 25.3245 35.424 25.2725 35.112L25.9685 34.932C25.9965 35.072 26.0425 35.182 26.1065 35.262C26.1745 35.342 26.2565 35.4 26.3525 35.436C26.4525 35.468 26.5605 35.484 26.6765 35.484C26.8525 35.484 26.9825 35.454 27.0665 35.394C27.1505 35.33 27.1925 35.252 27.1925 35.16C27.1925 35.068 27.1525 34.998 27.0725 34.95C26.9925 34.898 26.8645 34.856 26.6885 34.824L26.5205 34.794C26.3125 34.754 26.1225 34.7 25.9505 34.632C25.7785 34.56 25.6405 34.462 25.5365 34.338C25.4325 34.214 25.3805 34.054 25.3805 33.858C25.3805 33.562 25.4885 33.336 25.7045 33.18C25.9205 33.02 26.2045 32.94 26.5565 32.94C26.8885 32.94 27.1645 33.014 27.3845 33.162C27.6045 33.31 27.7485 33.504 27.8165 33.744L27.1145 33.96C27.0825 33.808 27.0165 33.7 26.9165 33.636C26.8205 33.572 26.7005 33.54 26.5565 33.54C26.4125 33.54 26.3025 33.566 26.2265 33.618C26.1505 33.666 26.1125 33.734 26.1125 33.822C26.1125 33.918 26.1525 33.99 26.2325 34.038C26.3125 34.082 26.4205 34.116 26.5565 34.14L26.7245 34.17C26.9485 34.21 27.1505 34.264 27.3305 34.332C27.5145 34.396 27.6585 34.49 27.7625 34.614C27.8705 34.734 27.9245 34.898 27.9245 35.106C27.9245 35.418 27.8105 35.66 27.5825 35.832C27.3585 36 27.0565 36.084 26.6765 36.084Z" fill="black"/>
<path d="M30.003 36.084C29.707 36.084 29.441 36.024 29.205 35.904C28.969 35.784 28.783 35.61 28.647 35.382C28.511 35.154 28.443 34.88 28.443 34.56V34.464C28.443 34.144 28.511 33.87 28.647 33.642C28.783 33.414 28.969 33.24 29.205 33.12C29.441 33 29.707 32.94 30.003 32.94C30.299 32.94 30.565 33 30.801 33.12C31.037 33.24 31.223 33.414 31.359 33.642C31.495 33.87 31.563 34.144 31.563 34.464V34.56C31.563 34.88 31.495 35.154 31.359 35.382C31.223 35.61 31.037 35.784 30.801 35.904C30.565 36.024 30.299 36.084 30.003 36.084ZM30.003 35.412C30.235 35.412 30.427 35.338 30.579 35.19C30.731 35.038 30.807 34.822 30.807 34.542V34.482C30.807 34.202 30.731 33.988 30.579 33.84C30.431 33.688 30.239 33.612 30.003 33.612C29.771 33.612 29.579 33.688 29.427 33.84C29.275 33.988 29.199 34.202 29.199 34.482V34.542C29.199 34.822 29.275 35.038 29.427 35.19C29.579 35.338 29.771 35.412 30.003 35.412Z" fill="black"/>
<path d="M32.2608 36V33.024H33.0048V33.36H33.1128C33.1568 33.24 33.2288 33.152 33.3288 33.096C33.4328 33.04 33.5528 33.012 33.6888 33.012H34.0488V33.684H33.6768C33.4848 33.684 33.3268 33.736 33.2028 33.84C33.0788 33.94 33.0168 34.096 33.0168 34.308V36H32.2608Z" fill="black"/>
<path d="M34.6397 36V33.024H35.3957V36H34.6397ZM35.0177 32.676C34.8817 32.676 34.7657 32.632 34.6697 32.544C34.5777 32.456 34.5317 32.34 34.5317 32.196C34.5317 32.052 34.5777 31.936 34.6697 31.848C34.7657 31.76 34.8817 31.716 35.0177 31.716C35.1577 31.716 35.2737 31.76 35.3657 31.848C35.4577 31.936 35.5037 32.052 35.5037 32.196C35.5037 32.34 35.4577 32.456 35.3657 32.544C35.2737 32.632 35.1577 32.676 35.0177 32.676Z" fill="black"/>
<path d="M37.5895 36.084C37.2935 36.084 37.0315 36.022 36.8035 35.898C36.5795 35.77 36.4035 35.592 36.2755 35.364C36.1515 35.132 36.0895 34.86 36.0895 34.548V34.476C36.0895 34.164 36.1515 33.894 36.2755 33.666C36.3995 33.434 36.5735 33.256 36.7975 33.132C37.0215 33.004 37.2815 32.94 37.5775 32.94C37.8695 32.94 38.1235 33.006 38.3395 33.138C38.5555 33.266 38.7235 33.446 38.8435 33.678C38.9635 33.906 39.0235 34.172 39.0235 34.476V34.734H36.8575C36.8655 34.938 36.9415 35.104 37.0855 35.232C37.2295 35.36 37.4055 35.424 37.6135 35.424C37.8255 35.424 37.9815 35.378 38.0815 35.286C38.1815 35.194 38.2575 35.092 38.3095 34.98L38.9275 35.304C38.8715 35.408 38.7895 35.522 38.6815 35.646C38.5775 35.766 38.4375 35.87 38.2615 35.958C38.0855 36.042 37.8615 36.084 37.5895 36.084ZM36.8635 34.17H38.2555C38.2395 33.998 38.1695 33.86 38.0455 33.756C37.9255 33.652 37.7675 33.6 37.5715 33.6C37.3675 33.6 37.2055 33.652 37.0855 33.756C36.9655 33.86 36.8915 33.998 36.8635 34.17Z" fill="black"/>
<path d="M40.9324 36.084C40.5444 36.084 40.2264 36 39.9784 35.832C39.7304 35.664 39.5804 35.424 39.5284 35.112L40.2244 34.932C40.2524 35.072 40.2984 35.182 40.3624 35.262C40.4304 35.342 40.5124 35.4 40.6084 35.436C40.7084 35.468 40.8164 35.484 40.9324 35.484C41.1084 35.484 41.2384 35.454 41.3224 35.394C41.4064 35.33 41.4484 35.252 41.4484 35.16C41.4484 35.068 41.4084 34.998 41.3284 34.95C41.2484 34.898 41.1204 34.856 40.9444 34.824L40.7764 34.794C40.5684 34.754 40.3784 34.7 40.2064 34.632C40.0344 34.56 39.8964 34.462 39.7924 34.338C39.6884 34.214 39.6364 34.054 39.6364 33.858C39.6364 33.562 39.7444 33.336 39.9604 33.18C40.1764 33.02 40.4604 32.94 40.8124 32.94C41.1444 32.94 41.4204 33.014 41.6404 33.162C41.8604 33.31 42.0044 33.504 42.0724 33.744L41.3704 33.96C41.3384 33.808 41.2724 33.7 41.1724 33.636C41.0764 33.572 40.9564 33.54 40.8124 33.54C40.6684 33.54 40.5584 33.566 40.4824 33.618C40.4064 33.666 40.3684 33.734 40.3684 33.822C40.3684 33.918 40.4084 33.99 40.4884 34.038C40.5684 34.082 40.6764 34.116 40.8124 34.14L40.9804 34.17C41.2044 34.21 41.4064 34.264 41.5864 34.332C41.7704 34.396 41.9144 34.49 42.0184 34.614C42.1264 34.734 42.1804 34.898 42.1804 35.106C42.1804 35.418 42.0664 35.66 41.8384 35.832C41.6144 36 41.3124 36.084 40.9324 36.084Z" fill="black"/>
<path fill-rule="evenodd" clip-rule="evenodd" d="M11.148 16.6527C11.3462 16.8484 12.3353 17.4362 12.5327 18.0241C12.7309 18.6111 13.1272 22.369 14.3145 23.349C15.539 24.3576 20.1579 23.9819 21.0423 23.5455C23.0214 22.5671 23.2642 19.4069 23.6143 18.0233C23.8116 17.2398 24.999 17.2398 24.999 17.2398C24.999 17.2398 26.1863 17.2398 26.3845 18.0224C26.7346 19.4069 26.979 22.5761 28.9565 23.5528C29.8416 23.9909 34.4606 24.3666 35.6867 23.358C36.8724 22.378 37.2679 18.6103 37.4661 18.0224C37.6626 17.4354 38.6534 16.8476 38.8508 16.6519C39.0497 16.4562 39.0497 15.6727 38.8508 15.4762C38.4552 15.0849 33.786 14.7361 28.7583 15.2806C27.7551 15.3895 27.3737 15.6719 24.9981 15.6719C22.6243 15.6719 22.2412 15.3886 21.2388 15.2806C16.2144 14.737 11.5443 15.0857 11.148 15.4771C10.9507 15.6727 10.9507 16.4571 11.148 16.6527Z" fill="#31373D"/>
</svg>
