<svg width="50" height="50" viewBox="0 0 50 50" fill="none" xmlns="http://www.w3.org/2000/svg">
<path d="M0 8C0 3.58172 3.58172 0 8 0H42C46.4183 0 50 3.58172 50 8V42C50 46.4183 46.4183 50 42 50H8C3.58172 50 0 46.4183 0 42V8Z" fill="#F5F5F5"/>
<path d="M15.8941 37L17.1821 32.1H18.7921L20.0801 37H19.1281L18.8621 35.922H17.1121L16.8461 37H15.8941ZM17.3291 35.068H18.6451L18.0501 32.681H17.9241L17.3291 35.068Z" fill="black"/>
<path d="M22.0246 37C21.7959 37 21.6093 36.93 21.4646 36.79C21.3246 36.6453 21.2546 36.454 21.2546 36.216V34.256H20.3866V33.528H21.2546V32.45H22.1366V33.528H22.8786V34.256H22.1366V36.062C22.1366 36.202 22.2019 36.272 22.3326 36.272H23.0046V37H22.0246ZM24.3066 37C24.0779 37 23.8913 36.93 23.7466 36.79C23.6066 36.6453 23.5366 36.454 23.5366 36.216V34.256H22.8786V33.528H23.5366V32.45H24.4186V33.528H25.3706V34.256H24.4186V36.062C24.4186 36.202 24.4839 36.272 24.6146 36.272H25.2866V37H24.3066Z" fill="black"/>
<path d="M26.1702 37V33.528H27.0522V37H26.1702ZM26.6112 33.122C26.4525 33.122 26.3172 33.0707 26.2052 32.968C26.0978 32.8653 26.0442 32.73 26.0442 32.562C26.0442 32.394 26.0978 32.2587 26.2052 32.156C26.3172 32.0533 26.4525 32.002 26.6112 32.002C26.7745 32.002 26.9098 32.0533 27.0172 32.156C27.1245 32.2587 27.1782 32.394 27.1782 32.562C27.1782 32.73 27.1245 32.8653 27.0172 32.968C26.9098 33.0707 26.7745 33.122 26.6112 33.122Z" fill="black"/>
<path d="M28.0296 37V33.528H28.8976V33.92H29.0236C29.0749 33.78 29.1589 33.6773 29.2756 33.612C29.3969 33.5467 29.5369 33.514 29.6956 33.514H30.1156V34.298H29.6816C29.4576 34.298 29.2732 34.3587 29.1286 34.48C28.9839 34.5967 28.9116 34.7787 28.9116 35.026V37H28.0296Z" fill="black"/>
<path d="M32.2639 37.098C31.9186 37.098 31.6129 37.0257 31.3469 36.881C31.0856 36.7317 30.8802 36.524 30.7309 36.258C30.5862 35.9873 30.5139 35.67 30.5139 35.306V35.222C30.5139 34.858 30.5862 34.543 30.7309 34.277C30.8756 34.0063 31.0786 33.7987 31.3399 33.654C31.6012 33.5047 31.9046 33.43 32.2499 33.43C32.5906 33.43 32.8869 33.507 33.1389 33.661C33.3909 33.8103 33.5869 34.0203 33.7269 34.291C33.8669 34.557 33.9369 34.8673 33.9369 35.222V35.523H31.4099C31.4192 35.761 31.5079 35.9547 31.6759 36.104C31.8439 36.2533 32.0492 36.328 32.2919 36.328C32.5392 36.328 32.7212 36.2743 32.8379 36.167C32.9546 36.0597 33.0432 35.9407 33.1039 35.81L33.8249 36.188C33.7596 36.3093 33.6639 36.4423 33.5379 36.587C33.4166 36.727 33.2532 36.8483 33.0479 36.951C32.8426 37.049 32.5812 37.098 32.2639 37.098ZM31.4169 34.865H33.0409C33.0222 34.6643 32.9406 34.5033 32.7959 34.382C32.6559 34.2607 32.4716 34.2 32.2429 34.2C32.0049 34.2 31.8159 34.2607 31.6759 34.382C31.5359 34.5033 31.4496 34.6643 31.4169 34.865Z" fill="black"/>
<path d="M32.1 23.4083L25.2917 18.3021V17.5817C26.5979 17.1938 27.5083 15.8637 27.2154 14.3754C27.0096 13.3383 26.1862 12.4754 25.1492 12.2379C23.3442 11.8263 21.7292 13.1958 21.7292 14.9375H23.3125C23.3125 14.2804 23.8429 13.75 24.5 13.75C25.1571 13.75 25.6875 14.2804 25.6875 14.9375C25.6875 15.6025 25.1412 16.1408 24.4762 16.125C24.0487 16.1171 23.7083 16.4813 23.7083 16.9088V18.3021L16.9 23.4083C16.2904 23.8675 16.615 24.8333 17.375 24.8333H31.625C32.385 24.8333 32.7096 23.8675 32.1 23.4083ZM19.75 23.25L24.5 19.6875L29.25 23.25H19.75Z" fill="black"/>
</svg>
