<svg width="50" height="50" viewBox="0 0 50 50" fill="none" xmlns="http://www.w3.org/2000/svg">
<path d="M0 8C0 3.58172 3.58172 0 8 0H42C46.4183 0 50 3.58172 50 8V42C50 46.4183 46.4183 50 42 50H8C3.58172 50 0 46.4183 0 42V8Z" fill="#F5F5F5"/>
<path d="M16.9411 39V38.188H17.5851V34.912H16.9411V34.1H19.4611C19.7598 34.1 20.0188 34.1513 20.2381 34.254C20.4621 34.352 20.6348 34.4943 20.7561 34.681C20.8821 34.863 20.9451 35.0823 20.9451 35.339V35.409C20.9451 35.633 20.9031 35.8173 20.8191 35.962C20.7351 36.102 20.6348 36.2117 20.5181 36.291C20.4061 36.3657 20.2988 36.4193 20.1961 36.452V36.578C20.2988 36.606 20.4108 36.6597 20.5321 36.739C20.6535 36.8137 20.7561 36.9233 20.8401 37.068C20.9288 37.2127 20.9731 37.4017 20.9731 37.635V37.705C20.9731 37.9757 20.9101 38.209 20.7841 38.405C20.6581 38.5963 20.4831 38.7433 20.2591 38.846C20.0398 38.9487 19.7831 39 19.4891 39H16.9411ZM18.5091 38.16H19.3771C19.5778 38.16 19.7388 38.111 19.8601 38.013C19.9861 37.915 20.0491 37.775 20.0491 37.593V37.523C20.0491 37.341 19.9885 37.201 19.8671 37.103C19.7458 37.005 19.5825 36.956 19.3771 36.956H18.5091V38.16ZM18.5091 36.116H19.3631C19.5545 36.116 19.7108 36.067 19.8321 35.969C19.9581 35.871 20.0211 35.7357 20.0211 35.563V35.493C20.0211 35.3157 19.9605 35.1803 19.8391 35.087C19.7178 34.989 19.5591 34.94 19.3631 34.94H18.5091V36.116Z" fill="black"/>
<path d="M22.8356 39.098C22.5882 39.098 22.3666 39.056 22.1706 38.972C21.9746 38.8833 21.8182 38.7573 21.7016 38.594C21.5896 38.426 21.5336 38.223 21.5336 37.985C21.5336 37.747 21.5896 37.5487 21.7016 37.39C21.8182 37.2267 21.9769 37.1053 22.1776 37.026C22.3829 36.942 22.6162 36.9 22.8776 36.9H23.8296V36.704C23.8296 36.5407 23.7782 36.4077 23.6756 36.305C23.5729 36.1977 23.4096 36.144 23.1856 36.144C22.9662 36.144 22.8029 36.1953 22.6956 36.298C22.5882 36.396 22.5182 36.5243 22.4856 36.683L21.6736 36.41C21.7296 36.2327 21.8182 36.0717 21.9396 35.927C22.0656 35.7777 22.2312 35.6587 22.4366 35.57C22.6466 35.4767 22.9009 35.43 23.1996 35.43C23.6569 35.43 24.0186 35.5443 24.2846 35.773C24.5506 36.0017 24.6836 36.333 24.6836 36.767V38.062C24.6836 38.202 24.7489 38.272 24.8796 38.272H25.1596V39H24.5716C24.3989 39 24.2566 38.958 24.1446 38.874C24.0326 38.79 23.9766 38.678 23.9766 38.538V38.531H23.8436C23.8249 38.587 23.7829 38.6617 23.7176 38.755C23.6522 38.8437 23.5496 38.923 23.4096 38.993C23.2696 39.063 23.0782 39.098 22.8356 39.098ZM22.9896 38.384C23.2369 38.384 23.4376 38.3163 23.5916 38.181C23.7502 38.041 23.8296 37.8567 23.8296 37.628V37.558H22.9406C22.7772 37.558 22.6489 37.593 22.5556 37.663C22.4622 37.733 22.4156 37.831 22.4156 37.957C22.4156 38.083 22.4646 38.1857 22.5626 38.265C22.6606 38.3443 22.8029 38.384 22.9896 38.384Z" fill="black"/>
<path d="M25.5681 37.278V37.166C25.5681 36.802 25.6404 36.4917 25.7851 36.235C25.9298 35.9737 26.1211 35.7753 26.3591 35.64C26.6018 35.5 26.8654 35.43 27.1501 35.43C27.4674 35.43 27.7078 35.486 27.8711 35.598C28.0344 35.71 28.1534 35.8267 28.2281 35.948H28.3541V35.528H29.2221V39.616C29.2221 39.854 29.1521 40.043 29.0121 40.183C28.8721 40.3277 28.6854 40.4 28.4521 40.4H26.1281V39.63H28.1441C28.2748 39.63 28.3401 39.56 28.3401 39.42V38.517H28.2141C28.1674 38.5917 28.1021 38.6687 28.0181 38.748C27.9341 38.8227 27.8221 38.8857 27.6821 38.937C27.5421 38.9883 27.3648 39.014 27.1501 39.014C26.8654 39.014 26.6018 38.9463 26.3591 38.811C26.1211 38.671 25.9298 38.4727 25.7851 38.216C25.6404 37.9547 25.5681 37.642 25.5681 37.278ZM27.4021 38.244C27.6728 38.244 27.8991 38.1577 28.0811 37.985C28.2631 37.8123 28.3541 37.5697 28.3541 37.257V37.187C28.3541 36.8697 28.2631 36.627 28.0811 36.459C27.9038 36.2863 27.6774 36.2 27.4021 36.2C27.1314 36.2 26.9051 36.2863 26.7231 36.459C26.5411 36.627 26.4501 36.8697 26.4501 37.187V37.257C26.4501 37.5697 26.5411 37.8123 26.7231 37.985C26.9051 38.1577 27.1314 38.244 27.4021 38.244Z" fill="black"/>
<path d="M31.642 39.098C31.1893 39.098 30.8183 39 30.529 38.804C30.2396 38.608 30.0646 38.328 30.004 37.964L30.816 37.754C30.8486 37.9173 30.9023 38.0457 30.977 38.139C31.0563 38.2323 31.152 38.3 31.264 38.342C31.3806 38.3793 31.5066 38.398 31.642 38.398C31.8473 38.398 31.999 38.363 32.097 38.293C32.195 38.2183 32.244 38.1273 32.244 38.02C32.244 37.9127 32.1973 37.831 32.104 37.775C32.0106 37.7143 31.8613 37.6653 31.656 37.628L31.46 37.593C31.2173 37.5463 30.9956 37.4833 30.795 37.404C30.5943 37.32 30.4333 37.2057 30.312 37.061C30.1906 36.9163 30.13 36.7297 30.13 36.501C30.13 36.1557 30.256 35.892 30.508 35.71C30.76 35.5233 31.0913 35.43 31.502 35.43C31.8893 35.43 32.2113 35.5163 32.468 35.689C32.7246 35.8617 32.8926 36.088 32.972 36.368L32.153 36.62C32.1156 36.4427 32.0386 36.3167 31.922 36.242C31.81 36.1673 31.67 36.13 31.502 36.13C31.334 36.13 31.2056 36.1603 31.117 36.221C31.0283 36.277 30.984 36.3563 30.984 36.459C30.984 36.571 31.0306 36.655 31.124 36.711C31.2173 36.7623 31.3433 36.802 31.502 36.83L31.698 36.865C31.9593 36.9117 32.195 36.9747 32.405 37.054C32.6196 37.1287 32.7876 37.2383 32.909 37.383C33.035 37.523 33.098 37.7143 33.098 37.957C33.098 38.321 32.965 38.6033 32.699 38.804C32.4376 39 32.0853 39.098 31.642 39.098Z" fill="black"/>
<path d="M34 14.844V18.594C31.3454 19.688 28.0488 20.313 24.5 20.313C20.9512 20.313 17.6546 19.688 15 18.594V14.844C15 14.156 15.5034 13.594 16.1176 13.594H20.7277V12.656C20.7277 11.218 21.7899 10 23.1025 10H25.8966C27.2101 10 28.2714 11.219 28.2714 12.656V13.594H32.8815C33.4966 13.594 34 14.157 34 14.844ZM22.1252 12.656V13.594H26.8757V12.656C26.8757 12.062 26.4286 11.562 25.8975 11.562H23.1034C22.5723 11.562 22.1252 12.062 22.1252 12.656ZM23.1034 18.375V19C23.1034 19.188 23.2152 19.313 23.3832 19.313H25.6185C25.7866 19.313 25.8984 19.188 25.8984 19V18.375C25.8984 18.187 25.7866 18.062 25.6185 18.062H23.3832C23.2152 18.062 23.1034 18.187 23.1034 18.375ZM15 26.75V19.937C17.6824 20.968 20.9512 21.562 24.5 21.562C28.0488 21.562 31.3176 20.968 34 19.937V26.75C34 27.438 33.4966 28 32.8824 28H16.1176C15.5025 28 15 27.437 15 26.75ZM25.8975 23.531V22.906C25.8975 22.718 25.7857 22.593 25.6176 22.593H23.3824C23.2143 22.593 23.1025 22.718 23.1025 22.906V23.531C23.1025 23.719 23.2143 23.844 23.3824 23.844H25.6176C25.7857 23.844 25.8975 23.719 25.8975 23.531Z" fill="black"/>
</svg>
