<svg width="50" height="50" viewBox="0 0 50 50" fill="none" xmlns="http://www.w3.org/2000/svg">
<path d="M0 8C0 3.58172 3.58172 0 8 0H42C46.4183 0 50 3.58172 50 8V42C50 46.4183 46.4183 50 42 50H8C3.58172 50 0 46.4183 0 42V8Z" fill="#F5F5F5"/>
<path d="M13.0925 39V38.188H13.7365V34.912H13.0925V34.1H15.6125C15.9112 34.1 16.1702 34.1513 16.3895 34.254C16.6135 34.352 16.7862 34.4943 16.9075 34.681C17.0335 34.863 17.0965 35.0823 17.0965 35.339V35.409C17.0965 35.633 17.0545 35.8173 16.9705 35.962C16.8865 36.102 16.7862 36.2117 16.6695 36.291C16.5575 36.3657 16.4502 36.4193 16.3475 36.452V36.578C16.4502 36.606 16.5622 36.6597 16.6835 36.739C16.8048 36.8137 16.9075 36.9233 16.9915 37.068C17.0802 37.2127 17.1245 37.4017 17.1245 37.635V37.705C17.1245 37.9757 17.0615 38.209 16.9355 38.405C16.8095 38.5963 16.6345 38.7433 16.4105 38.846C16.1912 38.9487 15.9345 39 15.6405 39H13.0925ZM14.6605 38.16H15.5285C15.7292 38.16 15.8902 38.111 16.0115 38.013C16.1375 37.915 16.2005 37.775 16.2005 37.593V37.523C16.2005 37.341 16.1398 37.201 16.0185 37.103C15.8972 37.005 15.7338 36.956 15.5285 36.956H14.6605V38.16ZM14.6605 36.116H15.5145C15.7058 36.116 15.8622 36.067 15.9835 35.969C16.1095 35.871 16.1725 35.7357 16.1725 35.563V35.493C16.1725 35.3157 16.1118 35.1803 15.9905 35.087C15.8692 34.989 15.7105 34.94 15.5145 34.94H14.6605V36.116Z" fill="black"/>
<path d="M19.4909 39.098C19.1456 39.098 18.8399 39.0257 18.5739 38.881C18.3126 38.7317 18.1073 38.524 17.9579 38.258C17.8133 37.9873 17.7409 37.67 17.7409 37.306V37.222C17.7409 36.858 17.8133 36.543 17.9579 36.277C18.1026 36.0063 18.3056 35.7987 18.5669 35.654C18.8283 35.5047 19.1316 35.43 19.4769 35.43C19.8176 35.43 20.1139 35.507 20.3659 35.661C20.6179 35.8103 20.8139 36.0203 20.9539 36.291C21.0939 36.557 21.1639 36.8673 21.1639 37.222V37.523H18.6369C18.6463 37.761 18.7349 37.9547 18.9029 38.104C19.0709 38.2533 19.2763 38.328 19.5189 38.328C19.7663 38.328 19.9483 38.2743 20.0649 38.167C20.1816 38.0597 20.2703 37.9407 20.3309 37.81L21.0519 38.188C20.9866 38.3093 20.8909 38.4423 20.7649 38.587C20.6436 38.727 20.4803 38.8483 20.2749 38.951C20.0696 39.049 19.8083 39.098 19.4909 39.098ZM18.6439 36.865H20.2679C20.2493 36.6643 20.1676 36.5033 20.0229 36.382C19.8829 36.2607 19.6986 36.2 19.4699 36.2C19.2319 36.2 19.0429 36.2607 18.9029 36.382C18.7629 36.5033 18.6766 36.6643 18.6439 36.865Z" fill="black"/>
<path d="M23.027 39.098C22.7797 39.098 22.558 39.056 22.362 38.972C22.166 38.8833 22.0097 38.7573 21.893 38.594C21.781 38.426 21.725 38.223 21.725 37.985C21.725 37.747 21.781 37.5487 21.893 37.39C22.0097 37.2267 22.1683 37.1053 22.369 37.026C22.5743 36.942 22.8077 36.9 23.069 36.9H24.021V36.704C24.021 36.5407 23.9697 36.4077 23.867 36.305C23.7643 36.1977 23.601 36.144 23.377 36.144C23.1577 36.144 22.9943 36.1953 22.887 36.298C22.7797 36.396 22.7097 36.5243 22.677 36.683L21.865 36.41C21.921 36.2327 22.0097 36.0717 22.131 35.927C22.257 35.7777 22.4227 35.6587 22.628 35.57C22.838 35.4767 23.0923 35.43 23.391 35.43C23.8483 35.43 24.21 35.5443 24.476 35.773C24.742 36.0017 24.875 36.333 24.875 36.767V38.062C24.875 38.202 24.9403 38.272 25.071 38.272H25.351V39H24.763C24.5903 39 24.448 38.958 24.336 38.874C24.224 38.79 24.168 38.678 24.168 38.538V38.531H24.035C24.0163 38.587 23.9743 38.6617 23.909 38.755C23.8437 38.8437 23.741 38.923 23.601 38.993C23.461 39.063 23.2697 39.098 23.027 39.098ZM23.181 38.384C23.4283 38.384 23.629 38.3163 23.783 38.181C23.9417 38.041 24.021 37.8567 24.021 37.628V37.558H23.132C22.9687 37.558 22.8403 37.593 22.747 37.663C22.6537 37.733 22.607 37.831 22.607 37.957C22.607 38.083 22.656 38.1857 22.754 38.265C22.852 38.3443 22.9943 38.384 23.181 38.384Z" fill="black"/>
<path d="M27.2232 39.056C26.9525 39.056 26.7145 38.9953 26.5092 38.874C26.3085 38.748 26.1522 38.5753 26.0402 38.356C25.9282 38.1367 25.8722 37.8847 25.8722 37.6V35.528H26.7542V37.53C26.7542 37.7913 26.8172 37.9873 26.9432 38.118C27.0738 38.2487 27.2582 38.314 27.4962 38.314C27.7668 38.314 27.9768 38.2253 28.1262 38.048C28.2755 37.866 28.3502 37.614 28.3502 37.292V35.528H29.2322V39H28.3642V38.545H28.2382C28.1822 38.6617 28.0772 38.776 27.9232 38.888C27.7692 39 27.5358 39.056 27.2232 39.056Z" fill="black"/>
<path d="M31.5436 39C31.315 39 31.1283 38.93 30.9836 38.79C30.8436 38.6453 30.7736 38.454 30.7736 38.216V36.256H29.9056V35.528H30.7736V34.45H31.6556V35.528H32.6076V36.256H31.6556V38.062C31.6556 38.202 31.721 38.272 31.8516 38.272H32.5236V39H31.5436Z" fill="black"/>
<path d="M33.784 40.4V39.63H35.674C35.8047 39.63 35.87 39.56 35.87 39.42V38.545H35.744C35.7067 38.6243 35.6483 38.7037 35.569 38.783C35.4897 38.8623 35.3824 38.9277 35.247 38.979C35.1117 39.0303 34.939 39.056 34.729 39.056C34.4583 39.056 34.2203 38.9953 34.015 38.874C33.8143 38.748 33.658 38.5753 33.546 38.356C33.434 38.1367 33.378 37.8847 33.378 37.6V35.528H34.26V37.53C34.26 37.7913 34.323 37.9873 34.449 38.118C34.5797 38.2487 34.764 38.314 35.002 38.314C35.2727 38.314 35.4827 38.2253 35.632 38.048C35.7813 37.866 35.856 37.614 35.856 37.292V35.528H36.738V39.616C36.738 39.854 36.668 40.043 36.528 40.183C36.388 40.3277 36.2014 40.4 35.968 40.4H33.784Z" fill="black"/>
<path d="M33.8749 11.1566C33.7854 11.0562 33.6586 11 33.5257 11H26.7554C26.6226 11 26.4958 11.0562 26.4062 11.1566C26.3163 11.2566 26.2718 11.3905 26.2829 11.5261L26.3384 12.1933H33.9428L33.9982 11.5261C34.0094 11.3905 33.965 11.2566 33.8749 11.1566Z" fill="black"/>
<path d="M27.3642 24.5094H32.9176L33.8661 13.1115H26.4151L27.3642 24.5094Z" fill="black"/>
<path d="M27.4169 27.0471C27.4169 27.7094 27.942 28.2463 28.5899 28.2463H31.6918C32.3397 28.2463 32.8649 27.7094 32.8649 27.0471V25.5154H27.4169V27.0471Z" fill="black"/>
<path d="M25.5776 23.8925H19.5995L17.196 25.0067C17.1907 25.0091 17.1849 25.0104 17.1796 25.0128V26.1265C17.1796 27.2975 18.1083 28.2463 19.2533 28.2463H23.8933C25.0383 28.2463 25.967 27.2975 25.967 26.1265V24.2906C25.9671 24.0707 25.7928 23.8925 25.5776 23.8925Z" fill="black"/>
<path d="M23.8085 21.9418L21.3945 23.0609H24.5161C24.6154 23.0609 24.7073 23.0076 24.7595 22.9215C24.8109 22.8342 24.8149 22.7267 24.77 22.6359C24.6143 22.3261 24.3401 22.0966 24.0125 22.001L23.8085 21.9418Z" fill="black"/>
<path d="M24.1985 20.2888C24.2348 20.1896 24.2313 20.0802 24.1886 19.984L24.0845 19.7508C23.9313 19.4053 23.598 19.2008 23.2494 19.2008C23.1231 19.2008 22.9944 19.2283 22.8717 19.2845L16.538 22.2203C16.0773 22.4338 15.8732 22.9892 16.0819 23.4602L16.1854 23.6939C16.2282 23.7896 16.3064 23.865 16.4031 23.902C16.4468 23.9187 16.4936 23.9271 16.5398 23.9271C16.5954 23.9271 16.6505 23.9152 16.7013 23.8919L23.9945 20.5113C24.0887 20.4676 24.1617 20.388 24.1985 20.2888Z" fill="black"/>
</svg>
