<svg width="50" height="50" viewBox="0 0 50 50" fill="none" xmlns="http://www.w3.org/2000/svg">
<path d="M0 8C0 3.58172 3.58172 0 8 0H42C46.4183 0 50 3.58172 50 8V42C50 46.4183 46.4183 50 42 50H8C3.58172 50 0 46.4183 0 42V8Z" fill="#F5F5F5"/>
<path d="M14.9485 39V38.188H15.5925V34.912H14.9485V34.1H17.4685C17.7671 34.1 18.0261 34.1513 18.2455 34.254C18.4695 34.352 18.6421 34.4943 18.7635 34.681C18.8895 34.863 18.9525 35.0823 18.9525 35.339V35.409C18.9525 35.633 18.9105 35.8173 18.8265 35.962C18.7425 36.102 18.6421 36.2117 18.5255 36.291C18.4135 36.3657 18.3061 36.4193 18.2035 36.452V36.578C18.3061 36.606 18.4181 36.6597 18.5395 36.739C18.6608 36.8137 18.7635 36.9233 18.8475 37.068C18.9361 37.2127 18.9805 37.4017 18.9805 37.635V37.705C18.9805 37.9757 18.9175 38.209 18.7915 38.405C18.6655 38.5963 18.4905 38.7433 18.2665 38.846C18.0471 38.9487 17.7905 39 17.4965 39H14.9485ZM16.5165 38.16H17.3845C17.5851 38.16 17.7461 38.111 17.8675 38.013C17.9935 37.915 18.0565 37.775 18.0565 37.593V37.523C18.0565 37.341 17.9958 37.201 17.8745 37.103C17.7531 37.005 17.5898 36.956 17.3845 36.956H16.5165V38.16ZM16.5165 36.116H17.3705C17.5618 36.116 17.7181 36.067 17.8395 35.969C17.9655 35.871 18.0285 35.7357 18.0285 35.563V35.493C18.0285 35.3157 17.9678 35.1803 17.8465 35.087C17.7251 34.989 17.5665 34.94 17.3705 34.94H16.5165V36.116Z" fill="black"/>
<path d="M21.4169 39.098C21.0716 39.098 20.7612 39.028 20.4859 38.888C20.2106 38.748 19.9936 38.545 19.8349 38.279C19.6762 38.013 19.5969 37.6933 19.5969 37.32V37.208C19.5969 36.8347 19.6762 36.515 19.8349 36.249C19.9936 35.983 20.2106 35.78 20.4859 35.64C20.7612 35.5 21.0716 35.43 21.4169 35.43C21.7622 35.43 22.0726 35.5 22.3479 35.64C22.6232 35.78 22.8402 35.983 22.9989 36.249C23.1576 36.515 23.2369 36.8347 23.2369 37.208V37.32C23.2369 37.6933 23.1576 38.013 22.9989 38.279C22.8402 38.545 22.6232 38.748 22.3479 38.888C22.0726 39.028 21.7622 39.098 21.4169 39.098ZM21.4169 38.314C21.6876 38.314 21.9116 38.2277 22.0889 38.055C22.2662 37.8777 22.3549 37.6257 22.3549 37.299V37.229C22.3549 36.9023 22.2662 36.6527 22.0889 36.48C21.9162 36.3027 21.6922 36.214 21.4169 36.214C21.1462 36.214 20.9222 36.3027 20.7449 36.48C20.5676 36.6527 20.4789 36.9023 20.4789 37.229V37.299C20.4789 37.6257 20.5676 37.8777 20.7449 38.055C20.9222 38.2277 21.1462 38.314 21.4169 38.314Z" fill="black"/>
<path d="M25.703 39.098C25.3577 39.098 25.0474 39.028 24.772 38.888C24.4967 38.748 24.2797 38.545 24.121 38.279C23.9624 38.013 23.883 37.6933 23.883 37.32V37.208C23.883 36.8347 23.9624 36.515 24.121 36.249C24.2797 35.983 24.4967 35.78 24.772 35.64C25.0474 35.5 25.3577 35.43 25.703 35.43C26.0484 35.43 26.3587 35.5 26.634 35.64C26.9094 35.78 27.1264 35.983 27.285 36.249C27.4437 36.515 27.523 36.8347 27.523 37.208V37.32C27.523 37.6933 27.4437 38.013 27.285 38.279C27.1264 38.545 26.9094 38.748 26.634 38.888C26.3587 39.028 26.0484 39.098 25.703 39.098ZM25.703 38.314C25.9737 38.314 26.1977 38.2277 26.375 38.055C26.5524 37.8777 26.641 37.6257 26.641 37.299V37.229C26.641 36.9023 26.5524 36.6527 26.375 36.48C26.2024 36.3027 25.9784 36.214 25.703 36.214C25.4324 36.214 25.2084 36.3027 25.031 36.48C24.8537 36.6527 24.765 36.9023 24.765 37.229V37.299C24.765 37.6257 24.8537 37.8777 25.031 38.055C25.2084 38.2277 25.4324 38.314 25.703 38.314Z" fill="black"/>
<path d="M28.3372 39V34.1H29.2192V36.809H29.3452L30.4932 35.528H31.6412L30.0382 37.208L31.6972 39H30.5632L29.3452 37.621H29.2192V39H28.3372Z" fill="black"/>
<path d="M33.6346 39.098C33.182 39.098 32.811 39 32.5216 38.804C32.2323 38.608 32.0573 38.328 31.9966 37.964L32.8086 37.754C32.8413 37.9173 32.895 38.0457 32.9696 38.139C33.049 38.2323 33.1446 38.3 33.2566 38.342C33.3733 38.3793 33.4993 38.398 33.6346 38.398C33.84 38.398 33.9916 38.363 34.0896 38.293C34.1876 38.2183 34.2366 38.1273 34.2366 38.02C34.2366 37.9127 34.19 37.831 34.0966 37.775C34.0033 37.7143 33.854 37.6653 33.6486 37.628L33.4526 37.593C33.21 37.5463 32.9883 37.4833 32.7876 37.404C32.587 37.32 32.426 37.2057 32.3046 37.061C32.1833 36.9163 32.1226 36.7297 32.1226 36.501C32.1226 36.1557 32.2486 35.892 32.5006 35.71C32.7526 35.5233 33.084 35.43 33.4946 35.43C33.882 35.43 34.204 35.5163 34.4606 35.689C34.7173 35.8617 34.8853 36.088 34.9646 36.368L34.1456 36.62C34.1083 36.4427 34.0313 36.3167 33.9146 36.242C33.8026 36.1673 33.6626 36.13 33.4946 36.13C33.3266 36.13 33.1983 36.1603 33.1096 36.221C33.021 36.277 32.9766 36.3563 32.9766 36.459C32.9766 36.571 33.0233 36.655 33.1166 36.711C33.21 36.7623 33.336 36.802 33.4946 36.83L33.6906 36.865C33.952 36.9117 34.1876 36.9747 34.3976 37.054C34.6123 37.1287 34.7803 37.2383 34.9016 37.383C35.0276 37.523 35.0906 37.7143 35.0906 37.957C35.0906 38.321 34.9576 38.6033 34.6916 38.804C34.4303 39 34.078 39.098 33.6346 39.098Z" fill="black"/>
<path d="M30.7045 11.104C30.5193 10.9555 30.2813 10.9173 30.0669 11.0025L22.0929 14.1568C21.0874 14.1028 20.4026 13.7915 19.9306 13.4442C19.7885 13.3398 19.7577 13.2783 19.7577 13.2783C19.6726 13.1821 19.6397 13.0487 19.6639 12.9113C19.6885 12.7739 19.7752 12.6614 19.8921 12.615L27.0284 9.7924C27.1356 9.7495 27.2547 9.76861 27.347 9.84283C27.3552 9.84981 27.3624 9.85908 27.3701 9.86602L27.8923 9.65265C27.86 9.45029 27.763 9.26705 27.6117 9.14645C27.4265 8.99742 27.1884 8.95975 26.974 9.0444L19.4694 12.0131C19.1883 12.1244 19 12.4248 19 12.7611V26.0419C19 26.0419 19.4945 27.8602 22.0928 28L30.0607 24.8481C30.623 24.6254 31 24.0253 31 23.3515V11.7505C31 11.4936 30.8898 11.2524 30.7045 11.104Z" fill="black"/>
<path d="M20.6503 12.9432L20.9668 13.1136L28.177 10.2609L27.86 10.0904L20.6503 12.9432Z" fill="black"/>
<path d="M21.8374 13.5777L29.0383 10.7284L28.7233 10.5574L21.5208 13.4072L21.8374 13.5777Z" fill="black"/>
</svg>
