<svg width="33" height="32" viewBox="0 0 33 32" fill="none" xmlns="http://www.w3.org/2000/svg">
<path fill-rule="evenodd" clip-rule="evenodd" d="M31.3048 7.32697C31.3048 10.8206 28.4715 13.6539 24.9778 13.6539C21.4842 13.6539 18.6524 10.8206 18.6524 7.32697C18.6524 3.83334 21.4842 1 24.9778 1C28.4715 1 31.3048 3.83334 31.3048 7.32697Z" stroke="white" stroke-width="1.5" stroke-linecap="round" stroke-linejoin="round"/>
<path fill-rule="evenodd" clip-rule="evenodd" d="M13.6524 7.32697C13.6524 10.8206 10.8206 13.6539 7.32542 13.6539C3.83334 13.6539 1 10.8206 1 7.32697C1 3.83334 3.83334 1 7.32542 1C10.8206 1 13.6524 3.83334 13.6524 7.32697Z" stroke="white" stroke-width="1.5" stroke-linecap="round" stroke-linejoin="round"/>
<path fill-rule="evenodd" clip-rule="evenodd" d="M31.3048 23.9809C31.3048 27.4745 28.4715 30.3063 24.9778 30.3063C21.4842 30.3063 18.6524 27.4745 18.6524 23.9809C18.6524 20.4873 21.4842 17.6539 24.9778 17.6539C28.4715 17.6539 31.3048 20.4873 31.3048 23.9809Z" stroke="white" stroke-width="1.5" stroke-linecap="round" stroke-linejoin="round"/>
<path fill-rule="evenodd" clip-rule="evenodd" d="M13.6524 23.9809C13.6524 27.4745 10.8206 30.3063 7.32542 30.3063C3.83334 30.3063 1 27.4745 1 23.9809C1 20.4873 3.83334 17.6539 7.32542 17.6539C10.8206 17.6539 13.6524 20.4873 13.6524 23.9809Z" stroke="white" stroke-width="1.5" stroke-linecap="round" stroke-linejoin="round"/>
</svg>
