<svg width="255" height="23" viewBox="0 0 255 23" fill="none" xmlns="http://www.w3.org/2000/svg">
<path d="M7.18284 18.336C5.10284 18.336 3.45484 17.76 2.23884 16.608C1.02284 15.44 0.414844 13.776 0.414844 11.616V7.584C0.414844 5.424 1.02284 3.768 2.23884 2.616C3.45484 1.448 5.10284 0.863999 7.18284 0.863999C9.24684 0.863999 10.8388 1.432 11.9588 2.568C13.0948 3.688 13.6628 5.232 13.6628 7.2V7.344H10.5428V7.104C10.5428 6.112 10.2628 5.296 9.70284 4.656C9.15884 4.016 8.31884 3.696 7.18284 3.696C6.06284 3.696 5.18284 4.04 4.54284 4.728C3.90284 5.416 3.58284 6.352 3.58284 7.536V11.664C3.58284 12.832 3.90284 13.768 4.54284 14.472C5.18284 15.16 6.06284 15.504 7.18284 15.504C8.31884 15.504 9.15884 15.184 9.70284 14.544C10.2628 13.888 10.5428 13.072 10.5428 12.096V11.664H13.6628V12C13.6628 13.968 13.0948 15.52 11.9588 16.656C10.8388 17.776 9.24684 18.336 7.18284 18.336ZM16.3402 18V1.2H19.3642V7.56H19.7962C19.9242 7.304 20.1242 7.048 20.3962 6.792C20.6682 6.536 21.0282 6.328 21.4762 6.168C21.9402 5.992 22.5242 5.904 23.2282 5.904C24.1562 5.904 24.9642 6.12 25.6522 6.552C26.3562 6.968 26.9002 7.552 27.2842 8.304C27.6682 9.04 27.8602 9.904 27.8602 10.896V18H24.8362V11.136C24.8362 10.24 24.6122 9.568 24.1642 9.12C23.7322 8.672 23.1082 8.448 22.2922 8.448C21.3642 8.448 20.6442 8.76 20.1322 9.384C19.6202 9.992 19.3642 10.848 19.3642 11.952V18H16.3402ZM36.7932 18.336C35.6092 18.336 34.5452 18.096 33.6012 17.616C32.6572 17.136 31.9132 16.44 31.3692 15.528C30.8252 14.616 30.5532 13.52 30.5532 12.24V11.856C30.5532 10.576 30.8252 9.48 31.3692 8.568C31.9132 7.656 32.6572 6.96 33.6012 6.48C34.5452 6 35.6092 5.76 36.7932 5.76C37.9772 5.76 39.0412 6 39.9852 6.48C40.9292 6.96 41.6732 7.656 42.2172 8.568C42.7612 9.48 43.0332 10.576 43.0332 11.856V12.24C43.0332 13.52 42.7612 14.616 42.2172 15.528C41.6732 16.44 40.9292 17.136 39.9852 17.616C39.0412 18.096 37.9772 18.336 36.7932 18.336ZM36.7932 15.648C37.7212 15.648 38.4892 15.352 39.0972 14.76C39.7052 14.152 40.0092 13.288 40.0092 12.168V11.928C40.0092 10.808 39.7052 9.952 39.0972 9.36C38.5052 8.752 37.7372 8.448 36.7932 8.448C35.8652 8.448 35.0972 8.752 34.4892 9.36C33.8812 9.952 33.5772 10.808 33.5772 11.928V12.168C33.5772 13.288 33.8812 14.152 34.4892 14.76C35.0972 15.352 35.8652 15.648 36.7932 15.648ZM51.4885 18.336C50.3045 18.336 49.2405 18.096 48.2965 17.616C47.3525 17.136 46.6085 16.44 46.0645 15.528C45.5205 14.616 45.2485 13.52 45.2485 12.24V11.856C45.2485 10.576 45.5205 9.48 46.0645 8.568C46.6085 7.656 47.3525 6.96 48.2965 6.48C49.2405 6 50.3045 5.76 51.4885 5.76C52.6725 5.76 53.7365 6 54.6805 6.48C55.6245 6.96 56.3685 7.656 56.9125 8.568C57.4565 9.48 57.7285 10.576 57.7285 11.856V12.24C57.7285 13.52 57.4565 14.616 56.9125 15.528C56.3685 16.44 55.6245 17.136 54.6805 17.616C53.7365 18.096 52.6725 18.336 51.4885 18.336ZM51.4885 15.648C52.4165 15.648 53.1845 15.352 53.7925 14.76C54.4005 14.152 54.7045 13.288 54.7045 12.168V11.928C54.7045 10.808 54.4005 9.952 53.7925 9.36C53.2005 8.752 52.4325 8.448 51.4885 8.448C50.5605 8.448 49.7925 8.752 49.1845 9.36C48.5765 9.952 48.2725 10.808 48.2725 11.928V12.168C48.2725 13.288 48.5765 14.152 49.1845 14.76C49.7925 15.352 50.5605 15.648 51.4885 15.648ZM65.4638 18.336C63.9118 18.336 62.6398 18 61.6478 17.328C60.6558 16.656 60.0558 15.696 59.8478 14.448L62.6318 13.728C62.7438 14.288 62.9278 14.728 63.1838 15.048C63.4558 15.368 63.7838 15.6 64.1678 15.744C64.5678 15.872 64.9998 15.936 65.4638 15.936C66.1678 15.936 66.6878 15.816 67.0238 15.576C67.3598 15.32 67.5278 15.008 67.5278 14.64C67.5278 14.272 67.3678 13.992 67.0478 13.8C66.7278 13.592 66.2158 13.424 65.5118 13.296L64.8398 13.176C64.0078 13.016 63.2478 12.8 62.5598 12.528C61.8718 12.24 61.3198 11.848 60.9038 11.352C60.4878 10.856 60.2798 10.216 60.2798 9.432C60.2798 8.248 60.7118 7.344 61.5758 6.72C62.4398 6.08 63.5758 5.76 64.9838 5.76C66.3118 5.76 67.4158 6.056 68.2958 6.648C69.1758 7.24 69.7518 8.016 70.0238 8.976L67.2158 9.84C67.0878 9.232 66.8238 8.8 66.4238 8.544C66.0398 8.288 65.5598 8.16 64.9838 8.16C64.4078 8.16 63.9678 8.264 63.6638 8.472C63.3598 8.664 63.2078 8.936 63.2078 9.288C63.2078 9.672 63.3678 9.96 63.6878 10.152C64.0078 10.328 64.4398 10.464 64.9838 10.56L65.6558 10.68C66.5518 10.84 67.3598 11.056 68.0798 11.328C68.8158 11.584 69.3918 11.96 69.8078 12.456C70.2398 12.936 70.4558 13.592 70.4558 14.424C70.4558 15.672 69.9998 16.64 69.0878 17.328C68.1918 18 66.9838 18.336 65.4638 18.336ZM78.5298 18.336C77.3458 18.336 76.2978 18.088 75.3858 17.592C74.4898 17.08 73.7858 16.368 73.2738 15.456C72.7778 14.528 72.5298 13.44 72.5298 12.192V11.904C72.5298 10.656 72.7778 9.576 73.2738 8.664C73.7698 7.736 74.4658 7.024 75.3618 6.528C76.2578 6.016 77.2978 5.76 78.4818 5.76C79.6498 5.76 80.6658 6.024 81.5298 6.552C82.3938 7.064 83.0658 7.784 83.5458 8.712C84.0258 9.624 84.2658 10.688 84.2658 11.904V12.936H75.6018C75.6338 13.752 75.9378 14.416 76.5138 14.928C77.0898 15.44 77.7938 15.696 78.6258 15.696C79.4738 15.696 80.0978 15.512 80.4978 15.144C80.8978 14.776 81.2018 14.368 81.4098 13.92L83.8818 15.216C83.6578 15.632 83.3298 16.088 82.8978 16.584C82.4818 17.064 81.9218 17.48 81.2178 17.832C80.5138 18.168 79.6178 18.336 78.5298 18.336ZM75.6258 10.68H81.1938C81.1298 9.992 80.8498 9.44 80.3538 9.024C79.8738 8.608 79.2418 8.4 78.4578 8.4C77.6418 8.4 76.9938 8.608 76.5138 9.024C76.0338 9.44 75.7378 9.992 75.6258 10.68ZM99.4831 18.336C97.3711 18.336 95.6911 17.76 94.4431 16.608C93.1951 15.44 92.5711 13.776 92.5711 11.616V7.584C92.5711 5.424 93.1951 3.768 94.4431 2.616C95.6911 1.448 97.3711 0.863999 99.4831 0.863999C101.595 0.863999 103.275 1.448 104.523 2.616C105.771 3.768 106.395 5.424 106.395 7.584V11.616C106.395 13.776 105.771 15.44 104.523 16.608C103.275 17.76 101.595 18.336 99.4831 18.336ZM99.4831 15.504C100.667 15.504 101.587 15.16 102.243 14.472C102.899 13.784 103.227 12.864 103.227 11.712V7.488C103.227 6.336 102.899 5.416 102.243 4.728C101.587 4.04 100.667 3.696 99.4831 3.696C98.3151 3.696 97.3951 4.04 96.7231 4.728C96.0671 5.416 95.7391 6.336 95.7391 7.488V11.712C95.7391 12.864 96.0671 13.784 96.7231 14.472C97.3951 15.16 98.3151 15.504 99.4831 15.504ZM113.806 18.192C112.878 18.192 112.062 17.984 111.358 17.568C110.67 17.136 110.134 16.544 109.75 15.792C109.366 15.04 109.174 14.176 109.174 13.2V6.096H112.198V12.96C112.198 13.856 112.414 14.528 112.846 14.976C113.294 15.424 113.926 15.648 114.742 15.648C115.67 15.648 116.39 15.344 116.902 14.736C117.414 14.112 117.67 13.248 117.67 12.144V6.096H120.694V18H117.718V16.44H117.286C117.094 16.84 116.734 17.232 116.206 17.616C115.678 18 114.878 18.192 113.806 18.192ZM124.059 18V6.096H127.035V7.44H127.467C127.643 6.96 127.931 6.608 128.331 6.384C128.747 6.16 129.227 6.048 129.771 6.048H131.211V8.736H129.723C128.955 8.736 128.323 8.944 127.827 9.36C127.331 9.76 127.083 10.384 127.083 11.232V18H124.059ZM139.572 18V1.2H146.484C147.54 1.2 148.468 1.416 149.268 1.848C150.084 2.264 150.716 2.856 151.164 3.624C151.628 4.392 151.86 5.304 151.86 6.36V6.696C151.86 7.736 151.62 8.648 151.14 9.432C150.676 10.2 150.036 10.8 149.22 11.232C148.42 11.648 147.508 11.856 146.484 11.856H142.74V18H139.572ZM142.74 8.976H146.172C146.924 8.976 147.532 8.768 147.996 8.352C148.46 7.936 148.692 7.368 148.692 6.648V6.408C148.692 5.688 148.46 5.12 147.996 4.704C147.532 4.288 146.924 4.08 146.172 4.08H142.74V8.976ZM157.614 18.336C156.766 18.336 156.006 18.192 155.334 17.904C154.662 17.6 154.126 17.168 153.726 16.608C153.342 16.032 153.15 15.336 153.15 14.52C153.15 13.704 153.342 13.024 153.726 12.48C154.126 11.92 154.67 11.504 155.358 11.232C156.062 10.944 156.862 10.8 157.758 10.8H161.022V10.128C161.022 9.568 160.846 9.112 160.494 8.76C160.142 8.392 159.582 8.208 158.814 8.208C158.062 8.208 157.502 8.384 157.134 8.736C156.766 9.072 156.526 9.512 156.414 10.056L153.63 9.12C153.822 8.512 154.126 7.96 154.542 7.464C154.974 6.952 155.542 6.544 156.246 6.24C156.966 5.92 157.838 5.76 158.862 5.76C160.43 5.76 161.67 6.152 162.582 6.936C163.494 7.72 163.95 8.856 163.95 10.344V14.784C163.95 15.264 164.174 15.504 164.622 15.504H165.582V18H163.566C162.974 18 162.486 17.856 162.102 17.568C161.718 17.28 161.526 16.896 161.526 16.416V16.392H161.07C161.006 16.584 160.862 16.84 160.638 17.16C160.414 17.464 160.062 17.736 159.582 17.976C159.102 18.216 158.446 18.336 157.614 18.336ZM158.142 15.888C158.99 15.888 159.678 15.656 160.206 15.192C160.75 14.712 161.022 14.08 161.022 13.296V13.056H157.974C157.414 13.056 156.974 13.176 156.654 13.416C156.334 13.656 156.174 13.992 156.174 14.424C156.174 14.856 156.342 15.208 156.678 15.48C157.014 15.752 157.502 15.888 158.142 15.888ZM173.151 18.336C171.999 18.336 170.951 18.096 170.007 17.616C169.079 17.136 168.343 16.44 167.799 15.528C167.255 14.616 166.983 13.512 166.983 12.216V11.88C166.983 10.584 167.255 9.48 167.799 8.568C168.343 7.656 169.079 6.96 170.007 6.48C170.951 6 171.999 5.76 173.151 5.76C174.287 5.76 175.263 5.96 176.079 6.36C176.895 6.76 177.551 7.312 178.047 8.016C178.559 8.704 178.895 9.488 179.055 10.368L176.127 10.992C176.063 10.512 175.919 10.08 175.695 9.696C175.471 9.312 175.151 9.008 174.735 8.784C174.335 8.56 173.831 8.448 173.223 8.448C172.615 8.448 172.063 8.584 171.567 8.856C171.087 9.112 170.703 9.504 170.415 10.032C170.143 10.544 170.007 11.176 170.007 11.928V12.168C170.007 12.92 170.143 13.56 170.415 14.088C170.703 14.6 171.087 14.992 171.567 15.264C172.063 15.52 172.615 15.648 173.223 15.648C174.135 15.648 174.823 15.416 175.287 14.952C175.767 14.472 176.071 13.848 176.199 13.08L179.127 13.776C178.919 14.624 178.559 15.4 178.047 16.104C177.551 16.792 176.895 17.336 176.079 17.736C175.263 18.136 174.287 18.336 173.151 18.336ZM181.621 18V1.2H184.645V10.488H185.077L189.013 6.096H192.949L187.453 11.856L193.141 18H189.253L185.077 13.272H184.645V18H181.621ZM198.63 18.336C197.782 18.336 197.022 18.192 196.35 17.904C195.678 17.6 195.142 17.168 194.742 16.608C194.358 16.032 194.166 15.336 194.166 14.52C194.166 13.704 194.358 13.024 194.742 12.48C195.142 11.92 195.686 11.504 196.374 11.232C197.078 10.944 197.878 10.8 198.774 10.8H202.038V10.128C202.038 9.568 201.862 9.112 201.51 8.76C201.158 8.392 200.598 8.208 199.83 8.208C199.078 8.208 198.518 8.384 198.15 8.736C197.782 9.072 197.542 9.512 197.43 10.056L194.646 9.12C194.838 8.512 195.142 7.96 195.558 7.464C195.99 6.952 196.558 6.544 197.262 6.24C197.982 5.92 198.854 5.76 199.878 5.76C201.446 5.76 202.686 6.152 203.598 6.936C204.51 7.72 204.966 8.856 204.966 10.344V14.784C204.966 15.264 205.19 15.504 205.638 15.504H206.598V18H204.582C203.99 18 203.502 17.856 203.118 17.568C202.734 17.28 202.542 16.896 202.542 16.416V16.392H202.086C202.022 16.584 201.878 16.84 201.654 17.16C201.43 17.464 201.078 17.736 200.598 17.976C200.118 18.216 199.462 18.336 198.63 18.336ZM199.158 15.888C200.006 15.888 200.694 15.656 201.222 15.192C201.766 14.712 202.038 14.08 202.038 13.296V13.056H198.99C198.43 13.056 197.99 13.176 197.67 13.416C197.35 13.656 197.19 13.992 197.19 14.424C197.19 14.856 197.358 15.208 197.694 15.48C198.03 15.752 198.518 15.888 199.158 15.888ZM207.999 12.096V11.712C207.999 10.464 208.247 9.4 208.743 8.52C209.239 7.624 209.895 6.944 210.711 6.48C211.543 6 212.447 5.76 213.423 5.76C214.511 5.76 215.335 5.952 215.895 6.336C216.455 6.72 216.863 7.12 217.119 7.536H217.551V6.096H220.527V20.112C220.527 20.928 220.287 21.576 219.807 22.056C219.327 22.552 218.687 22.8 217.887 22.8H209.919V20.16H216.831C217.279 20.16 217.503 19.92 217.503 19.44V16.344H217.071C216.911 16.6 216.687 16.864 216.399 17.136C216.111 17.392 215.727 17.608 215.247 17.784C214.767 17.96 214.159 18.048 213.423 18.048C212.447 18.048 211.543 17.816 210.711 17.352C209.895 16.872 209.239 16.192 208.743 15.312C208.247 14.416 207.999 13.344 207.999 12.096ZM214.287 15.408C215.215 15.408 215.991 15.112 216.615 14.52C217.239 13.928 217.551 13.096 217.551 12.024V11.784C217.551 10.696 217.239 9.864 216.615 9.288C216.007 8.696 215.231 8.4 214.287 8.4C213.359 8.4 212.583 8.696 211.959 9.288C211.335 9.864 211.023 10.696 211.023 11.784V12.024C211.023 13.096 211.335 13.928 211.959 14.52C212.583 15.112 213.359 15.408 214.287 15.408ZM229.303 18.336C228.119 18.336 227.071 18.088 226.159 17.592C225.263 17.08 224.559 16.368 224.047 15.456C223.551 14.528 223.303 13.44 223.303 12.192V11.904C223.303 10.656 223.551 9.576 224.047 8.664C224.543 7.736 225.239 7.024 226.135 6.528C227.031 6.016 228.071 5.76 229.255 5.76C230.423 5.76 231.439 6.024 232.303 6.552C233.167 7.064 233.839 7.784 234.319 8.712C234.799 9.624 235.039 10.688 235.039 11.904V12.936H226.375C226.407 13.752 226.711 14.416 227.287 14.928C227.863 15.44 228.567 15.696 229.399 15.696C230.247 15.696 230.871 15.512 231.271 15.144C231.671 14.776 231.975 14.368 232.183 13.92L234.655 15.216C234.431 15.632 234.103 16.088 233.671 16.584C233.255 17.064 232.695 17.48 231.991 17.832C231.287 18.168 230.391 18.336 229.303 18.336ZM226.399 10.68H231.967C231.903 9.992 231.623 9.44 231.127 9.024C230.647 8.608 230.015 8.4 229.231 8.4C228.415 8.4 227.767 8.608 227.287 9.024C226.807 9.44 226.511 9.992 226.399 10.68ZM242.675 18.336C241.123 18.336 239.851 18 238.859 17.328C237.867 16.656 237.267 15.696 237.059 14.448L239.843 13.728C239.955 14.288 240.139 14.728 240.395 15.048C240.667 15.368 240.995 15.6 241.379 15.744C241.779 15.872 242.211 15.936 242.675 15.936C243.379 15.936 243.899 15.816 244.235 15.576C244.571 15.32 244.739 15.008 244.739 14.64C244.739 14.272 244.579 13.992 244.259 13.8C243.939 13.592 243.427 13.424 242.723 13.296L242.051 13.176C241.219 13.016 240.459 12.8 239.771 12.528C239.083 12.24 238.531 11.848 238.115 11.352C237.699 10.856 237.491 10.216 237.491 9.432C237.491 8.248 237.923 7.344 238.787 6.72C239.651 6.08 240.787 5.76 242.195 5.76C243.523 5.76 244.627 6.056 245.507 6.648C246.387 7.24 246.963 8.016 247.235 8.976L244.427 9.84C244.299 9.232 244.035 8.8 243.635 8.544C243.251 8.288 242.771 8.16 242.195 8.16C241.619 8.16 241.179 8.264 240.875 8.472C240.571 8.664 240.419 8.936 240.419 9.288C240.419 9.672 240.579 9.96 240.899 10.152C241.219 10.328 241.651 10.464 242.195 10.56L242.867 10.68C243.763 10.84 244.571 11.056 245.291 11.328C246.027 11.584 246.603 11.96 247.019 12.456C247.451 12.936 247.667 13.592 247.667 14.424C247.667 15.672 247.211 16.64 246.299 17.328C245.403 18 244.195 18.336 242.675 18.336ZM250.677 12.48V1.2H253.749V12.48H250.677ZM252.237 18.336C251.581 18.336 251.029 18.128 250.581 17.712C250.149 17.28 249.933 16.728 249.933 16.056C249.933 15.384 250.149 14.84 250.581 14.424C251.029 13.992 251.581 13.776 252.237 13.776C252.877 13.776 253.413 13.992 253.845 14.424C254.277 14.84 254.493 15.384 254.493 16.056C254.493 16.728 254.277 17.28 253.845 17.712C253.413 18.128 252.877 18.336 252.237 18.336Z" fill="black"/>
</svg>
