<svg width="226" height="27" viewBox="0 0 226 27" fill="none" xmlns="http://www.w3.org/2000/svg">
<path d="M4.15616 9.168C3.15616 9.168 2.36016 8.88 1.76816 8.304C1.17616 7.72 0.880156 6.872 0.880156 5.76V3.84C0.880156 2.728 1.17616 1.884 1.76816 1.308C2.36016 0.724 3.15616 0.431999 4.15616 0.431999C5.14816 0.431999 5.90816 0.707999 6.43616 1.26C6.97216 1.812 7.24016 2.568 7.24016 3.528V3.588H6.24416V3.492C6.24416 2.86 6.07216 2.344 5.72816 1.944C5.39216 1.536 4.86816 1.332 4.15616 1.332C3.44416 1.332 2.88816 1.552 2.48816 1.992C2.08816 2.424 1.88816 3.032 1.88816 3.816V5.784C1.88816 6.568 2.08816 7.18 2.48816 7.62C2.88816 8.052 3.44416 8.268 4.15616 8.268C4.86816 8.268 5.39216 8.068 5.72816 7.668C6.07216 7.26 6.24416 6.74 6.24416 6.108V5.916H7.24016V6.072C7.24016 7.032 6.97216 7.788 6.43616 8.34C5.90816 8.892 5.14816 9.168 4.15616 9.168ZM8.85538 9V0.599999H9.80338V4.068H9.97138C10.0514 3.892 10.1714 3.728 10.3314 3.576C10.4994 3.416 10.7114 3.284 10.9674 3.18C11.2314 3.076 11.5634 3.024 11.9634 3.024C12.4034 3.024 12.7954 3.12 13.1394 3.312C13.4914 3.496 13.7714 3.768 13.9794 4.128C14.1874 4.48 14.2914 4.92 14.2914 5.448V9H13.3434V5.52C13.3434 4.936 13.1954 4.512 12.8994 4.248C12.6114 3.984 12.2194 3.852 11.7234 3.852C11.1554 3.852 10.6914 4.036 10.3314 4.404C9.97938 4.772 9.80338 5.32 9.80338 6.048V9H8.85538ZM18.9268 9.168C18.3348 9.168 17.8108 9.044 17.3548 8.796C16.9068 8.548 16.5548 8.2 16.2988 7.752C16.0508 7.296 15.9268 6.76 15.9268 6.144V5.988C15.9268 5.38 16.0508 4.848 16.2988 4.392C16.5548 3.936 16.9068 3.584 17.3548 3.336C17.8108 3.088 18.3348 2.964 18.9268 2.964C19.5188 2.964 20.0388 3.088 20.4868 3.336C20.9428 3.584 21.2948 3.936 21.5428 4.392C21.7988 4.848 21.9268 5.38 21.9268 5.988V6.144C21.9268 6.76 21.7988 7.296 21.5428 7.752C21.2948 8.2 20.9428 8.548 20.4868 8.796C20.0388 9.044 19.5188 9.168 18.9268 9.168ZM18.9268 8.316C19.5508 8.316 20.0468 8.12 20.4148 7.728C20.7908 7.328 20.9788 6.792 20.9788 6.12V6.012C20.9788 5.34 20.7908 4.808 20.4148 4.416C20.0468 4.016 19.5508 3.816 18.9268 3.816C18.3108 3.816 17.8148 4.016 17.4388 4.416C17.0628 4.808 16.8748 5.34 16.8748 6.012V6.12C16.8748 6.792 17.0628 7.328 17.4388 7.728C17.8148 8.12 18.3108 8.316 18.9268 8.316ZM26.3447 9.168C25.7527 9.168 25.2287 9.044 24.7727 8.796C24.3247 8.548 23.9727 8.2 23.7167 7.752C23.4687 7.296 23.3447 6.76 23.3447 6.144V5.988C23.3447 5.38 23.4687 4.848 23.7167 4.392C23.9727 3.936 24.3247 3.584 24.7727 3.336C25.2287 3.088 25.7527 2.964 26.3447 2.964C26.9367 2.964 27.4567 3.088 27.9047 3.336C28.3607 3.584 28.7127 3.936 28.9607 4.392C29.2167 4.848 29.3447 5.38 29.3447 5.988V6.144C29.3447 6.76 29.2167 7.296 28.9607 7.752C28.7127 8.2 28.3607 8.548 27.9047 8.796C27.4567 9.044 26.9367 9.168 26.3447 9.168ZM26.3447 8.316C26.9687 8.316 27.4647 8.12 27.8327 7.728C28.2087 7.328 28.3967 6.792 28.3967 6.12V6.012C28.3967 5.34 28.2087 4.808 27.8327 4.416C27.4647 4.016 26.9687 3.816 26.3447 3.816C25.7287 3.816 25.2327 4.016 24.8567 4.416C24.4807 4.808 24.2927 5.34 24.2927 6.012V6.12C24.2927 6.792 24.4807 7.328 24.8567 7.728C25.2327 8.12 25.7287 8.316 26.3447 8.316ZM33.4147 9.168C32.6867 9.168 32.0707 9 31.5667 8.664C31.0707 8.328 30.7707 7.796 30.6667 7.068L31.5667 6.864C31.6307 7.248 31.7507 7.552 31.9267 7.776C32.1027 7.992 32.3187 8.148 32.5747 8.244C32.8387 8.332 33.1187 8.376 33.4147 8.376C33.8547 8.376 34.2027 8.288 34.4587 8.112C34.7147 7.936 34.8427 7.7 34.8427 7.404C34.8427 7.1 34.7187 6.888 34.4707 6.768C34.2307 6.64 33.8987 6.536 33.4747 6.456L32.9827 6.372C32.6067 6.308 32.2627 6.208 31.9507 6.072C31.6387 5.936 31.3907 5.752 31.2067 5.52C31.0227 5.288 30.9307 4.996 30.9307 4.644C30.9307 4.116 31.1347 3.704 31.5427 3.408C31.9507 3.112 32.4907 2.964 33.1627 2.964C33.8267 2.964 34.3627 3.116 34.7707 3.42C35.1867 3.716 35.4547 4.136 35.5747 4.68L34.6867 4.908C34.6147 4.484 34.4427 4.188 34.1707 4.02C33.8987 3.844 33.5627 3.756 33.1627 3.756C32.7627 3.756 32.4467 3.832 32.2147 3.984C31.9827 4.128 31.8667 4.344 31.8667 4.632C31.8667 4.912 31.9747 5.12 32.1907 5.256C32.4147 5.384 32.7107 5.48 33.0787 5.544L33.5707 5.628C33.9867 5.7 34.3587 5.8 34.6867 5.928C35.0227 6.048 35.2867 6.224 35.4787 6.456C35.6787 6.688 35.7787 6.992 35.7787 7.368C35.7787 7.944 35.5627 8.388 35.1307 8.7C34.7067 9.012 34.1347 9.168 33.4147 9.168ZM40.0668 9.168C39.4748 9.168 38.9548 9.044 38.5068 8.796C38.0588 8.54 37.7108 8.184 37.4628 7.728C37.2148 7.272 37.0908 6.744 37.0908 6.144V6C37.0908 5.392 37.2148 4.86 37.4628 4.404C37.7108 3.948 38.0548 3.596 38.4948 3.348C38.9348 3.092 39.4388 2.964 40.0068 2.964C40.5588 2.964 41.0468 3.084 41.4708 3.324C41.8948 3.556 42.2268 3.892 42.4668 4.332C42.7068 4.772 42.8268 5.288 42.8268 5.88V6.312H38.0388C38.0628 6.944 38.2668 7.44 38.6508 7.8C39.0348 8.152 39.5148 8.328 40.0908 8.328C40.5948 8.328 40.9828 8.212 41.2548 7.98C41.5268 7.748 41.7348 7.472 41.8788 7.152L42.6948 7.548C42.5748 7.796 42.4068 8.044 42.1908 8.292C41.9828 8.54 41.7068 8.748 41.3628 8.916C41.0268 9.084 40.5948 9.168 40.0668 9.168ZM38.0508 5.532H41.8668C41.8348 4.988 41.6468 4.564 41.3028 4.26C40.9668 3.956 40.5348 3.804 40.0068 3.804C39.4708 3.804 39.0308 3.956 38.6868 4.26C38.3428 4.564 38.1308 4.988 38.0508 5.532ZM48.3784 9L47.2024 3.132H48.1624L49.1344 8.364H49.3024L50.5864 3.132H52.1584L53.4424 8.364H53.6104L54.5824 3.132H55.5424L54.3664 9H52.7464L51.4504 3.768H51.2944L49.9984 9H48.3784ZM57.1718 9V0.599999H58.1198V4.068H58.2878C58.3678 3.892 58.4878 3.728 58.6478 3.576C58.8158 3.416 59.0278 3.284 59.2838 3.18C59.5478 3.076 59.8798 3.024 60.2798 3.024C60.7198 3.024 61.1118 3.12 61.4558 3.312C61.8078 3.496 62.0878 3.768 62.2958 4.128C62.5038 4.48 62.6078 4.92 62.6078 5.448V9H61.6598V5.52C61.6598 4.936 61.5118 4.512 61.2158 4.248C60.9278 3.984 60.5358 3.852 60.0398 3.852C59.4718 3.852 59.0078 4.036 58.6478 4.404C58.2958 4.772 58.1198 5.32 58.1198 6.048V9H57.1718ZM64.5312 9V3.132H65.4792V9H64.5312ZM65.0112 2.22C64.8032 2.22 64.6272 2.152 64.4832 2.016C64.3472 1.88 64.2792 1.708 64.2792 1.5C64.2792 1.284 64.3472 1.108 64.4832 0.972C64.6272 0.835999 64.8032 0.767999 65.0112 0.767999C65.2192 0.767999 65.3912 0.835999 65.5272 0.972C65.6632 1.108 65.7312 1.284 65.7312 1.5C65.7312 1.708 65.6632 1.88 65.5272 2.016C65.3912 2.152 65.2192 2.22 65.0112 2.22ZM70.1726 9.168C69.6046 9.168 69.0926 9.048 68.6366 8.808C68.1886 8.56 67.8326 8.208 67.5686 7.752C67.3126 7.296 67.1846 6.756 67.1846 6.132V6C67.1846 5.368 67.3126 4.828 67.5686 4.38C67.8326 3.924 68.1886 3.576 68.6366 3.336C69.0926 3.088 69.6046 2.964 70.1726 2.964C70.7326 2.964 71.2086 3.068 71.6006 3.276C72.0006 3.484 72.3126 3.76 72.5366 4.104C72.7686 4.448 72.9166 4.816 72.9806 5.208L72.0566 5.4C72.0166 5.112 71.9206 4.848 71.7686 4.608C71.6246 4.368 71.4206 4.176 71.1566 4.032C70.8926 3.888 70.5686 3.816 70.1846 3.816C69.7926 3.816 69.4406 3.904 69.1286 4.08C68.8246 4.256 68.5806 4.508 68.3966 4.836C68.2206 5.164 68.1326 5.556 68.1326 6.012V6.12C68.1326 6.576 68.2206 6.968 68.3966 7.296C68.5806 7.624 68.8246 7.876 69.1286 8.052C69.4406 8.228 69.7926 8.316 70.1846 8.316C70.7686 8.316 71.2126 8.164 71.5166 7.86C71.8286 7.556 72.0206 7.18 72.0926 6.732L73.0286 6.936C72.9406 7.32 72.7806 7.684 72.5486 8.028C72.3166 8.372 72.0006 8.648 71.6006 8.856C71.2086 9.064 70.7326 9.168 70.1726 9.168ZM74.6444 9V0.599999H75.5924V4.068H75.7604C75.8404 3.892 75.9604 3.728 76.1204 3.576C76.2884 3.416 76.5004 3.284 76.7564 3.18C77.0204 3.076 77.3524 3.024 77.7524 3.024C78.1924 3.024 78.5844 3.12 78.9284 3.312C79.2804 3.496 79.5604 3.768 79.7684 4.128C79.9764 4.48 80.0804 4.92 80.0804 5.448V9H79.1324V5.52C79.1324 4.936 78.9844 4.512 78.6884 4.248C78.4004 3.984 78.0084 3.852 77.5124 3.852C76.9444 3.852 76.4804 4.036 76.1204 4.404C75.7684 4.772 75.5924 5.32 75.5924 6.048V9H74.6444ZM85.0858 11.4V3.132H86.0098V4.104H86.1778C86.3298 3.808 86.5738 3.544 86.9098 3.312C87.2538 3.08 87.7298 2.964 88.3378 2.964C88.8418 2.964 89.3018 3.088 89.7178 3.336C90.1418 3.576 90.4778 3.92 90.7258 4.368C90.9818 4.816 91.1098 5.356 91.1098 5.988V6.144C91.1098 6.768 90.9858 7.308 90.7378 7.764C90.4898 8.22 90.1538 8.568 89.7298 8.808C89.3138 9.048 88.8498 9.168 88.3378 9.168C87.9298 9.168 87.5818 9.112 87.2938 9C87.0138 8.896 86.7858 8.76 86.6098 8.592C86.4338 8.424 86.2978 8.252 86.2018 8.076H86.0338V11.4H85.0858ZM88.0858 8.328C88.6938 8.328 89.1858 8.136 89.5618 7.752C89.9458 7.36 90.1378 6.816 90.1378 6.12V6.012C90.1378 5.316 89.9458 4.776 89.5618 4.392C89.1858 4 88.6938 3.804 88.0858 3.804C87.4858 3.804 86.9898 4 86.5978 4.392C86.2138 4.776 86.0218 5.316 86.0218 6.012V6.12C86.0218 6.816 86.2138 7.36 86.5978 7.752C86.9898 8.136 87.4858 8.328 88.0858 8.328ZM92.8085 9V0.599999H93.7565V9H92.8085ZM97.5499 9.168C97.1419 9.168 96.7699 9.096 96.4339 8.952C96.0979 8.808 95.8339 8.6 95.6419 8.328C95.4499 8.056 95.3539 7.724 95.3539 7.332C95.3539 6.932 95.4499 6.604 95.6419 6.348C95.8339 6.084 96.0979 5.888 96.4339 5.76C96.7699 5.624 97.1459 5.556 97.5619 5.556H99.5419V5.124C99.5419 4.708 99.4179 4.38 99.1699 4.14C98.9299 3.9 98.5699 3.78 98.0899 3.78C97.6179 3.78 97.2499 3.896 96.9859 4.128C96.7219 4.352 96.5419 4.656 96.4459 5.04L95.5579 4.752C95.6539 4.424 95.8059 4.128 96.0139 3.864C96.2219 3.592 96.4979 3.376 96.8419 3.216C97.1939 3.048 97.6139 2.964 98.1019 2.964C98.8539 2.964 99.4379 3.16 99.8539 3.552C100.27 3.936 100.478 4.48 100.478 5.184V7.836C100.478 8.076 100.59 8.196 100.814 8.196H101.354V9H100.526C100.262 9 100.05 8.928 99.8899 8.784C99.7299 8.632 99.6499 8.432 99.6499 8.184V8.124H99.5059C99.4179 8.276 99.2979 8.436 99.1459 8.604C99.0019 8.764 98.8019 8.896 98.5459 9C98.2899 9.112 97.9579 9.168 97.5499 9.168ZM97.6579 8.352C98.2179 8.352 98.6699 8.188 99.0139 7.86C99.3659 7.524 99.5419 7.056 99.5419 6.456V6.324H97.5979C97.2219 6.324 96.9099 6.408 96.6619 6.576C96.4219 6.736 96.3019 6.98 96.3019 7.308C96.3019 7.636 96.4259 7.892 96.6739 8.076C96.9299 8.26 97.2579 8.352 97.6579 8.352ZM104.426 9C104.09 9 103.83 8.908 103.646 8.724C103.47 8.54 103.382 8.288 103.382 7.968V3.96H101.618V3.132H103.382V1.044H104.33V3.132H106.25V3.96H104.33V7.824C104.33 8.064 104.446 8.184 104.678 8.184H105.986V9H104.426ZM108.574 9V3.96H106.774V3.132H108.574V1.632C108.574 1.312 108.662 1.06 108.838 0.875999C109.022 0.691999 109.282 0.599999 109.618 0.599999H111.094V1.416H109.882C109.642 1.416 109.522 1.536 109.522 1.776V3.132H111.37V3.96H109.522V9H108.574ZM115.149 9.168C114.557 9.168 114.033 9.044 113.577 8.796C113.129 8.548 112.777 8.2 112.521 7.752C112.273 7.296 112.149 6.76 112.149 6.144V5.988C112.149 5.38 112.273 4.848 112.521 4.392C112.777 3.936 113.129 3.584 113.577 3.336C114.033 3.088 114.557 2.964 115.149 2.964C115.741 2.964 116.261 3.088 116.709 3.336C117.165 3.584 117.517 3.936 117.765 4.392C118.021 4.848 118.149 5.38 118.149 5.988V6.144C118.149 6.76 118.021 7.296 117.765 7.752C117.517 8.2 117.165 8.548 116.709 8.796C116.261 9.044 115.741 9.168 115.149 9.168ZM115.149 8.316C115.773 8.316 116.269 8.12 116.637 7.728C117.013 7.328 117.201 6.792 117.201 6.12V6.012C117.201 5.34 117.013 4.808 116.637 4.416C116.269 4.016 115.773 3.816 115.149 3.816C114.533 3.816 114.037 4.016 113.661 4.416C113.285 4.808 113.097 5.34 113.097 6.012V6.12C113.097 6.792 113.285 7.328 113.661 7.728C114.037 8.12 114.533 8.316 115.149 8.316ZM119.855 9V3.132H120.779V3.852H120.947C121.051 3.596 121.211 3.408 121.427 3.288C121.643 3.168 121.927 3.108 122.279 3.108H122.975V3.972H122.219C121.795 3.972 121.451 4.092 121.187 4.332C120.931 4.564 120.803 4.928 120.803 5.424V9H119.855ZM124.379 9V3.132H125.303V3.864H125.471C125.583 3.656 125.767 3.464 126.023 3.288C126.279 3.112 126.639 3.024 127.103 3.024C127.559 3.024 127.927 3.124 128.207 3.324C128.495 3.524 128.703 3.768 128.831 4.056H128.999C129.135 3.768 129.339 3.524 129.611 3.324C129.891 3.124 130.279 3.024 130.775 3.024C131.167 3.024 131.511 3.104 131.807 3.264C132.103 3.424 132.335 3.656 132.503 3.96C132.679 4.256 132.767 4.612 132.767 5.028V9H131.819V5.112C131.819 4.72 131.703 4.412 131.471 4.188C131.247 3.956 130.931 3.84 130.523 3.84C130.091 3.84 129.735 3.98 129.455 4.26C129.183 4.54 129.047 4.944 129.047 5.472V9H128.099V5.112C128.099 4.72 127.983 4.412 127.751 4.188C127.527 3.956 127.211 3.84 126.803 3.84C126.371 3.84 126.015 3.98 125.735 4.26C125.463 4.54 125.327 4.944 125.327 5.472V9H124.379ZM138.493 11.4V10.56H141.853C142.085 10.56 142.201 10.44 142.201 10.2V8.064H142.033C141.953 8.232 141.829 8.4 141.661 8.568C141.501 8.728 141.289 8.86 141.025 8.964C140.761 9.06 140.429 9.108 140.029 9.108C139.605 9.108 139.213 9.016 138.853 8.832C138.501 8.648 138.221 8.376 138.013 8.016C137.813 7.656 137.713 7.216 137.713 6.696V3.132H138.661V6.624C138.661 7.2 138.805 7.62 139.093 7.884C139.389 8.148 139.785 8.28 140.281 8.28C140.841 8.28 141.301 8.096 141.661 7.728C142.021 7.36 142.201 6.812 142.201 6.084V3.132H143.149V10.368C143.149 10.688 143.057 10.94 142.873 11.124C142.697 11.308 142.437 11.4 142.093 11.4H138.493ZM147.845 9.168C147.253 9.168 146.729 9.044 146.273 8.796C145.825 8.548 145.473 8.2 145.217 7.752C144.969 7.296 144.845 6.76 144.845 6.144V5.988C144.845 5.38 144.969 4.848 145.217 4.392C145.473 3.936 145.825 3.584 146.273 3.336C146.729 3.088 147.253 2.964 147.845 2.964C148.437 2.964 148.957 3.088 149.405 3.336C149.861 3.584 150.213 3.936 150.461 4.392C150.717 4.848 150.845 5.38 150.845 5.988V6.144C150.845 6.76 150.717 7.296 150.461 7.752C150.213 8.2 149.861 8.548 149.405 8.796C148.957 9.044 148.437 9.168 147.845 9.168ZM147.845 8.316C148.469 8.316 148.965 8.12 149.333 7.728C149.709 7.328 149.897 6.792 149.897 6.12V6.012C149.897 5.34 149.709 4.808 149.333 4.416C148.965 4.016 148.469 3.816 147.845 3.816C147.229 3.816 146.733 4.016 146.357 4.416C145.981 4.808 145.793 5.34 145.793 6.012V6.12C145.793 6.792 145.981 7.328 146.357 7.728C146.733 8.12 147.229 8.316 147.845 8.316ZM154.795 9.108C154.371 9.108 153.979 9.016 153.619 8.832C153.267 8.648 152.987 8.376 152.779 8.016C152.579 7.648 152.479 7.204 152.479 6.684V3.132H153.427V6.612C153.427 7.196 153.571 7.62 153.859 7.884C154.155 8.148 154.551 8.28 155.047 8.28C155.607 8.28 156.067 8.096 156.427 7.728C156.787 7.36 156.967 6.812 156.967 6.084V3.132H157.915V9H156.991V8.004H156.823C156.695 8.284 156.475 8.54 156.163 8.772C155.851 8.996 155.395 9.108 154.795 9.108ZM159.898 9V3.132H160.822V3.852H160.99C161.094 3.596 161.254 3.408 161.47 3.288C161.686 3.168 161.97 3.108 162.322 3.108H163.018V3.972H162.262C161.838 3.972 161.494 4.092 161.23 4.332C160.974 4.564 160.846 4.928 160.846 5.424V9H159.898ZM167.504 11.4V3.132H168.428V4.104H168.596C168.748 3.808 168.992 3.544 169.328 3.312C169.672 3.08 170.148 2.964 170.756 2.964C171.26 2.964 171.72 3.088 172.136 3.336C172.56 3.576 172.896 3.92 173.144 4.368C173.4 4.816 173.528 5.356 173.528 5.988V6.144C173.528 6.768 173.404 7.308 173.156 7.764C172.908 8.22 172.572 8.568 172.148 8.808C171.732 9.048 171.268 9.168 170.756 9.168C170.348 9.168 170 9.112 169.712 9C169.432 8.896 169.204 8.76 169.028 8.592C168.852 8.424 168.716 8.252 168.62 8.076H168.452V11.4H167.504ZM170.504 8.328C171.112 8.328 171.604 8.136 171.98 7.752C172.364 7.36 172.556 6.816 172.556 6.12V6.012C172.556 5.316 172.364 4.776 171.98 4.392C171.604 4 171.112 3.804 170.504 3.804C169.904 3.804 169.408 4 169.016 4.392C168.632 4.776 168.44 5.316 168.44 6.012V6.12C168.44 6.816 168.632 7.36 169.016 7.752C169.408 8.136 169.904 8.328 170.504 8.328ZM175.226 9V3.132H176.15V3.852H176.318C176.422 3.596 176.582 3.408 176.798 3.288C177.014 3.168 177.298 3.108 177.65 3.108H178.346V3.972H177.59C177.166 3.972 176.822 4.092 176.558 4.332C176.302 4.564 176.174 4.928 176.174 5.424V9H175.226ZM182.251 9.168C181.659 9.168 181.135 9.044 180.679 8.796C180.231 8.548 179.879 8.2 179.623 7.752C179.375 7.296 179.251 6.76 179.251 6.144V5.988C179.251 5.38 179.375 4.848 179.623 4.392C179.879 3.936 180.231 3.584 180.679 3.336C181.135 3.088 181.659 2.964 182.251 2.964C182.843 2.964 183.363 3.088 183.811 3.336C184.267 3.584 184.619 3.936 184.867 4.392C185.123 4.848 185.251 5.38 185.251 5.988V6.144C185.251 6.76 185.123 7.296 184.867 7.752C184.619 8.2 184.267 8.548 183.811 8.796C183.363 9.044 182.843 9.168 182.251 9.168ZM182.251 8.316C182.875 8.316 183.371 8.12 183.739 7.728C184.115 7.328 184.303 6.792 184.303 6.12V6.012C184.303 5.34 184.115 4.808 183.739 4.416C183.371 4.016 182.875 3.816 182.251 3.816C181.635 3.816 181.139 4.016 180.763 4.416C180.387 4.808 180.199 5.34 180.199 6.012V6.12C180.199 6.792 180.387 7.328 180.763 7.728C181.139 8.12 181.635 8.316 182.251 8.316ZM189.441 9.168C188.937 9.168 188.473 9.048 188.049 8.808C187.625 8.568 187.289 8.22 187.041 7.764C186.793 7.308 186.669 6.768 186.669 6.144V5.988C186.669 5.364 186.793 4.828 187.041 4.38C187.289 3.924 187.621 3.576 188.037 3.336C188.461 3.088 188.929 2.964 189.441 2.964C189.849 2.964 190.193 3.02 190.473 3.132C190.761 3.236 190.993 3.372 191.169 3.54C191.345 3.7 191.481 3.872 191.577 4.056H191.745V0.599999H192.693V9H191.769V8.028H191.601C191.441 8.324 191.193 8.588 190.857 8.82C190.521 9.052 190.049 9.168 189.441 9.168ZM189.693 8.328C190.301 8.328 190.793 8.136 191.169 7.752C191.553 7.36 191.745 6.816 191.745 6.12V6.012C191.745 5.316 191.553 4.776 191.169 4.392C190.793 4 190.301 3.804 189.693 3.804C189.093 3.804 188.597 4 188.205 4.392C187.821 4.776 187.629 5.316 187.629 6.012V6.12C187.629 6.816 187.821 7.36 188.205 7.752C188.597 8.136 189.093 8.328 189.693 8.328ZM196.924 9.108C196.5 9.108 196.108 9.016 195.748 8.832C195.396 8.648 195.116 8.376 194.908 8.016C194.708 7.648 194.608 7.204 194.608 6.684V3.132H195.556V6.612C195.556 7.196 195.7 7.62 195.988 7.884C196.284 8.148 196.68 8.28 197.176 8.28C197.736 8.28 198.196 8.096 198.556 7.728C198.916 7.36 199.096 6.812 199.096 6.084V3.132H200.044V9H199.12V8.004H198.952C198.824 8.284 198.604 8.54 198.292 8.772C197.98 8.996 197.524 9.108 196.924 9.108ZM204.727 9.168C204.159 9.168 203.647 9.048 203.191 8.808C202.743 8.56 202.387 8.208 202.123 7.752C201.867 7.296 201.739 6.756 201.739 6.132V6C201.739 5.368 201.867 4.828 202.123 4.38C202.387 3.924 202.743 3.576 203.191 3.336C203.647 3.088 204.159 2.964 204.727 2.964C205.287 2.964 205.763 3.068 206.155 3.276C206.555 3.484 206.867 3.76 207.091 4.104C207.323 4.448 207.471 4.816 207.535 5.208L206.611 5.4C206.571 5.112 206.475 4.848 206.323 4.608C206.179 4.368 205.975 4.176 205.711 4.032C205.447 3.888 205.123 3.816 204.739 3.816C204.347 3.816 203.995 3.904 203.683 4.08C203.379 4.256 203.135 4.508 202.951 4.836C202.775 5.164 202.687 5.556 202.687 6.012V6.12C202.687 6.576 202.775 6.968 202.951 7.296C203.135 7.624 203.379 7.876 203.683 8.052C203.995 8.228 204.347 8.316 204.739 8.316C205.323 8.316 205.767 8.164 206.071 7.86C206.383 7.556 206.575 7.18 206.647 6.732L207.583 6.936C207.495 7.32 207.335 7.684 207.103 8.028C206.871 8.372 206.555 8.648 206.155 8.856C205.763 9.064 205.287 9.168 204.727 9.168ZM211.125 9C210.789 9 210.529 8.908 210.345 8.724C210.169 8.54 210.081 8.288 210.081 7.968V3.96H208.317V3.132H210.081V1.044H211.029V3.132H212.949V3.96H211.029V7.824C211.029 8.064 211.145 8.184 211.377 8.184H212.685V9H211.125ZM217.566 9V3.132H218.514V9H217.566ZM218.046 2.22C217.838 2.22 217.662 2.152 217.518 2.016C217.382 1.88 217.314 1.708 217.314 1.5C217.314 1.284 217.382 1.108 217.518 0.972C217.662 0.835999 217.838 0.767999 218.046 0.767999C218.254 0.767999 218.426 0.835999 218.562 0.972C218.698 1.108 218.766 1.284 218.766 1.5C218.766 1.708 218.698 1.88 218.562 2.016C218.426 2.152 218.254 2.22 218.046 2.22ZM222.872 9.168C222.144 9.168 221.528 9 221.024 8.664C220.528 8.328 220.228 7.796 220.124 7.068L221.024 6.864C221.088 7.248 221.208 7.552 221.384 7.776C221.56 7.992 221.776 8.148 222.032 8.244C222.296 8.332 222.576 8.376 222.872 8.376C223.312 8.376 223.66 8.288 223.916 8.112C224.172 7.936 224.3 7.7 224.3 7.404C224.3 7.1 224.176 6.888 223.928 6.768C223.688 6.64 223.356 6.536 222.932 6.456L222.44 6.372C222.064 6.308 221.72 6.208 221.408 6.072C221.096 5.936 220.848 5.752 220.664 5.52C220.48 5.288 220.388 4.996 220.388 4.644C220.388 4.116 220.592 3.704 221 3.408C221.408 3.112 221.948 2.964 222.62 2.964C223.284 2.964 223.82 3.116 224.228 3.42C224.644 3.716 224.912 4.136 225.032 4.68L224.144 4.908C224.072 4.484 223.9 4.188 223.628 4.02C223.356 3.844 223.02 3.756 222.62 3.756C222.22 3.756 221.904 3.832 221.672 3.984C221.44 4.128 221.324 4.344 221.324 4.632C221.324 4.912 221.432 5.12 221.648 5.256C221.872 5.384 222.168 5.48 222.536 5.544L223.028 5.628C223.444 5.7 223.816 5.8 224.144 5.928C224.48 6.048 224.744 6.224 224.936 6.456C225.136 6.688 225.236 6.992 225.236 7.368C225.236 7.944 225.02 8.388 224.588 8.7C224.164 9.012 223.592 9.168 222.872 9.168ZM61.126 21.096V20.928C61.126 20.312 61.25 19.784 61.498 19.344C61.746 18.904 62.082 18.564 62.506 18.324C62.93 18.084 63.394 17.964 63.898 17.964C64.514 17.964 64.986 18.084 65.314 18.324C65.65 18.556 65.898 18.816 66.058 19.104H66.226V18.132H67.126V25.368C67.126 25.688 67.038 25.94 66.862 26.124C66.686 26.308 66.43 26.4 66.094 26.4H62.11V25.56H65.842C66.082 25.56 66.202 25.44 66.202 25.2V22.968H66.034C65.938 23.144 65.802 23.316 65.626 23.484C65.45 23.652 65.222 23.792 64.942 23.904C64.662 24.008 64.314 24.06 63.898 24.06C63.394 24.06 62.93 23.94 62.506 23.7C62.082 23.46 61.746 23.12 61.498 22.68C61.25 22.232 61.126 21.704 61.126 21.096ZM64.15 23.22C64.758 23.22 65.25 23.028 65.626 22.644C66.01 22.26 66.202 21.732 66.202 21.06V20.964C66.202 20.284 66.01 19.756 65.626 19.38C65.25 18.996 64.758 18.804 64.15 18.804C63.55 18.804 63.054 18.996 62.662 19.38C62.278 19.756 62.086 20.284 62.086 20.964V21.06C62.086 21.732 62.278 22.26 62.662 22.644C63.054 23.028 63.55 23.22 64.15 23.22ZM71.8252 24.168C71.2332 24.168 70.7092 24.044 70.2532 23.796C69.8052 23.548 69.4532 23.2 69.1972 22.752C68.9492 22.296 68.8252 21.76 68.8252 21.144V20.988C68.8252 20.38 68.9492 19.848 69.1972 19.392C69.4532 18.936 69.8052 18.584 70.2532 18.336C70.7092 18.088 71.2332 17.964 71.8252 17.964C72.4172 17.964 72.9372 18.088 73.3852 18.336C73.8412 18.584 74.1932 18.936 74.4412 19.392C74.6972 19.848 74.8252 20.38 74.8252 20.988V21.144C74.8252 21.76 74.6972 22.296 74.4412 22.752C74.1932 23.2 73.8412 23.548 73.3852 23.796C72.9372 24.044 72.4172 24.168 71.8252 24.168ZM71.8252 23.316C72.4492 23.316 72.9452 23.12 73.3132 22.728C73.6892 22.328 73.8772 21.792 73.8772 21.12V21.012C73.8772 20.34 73.6892 19.808 73.3132 19.416C72.9452 19.016 72.4492 18.816 71.8252 18.816C71.2092 18.816 70.7132 19.016 70.3372 19.416C69.9612 19.808 69.7732 20.34 69.7732 21.012V21.12C69.7732 21.792 69.9612 22.328 70.3372 22.728C70.7132 23.12 71.2092 23.316 71.8252 23.316ZM76.5312 24V18.132H77.4792V24H76.5312ZM77.0112 17.22C76.8032 17.22 76.6272 17.152 76.4832 17.016C76.3472 16.88 76.2792 16.708 76.2792 16.5C76.2792 16.284 76.3472 16.108 76.4832 15.972C76.6272 15.836 76.8032 15.768 77.0112 15.768C77.2192 15.768 77.3912 15.836 77.5272 15.972C77.6632 16.108 77.7312 16.284 77.7312 16.5C77.7312 16.708 77.6632 16.88 77.5272 17.016C77.3912 17.152 77.2192 17.22 77.0112 17.22ZM79.4726 24V18.132H80.3966V19.128H80.5646C80.6926 18.848 80.9086 18.596 81.2126 18.372C81.5246 18.14 81.9806 18.024 82.5806 18.024C83.0206 18.024 83.4126 18.116 83.7566 18.3C84.1086 18.484 84.3886 18.756 84.5966 19.116C84.8046 19.476 84.9086 19.92 84.9086 20.448V24H83.9606V20.52C83.9606 19.936 83.8126 19.512 83.5166 19.248C83.2286 18.984 82.8366 18.852 82.3406 18.852C81.7726 18.852 81.3086 19.036 80.9486 19.404C80.5966 19.772 80.4206 20.32 80.4206 21.048V24H79.4726ZM86.5439 21.096V20.928C86.5439 20.312 86.6679 19.784 86.9159 19.344C87.1639 18.904 87.4999 18.564 87.9239 18.324C88.3479 18.084 88.8119 17.964 89.3159 17.964C89.9319 17.964 90.4039 18.084 90.7319 18.324C91.0679 18.556 91.3159 18.816 91.4759 19.104H91.6439V18.132H92.5439V25.368C92.5439 25.688 92.4559 25.94 92.2799 26.124C92.1039 26.308 91.8479 26.4 91.5119 26.4H87.5279V25.56H91.2599C91.4999 25.56 91.6199 25.44 91.6199 25.2V22.968H91.4519C91.3559 23.144 91.2199 23.316 91.0439 23.484C90.8679 23.652 90.6399 23.792 90.3599 23.904C90.0799 24.008 89.7319 24.06 89.3159 24.06C88.8119 24.06 88.3479 23.94 87.9239 23.7C87.4999 23.46 87.1639 23.12 86.9159 22.68C86.6679 22.232 86.5439 21.704 86.5439 21.096ZM89.5679 23.22C90.1759 23.22 90.6679 23.028 91.0439 22.644C91.4279 22.26 91.6199 21.732 91.6199 21.06V20.964C91.6199 20.284 91.4279 19.756 91.0439 19.38C90.6679 18.996 90.1759 18.804 89.5679 18.804C88.9679 18.804 88.4719 18.996 88.0799 19.38C87.6959 19.756 87.5039 20.284 87.5039 20.964V21.06C87.5039 21.732 87.6959 22.26 88.0799 22.644C88.4719 23.028 88.9679 23.22 89.5679 23.22ZM99.7732 24C99.4372 24 99.1772 23.908 98.9932 23.724C98.8172 23.54 98.7292 23.288 98.7292 22.968V18.96H96.9652V18.132H98.7292V16.044H99.6772V18.132H101.597V18.96H99.6772V22.824C99.6772 23.064 99.7932 23.184 100.025 23.184H101.333V24H99.7732ZM105.634 24.168C105.042 24.168 104.518 24.044 104.062 23.796C103.614 23.548 103.262 23.2 103.006 22.752C102.758 22.296 102.634 21.76 102.634 21.144V20.988C102.634 20.38 102.758 19.848 103.006 19.392C103.262 18.936 103.614 18.584 104.062 18.336C104.518 18.088 105.042 17.964 105.634 17.964C106.226 17.964 106.746 18.088 107.194 18.336C107.65 18.584 108.002 18.936 108.25 19.392C108.506 19.848 108.634 20.38 108.634 20.988V21.144C108.634 21.76 108.506 22.296 108.25 22.752C108.002 23.2 107.65 23.548 107.194 23.796C106.746 24.044 106.226 24.168 105.634 24.168ZM105.634 23.316C106.258 23.316 106.754 23.12 107.122 22.728C107.498 22.328 107.686 21.792 107.686 21.12V21.012C107.686 20.34 107.498 19.808 107.122 19.416C106.754 19.016 106.258 18.816 105.634 18.816C105.018 18.816 104.522 19.016 104.146 19.416C103.77 19.808 103.582 20.34 103.582 21.012V21.12C103.582 21.792 103.77 22.328 104.146 22.728C104.522 23.12 105.018 23.316 105.634 23.316ZM116.674 24.168C116.066 24.168 115.59 24.052 115.246 23.82C114.91 23.588 114.666 23.324 114.514 23.028H114.346V24H113.422V15.6H114.37V19.056H114.538C114.634 18.872 114.77 18.7 114.946 18.54C115.122 18.372 115.35 18.236 115.63 18.132C115.918 18.02 116.266 17.964 116.674 17.964C117.186 17.964 117.65 18.088 118.066 18.336C118.49 18.576 118.826 18.924 119.074 19.38C119.322 19.828 119.446 20.364 119.446 20.988V21.144C119.446 21.768 119.318 22.308 119.062 22.764C118.814 23.22 118.478 23.568 118.054 23.808C117.638 24.048 117.178 24.168 116.674 24.168ZM116.422 23.328C117.03 23.328 117.522 23.136 117.898 22.752C118.282 22.36 118.474 21.816 118.474 21.12V21.012C118.474 20.316 118.282 19.776 117.898 19.392C117.522 19 117.03 18.804 116.422 18.804C115.822 18.804 115.326 19 114.934 19.392C114.55 19.776 114.358 20.316 114.358 21.012V21.12C114.358 21.816 114.55 22.36 114.934 22.752C115.326 23.136 115.822 23.328 116.422 23.328ZM123.832 24.168C123.24 24.168 122.72 24.044 122.272 23.796C121.824 23.54 121.476 23.184 121.228 22.728C120.98 22.272 120.856 21.744 120.856 21.144V21C120.856 20.392 120.98 19.86 121.228 19.404C121.476 18.948 121.82 18.596 122.26 18.348C122.7 18.092 123.204 17.964 123.772 17.964C124.324 17.964 124.812 18.084 125.236 18.324C125.66 18.556 125.992 18.892 126.232 19.332C126.472 19.772 126.592 20.288 126.592 20.88V21.312H121.804C121.828 21.944 122.032 22.44 122.416 22.8C122.8 23.152 123.28 23.328 123.856 23.328C124.36 23.328 124.748 23.212 125.02 22.98C125.292 22.748 125.5 22.472 125.644 22.152L126.46 22.548C126.34 22.796 126.172 23.044 125.956 23.292C125.748 23.54 125.472 23.748 125.128 23.916C124.792 24.084 124.36 24.168 123.832 24.168ZM121.816 20.532H125.632C125.6 19.988 125.412 19.564 125.068 19.26C124.732 18.956 124.3 18.804 123.772 18.804C123.236 18.804 122.796 18.956 122.452 19.26C122.108 19.564 121.896 19.988 121.816 20.532ZM131.328 24V15.6H132.276V24H131.328ZM134.269 24V18.132H135.217V24H134.269ZM134.749 17.22C134.541 17.22 134.365 17.152 134.221 17.016C134.085 16.88 134.017 16.708 134.017 16.5C134.017 16.284 134.085 16.108 134.221 15.972C134.365 15.836 134.541 15.768 134.749 15.768C134.957 15.768 135.129 15.836 135.265 15.972C135.401 16.108 135.469 16.284 135.469 16.5C135.469 16.708 135.401 16.88 135.265 17.016C135.129 17.152 134.957 17.22 134.749 17.22ZM139.575 24.168C138.847 24.168 138.231 24 137.727 23.664C137.231 23.328 136.931 22.796 136.827 22.068L137.727 21.864C137.791 22.248 137.911 22.552 138.087 22.776C138.263 22.992 138.479 23.148 138.735 23.244C138.999 23.332 139.279 23.376 139.575 23.376C140.015 23.376 140.363 23.288 140.619 23.112C140.875 22.936 141.003 22.7 141.003 22.404C141.003 22.1 140.879 21.888 140.631 21.768C140.391 21.64 140.059 21.536 139.635 21.456L139.143 21.372C138.767 21.308 138.423 21.208 138.111 21.072C137.799 20.936 137.551 20.752 137.367 20.52C137.183 20.288 137.091 19.996 137.091 19.644C137.091 19.116 137.295 18.704 137.703 18.408C138.111 18.112 138.651 17.964 139.323 17.964C139.987 17.964 140.523 18.116 140.931 18.42C141.347 18.716 141.615 19.136 141.735 19.68L140.847 19.908C140.775 19.484 140.603 19.188 140.331 19.02C140.059 18.844 139.723 18.756 139.323 18.756C138.923 18.756 138.607 18.832 138.375 18.984C138.143 19.128 138.027 19.344 138.027 19.632C138.027 19.912 138.135 20.12 138.351 20.256C138.575 20.384 138.871 20.48 139.239 20.544L139.731 20.628C140.147 20.7 140.519 20.8 140.847 20.928C141.183 21.048 141.447 21.224 141.639 21.456C141.839 21.688 141.939 21.992 141.939 22.368C141.939 22.944 141.723 23.388 141.291 23.7C140.867 24.012 140.295 24.168 139.575 24.168ZM145.57 24C145.234 24 144.974 23.908 144.79 23.724C144.614 23.54 144.526 23.288 144.526 22.968V18.96H142.762V18.132H144.526V16.044H145.474V18.132H147.394V18.96H145.474V22.824C145.474 23.064 145.59 23.184 145.822 23.184H147.13V24H145.57ZM151.407 24.168C150.815 24.168 150.295 24.044 149.847 23.796C149.399 23.54 149.051 23.184 148.803 22.728C148.555 22.272 148.431 21.744 148.431 21.144V21C148.431 20.392 148.555 19.86 148.803 19.404C149.051 18.948 149.395 18.596 149.835 18.348C150.275 18.092 150.779 17.964 151.347 17.964C151.899 17.964 152.387 18.084 152.811 18.324C153.235 18.556 153.567 18.892 153.807 19.332C154.047 19.772 154.167 20.288 154.167 20.88V21.312H149.379C149.403 21.944 149.607 22.44 149.991 22.8C150.375 23.152 150.855 23.328 151.431 23.328C151.935 23.328 152.323 23.212 152.595 22.98C152.867 22.748 153.075 22.472 153.219 22.152L154.035 22.548C153.915 22.796 153.747 23.044 153.531 23.292C153.323 23.54 153.047 23.748 152.703 23.916C152.367 24.084 151.935 24.168 151.407 24.168ZM149.391 20.532H153.207C153.175 19.988 152.987 19.564 152.643 19.26C152.307 18.956 151.875 18.804 151.347 18.804C150.811 18.804 150.371 18.956 150.027 19.26C149.683 19.564 149.471 19.988 149.391 20.532ZM158.304 24.168C157.8 24.168 157.336 24.048 156.912 23.808C156.488 23.568 156.152 23.22 155.904 22.764C155.656 22.308 155.532 21.768 155.532 21.144V20.988C155.532 20.364 155.656 19.828 155.904 19.38C156.152 18.924 156.484 18.576 156.9 18.336C157.324 18.088 157.792 17.964 158.304 17.964C158.712 17.964 159.056 18.02 159.336 18.132C159.624 18.236 159.856 18.372 160.032 18.54C160.208 18.7 160.344 18.872 160.44 19.056H160.608V15.6H161.556V24H160.632V23.028H160.464C160.304 23.324 160.056 23.588 159.72 23.82C159.384 24.052 158.912 24.168 158.304 24.168ZM158.556 23.328C159.164 23.328 159.656 23.136 160.032 22.752C160.416 22.36 160.608 21.816 160.608 21.12V21.012C160.608 20.316 160.416 19.776 160.032 19.392C159.656 19 159.164 18.804 158.556 18.804C157.956 18.804 157.46 19 157.068 19.392C156.684 19.776 156.492 20.316 156.492 21.012V21.12C156.492 21.816 156.684 22.36 157.068 22.752C157.46 23.136 157.956 23.328 158.556 23.328ZM164.059 24.168C163.827 24.168 163.631 24.092 163.471 23.94C163.319 23.788 163.243 23.592 163.243 23.352C163.243 23.112 163.319 22.916 163.471 22.764C163.631 22.612 163.827 22.536 164.059 22.536C164.299 22.536 164.495 22.612 164.647 22.764C164.799 22.916 164.875 23.112 164.875 23.352C164.875 23.592 164.799 23.788 164.647 23.94C164.495 24.092 164.299 24.168 164.059 24.168Z" fill="black"/>
</svg>
