<svg width="50" height="15" viewBox="0 0 50 15" fill="none" xmlns="http://www.w3.org/2000/svg">
<rect width="50" height="15" rx="3" fill="#BFCDF5"/>
<path d="M5.282 9V8.424H5.846V5.376H5.282V4.8H6.962C7.522 4.8 7.95 4.942 8.246 5.226C8.546 5.51 8.696 5.938 8.696 6.51V7.296C8.696 7.868 8.546 8.296 8.246 8.58C7.95 8.86 7.522 9 6.962 9H5.282ZM6.5 8.412H6.968C7.332 8.412 7.602 8.32 7.778 8.136C7.954 7.952 8.042 7.678 8.042 7.314V6.486C8.042 6.118 7.954 5.844 7.778 5.664C7.602 5.484 7.332 5.394 6.968 5.394H6.5V8.412ZM10.3642 9.084C10.1522 9.084 9.96223 9.048 9.79423 8.976C9.63023 8.904 9.49823 8.798 9.39823 8.658C9.30223 8.518 9.25423 8.348 9.25423 8.148C9.25423 7.944 9.30223 7.776 9.39823 7.644C9.49823 7.508 9.63223 7.406 9.80023 7.338C9.97223 7.27 10.1662 7.236 10.3822 7.236H11.2822V7.044C11.2822 6.872 11.2302 6.734 11.1262 6.63C11.0222 6.526 10.8622 6.474 10.6462 6.474C10.4342 6.474 10.2722 6.524 10.1602 6.624C10.0482 6.724 9.97423 6.854 9.93823 7.014L9.36223 6.828C9.41023 6.668 9.48623 6.524 9.59023 6.396C9.69823 6.264 9.84023 6.158 10.0162 6.078C10.1922 5.998 10.4042 5.958 10.6522 5.958C11.0362 5.958 11.3382 6.056 11.5582 6.252C11.7782 6.448 11.8882 6.726 11.8882 7.086V8.304C11.8882 8.424 11.9442 8.484 12.0562 8.484H12.3082V9H11.8462C11.7062 9 11.5922 8.964 11.5042 8.892C11.4162 8.82 11.3722 8.722 11.3722 8.598V8.58H11.2822C11.2502 8.64 11.2022 8.71 11.1382 8.79C11.0742 8.87 10.9802 8.94 10.8562 9C10.7322 9.056 10.5682 9.084 10.3642 9.084ZM10.4542 8.574C10.7022 8.574 10.9022 8.504 11.0542 8.364C11.2062 8.22 11.2822 8.024 11.2822 7.776V7.716H10.4182C10.2542 7.716 10.1222 7.752 10.0222 7.824C9.92223 7.892 9.87223 7.994 9.87223 8.13C9.87223 8.266 9.92423 8.374 10.0282 8.454C10.1322 8.534 10.2742 8.574 10.4542 8.574ZM13.814 9C13.634 9 13.49 8.946 13.382 8.838C13.278 8.73 13.226 8.586 13.226 8.406V6.564H12.41V6.042H13.226V5.064H13.844V6.042H14.726V6.564H13.844V8.298C13.844 8.418 13.9 8.478 14.012 8.478H14.63V9H13.814ZM16.7026 9.084C16.4026 9.084 16.1406 9.022 15.9166 8.898C15.6926 8.77 15.5166 8.592 15.3886 8.364C15.2646 8.132 15.2026 7.864 15.2026 7.56V7.488C15.2026 7.18 15.2646 6.912 15.3886 6.684C15.5126 6.452 15.6846 6.274 15.9046 6.15C16.1286 6.022 16.3866 5.958 16.6786 5.958C16.9626 5.958 17.2106 6.022 17.4226 6.15C17.6386 6.274 17.8066 6.448 17.9266 6.672C18.0466 6.896 18.1066 7.158 18.1066 7.458V7.692H15.8326C15.8406 7.952 15.9266 8.16 16.0906 8.316C16.2586 8.468 16.4666 8.544 16.7146 8.544C16.9466 8.544 17.1206 8.492 17.2366 8.388C17.3566 8.284 17.4486 8.164 17.5126 8.028L18.0226 8.292C17.9666 8.404 17.8846 8.522 17.7766 8.646C17.6726 8.77 17.5346 8.874 17.3626 8.958C17.1906 9.042 16.9706 9.084 16.7026 9.084ZM15.8386 7.218H17.4766C17.4606 6.994 17.3806 6.82 17.2366 6.696C17.0926 6.568 16.9046 6.504 16.6726 6.504C16.4406 6.504 16.2506 6.568 16.1026 6.696C15.9586 6.82 15.8706 6.994 15.8386 7.218ZM21.2978 9.084C21.0858 9.084 20.8958 9.048 20.7278 8.976C20.5638 8.904 20.4318 8.798 20.3318 8.658C20.2358 8.518 20.1878 8.348 20.1878 8.148C20.1878 7.944 20.2358 7.776 20.3318 7.644C20.4318 7.508 20.5658 7.406 20.7338 7.338C20.9058 7.27 21.0998 7.236 21.3158 7.236H22.2158V7.044C22.2158 6.872 22.1638 6.734 22.0598 6.63C21.9558 6.526 21.7958 6.474 21.5798 6.474C21.3678 6.474 21.2058 6.524 21.0938 6.624C20.9818 6.724 20.9078 6.854 20.8718 7.014L20.2958 6.828C20.3438 6.668 20.4198 6.524 20.5238 6.396C20.6318 6.264 20.7738 6.158 20.9498 6.078C21.1258 5.998 21.3378 5.958 21.5858 5.958C21.9698 5.958 22.2718 6.056 22.4918 6.252C22.7118 6.448 22.8218 6.726 22.8218 7.086V8.304C22.8218 8.424 22.8778 8.484 22.9898 8.484H23.2418V9H22.7798C22.6398 9 22.5258 8.964 22.4378 8.892C22.3498 8.82 22.3058 8.722 22.3058 8.598V8.58H22.2158C22.1838 8.64 22.1358 8.71 22.0718 8.79C22.0078 8.87 21.9138 8.94 21.7898 9C21.6658 9.056 21.5018 9.084 21.2978 9.084ZM21.3878 8.574C21.6358 8.574 21.8358 8.504 21.9878 8.364C22.1398 8.22 22.2158 8.024 22.2158 7.776V7.716H21.3518C21.1878 7.716 21.0558 7.752 20.9558 7.824C20.8558 7.892 20.8058 7.994 20.8058 8.13C20.8058 8.266 20.8578 8.374 20.9618 8.454C21.0658 8.534 21.2078 8.574 21.3878 8.574ZM24.9964 9.084C24.7524 9.084 24.5264 9.024 24.3184 8.904C24.1104 8.784 23.9424 8.612 23.8144 8.388C23.6904 8.16 23.6284 7.886 23.6284 7.566V7.476C23.6284 7.16 23.6904 6.888 23.8144 6.66C23.9384 6.432 24.1044 6.258 24.3124 6.138C24.5204 6.018 24.7484 5.958 24.9964 5.958C25.1884 5.958 25.3484 5.982 25.4764 6.03C25.6084 6.078 25.7164 6.14 25.8004 6.216C25.8844 6.288 25.9484 6.364 25.9924 6.444H26.0884V4.8H26.7064V9H26.1004V8.58H26.0044C25.9284 8.708 25.8124 8.824 25.6564 8.928C25.5044 9.032 25.2844 9.084 24.9964 9.084ZM25.1704 8.544C25.4384 8.544 25.6584 8.458 25.8304 8.286C26.0064 8.114 26.0944 7.868 26.0944 7.548V7.494C26.0944 7.178 26.0084 6.934 25.8364 6.762C25.6644 6.59 25.4424 6.504 25.1704 6.504C24.9064 6.504 24.6864 6.59 24.5104 6.762C24.3384 6.934 24.2524 7.178 24.2524 7.494V7.548C24.2524 7.868 24.3384 8.114 24.5104 8.286C24.6864 8.458 24.9064 8.544 25.1704 8.544ZM28.8402 9.084C28.5962 9.084 28.3702 9.024 28.1622 8.904C27.9542 8.784 27.7862 8.612 27.6582 8.388C27.5342 8.16 27.4722 7.886 27.4722 7.566V7.476C27.4722 7.16 27.5342 6.888 27.6582 6.66C27.7822 6.432 27.9482 6.258 28.1562 6.138C28.3642 6.018 28.5922 5.958 28.8402 5.958C29.0322 5.958 29.1922 5.982 29.3202 6.03C29.4522 6.078 29.5602 6.14 29.6442 6.216C29.7282 6.288 29.7922 6.364 29.8362 6.444H29.9322V4.8H30.5502V9H29.9442V8.58H29.8482C29.7722 8.708 29.6562 8.824 29.5002 8.928C29.3482 9.032 29.1282 9.084 28.8402 9.084ZM29.0142 8.544C29.2822 8.544 29.5022 8.458 29.6742 8.286C29.8502 8.114 29.9382 7.868 29.9382 7.548V7.494C29.9382 7.178 29.8522 6.934 29.6802 6.762C29.5082 6.59 29.2862 6.504 29.0142 6.504C28.7502 6.504 28.5302 6.59 28.3542 6.762C28.1822 6.934 28.0962 7.178 28.0962 7.494V7.548C28.0962 7.868 28.1822 8.114 28.3542 8.286C28.5302 8.458 28.7502 8.544 29.0142 8.544ZM32.8159 9.084C32.5159 9.084 32.2539 9.022 32.0299 8.898C31.8059 8.77 31.6299 8.592 31.5019 8.364C31.3779 8.132 31.3159 7.864 31.3159 7.56V7.488C31.3159 7.18 31.3779 6.912 31.5019 6.684C31.6259 6.452 31.7979 6.274 32.0179 6.15C32.2419 6.022 32.4999 5.958 32.7919 5.958C33.0759 5.958 33.3239 6.022 33.5359 6.15C33.7519 6.274 33.9199 6.448 34.0399 6.672C34.1599 6.896 34.2199 7.158 34.2199 7.458V7.692H31.9459C31.9539 7.952 32.0399 8.16 32.2039 8.316C32.3719 8.468 32.5799 8.544 32.8279 8.544C33.0599 8.544 33.2339 8.492 33.3499 8.388C33.4699 8.284 33.5619 8.164 33.6259 8.028L34.1359 8.292C34.0799 8.404 33.9979 8.522 33.8899 8.646C33.7859 8.77 33.6479 8.874 33.4759 8.958C33.3039 9.042 33.0839 9.084 32.8159 9.084ZM31.9519 7.218H33.5899C33.5739 6.994 33.4939 6.82 33.3499 6.696C33.2059 6.568 33.0179 6.504 32.7859 6.504C32.5539 6.504 32.3639 6.568 32.2159 6.696C32.0719 6.82 31.9839 6.994 31.9519 7.218ZM36.1878 9.084C35.9438 9.084 35.7178 9.024 35.5098 8.904C35.3018 8.784 35.1338 8.612 35.0058 8.388C34.8818 8.16 34.8198 7.886 34.8198 7.566V7.476C34.8198 7.16 34.8818 6.888 35.0058 6.66C35.1298 6.432 35.2958 6.258 35.5038 6.138C35.7118 6.018 35.9398 5.958 36.1878 5.958C36.3798 5.958 36.5398 5.982 36.6678 6.03C36.7998 6.078 36.9078 6.14 36.9918 6.216C37.0758 6.288 37.1398 6.364 37.1838 6.444H37.2798V4.8H37.8978V9H37.2918V8.58H37.1958C37.1198 8.708 37.0038 8.824 36.8478 8.928C36.6958 9.032 36.4758 9.084 36.1878 9.084ZM36.3618 8.544C36.6298 8.544 36.8498 8.458 37.0218 8.286C37.1978 8.114 37.2858 7.868 37.2858 7.548V7.494C37.2858 7.178 37.1998 6.934 37.0278 6.762C36.8558 6.59 36.6338 6.504 36.3618 6.504C36.0978 6.504 35.8778 6.59 35.7018 6.762C35.5298 6.934 35.4438 7.178 35.4438 7.494V7.548C35.4438 7.868 35.5298 8.114 35.7018 8.286C35.8778 8.458 36.0978 8.544 36.3618 8.544Z" fill="#0C1AF5"/>
<path d="M45 7.57176L43.5 9L42 7.57176M43.5 5V8.96" stroke="#0C1AF5" stroke-width="0.5" stroke-miterlimit="10" stroke-linecap="round" stroke-linejoin="round"/>
</svg>
