<svg width="50" height="50" viewBox="0 0 50 50" fill="none" xmlns="http://www.w3.org/2000/svg">
<path d="M0 8C0 3.58172 3.58172 0 8 0H42C46.4183 0 50 3.58172 50 8V42C50 46.4183 46.4183 50 42 50H8C3.58172 50 0 46.4183 0 42V8Z" fill="#F5F5F5"/>
<path d="M6.54354 37V32.1H9.69354V32.94H7.46754V34.109H9.49754V34.949H7.46754V36.16H9.73554V37H6.54354Z" fill="black"/>
<path d="M10.4475 37V32.1H11.3295V37H10.4475Z" fill="black"/>
<path d="M13.8889 37.098C13.5436 37.098 13.2379 37.0257 12.9719 36.881C12.7106 36.7317 12.5052 36.524 12.3559 36.258C12.2112 35.9873 12.1389 35.67 12.1389 35.306V35.222C12.1389 34.858 12.2112 34.543 12.3559 34.277C12.5006 34.0063 12.7036 33.7987 12.9649 33.654C13.2262 33.5047 13.5296 33.43 13.8749 33.43C14.2156 33.43 14.5119 33.507 14.7639 33.661C15.0159 33.8103 15.2119 34.0203 15.3519 34.291C15.4919 34.557 15.5619 34.8673 15.5619 35.222V35.523H13.0349C13.0442 35.761 13.1329 35.9547 13.3009 36.104C13.4689 36.2533 13.6742 36.328 13.9169 36.328C14.1642 36.328 14.3462 36.2743 14.4629 36.167C14.5796 36.0597 14.6682 35.9407 14.7289 35.81L15.4499 36.188C15.3846 36.3093 15.2889 36.4423 15.1629 36.587C15.0416 36.727 14.8782 36.8483 14.6729 36.951C14.4676 37.049 14.2062 37.098 13.8889 37.098ZM13.0419 34.865H14.6659C14.6472 34.6643 14.5656 34.5033 14.4209 34.382C14.2809 34.2607 14.0966 34.2 13.8679 34.2C13.6299 34.2 13.4409 34.2607 13.3009 34.382C13.1609 34.5033 13.0746 34.6643 13.0419 34.865Z" fill="black"/>
<path d="M17.9779 37.098C17.6419 37.098 17.3363 37.028 17.0609 36.888C16.7903 36.748 16.5756 36.545 16.4169 36.279C16.2583 36.013 16.1789 35.691 16.1789 35.313V35.215C16.1789 34.837 16.2583 34.515 16.4169 34.249C16.5756 33.983 16.7903 33.78 17.0609 33.64C17.3363 33.5 17.6419 33.43 17.9779 33.43C18.3093 33.43 18.5939 33.4883 18.8319 33.605C19.0699 33.7217 19.2613 33.8827 19.4059 34.088C19.5553 34.2887 19.6533 34.5173 19.6999 34.774L18.8459 34.956C18.8273 34.816 18.7853 34.69 18.7199 34.578C18.6546 34.466 18.5613 34.3773 18.4399 34.312C18.3233 34.2467 18.1763 34.214 17.9989 34.214C17.8216 34.214 17.6606 34.2537 17.5159 34.333C17.3759 34.4077 17.2639 34.522 17.1799 34.676C17.1006 34.8253 17.0609 35.0097 17.0609 35.229V35.299C17.0609 35.5183 17.1006 35.705 17.1799 35.859C17.2639 36.0083 17.3759 36.1227 17.5159 36.202C17.6606 36.2767 17.8216 36.314 17.9989 36.314C18.2649 36.314 18.4656 36.2463 18.6009 36.111C18.7409 35.971 18.8296 35.789 18.8669 35.565L19.7209 35.768C19.6603 36.0153 19.5553 36.2417 19.4059 36.447C19.2613 36.6477 19.0699 36.8063 18.8319 36.923C18.5939 37.0397 18.3093 37.098 17.9779 37.098Z" fill="black"/>
<path d="M21.6623 37C21.4336 37 21.247 36.93 21.1023 36.79C20.9623 36.6453 20.8923 36.454 20.8923 36.216V34.256H20.0243V33.528H20.8923V32.45H21.7743V33.528H22.7263V34.256H21.7743V36.062C21.7743 36.202 21.8396 36.272 21.9703 36.272H22.6423V37H21.6623Z" fill="black"/>
<path d="M23.5247 37V33.528H24.3927V33.92H24.5187C24.57 33.78 24.654 33.6773 24.7707 33.612C24.892 33.5467 25.032 33.514 25.1907 33.514H25.6107V34.298H25.1767C24.9527 34.298 24.7683 34.3587 24.6237 34.48C24.479 34.5967 24.4067 34.7787 24.4067 35.026V37H23.5247Z" fill="black"/>
<path d="M27.829 37.098C27.4837 37.098 27.1733 37.028 26.898 36.888C26.6227 36.748 26.4057 36.545 26.247 36.279C26.0883 36.013 26.009 35.6933 26.009 35.32V35.208C26.009 34.8347 26.0883 34.515 26.247 34.249C26.4057 33.983 26.6227 33.78 26.898 33.64C27.1733 33.5 27.4837 33.43 27.829 33.43C28.1743 33.43 28.4847 33.5 28.76 33.64C29.0353 33.78 29.2523 33.983 29.411 34.249C29.5697 34.515 29.649 34.8347 29.649 35.208V35.32C29.649 35.6933 29.5697 36.013 29.411 36.279C29.2523 36.545 29.0353 36.748 28.76 36.888C28.4847 37.028 28.1743 37.098 27.829 37.098ZM27.829 36.314C28.0997 36.314 28.3237 36.2277 28.501 36.055C28.6783 35.8777 28.767 35.6257 28.767 35.299V35.229C28.767 34.9023 28.6783 34.6527 28.501 34.48C28.3283 34.3027 28.1043 34.214 27.829 34.214C27.5583 34.214 27.3343 34.3027 27.157 34.48C26.9797 34.6527 26.891 34.9023 26.891 35.229V35.299C26.891 35.6257 26.9797 35.8777 27.157 36.055C27.3343 36.2277 27.5583 36.314 27.829 36.314Z" fill="black"/>
<path d="M30.4631 37V33.528H31.3311V33.983H31.4571C31.5131 33.8617 31.6181 33.7473 31.7721 33.64C31.9261 33.528 32.1595 33.472 32.4721 33.472C32.7428 33.472 32.9785 33.535 33.1791 33.661C33.3845 33.7823 33.5431 33.9527 33.6551 34.172C33.7671 34.3867 33.8231 34.6387 33.8231 34.928V37H32.9411V34.998C32.9411 34.7367 32.8758 34.5407 32.7451 34.41C32.6191 34.2793 32.4371 34.214 32.1991 34.214C31.9285 34.214 31.7185 34.305 31.5691 34.487C31.4198 34.6643 31.3451 34.914 31.3451 35.236V37H30.4631Z" fill="black"/>
<path d="M34.7766 37V33.528H35.6586V37H34.7766ZM35.2176 33.122C35.059 33.122 34.9236 33.0707 34.8116 32.968C34.7043 32.8653 34.6506 32.73 34.6506 32.562C34.6506 32.394 34.7043 32.2587 34.8116 32.156C34.9236 32.0533 35.059 32.002 35.2176 32.002C35.381 32.002 35.5163 32.0533 35.6236 32.156C35.731 32.2587 35.7846 32.394 35.7846 32.562C35.7846 32.73 35.731 32.8653 35.6236 32.968C35.5163 33.0707 35.381 33.122 35.2176 33.122Z" fill="black"/>
<path d="M38.267 37.098C37.931 37.098 37.6253 37.028 37.35 36.888C37.0793 36.748 36.8647 36.545 36.706 36.279C36.5473 36.013 36.468 35.691 36.468 35.313V35.215C36.468 34.837 36.5473 34.515 36.706 34.249C36.8647 33.983 37.0793 33.78 37.35 33.64C37.6253 33.5 37.931 33.43 38.267 33.43C38.5983 33.43 38.883 33.4883 39.121 33.605C39.359 33.7217 39.5503 33.8827 39.695 34.088C39.8443 34.2887 39.9423 34.5173 39.989 34.774L39.135 34.956C39.1163 34.816 39.0743 34.69 39.009 34.578C38.9437 34.466 38.8503 34.3773 38.729 34.312C38.6123 34.2467 38.4653 34.214 38.288 34.214C38.1107 34.214 37.9497 34.2537 37.805 34.333C37.665 34.4077 37.553 34.522 37.469 34.676C37.3897 34.8253 37.35 35.0097 37.35 35.229V35.299C37.35 35.5183 37.3897 35.705 37.469 35.859C37.553 36.0083 37.665 36.1227 37.805 36.202C37.9497 36.2767 38.1107 36.314 38.288 36.314C38.554 36.314 38.7547 36.2463 38.89 36.111C39.03 35.971 39.1187 35.789 39.156 35.565L40.01 35.768C39.9493 36.0153 39.8443 36.2417 39.695 36.447C39.5503 36.6477 39.359 36.8063 39.121 36.923C38.883 37.0397 38.5983 37.098 38.267 37.098Z" fill="black"/>
<path d="M42.1796 37.098C41.7269 37.098 41.3559 37 41.0666 36.804C40.7772 36.608 40.6022 36.328 40.5416 35.964L41.3536 35.754C41.3862 35.9173 41.4399 36.0457 41.5146 36.139C41.5939 36.2323 41.6896 36.3 41.8016 36.342C41.9182 36.3793 42.0442 36.398 42.1796 36.398C42.3849 36.398 42.5366 36.363 42.6346 36.293C42.7326 36.2183 42.7816 36.1273 42.7816 36.02C42.7816 35.9127 42.7349 35.831 42.6416 35.775C42.5482 35.7143 42.3989 35.6653 42.1936 35.628L41.9976 35.593C41.7549 35.5463 41.5332 35.4833 41.3326 35.404C41.1319 35.32 40.9709 35.2057 40.8496 35.061C40.7282 34.9163 40.6676 34.7297 40.6676 34.501C40.6676 34.1557 40.7936 33.892 41.0456 33.71C41.2976 33.5233 41.6289 33.43 42.0396 33.43C42.4269 33.43 42.7489 33.5163 43.0056 33.689C43.2622 33.8617 43.4302 34.088 43.5096 34.368L42.6906 34.62C42.6532 34.4427 42.5762 34.3167 42.4596 34.242C42.3476 34.1673 42.2076 34.13 42.0396 34.13C41.8716 34.13 41.7432 34.1603 41.6546 34.221C41.5659 34.277 41.5216 34.3563 41.5216 34.459C41.5216 34.571 41.5682 34.655 41.6616 34.711C41.7549 34.7623 41.8809 34.802 42.0396 34.83L42.2356 34.865C42.4969 34.9117 42.7326 34.9747 42.9426 35.054C43.1572 35.1287 43.3252 35.2383 43.4466 35.383C43.5726 35.523 43.6356 35.7143 43.6356 35.957C43.6356 36.321 43.5026 36.6033 43.2366 36.804C42.9752 37 42.6229 37.098 42.1796 37.098Z" fill="black"/>
<path d="M26.5613 13.625C26.3771 13.2805 26.1008 12.9992 25.7608 12.8023L28.8421 8.49219L28.155 8L24.925 12.5141C24.84 12.507 24.755 12.5 24.6629 12.5C24.5708 12.5 24.4787 12.507 24.3867 12.5211L22.0067 8.90703L21.2983 9.37109L23.5579 12.8023C23.225 12.9992 22.9488 13.2875 22.7646 13.625H16V24.875H17.6929V26H31.2929V24.875H33V13.625H26.5613ZM29.0262 23.1875H17.6929V15.3125H29.0262V23.1875ZM31.0096 23.1875C30.62 23.1875 30.3013 22.8711 30.3013 22.4844C30.3013 22.0977 30.62 21.7812 31.0096 21.7812C31.3992 21.7812 31.7179 22.0977 31.7179 22.4844C31.7179 22.8711 31.3992 23.1875 31.0096 23.1875ZM31.0096 20.5016C30.62 20.5016 30.3013 20.1852 30.3013 19.7984C30.3013 19.4117 30.62 19.0953 31.0096 19.0953C31.3992 19.0953 31.7179 19.4117 31.7179 19.7984C31.7179 20.1852 31.3992 20.5016 31.0096 20.5016Z" fill="black"/>
</svg>
