<svg width="73" height="20" viewBox="0 0 73 20" fill="none" xmlns="http://www.w3.org/2000/svg">
<rect x="0.25" y="0.25" width="72.5" height="19.5" rx="6.75" fill="#A7BBF5"/>
<path d="M23.7754 13V7.4H27.2314V8.184H24.6394V9.8H27.0234V10.584H24.6394V13H23.7754ZM28.0963 13V9.056H28.9203V13H28.0963ZM28.5123 8.52C28.3523 8.52 28.2163 8.46933 28.1043 8.368C27.9976 8.26133 27.9443 8.12533 27.9443 7.96C27.9443 7.79467 27.9976 7.66133 28.1043 7.56C28.2163 7.45333 28.3523 7.4 28.5123 7.4C28.6776 7.4 28.8136 7.45333 28.9203 7.56C29.0269 7.66133 29.0803 7.79467 29.0803 7.96C29.0803 8.12533 29.0269 8.26133 28.9203 8.368C28.8136 8.46933 28.6776 8.52 28.5123 8.52ZM30.1432 13V7.4H30.9672V13H30.1432ZM32.19 13V7.4H33.014V13H32.19ZM36.276 13V9.056H37.1V13H36.276ZM36.692 8.52C36.532 8.52 36.396 8.46933 36.284 8.368C36.1773 8.26133 36.124 8.12533 36.124 7.96C36.124 7.79467 36.1773 7.66133 36.284 7.56C36.396 7.45333 36.532 7.4 36.692 7.4C36.8573 7.4 36.9933 7.45333 37.1 7.56C37.2066 7.66133 37.26 7.79467 37.26 7.96C37.26 8.12533 37.2066 8.26133 37.1 8.368C36.9933 8.46933 36.8573 8.52 36.692 8.52ZM38.3228 13V9.056H39.1308V9.648H39.2588C39.3335 9.488 39.4668 9.33867 39.6588 9.2C39.8508 9.06133 40.1362 8.992 40.5148 8.992C40.8135 8.992 41.0775 9.05867 41.3068 9.192C41.5415 9.32533 41.7255 9.51467 41.8588 9.76C41.9922 10 42.0588 10.2907 42.0588 10.632V13H41.2348V10.696C41.2348 10.3547 41.1495 10.104 40.9788 9.944C40.8082 9.77867 40.5735 9.696 40.2748 9.696C39.9335 9.696 39.6588 9.808 39.4508 10.032C39.2482 10.256 39.1468 10.5813 39.1468 11.008V13H38.3228ZM45.2598 13V7.4H48.7158V8.184H46.1238V9.8H48.5078V10.584H46.1238V13H45.2598ZM51.3896 13.112C50.9949 13.112 50.6429 13.032 50.3336 12.872C50.0296 12.7067 49.7896 12.472 49.6136 12.168C49.4376 11.864 49.3496 11.504 49.3496 11.088V10.968C49.3496 10.552 49.4376 10.1947 49.6136 9.896C49.7896 9.592 50.0296 9.35733 50.3336 9.192C50.6429 9.02667 50.9949 8.944 51.3896 8.944C51.7843 8.944 52.1363 9.02667 52.4456 9.192C52.7549 9.35733 52.9976 9.592 53.1736 9.896C53.3496 10.1947 53.4376 10.552 53.4376 10.968V11.088C53.4376 11.504 53.3496 11.864 53.1736 12.168C52.9976 12.472 52.7549 12.7067 52.4456 12.872C52.1363 13.032 51.7843 13.112 51.3896 13.112ZM51.3896 12.376C51.7523 12.376 52.0456 12.2613 52.2696 12.032C52.4989 11.7973 52.6136 11.4747 52.6136 11.064V10.992C52.6136 10.5813 52.5016 10.2613 52.2776 10.032C52.0536 9.79733 51.7576 9.68 51.3896 9.68C51.0323 9.68 50.7389 9.79733 50.5096 10.032C50.2856 10.2613 50.1736 10.5813 50.1736 10.992V11.064C50.1736 11.4747 50.2856 11.7973 50.5096 12.032C50.7389 12.2613 51.0323 12.376 51.3896 12.376ZM54.4635 13V9.056H55.2715V9.52H55.3995C55.4635 9.35467 55.5648 9.23467 55.7035 9.16C55.8475 9.08 56.0235 9.04 56.2315 9.04H56.7035V9.784H56.1995C55.9328 9.784 55.7141 9.85867 55.5435 10.008C55.3728 10.152 55.2875 10.376 55.2875 10.68V13H54.4635ZM57.5572 13V9.056H58.3652V9.52H58.4932C58.5679 9.38133 58.6879 9.25867 58.8532 9.152C59.0186 9.04533 59.2426 8.992 59.5252 8.992C59.8186 8.992 60.0532 9.05333 60.2292 9.176C60.4106 9.29333 60.5466 9.44533 60.6372 9.632H60.7652C60.8559 9.45067 60.9866 9.29867 61.1572 9.176C61.3332 9.05333 61.5812 8.992 61.9012 8.992C62.1572 8.992 62.3839 9.04533 62.5812 9.152C62.7786 9.25333 62.9359 9.408 63.0532 9.616C63.1706 9.81867 63.2292 10.072 63.2292 10.376V13H62.4052V10.44C62.4052 10.2 62.3386 10.016 62.2052 9.888C62.0772 9.75467 61.8932 9.688 61.6532 9.688C61.3972 9.688 61.1919 9.77067 61.0372 9.936C60.8826 10.1013 60.8052 10.3387 60.8052 10.648V13H59.9812V10.44C59.9812 10.2 59.9146 10.016 59.7812 9.888C59.6532 9.75467 59.4692 9.688 59.2292 9.688C58.9732 9.688 58.7679 9.77067 58.6132 9.936C58.4586 10.1013 58.3812 10.3387 58.3812 10.648V13H57.5572Z" fill="black"/>
<path d="M9.80794 8.35219L13.3921 7.15745C15.0006 6.6213 15.8745 7.49941 15.3426 9.10787L14.1478 12.6921C13.3457 15.1026 12.0285 15.1026 11.2264 12.6921L10.8718 11.6282L9.80794 11.2736C7.39736 10.4715 7.39736 9.15853 9.80794 8.35219Z" stroke="#292D32" stroke-linecap="round" stroke-linejoin="round"/>
<path d="M10.952 11.4467L12.4634 9.93115" stroke="#292D32" stroke-linecap="round" stroke-linejoin="round"/>
<rect x="0.25" y="0.25" width="72.5" height="19.5" rx="6.75" stroke="black" stroke-width="0.5"/>
</svg>
