<svg width="34" height="15" viewBox="0 0 34 15" fill="none" xmlns="http://www.w3.org/2000/svg">
<path d="M0 3C0 1.34315 1.34315 0 3 0H31C32.6569 0 34 1.34315 34 3V12C34 13.6569 32.6569 15 31 15H3C1.34315 15 0 13.6569 0 12V3Z" fill="#BFCDF5"/>
<path fill-rule="evenodd" clip-rule="evenodd" d="M7.084 6.95354C7.08954 6.95846 7.09477 6.96308 7.1 6.96862C7.432 7.30892 7.61508 7.75969 7.61508 8.23815V9.464L8.30308 9.08923C8.35723 9.05969 8.39077 9.00185 8.39077 8.93815V8.23446C8.39077 7.75785 8.572 7.30862 8.90092 6.97015L10.3892 5.38708C10.4855 5.28462 10.5385 5.15015 10.5385 5.00831V4.72031C10.5385 4.57754 10.4258 4.46154 10.288 4.46154H5.71231C5.57415 4.46154 5.46154 4.57754 5.46154 4.72031V5.00831C5.46154 5.15015 5.51446 5.28462 5.61077 5.38677L7.084 6.95354ZM7.50646 10.0003C7.44431 10.0003 7.38277 9.98369 7.32677 9.95046C7.21846 9.88585 7.15354 9.77169 7.15354 9.64492V8.23815C7.15354 7.88892 7.02338 7.56 6.78615 7.308C6.77908 7.30215 6.772 7.29569 6.76585 7.28892L5.27477 5.70338C5.09754 5.51508 5 5.268 5 5.00831V4.72031C5 4.32308 5.31969 4 5.71231 4H10.288C10.6803 4 11 4.32308 11 4.72031V5.00831C11 5.26769 10.9025 5.51446 10.7258 5.70308L9.23446 7.28892C8.98738 7.54369 8.85231 7.87877 8.85231 8.23446V8.93815C8.85231 9.17077 8.72646 9.38369 8.524 9.49446L7.67446 9.95723C7.62154 9.98585 7.564 10.0003 7.50646 10.0003Z" fill="#0C1AF5"/>
<path d="M14.438 9V4.8H17.03V5.388H15.086V6.6H16.874V7.188H15.086V9H14.438Z" fill="#0C1AF5"/>
<path d="M17.6787 9V6.042H18.2967V9H17.6787ZM17.9907 5.64C17.8707 5.64 17.7687 5.602 17.6847 5.526C17.6047 5.446 17.5647 5.344 17.5647 5.22C17.5647 5.096 17.6047 4.996 17.6847 4.92C17.7687 4.84 17.8707 4.8 17.9907 4.8C18.1147 4.8 18.2167 4.84 18.2967 4.92C18.3767 4.996 18.4167 5.096 18.4167 5.22C18.4167 5.344 18.3767 5.446 18.2967 5.526C18.2167 5.602 18.1147 5.64 17.9907 5.64Z" fill="#0C1AF5"/>
<path d="M19.2138 9V4.8H19.8318V9H19.2138Z" fill="#0C1AF5"/>
<path d="M21.859 9C21.679 9 21.535 8.946 21.427 8.838C21.323 8.73 21.271 8.586 21.271 8.406V6.564H20.455V6.042H21.271V5.064H21.889V6.042H22.771V6.564H21.889V8.298C21.889 8.418 21.945 8.478 22.057 8.478H22.675V9H21.859Z" fill="#0C1AF5"/>
<path d="M24.7475 9.084C24.4475 9.084 24.1855 9.022 23.9615 8.898C23.7375 8.77 23.5615 8.592 23.4335 8.364C23.3095 8.132 23.2475 7.864 23.2475 7.56V7.488C23.2475 7.18 23.3095 6.912 23.4335 6.684C23.5575 6.452 23.7295 6.274 23.9495 6.15C24.1735 6.022 24.4315 5.958 24.7235 5.958C25.0075 5.958 25.2555 6.022 25.4675 6.15C25.6835 6.274 25.8515 6.448 25.9715 6.672C26.0915 6.896 26.1515 7.158 26.1515 7.458V7.692H23.8775C23.8855 7.952 23.9715 8.16 24.1355 8.316C24.3035 8.468 24.5115 8.544 24.7595 8.544C24.9915 8.544 25.1655 8.492 25.2815 8.388C25.4015 8.284 25.4935 8.164 25.5575 8.028L26.0675 8.292C26.0115 8.404 25.9295 8.522 25.8215 8.646C25.7175 8.77 25.5795 8.874 25.4075 8.958C25.2355 9.042 25.0155 9.084 24.7475 9.084ZM23.8835 7.218H25.5215C25.5055 6.994 25.4255 6.82 25.2815 6.696C25.1375 6.568 24.9495 6.504 24.7175 6.504C24.4855 6.504 24.2955 6.568 24.1475 6.696C24.0035 6.82 23.9155 6.994 23.8835 7.218Z" fill="#0C1AF5"/>
<path d="M26.8955 9V6.042H27.5015V6.39H27.5975C27.6455 6.266 27.7215 6.176 27.8255 6.12C27.9335 6.06 28.0655 6.03 28.2215 6.03H28.5755V6.588H28.1975C27.9975 6.588 27.8335 6.644 27.7055 6.756C27.5775 6.864 27.5135 7.032 27.5135 7.26V9H26.8955Z" fill="#0C1AF5"/>
</svg>
