<svg width="34" height="15" viewBox="0 0 34 15" fill="none" xmlns="http://www.w3.org/2000/svg">
<rect width="34" height="15" rx="3" fill="white"/>
<rect x="0.15" y="0.15" width="33.7" height="14.7" rx="2.85" stroke="black" stroke-opacity="0.3" stroke-width="0.3"/>
<path fill-rule="evenodd" clip-rule="evenodd" d="M7.084 6.95354C7.08954 6.95846 7.09477 6.96308 7.1 6.96862C7.432 7.30892 7.61508 7.75969 7.61508 8.23815V9.464L8.30308 9.08923C8.35723 9.05969 8.39077 9.00185 8.39077 8.93815V8.23446C8.39077 7.75785 8.572 7.30862 8.90092 6.97015L10.3892 5.38708C10.4855 5.28462 10.5385 5.15015 10.5385 5.00831V4.72031C10.5385 4.57754 10.4258 4.46154 10.288 4.46154H5.71231C5.57415 4.46154 5.46154 4.57754 5.46154 4.72031V5.00831C5.46154 5.15015 5.51446 5.28462 5.61077 5.38677L7.084 6.95354ZM7.50646 10.0003C7.44431 10.0003 7.38277 9.98369 7.32677 9.95046C7.21846 9.88585 7.15354 9.77169 7.15354 9.64492V8.23815C7.15354 7.88892 7.02338 7.56 6.78615 7.308C6.77908 7.30215 6.772 7.29569 6.76585 7.28892L5.27477 5.70338C5.09754 5.51508 5 5.268 5 5.00831V4.72031C5 4.32308 5.31969 4 5.71231 4H10.288C10.6803 4 11 4.32308 11 4.72031V5.00831C11 5.26769 10.9025 5.51446 10.7258 5.70308L9.23446 7.28892C8.98738 7.54369 8.85231 7.87877 8.85231 8.23446V8.93815C8.85231 9.17077 8.72646 9.38369 8.524 9.49446L7.67446 9.95723C7.62154 9.98585 7.564 10.0003 7.50646 10.0003Z" fill="black"/>
<path d="M14.48 9V4.8H17.018V5.256H14.984V6.666H16.856V7.122H14.984V9H14.48ZM17.7382 9V6.066H18.2122V9H17.7382ZM17.9782 5.61C17.8742 5.61 17.7862 5.576 17.7142 5.508C17.6462 5.44 17.6122 5.354 17.6122 5.25C17.6122 5.142 17.6462 5.054 17.7142 4.986C17.7862 4.918 17.8742 4.884 17.9782 4.884C18.0822 4.884 18.1682 4.918 18.2362 4.986C18.3042 5.054 18.3382 5.142 18.3382 5.25C18.3382 5.354 18.3042 5.44 18.2362 5.508C18.1682 5.576 18.0822 5.61 17.9782 5.61ZM19.2089 9V4.8H19.6829V9H19.2089ZM21.7596 9C21.5916 9 21.4616 8.954 21.3696 8.862C21.2816 8.77 21.2376 8.644 21.2376 8.484V6.48H20.3556V6.066H21.2376V5.022H21.7116V6.066H22.6716V6.48H21.7116V8.412C21.7116 8.532 21.7696 8.592 21.8856 8.592H22.5396V9H21.7596ZM24.6779 9.084C24.3819 9.084 24.1219 9.022 23.8979 8.898C23.6739 8.77 23.4999 8.592 23.3759 8.364C23.2519 8.136 23.1899 7.872 23.1899 7.572V7.5C23.1899 7.196 23.2519 6.93 23.3759 6.702C23.4999 6.474 23.6719 6.298 23.8919 6.174C24.1119 6.046 24.3639 5.982 24.6479 5.982C24.9239 5.982 25.1679 6.042 25.3799 6.162C25.5919 6.278 25.7579 6.446 25.8779 6.666C25.9979 6.886 26.0579 7.144 26.0579 7.44V7.656H23.6639C23.6759 7.972 23.7779 8.22 23.9699 8.4C24.1619 8.576 24.4019 8.664 24.6899 8.664C24.9419 8.664 25.1359 8.606 25.2719 8.49C25.4079 8.374 25.5119 8.236 25.5839 8.076L25.9919 8.274C25.9319 8.398 25.8479 8.522 25.7399 8.646C25.6359 8.77 25.4979 8.874 25.3259 8.958C25.1579 9.042 24.9419 9.084 24.6779 9.084ZM23.6699 7.266H25.5779C25.5619 6.994 25.4679 6.782 25.2959 6.63C25.1279 6.478 24.9119 6.402 24.6479 6.402C24.3799 6.402 24.1599 6.478 23.9879 6.63C23.8159 6.782 23.7099 6.994 23.6699 7.266ZM26.8847 9V6.066H27.3467V6.426H27.4307C27.4827 6.298 27.5627 6.204 27.6707 6.144C27.7787 6.084 27.9207 6.054 28.0967 6.054H28.4447V6.486H28.0667C27.8547 6.486 27.6827 6.546 27.5507 6.666C27.4227 6.782 27.3587 6.964 27.3587 7.212V9H26.8847Z" fill="black"/>
</svg>
