<svg width="75" height="20" viewBox="0 0 75 20" fill="none" xmlns="http://www.w3.org/2000/svg">
<rect x="0.25" y="0.25" width="74.5" height="19.5" rx="6.75" fill="#A7BBF5"/>
<path d="M16.9889 13.112C16.5889 13.112 16.2316 13.0267 15.9169 12.856C15.6023 12.68 15.3543 12.424 15.1729 12.088C14.9916 11.752 14.9009 11.3413 14.9009 10.856V9.544C14.9009 8.81333 15.1009 8.256 15.5009 7.872C15.9009 7.48267 16.4423 7.288 17.1249 7.288C17.7969 7.288 18.3143 7.472 18.6769 7.84C19.0396 8.20267 19.2209 8.69067 19.2209 9.304V9.344H18.3649V9.28C18.3649 9.05067 18.3196 8.84533 18.2289 8.664C18.1383 8.47733 18.0023 8.33067 17.8209 8.224C17.6396 8.11733 17.4076 8.064 17.1249 8.064C16.6983 8.064 16.3649 8.19467 16.1249 8.456C15.8849 8.712 15.7649 9.06933 15.7649 9.528V10.872C15.7649 11.3253 15.8849 11.6853 16.1249 11.952C16.3649 12.2133 16.7009 12.344 17.1329 12.344C17.5596 12.344 17.8716 12.2267 18.0689 11.992C18.2663 11.7573 18.3649 11.4533 18.3649 11.08V10.976H16.8609V10.232H19.2209V13H18.4209V12.432H18.2929C18.2449 12.5333 18.1729 12.6373 18.0769 12.744C17.9863 12.8507 17.8529 12.9387 17.6769 13.008C17.5063 13.0773 17.2769 13.112 16.9889 13.112ZM22.166 13.112C21.766 13.112 21.4167 13.0293 21.118 12.864C20.8193 12.6933 20.5847 12.456 20.414 12.152C20.2487 11.8427 20.166 11.4853 20.166 11.08V10.984C20.166 10.5733 20.2487 10.216 20.414 9.912C20.5793 9.60267 20.8087 9.36533 21.102 9.2C21.4007 9.02933 21.7447 8.944 22.134 8.944C22.5127 8.944 22.8433 9.02933 23.126 9.2C23.414 9.36533 23.638 9.59733 23.798 9.896C23.958 10.1947 24.038 10.544 24.038 10.944V11.256H21.006C21.0167 11.6027 21.1313 11.88 21.35 12.088C21.574 12.2907 21.8513 12.392 22.182 12.392C22.4913 12.392 22.7233 12.3227 22.878 12.184C23.038 12.0453 23.1607 11.8853 23.246 11.704L23.926 12.056C23.8513 12.2053 23.742 12.3627 23.598 12.528C23.4593 12.6933 23.2753 12.832 23.046 12.944C22.8167 13.056 22.5233 13.112 22.166 13.112ZM21.014 10.624H23.198C23.1767 10.3253 23.07 10.0933 22.878 9.928C22.686 9.75733 22.4353 9.672 22.126 9.672C21.8167 9.672 21.5633 9.75733 21.366 9.928C21.174 10.0933 21.0567 10.3253 21.014 10.624ZM26.3614 13C26.1214 13 25.9294 12.928 25.7854 12.784C25.6468 12.64 25.5774 12.448 25.5774 12.208V9.752H24.4894V9.056H25.5774V7.752H26.4014V9.056H27.5774V9.752H26.4014V12.064C26.4014 12.224 26.4761 12.304 26.6254 12.304H27.4494V13H26.3614ZM32.4646 13.112C32.0432 13.112 31.6699 13.0373 31.3446 12.888C31.0192 12.7387 30.7632 12.52 30.5766 12.232C30.3952 11.9387 30.3046 11.584 30.3046 11.168V10.968H31.1606V11.168C31.1606 11.5627 31.2779 11.8587 31.5126 12.056C31.7526 12.2533 32.0699 12.352 32.4646 12.352C32.8646 12.352 33.1659 12.2693 33.3686 12.104C33.5712 11.9333 33.6726 11.7147 33.6726 11.448C33.6726 11.272 33.6246 11.128 33.5286 11.016C33.4326 10.904 33.2966 10.816 33.1206 10.752C32.9446 10.6827 32.7339 10.6187 32.4886 10.56L32.1926 10.488C31.8352 10.4027 31.5232 10.2987 31.2566 10.176C30.9952 10.048 30.7926 9.88 30.6486 9.672C30.5046 9.464 30.4326 9.19733 30.4326 8.872C30.4326 8.54133 30.5126 8.25867 30.6726 8.024C30.8379 7.78933 31.0646 7.608 31.3526 7.48C31.6406 7.352 31.9792 7.288 32.3686 7.288C32.7579 7.288 33.1046 7.35467 33.4086 7.488C33.7179 7.62133 33.9606 7.81867 34.1366 8.08C34.3126 8.34133 34.4006 8.66933 34.4006 9.064V9.352H33.5446V9.064C33.5446 8.824 33.4939 8.62933 33.3926 8.48C33.2966 8.33067 33.1606 8.22133 32.9846 8.152C32.8086 8.08267 32.6032 8.048 32.3686 8.048C32.0272 8.048 31.7606 8.12 31.5686 8.264C31.3819 8.40267 31.2886 8.59733 31.2886 8.848C31.2886 9.01867 31.3286 9.16 31.4086 9.272C31.4939 9.37867 31.6166 9.46667 31.7766 9.536C31.9366 9.60533 32.1366 9.66667 32.3766 9.72L32.6726 9.792C33.0352 9.872 33.3552 9.976 33.6326 10.104C33.9099 10.2267 34.1286 10.3947 34.2886 10.608C34.4486 10.8213 34.5286 11.096 34.5286 11.432C34.5286 11.768 34.4432 12.0613 34.2726 12.312C34.1072 12.5627 33.8699 12.76 33.5606 12.904C33.2512 13.0427 32.8859 13.112 32.4646 13.112ZM36.9396 13C36.6996 13 36.5076 12.928 36.3636 12.784C36.2249 12.64 36.1556 12.448 36.1556 12.208V9.752H35.0676V9.056H36.1556V7.752H36.9796V9.056H38.1556V9.752H36.9796V12.064C36.9796 12.224 37.0542 12.304 37.2036 12.304H38.0276V13H36.9396ZM40.3398 13.112C40.0571 13.112 39.8038 13.064 39.5798 12.968C39.3611 12.872 39.1851 12.7307 39.0518 12.544C38.9238 12.3573 38.8598 12.1307 38.8598 11.864C38.8598 11.592 38.9238 11.368 39.0518 11.192C39.1851 11.0107 39.3638 10.8747 39.5878 10.784C39.8171 10.6933 40.0758 10.648 40.3638 10.648H41.5638V10.392C41.5638 10.1627 41.4945 9.97867 41.3558 9.84C41.2171 9.70133 41.0038 9.632 40.7158 9.632C40.4331 9.632 40.2171 9.69867 40.0678 9.832C39.9185 9.96533 39.8198 10.1387 39.7718 10.352L39.0038 10.104C39.0678 9.89067 39.1691 9.69867 39.3078 9.528C39.4518 9.352 39.6411 9.21067 39.8758 9.104C40.1105 8.99733 40.3931 8.944 40.7238 8.944C41.2358 8.944 41.6385 9.07467 41.9318 9.336C42.2251 9.59733 42.3718 9.968 42.3718 10.448V12.072C42.3718 12.232 42.4465 12.312 42.5958 12.312H42.9318V13H42.3158C42.1291 13 41.9771 12.952 41.8598 12.856C41.7425 12.76 41.6838 12.6293 41.6838 12.464V12.44H41.5638C41.5211 12.52 41.4571 12.6133 41.3718 12.72C41.2865 12.8267 41.1611 12.92 40.9958 13C40.8305 13.0747 40.6118 13.112 40.3398 13.112ZM40.4598 12.432C40.7905 12.432 41.0571 12.3387 41.2598 12.152C41.4625 11.96 41.5638 11.6987 41.5638 11.368V11.288H40.4118C40.1931 11.288 40.0171 11.336 39.8838 11.432C39.7505 11.5227 39.6838 11.6587 39.6838 11.84C39.6838 12.0213 39.7531 12.1653 39.8918 12.272C40.0305 12.3787 40.2198 12.432 40.4598 12.432ZM43.733 13V9.056H44.541V9.52H44.669C44.733 9.35467 44.8343 9.23467 44.973 9.16C45.117 9.08 45.293 9.04 45.501 9.04H45.973V9.784H45.469C45.2023 9.784 44.9837 9.85867 44.813 10.008C44.6423 10.152 44.557 10.376 44.557 10.68V13H43.733ZM48.3068 13C48.0668 13 47.8748 12.928 47.7308 12.784C47.5921 12.64 47.5228 12.448 47.5228 12.208V9.752H46.4348V9.056H47.5228V7.752H48.3468V9.056H49.5228V9.752H48.3468V12.064C48.3468 12.224 48.4214 12.304 48.5707 12.304H49.3948V13H48.3068ZM52.1582 13.112C51.7582 13.112 51.4089 13.0293 51.1102 12.864C50.8115 12.6933 50.5769 12.456 50.4062 12.152C50.2409 11.8427 50.1582 11.4853 50.1582 11.08V10.984C50.1582 10.5733 50.2409 10.216 50.4062 9.912C50.5715 9.60267 50.8009 9.36533 51.0942 9.2C51.3929 9.02933 51.7369 8.944 52.1262 8.944C52.5049 8.944 52.8355 9.02933 53.1182 9.2C53.4062 9.36533 53.6302 9.59733 53.7902 9.896C53.9502 10.1947 54.0302 10.544 54.0302 10.944V11.256H50.9982C51.0089 11.6027 51.1235 11.88 51.3422 12.088C51.5662 12.2907 51.8435 12.392 52.1742 12.392C52.4835 12.392 52.7155 12.3227 52.8702 12.184C53.0302 12.0453 53.1529 11.8853 53.2382 11.704L53.9182 12.056C53.8435 12.2053 53.7342 12.3627 53.5902 12.528C53.4515 12.6933 53.2675 12.832 53.0382 12.944C52.8089 13.056 52.5155 13.112 52.1582 13.112ZM51.0062 10.624H53.1902C53.1689 10.3253 53.0622 10.0933 52.8702 9.928C52.6782 9.75733 52.4275 9.672 52.1182 9.672C51.8089 9.672 51.5555 9.75733 51.3582 9.928C51.1662 10.0933 51.0489 10.3253 51.0062 10.624ZM56.6541 13.112C56.3287 13.112 56.0274 13.032 55.7501 12.872C55.4727 12.712 55.2487 12.4827 55.0781 12.184C54.9127 11.88 54.8301 11.5147 54.8301 11.088V10.968C54.8301 10.5467 54.9127 10.184 55.0781 9.88C55.2434 9.576 55.4647 9.344 55.7421 9.184C56.0194 9.024 56.3234 8.944 56.6541 8.944C56.9101 8.944 57.1234 8.976 57.2941 9.04C57.4701 9.104 57.6141 9.18667 57.7261 9.288C57.8381 9.384 57.9234 9.48533 57.9821 9.592H58.1101V7.4H58.9341V13H58.1261V12.44H57.9981C57.8967 12.6107 57.7421 12.7653 57.5341 12.904C57.3314 13.0427 57.0381 13.112 56.6541 13.112ZM56.8861 12.392C57.2434 12.392 57.5367 12.2773 57.7661 12.048C58.0007 11.8187 58.1181 11.4907 58.1181 11.064V10.992C58.1181 10.5707 58.0034 10.2453 57.7741 10.016C57.5447 9.78667 57.2487 9.672 56.8861 9.672C56.5341 9.672 56.2407 9.78667 56.0061 10.016C55.7767 10.2453 55.6621 10.5707 55.6621 10.992V11.064C55.6621 11.4907 55.7767 11.8187 56.0061 12.048C56.2407 12.2773 56.5341 12.392 56.8861 12.392Z" fill="black"/>
<rect x="0.25" y="0.25" width="74.5" height="19.5" rx="6.75" stroke="black" stroke-width="0.5"/>
</svg>
