<svg width="261" height="24" viewBox="0 0 261 24" fill="none" xmlns="http://www.w3.org/2000/svg">
<path d="M8.51225 23.448C6.97625 23.448 5.57892 23.1067 4.32025 22.424C3.08292 21.72 2.09092 20.7067 1.34425 19.384C0.618917 18.04 0.25625 16.408 0.25625 14.488V9.112C0.25625 6.232 1.06692 4.024 2.68825 2.488C4.30958 0.930665 6.50692 0.151999 9.28025 0.151999C12.0323 0.151999 14.1549 0.887999 15.6483 2.36C17.1629 3.81067 17.9203 5.784 17.9203 8.28V8.408H13.7603V8.152C13.7603 7.36267 13.5896 6.648 13.2483 6.008C12.9283 5.368 12.4376 4.86667 11.7763 4.504C11.1149 4.12 10.2829 3.928 9.28025 3.928C7.78692 3.928 6.61358 4.38667 5.76025 5.304C4.90692 6.22133 4.48025 7.46933 4.48025 9.048V14.552C4.48025 16.1093 4.90692 17.368 5.76025 18.328C6.61358 19.2667 7.80825 19.736 9.34425 19.736C10.8803 19.736 12.0003 19.3307 12.7043 18.52C13.4083 17.7093 13.7603 16.6853 13.7603 15.448V15.128H8.44825V11.544H17.9203V23H14.0163V20.856H13.4403C13.2909 21.2187 13.0456 21.6027 12.7043 22.008C12.3843 22.4133 11.8936 22.7547 11.2323 23.032C10.5709 23.3093 9.66425 23.448 8.51225 23.448ZM29.3158 23.448C27.7371 23.448 26.3398 23.1173 25.1238 22.456C23.9291 21.7733 22.9904 20.824 22.3078 19.608C21.6464 18.3707 21.3158 16.92 21.3158 15.256V14.872C21.3158 13.208 21.6464 11.768 22.3078 10.552C22.9691 9.31467 23.8971 8.36533 25.0918 7.704C26.2864 7.02133 27.6731 6.68 29.2517 6.68C30.8091 6.68 32.1638 7.032 33.3158 7.736C34.4678 8.41867 35.3638 9.37867 36.0037 10.616C36.6438 11.832 36.9638 13.2507 36.9638 14.872V16.248H25.4118C25.4544 17.336 25.8598 18.2213 26.6278 18.904C27.3958 19.5867 28.3344 19.928 29.4438 19.928C30.5744 19.928 31.4064 19.6827 31.9398 19.192C32.4731 18.7013 32.8784 18.1573 33.1558 17.56L36.4518 19.288C36.1531 19.8427 35.7158 20.4507 35.1398 21.112C34.5851 21.752 33.8384 22.3067 32.8998 22.776C31.9611 23.224 30.7664 23.448 29.3158 23.448ZM25.4438 13.24H32.8678C32.7824 12.3227 32.4091 11.5867 31.7478 11.032C31.1078 10.4773 30.2651 10.2 29.2198 10.2C28.1318 10.2 27.2678 10.4773 26.6278 11.032C25.9878 11.5867 25.5931 12.3227 25.4438 13.24ZM46.1325 23C45.0872 23 44.2338 22.68 43.5725 22.04C42.9325 21.3787 42.6125 20.504 42.6125 19.416V10.456H38.6445V7.128H42.6125V2.2H46.6445V7.128H50.9965V10.456H46.6445V18.712C46.6445 19.352 46.9432 19.672 47.5405 19.672H50.6125V23H46.1325ZM70.4193 23.448C68.6913 23.448 67.1659 23.1387 65.8433 22.52C64.5206 21.9013 63.4859 21.016 62.7393 19.864C61.9926 18.712 61.6193 17.3253 61.6193 15.704V14.808H65.7793V15.704C65.7793 17.048 66.1953 18.0613 67.0273 18.744C67.8593 19.4053 68.9899 19.736 70.4193 19.736C71.8699 19.736 72.9473 19.448 73.6513 18.872C74.3766 18.296 74.7393 17.56 74.7393 16.664C74.7393 16.0453 74.5579 15.544 74.1953 15.16C73.8539 14.776 73.3419 14.4667 72.6593 14.232C71.9979 13.976 71.1873 13.7413 70.2273 13.528L69.4913 13.368C67.9553 13.0267 66.6326 12.6 65.5233 12.088C64.4353 11.5547 63.5926 10.8613 62.9953 10.008C62.4193 9.15467 62.1313 8.04533 62.1313 6.68C62.1313 5.31467 62.4513 4.152 63.0913 3.192C63.7526 2.21067 64.6699 1.464 65.8433 0.952C67.0379 0.418666 68.4353 0.151999 70.0353 0.151999C71.6353 0.151999 73.0539 0.429332 74.2913 0.983999C75.5499 1.51733 76.5313 2.328 77.2353 3.416C77.9606 4.48267 78.3233 5.82667 78.3233 7.448V8.408H74.1633V7.448C74.1633 6.59467 73.9926 5.912 73.6513 5.4C73.3313 4.86667 72.8619 4.48267 72.2433 4.248C71.6246 3.992 70.8886 3.864 70.0353 3.864C68.7553 3.864 67.8059 4.10933 67.1873 4.6C66.5899 5.06933 66.2913 5.72 66.2913 6.552C66.2913 7.10667 66.4299 7.576 66.7073 7.96C67.0059 8.344 67.4433 8.664 68.0193 8.92C68.5953 9.176 69.3313 9.4 70.2273 9.592L70.9633 9.752C72.5633 10.0933 73.9499 10.5307 75.1233 11.064C76.3179 11.5973 77.2459 12.3013 77.9073 13.176C78.5686 14.0507 78.8993 15.1707 78.8993 16.536C78.8993 17.9013 78.5473 19.1067 77.8433 20.152C77.1606 21.176 76.1793 21.9867 74.8993 22.584C73.6406 23.16 72.1473 23.448 70.4193 23.448ZM88.2575 23C87.2122 23 86.3588 22.68 85.6975 22.04C85.0575 21.3787 84.7375 20.504 84.7375 19.416V10.456H80.7695V7.128H84.7375V2.2H88.7695V7.128H93.1215V10.456H88.7695V18.712C88.7695 19.352 89.0682 19.672 89.6655 19.672H92.7375V23H88.2575ZM101.699 23.448C100.569 23.448 99.5553 23.256 98.6593 22.872C97.7633 22.4667 97.0486 21.8907 96.5153 21.144C96.0033 20.376 95.7473 19.448 95.7473 18.36C95.7473 17.272 96.0033 16.3653 96.5153 15.64C97.0486 14.8933 97.7739 14.3387 98.6913 13.976C99.6299 13.592 100.697 13.4 101.891 13.4H106.243V12.504C106.243 11.7573 106.009 11.1493 105.539 10.68C105.07 10.1893 104.323 9.944 103.299 9.944C102.297 9.944 101.55 10.1787 101.059 10.648C100.569 11.096 100.249 11.6827 100.099 12.408L96.3873 11.16C96.6433 10.3493 97.0486 9.61333 97.6033 8.952C98.1793 8.26933 98.9366 7.72533 99.8753 7.32C100.835 6.89333 101.998 6.68 103.363 6.68C105.454 6.68 107.107 7.20267 108.323 8.248C109.539 9.29333 110.147 10.808 110.147 12.792V18.712C110.147 19.352 110.446 19.672 111.043 19.672H112.323V23H109.635C108.846 23 108.195 22.808 107.683 22.424C107.171 22.04 106.915 21.528 106.915 20.888V20.856H106.307C106.222 21.112 106.03 21.4533 105.731 21.88C105.433 22.2853 104.963 22.648 104.323 22.968C103.683 23.288 102.809 23.448 101.699 23.448ZM102.403 20.184C103.534 20.184 104.451 19.8747 105.155 19.256C105.881 18.616 106.243 17.7733 106.243 16.728V16.408H102.179C101.433 16.408 100.846 16.568 100.419 16.888C99.9926 17.208 99.7793 17.656 99.7793 18.232C99.7793 18.808 100.003 19.2773 100.451 19.64C100.899 20.0027 101.55 20.184 102.403 20.184ZM115.271 23V7.128H119.239V8.92H119.815C120.05 8.28 120.434 7.81067 120.967 7.512C121.522 7.21333 122.162 7.064 122.887 7.064H124.807V10.648H122.823C121.799 10.648 120.957 10.9253 120.295 11.48C119.634 12.0133 119.303 12.8453 119.303 13.976V23H115.271ZM134.039 23C132.993 23 132.14 22.68 131.479 22.04C130.839 21.3787 130.519 20.504 130.519 19.416V10.456H126.551V7.128H130.519V2.2H134.551V7.128H138.903V10.456H134.551V18.712C134.551 19.352 134.849 19.672 135.447 19.672H138.519V23H134.039ZM149.222 23.448C147.643 23.448 146.246 23.1173 145.03 22.456C143.835 21.7733 142.897 20.824 142.214 19.608C141.553 18.3707 141.222 16.92 141.222 15.256V14.872C141.222 13.208 141.553 11.768 142.214 10.552C142.875 9.31467 143.803 8.36533 144.998 7.704C146.193 7.02133 147.579 6.68 149.158 6.68C150.715 6.68 152.07 7.032 153.222 7.736C154.374 8.41867 155.27 9.37867 155.91 10.616C156.55 11.832 156.87 13.2507 156.87 14.872V16.248H145.318C145.361 17.336 145.766 18.2213 146.534 18.904C147.302 19.5867 148.241 19.928 149.35 19.928C150.481 19.928 151.313 19.6827 151.846 19.192C152.379 18.7013 152.785 18.1573 153.062 17.56L156.358 19.288C156.059 19.8427 155.622 20.4507 155.046 21.112C154.491 21.752 153.745 22.3067 152.806 22.776C151.867 23.224 150.673 23.448 149.222 23.448ZM145.35 13.24H152.774C152.689 12.3227 152.315 11.5867 151.654 11.032C151.014 10.4773 150.171 10.2 149.126 10.2C148.038 10.2 147.174 10.4773 146.534 11.032C145.894 11.5867 145.499 12.3227 145.35 13.24ZM166.859 23.448C165.6 23.448 164.416 23.1387 163.307 22.52C162.219 21.88 161.344 20.952 160.683 19.736C160.021 18.52 159.691 17.048 159.691 15.32V14.808C159.691 13.08 160.021 11.608 160.683 10.392C161.344 9.176 162.219 8.25867 163.307 7.64C164.395 7 165.579 6.68 166.859 6.68C167.819 6.68 168.619 6.79733 169.259 7.032C169.92 7.24533 170.453 7.52267 170.859 7.864C171.264 8.20533 171.573 8.568 171.787 8.952H172.363V0.599998H176.395V23H172.427V21.08H171.851C171.488 21.6773 170.923 22.2213 170.155 22.712C169.408 23.2027 168.309 23.448 166.859 23.448ZM168.075 19.928C169.312 19.928 170.347 19.5333 171.179 18.744C172.011 17.9333 172.427 16.76 172.427 15.224V14.904C172.427 13.368 172.011 12.2053 171.179 11.416C170.368 10.6053 169.333 10.2 168.075 10.2C166.837 10.2 165.803 10.6053 164.971 11.416C164.139 12.2053 163.723 13.368 163.723 14.904V15.224C163.723 16.76 164.139 17.9333 164.971 18.744C165.803 19.5333 166.837 19.928 168.075 19.928ZM188.862 23V0.599998H196.894L201.342 20.12H201.918V0.599998H206.078V23H198.046L193.598 3.48H193.022V23H188.862ZM217.98 23.448C216.401 23.448 214.982 23.128 213.724 22.488C212.465 21.848 211.473 20.92 210.748 19.704C210.022 18.488 209.66 17.0267 209.66 15.32V14.808C209.66 13.1013 210.022 11.64 210.748 10.424C211.473 9.208 212.465 8.28 213.724 7.64C214.982 7 216.401 6.68 217.98 6.68C219.558 6.68 220.977 7 222.236 7.64C223.494 8.28 224.486 9.208 225.212 10.424C225.937 11.64 226.3 13.1013 226.3 14.808V15.32C226.3 17.0267 225.937 18.488 225.212 19.704C224.486 20.92 223.494 21.848 222.236 22.488C220.977 23.128 219.558 23.448 217.98 23.448ZM217.98 19.864C219.217 19.864 220.241 19.4693 221.052 18.68C221.862 17.8693 222.268 16.7173 222.268 15.224V14.904C222.268 13.4107 221.862 12.2693 221.052 11.48C220.262 10.6693 219.238 10.264 217.98 10.264C216.742 10.264 215.718 10.6693 214.908 11.48C214.097 12.2693 213.692 13.4107 213.692 14.904V15.224C213.692 16.7173 214.097 17.8693 214.908 18.68C215.718 19.4693 216.742 19.864 217.98 19.864ZM231.239 23L228.999 7.128H232.999L234.407 20.28H234.983L237.031 7.128H243.495L245.543 20.28H246.119L247.527 7.128H251.527L249.287 23H242.599L240.551 9.848H239.975L237.927 23H231.239ZM255.533 15.64V0.599998H259.629V15.64H255.533ZM257.613 23.448C256.738 23.448 256.002 23.1707 255.405 22.616C254.829 22.04 254.541 21.304 254.541 20.408C254.541 19.512 254.829 18.7867 255.405 18.232C256.002 17.656 256.738 17.368 257.613 17.368C258.466 17.368 259.181 17.656 259.757 18.232C260.333 18.7867 260.621 19.512 260.621 20.408C260.621 21.304 260.333 22.04 259.757 22.616C259.181 23.1707 258.466 23.448 257.613 23.448Z" fill="white"/>
</svg>
