<svg width="50" height="50" viewBox="0 0 50 50" fill="none" xmlns="http://www.w3.org/2000/svg">
<path d="M0 8C0 3.58172 3.58172 0 8 0H42C46.4183 0 50 3.58172 50 8V42C50 46.4183 46.4183 50 42 50H8C3.58172 50 0 46.4183 0 42V8Z" fill="#F5F5F5"/>
<path d="M18.582 35V31.5H19.242V32.945H20.542V31.5H21.202V35H20.542V33.545H19.242V35H18.582Z" fill="black"/>
<path d="M23.0632 35.07C22.8165 35.07 22.5949 35.02 22.3982 34.92C22.2015 34.82 22.0465 34.675 21.9332 34.485C21.8199 34.295 21.7632 34.0667 21.7632 33.8V33.72C21.7632 33.4533 21.8199 33.225 21.9332 33.035C22.0465 32.845 22.2015 32.7 22.3982 32.6C22.5949 32.5 22.8165 32.45 23.0632 32.45C23.3099 32.45 23.5315 32.5 23.7282 32.6C23.9249 32.7 24.0799 32.845 24.1932 33.035C24.3065 33.225 24.3632 33.4533 24.3632 33.72V33.8C24.3632 34.0667 24.3065 34.295 24.1932 34.485C24.0799 34.675 23.9249 34.82 23.7282 34.92C23.5315 35.02 23.3099 35.07 23.0632 35.07ZM23.0632 34.51C23.2565 34.51 23.4165 34.4483 23.5432 34.325C23.6699 34.1983 23.7332 34.0183 23.7332 33.785V33.735C23.7332 33.5017 23.6699 33.3233 23.5432 33.2C23.4199 33.0733 23.2599 33.01 23.0632 33.01C22.8699 33.01 22.7099 33.0733 22.5832 33.2C22.4565 33.3233 22.3932 33.5017 22.3932 33.735V33.785C22.3932 34.0183 22.4565 34.1983 22.5832 34.325C22.7099 34.4483 22.8699 34.51 23.0632 34.51Z" fill="black"/>
<path d="M24.9447 35V32.52H25.5647V32.79H25.6547C25.6981 32.7067 25.7697 32.635 25.8697 32.575C25.9697 32.5117 26.1014 32.48 26.2647 32.48C26.4414 32.48 26.5831 32.515 26.6897 32.585C26.7964 32.6517 26.8781 32.74 26.9347 32.85H27.0247C27.0814 32.7433 27.1614 32.655 27.2647 32.585C27.3681 32.515 27.5147 32.48 27.7047 32.48C27.8581 32.48 27.9964 32.5133 28.1197 32.58C28.2464 32.6433 28.3464 32.7417 28.4197 32.875C28.4964 33.005 28.5347 33.17 28.5347 33.37V35H27.9047V33.415C27.9047 33.2783 27.8697 33.1767 27.7997 33.11C27.7297 33.04 27.6314 33.005 27.5047 33.005C27.3614 33.005 27.2497 33.0517 27.1697 33.145C27.0931 33.235 27.0547 33.365 27.0547 33.535V35H26.4247V33.415C26.4247 33.2783 26.3897 33.1767 26.3197 33.11C26.2497 33.04 26.1514 33.005 26.0247 33.005C25.8814 33.005 25.7697 33.0517 25.6897 33.145C25.6131 33.235 25.5747 33.365 25.5747 33.535V35H24.9447Z" fill="black"/>
<path d="M30.3423 35.07C30.0956 35.07 29.8773 35.0183 29.6873 34.915C29.5006 34.8083 29.354 34.66 29.2473 34.47C29.144 34.2767 29.0923 34.05 29.0923 33.79V33.73C29.0923 33.47 29.144 33.245 29.2473 33.055C29.3506 32.8617 29.4956 32.7133 29.6823 32.61C29.869 32.5033 30.0856 32.45 30.3323 32.45C30.5756 32.45 30.7873 32.505 30.9673 32.615C31.1473 32.7217 31.2873 32.8717 31.3873 33.065C31.4873 33.255 31.5373 33.4767 31.5373 33.73V33.945H29.7323C29.739 34.115 29.8023 34.2533 29.9223 34.36C30.0423 34.4667 30.189 34.52 30.3623 34.52C30.539 34.52 30.669 34.4817 30.7523 34.405C30.8356 34.3283 30.899 34.2433 30.9423 34.15L31.4573 34.42C31.4106 34.5067 31.3423 34.6017 31.2523 34.705C31.1656 34.805 31.049 34.8917 30.9023 34.965C30.7556 35.035 30.569 35.07 30.3423 35.07ZM29.7373 33.475H30.8973C30.884 33.3317 30.8256 33.2167 30.7223 33.13C30.6223 33.0433 30.4906 33 30.3273 33C30.1573 33 30.0223 33.0433 29.9223 33.13C29.8223 33.2167 29.7606 33.3317 29.7373 33.475Z" fill="black"/>
<path d="M11.7843 41L12.7043 37.5H13.8543L14.7743 41H14.0943L13.9043 40.23H12.6543L12.4643 41H11.7843ZM12.8093 39.62H13.7493L13.3243 37.915H13.2343L12.8093 39.62Z" fill="black"/>
<path d="M15.2133 42V38.52H15.8333V38.82H15.9233C15.9799 38.7233 16.0683 38.6383 16.1883 38.565C16.3083 38.4883 16.4799 38.45 16.7033 38.45C16.9033 38.45 17.0883 38.5 17.2583 38.6C17.4283 38.6967 17.5649 38.84 17.6683 39.03C17.7716 39.22 17.8233 39.45 17.8233 39.72V39.8C17.8233 40.07 17.7716 40.3 17.6683 40.49C17.5649 40.68 17.4283 40.825 17.2583 40.925C17.0883 41.0217 16.9033 41.07 16.7033 41.07C16.5533 41.07 16.4266 41.0517 16.3233 41.015C16.2233 40.9817 16.1416 40.9383 16.0783 40.885C16.0183 40.8283 15.9699 40.7717 15.9333 40.715H15.8433V42H15.2133ZM16.5133 40.52C16.7099 40.52 16.8716 40.4583 16.9983 40.335C17.1283 40.2083 17.1933 40.025 17.1933 39.785V39.735C17.1933 39.495 17.1283 39.3133 16.9983 39.19C16.8683 39.0633 16.7066 39 16.5133 39C16.3199 39 16.1583 39.0633 16.0283 39.19C15.8983 39.3133 15.8333 39.495 15.8333 39.735V39.785C15.8333 40.025 15.8983 40.2083 16.0283 40.335C16.1583 40.4583 16.3199 40.52 16.5133 40.52Z" fill="black"/>
<path d="M18.4018 42V38.52H19.0218V38.82H19.1118C19.1684 38.7233 19.2568 38.6383 19.3768 38.565C19.4968 38.4883 19.6684 38.45 19.8918 38.45C20.0918 38.45 20.2768 38.5 20.4468 38.6C20.6168 38.6967 20.7534 38.84 20.8568 39.03C20.9601 39.22 21.0118 39.45 21.0118 39.72V39.8C21.0118 40.07 20.9601 40.3 20.8568 40.49C20.7534 40.68 20.6168 40.825 20.4468 40.925C20.2768 41.0217 20.0918 41.07 19.8918 41.07C19.7418 41.07 19.6151 41.0517 19.5118 41.015C19.4118 40.9817 19.3301 40.9383 19.2668 40.885C19.2068 40.8283 19.1584 40.7717 19.1218 40.715H19.0318V42H18.4018ZM19.7018 40.52C19.8984 40.52 20.0601 40.4583 20.1868 40.335C20.3168 40.2083 20.3818 40.025 20.3818 39.785V39.735C20.3818 39.495 20.3168 39.3133 20.1868 39.19C20.0568 39.0633 19.8951 39 19.7018 39C19.5084 39 19.3468 39.0633 19.2168 39.19C19.0868 39.3133 19.0218 39.495 19.0218 39.735V39.785C19.0218 40.025 19.0868 40.2083 19.2168 40.335C19.3468 40.4583 19.5084 40.52 19.7018 40.52Z" fill="black"/>
<path d="M21.5902 41V37.5H22.2202V41H21.5902Z" fill="black"/>
<path d="M22.9184 41V38.52H23.5484V41H22.9184ZM23.2334 38.23C23.12 38.23 23.0234 38.1933 22.9434 38.12C22.8667 38.0467 22.8284 37.95 22.8284 37.83C22.8284 37.71 22.8667 37.6133 22.9434 37.54C23.0234 37.4667 23.12 37.43 23.2334 37.43C23.35 37.43 23.4467 37.4667 23.5234 37.54C23.6 37.6133 23.6384 37.71 23.6384 37.83C23.6384 37.95 23.6 38.0467 23.5234 38.12C23.4467 38.1933 23.35 38.23 23.2334 38.23Z" fill="black"/>
<path d="M25.0165 41.07C24.8398 41.07 24.6815 41.04 24.5415 40.98C24.4015 40.9167 24.2898 40.8267 24.2065 40.71C24.1265 40.59 24.0865 40.445 24.0865 40.275C24.0865 40.105 24.1265 39.9633 24.2065 39.85C24.2898 39.7333 24.4032 39.6467 24.5465 39.59C24.6932 39.53 24.8598 39.5 25.0465 39.5H25.7265V39.36C25.7265 39.2433 25.6898 39.1483 25.6165 39.075C25.5432 38.9983 25.4265 38.96 25.2665 38.96C25.1098 38.96 24.9932 38.9967 24.9165 39.07C24.8398 39.14 24.7898 39.2317 24.7665 39.345L24.1865 39.15C24.2265 39.0233 24.2898 38.9083 24.3765 38.805C24.4665 38.6983 24.5848 38.6133 24.7315 38.55C24.8815 38.4833 25.0632 38.45 25.2765 38.45C25.6032 38.45 25.8615 38.5317 26.0515 38.695C26.2415 38.8583 26.3365 39.095 26.3365 39.405V40.33C26.3365 40.43 26.3832 40.48 26.4765 40.48H26.6765V41H26.2565C26.1332 41 26.0315 40.97 25.9515 40.91C25.8715 40.85 25.8315 40.77 25.8315 40.67V40.665H25.7365C25.7232 40.705 25.6932 40.7583 25.6465 40.825C25.5998 40.8883 25.5265 40.945 25.4265 40.995C25.3265 41.045 25.1898 41.07 25.0165 41.07ZM25.1265 40.56C25.3032 40.56 25.4465 40.5117 25.5565 40.415C25.6698 40.315 25.7265 40.1833 25.7265 40.02V39.97H25.0915C24.9748 39.97 24.8832 39.995 24.8165 40.045C24.7498 40.095 24.7165 40.165 24.7165 40.255C24.7165 40.345 24.7515 40.4183 24.8215 40.475C24.8915 40.5317 24.9932 40.56 25.1265 40.56Z" fill="black"/>
<path d="M27.1371 41V38.52H27.7571V38.845H27.8471C27.8871 38.7583 27.9621 38.6767 28.0721 38.6C28.1821 38.52 28.3488 38.48 28.5721 38.48C28.7654 38.48 28.9338 38.525 29.0771 38.615C29.2238 38.7017 29.3371 38.8233 29.4171 38.98C29.4971 39.1333 29.5371 39.3133 29.5371 39.52V41H28.9071V39.57C28.9071 39.3833 28.8604 39.2433 28.7671 39.15C28.6771 39.0567 28.5471 39.01 28.3771 39.01C28.1838 39.01 28.0338 39.075 27.9271 39.205C27.8204 39.3317 27.7671 39.51 27.7671 39.74V41H27.1371Z" fill="black"/>
<path d="M31.3832 41.07C31.1432 41.07 30.9248 41.02 30.7282 40.92C30.5348 40.82 30.3815 40.675 30.2682 40.485C30.1548 40.295 30.0982 40.065 30.0982 39.795V39.725C30.0982 39.455 30.1548 39.225 30.2682 39.035C30.3815 38.845 30.5348 38.7 30.7282 38.6C30.9248 38.5 31.1432 38.45 31.3832 38.45C31.6198 38.45 31.8232 38.4917 31.9932 38.575C32.1632 38.6583 32.2998 38.7733 32.4032 38.92C32.5098 39.0633 32.5798 39.2267 32.6132 39.41L32.0032 39.54C31.9898 39.44 31.9598 39.35 31.9132 39.27C31.8665 39.19 31.7998 39.1267 31.7132 39.08C31.6298 39.0333 31.5248 39.01 31.3982 39.01C31.2715 39.01 31.1565 39.0383 31.0532 39.095C30.9532 39.1483 30.8732 39.23 30.8132 39.34C30.7565 39.4467 30.7282 39.5783 30.7282 39.735V39.785C30.7282 39.9417 30.7565 40.075 30.8132 40.185C30.8732 40.2917 30.9532 40.3733 31.0532 40.43C31.1565 40.4833 31.2715 40.51 31.3982 40.51C31.5882 40.51 31.7315 40.4617 31.8282 40.365C31.9282 40.265 31.9915 40.135 32.0182 39.975L32.6282 40.12C32.5848 40.2967 32.5098 40.4583 32.4032 40.605C32.2998 40.7483 32.1632 40.8617 31.9932 40.945C31.8232 41.0283 31.6198 41.07 31.3832 41.07Z" fill="black"/>
<path d="M34.2779 41.07C34.0312 41.07 33.8129 41.0183 33.6229 40.915C33.4362 40.8083 33.2895 40.66 33.1828 40.47C33.0795 40.2767 33.0279 40.05 33.0279 39.79V39.73C33.0279 39.47 33.0795 39.245 33.1828 39.055C33.2862 38.8617 33.4312 38.7133 33.6179 38.61C33.8045 38.5033 34.0212 38.45 34.2679 38.45C34.5112 38.45 34.7229 38.505 34.9029 38.615C35.0829 38.7217 35.2229 38.8717 35.3229 39.065C35.4229 39.255 35.4729 39.4767 35.4729 39.73V39.945H33.6679C33.6745 40.115 33.7379 40.2533 33.8579 40.36C33.9779 40.4667 34.1245 40.52 34.2979 40.52C34.4745 40.52 34.6045 40.4817 34.6879 40.405C34.7712 40.3283 34.8345 40.2433 34.8779 40.15L35.3929 40.42C35.3462 40.5067 35.2779 40.6017 35.1879 40.705C35.1012 40.805 34.9845 40.8917 34.8379 40.965C34.6912 41.035 34.5045 41.07 34.2779 41.07ZM33.6729 39.475H34.8329C34.8195 39.3317 34.7612 39.2167 34.6579 39.13C34.5579 39.0433 34.4262 39 34.2629 39C34.0929 39 33.9579 39.0433 33.8579 39.13C33.7579 39.2167 33.6962 39.3317 33.6729 39.475Z" fill="black"/>
<path d="M37.0636 41.07C36.7403 41.07 36.4753 41 36.2686 40.86C36.0619 40.72 35.9369 40.52 35.8936 40.26L36.4736 40.11C36.4969 40.2267 36.5353 40.3183 36.5886 40.385C36.6453 40.4517 36.7136 40.5 36.7936 40.53C36.8769 40.5567 36.9669 40.57 37.0636 40.57C37.2103 40.57 37.3186 40.545 37.3886 40.495C37.4586 40.4417 37.4936 40.3767 37.4936 40.3C37.4936 40.2233 37.4603 40.165 37.3936 40.125C37.3269 40.0817 37.2203 40.0467 37.0736 40.02L36.9336 39.995C36.7603 39.9617 36.6019 39.9167 36.4586 39.86C36.3153 39.8 36.2003 39.7183 36.1136 39.615C36.0269 39.5117 35.9836 39.3783 35.9836 39.215C35.9836 38.9683 36.0736 38.78 36.2536 38.65C36.4336 38.5167 36.6703 38.45 36.9636 38.45C37.2403 38.45 37.4703 38.5117 37.6536 38.635C37.8369 38.7583 37.9569 38.92 38.0136 39.12L37.4286 39.3C37.4019 39.1733 37.3469 39.0833 37.2636 39.03C37.1836 38.9767 37.0836 38.95 36.9636 38.95C36.8436 38.95 36.7519 38.9717 36.6886 39.015C36.6253 39.055 36.5936 39.1117 36.5936 39.185C36.5936 39.265 36.6269 39.325 36.6936 39.365C36.7603 39.4017 36.8503 39.43 36.9636 39.45L37.1036 39.475C37.2903 39.5083 37.4586 39.5533 37.6086 39.61C37.7619 39.6633 37.8819 39.7417 37.9686 39.845C38.0586 39.945 38.1036 40.0817 38.1036 40.255C38.1036 40.515 38.0086 40.7167 37.8186 40.86C37.6319 41 37.3803 41.07 37.0636 41.07Z" fill="black"/>
<path d="M20.8334 11C19.4549 11 18.3332 12.1876 18.3332 13.6471V15.0344C18.9683 15.4429 19.4835 16.0774 19.7819 16.868L20.5664 18.9412H29.4324L30.2609 16.7508C30.5435 16.0043 31.0456 15.4114 31.6673 15.024V13.6471C31.6673 12.1876 30.5455 11 29.1671 11H20.8334ZM33.3568 16.2941C32.6743 16.2941 32.0606 16.7342 31.8073 17.4057L30.5604 20.7059H19.4352L18.2339 17.5229C17.9906 16.8787 17.4516 16.368 16.7999 16.3027C16.4666 16.2692 16.1427 16.3376 15.8477 16.5061C15.0835 16.9402 14.8107 17.9699 15.1332 18.8223L16.5493 22.5723C16.9293 23.5764 17.8486 24.2353 18.8704 24.2353H19.1666V26H20.8334V24.2353H29.1671V26H30.8339V24.2353H31.1236C32.1462 24.2353 33.0655 23.5755 33.4447 22.5705L34.8689 18.8016C35.1773 17.9845 34.9337 17.0061 34.2211 16.5526C33.9544 16.3823 33.661 16.2941 33.3568 16.2941Z" fill="black"/>
</svg>
