<svg width="222" height="19" viewBox="0 0 222 19" fill="none" xmlns="http://www.w3.org/2000/svg">
<path d="M0.623062 18V1.2H3.79106V8.136H10.0311V1.2H13.1991V18H10.0311V11.016H3.79106V18H0.623062ZM22.1331 18.336C20.9491 18.336 19.8851 18.096 18.9411 17.616C17.9971 17.136 17.2531 16.44 16.7091 15.528C16.1651 14.616 15.8931 13.52 15.8931 12.24V11.856C15.8931 10.576 16.1651 9.48 16.7091 8.568C17.2531 7.656 17.9971 6.96 18.9411 6.48C19.8851 6 20.9491 5.76 22.1331 5.76C23.3171 5.76 24.3811 6 25.3251 6.48C26.2691 6.96 27.0131 7.656 27.5571 8.568C28.1011 9.48 28.3731 10.576 28.3731 11.856V12.24C28.3731 13.52 28.1011 14.616 27.5571 15.528C27.0131 16.44 26.2691 17.136 25.3251 17.616C24.3811 18.096 23.3171 18.336 22.1331 18.336ZM22.1331 15.648C23.0611 15.648 23.8291 15.352 24.4371 14.76C25.0451 14.152 25.3491 13.288 25.3491 12.168V11.928C25.3491 10.808 25.0451 9.952 24.4371 9.36C23.8451 8.752 23.0771 8.448 22.1331 8.448C21.2051 8.448 20.4371 8.752 19.8291 9.36C19.2211 9.952 18.9171 10.808 18.9171 11.928V12.168C18.9171 13.288 19.2211 14.152 19.8291 14.76C20.4371 15.352 21.2051 15.648 22.1331 15.648ZM32.0775 18L30.3975 6.096H33.3975L34.4535 15.96H34.8855L36.4215 6.096H41.2695L42.8055 15.96H43.2375L44.2935 6.096H47.2935L45.6135 18H40.5975L39.0615 8.136H38.6295L37.0935 18H32.0775ZM60.8316 18.336C59.8876 18.336 58.9996 18.104 58.1676 17.64C57.3516 17.16 56.6956 16.464 56.1996 15.552C55.7036 14.64 55.4556 13.536 55.4556 12.24V11.856C55.4556 10.56 55.7036 9.456 56.1996 8.544C56.6956 7.632 57.3516 6.944 58.1676 6.48C58.9836 6 59.8716 5.76 60.8316 5.76C61.5516 5.76 62.1516 5.848 62.6316 6.024C63.1276 6.184 63.5276 6.392 63.8316 6.648C64.1356 6.904 64.3676 7.176 64.5276 7.464H64.9596V1.2H67.9836V18H65.0076V16.56H64.5756C64.3036 17.008 63.8796 17.416 63.3036 17.784C62.7436 18.152 61.9196 18.336 60.8316 18.336ZM61.7436 15.696C62.6716 15.696 63.4476 15.4 64.0716 14.808C64.6956 14.2 65.0076 13.32 65.0076 12.168V11.928C65.0076 10.776 64.6956 9.904 64.0716 9.312C63.4636 8.704 62.6876 8.4 61.7436 8.4C60.8156 8.4 60.0396 8.704 59.4156 9.312C58.7916 9.904 58.4796 10.776 58.4796 11.928V12.168C58.4796 13.32 58.7916 14.2 59.4156 14.808C60.0396 15.4 60.8156 15.696 61.7436 15.696ZM77.0003 18.336C75.8163 18.336 74.7523 18.096 73.8083 17.616C72.8643 17.136 72.1203 16.44 71.5763 15.528C71.0323 14.616 70.7603 13.52 70.7603 12.24V11.856C70.7603 10.576 71.0323 9.48 71.5763 8.568C72.1203 7.656 72.8643 6.96 73.8083 6.48C74.7523 6 75.8163 5.76 77.0003 5.76C78.1843 5.76 79.2483 6 80.1923 6.48C81.1363 6.96 81.8803 7.656 82.4243 8.568C82.9683 9.48 83.2403 10.576 83.2403 11.856V12.24C83.2403 13.52 82.9683 14.616 82.4243 15.528C81.8803 16.44 81.1363 17.136 80.1923 17.616C79.2483 18.096 78.1843 18.336 77.0003 18.336ZM77.0003 15.648C77.9283 15.648 78.6963 15.352 79.3043 14.76C79.9123 14.152 80.2163 13.288 80.2163 12.168V11.928C80.2163 10.808 79.9123 9.952 79.3043 9.36C78.7123 8.752 77.9443 8.448 77.0003 8.448C76.0723 8.448 75.3043 8.752 74.6963 9.36C74.0883 9.952 73.7843 10.808 73.7843 11.928V12.168C73.7843 13.288 74.0883 14.152 74.6963 14.76C75.3043 15.352 76.0723 15.648 77.0003 15.648ZM91.4556 18.336C90.2716 18.336 89.2236 18.088 88.3116 17.592C87.4156 17.08 86.7116 16.368 86.1996 15.456C85.7036 14.528 85.4556 13.44 85.4556 12.192V11.904C85.4556 10.656 85.7036 9.576 86.1996 8.664C86.6956 7.736 87.3916 7.024 88.2876 6.528C89.1836 6.016 90.2236 5.76 91.4076 5.76C92.5756 5.76 93.5916 6.024 94.4556 6.552C95.3196 7.064 95.9916 7.784 96.4716 8.712C96.9516 9.624 97.1916 10.688 97.1916 11.904V12.936H88.5276C88.5596 13.752 88.8636 14.416 89.4396 14.928C90.0156 15.44 90.7196 15.696 91.5516 15.696C92.3996 15.696 93.0236 15.512 93.4236 15.144C93.8236 14.776 94.1276 14.368 94.3356 13.92L96.8076 15.216C96.5836 15.632 96.2556 16.088 95.8236 16.584C95.4076 17.064 94.8476 17.48 94.1436 17.832C93.4396 18.168 92.5436 18.336 91.4556 18.336ZM88.5516 10.68H94.1196C94.0556 9.992 93.7756 9.44 93.2796 9.024C92.7996 8.608 92.1676 8.4 91.3836 8.4C90.5676 8.4 89.9196 8.608 89.4396 9.024C88.9596 9.44 88.6636 9.992 88.5516 10.68ZM104.827 18.336C103.275 18.336 102.003 18 101.011 17.328C100.019 16.656 99.4191 15.696 99.2111 14.448L101.995 13.728C102.107 14.288 102.291 14.728 102.547 15.048C102.819 15.368 103.147 15.6 103.531 15.744C103.931 15.872 104.363 15.936 104.827 15.936C105.531 15.936 106.051 15.816 106.387 15.576C106.723 15.32 106.891 15.008 106.891 14.64C106.891 14.272 106.731 13.992 106.411 13.8C106.091 13.592 105.579 13.424 104.875 13.296L104.203 13.176C103.371 13.016 102.611 12.8 101.923 12.528C101.235 12.24 100.683 11.848 100.267 11.352C99.8511 10.856 99.6431 10.216 99.6431 9.432C99.6431 8.248 100.075 7.344 100.939 6.72C101.803 6.08 102.939 5.76 104.347 5.76C105.675 5.76 106.779 6.056 107.659 6.648C108.539 7.24 109.115 8.016 109.387 8.976L106.579 9.84C106.451 9.232 106.187 8.8 105.787 8.544C105.403 8.288 104.923 8.16 104.347 8.16C103.771 8.16 103.331 8.264 103.027 8.472C102.723 8.664 102.571 8.936 102.571 9.288C102.571 9.672 102.731 9.96 103.051 10.152C103.371 10.328 103.803 10.464 104.347 10.56L105.019 10.68C105.915 10.84 106.723 11.056 107.443 11.328C108.179 11.584 108.755 11.96 109.171 12.456C109.603 12.936 109.819 13.592 109.819 14.424C109.819 15.672 109.363 16.64 108.451 17.328C107.555 18 106.347 18.336 104.827 18.336ZM118.563 18V6.096H121.587V18H118.563ZM120.075 4.704C119.531 4.704 119.067 4.528 118.683 4.176C118.315 3.824 118.131 3.36 118.131 2.784C118.131 2.208 118.315 1.744 118.683 1.392C119.067 1.04 119.531 0.863999 120.075 0.863999C120.635 0.863999 121.099 1.04 121.467 1.392C121.835 1.744 122.019 2.208 122.019 2.784C122.019 3.36 121.835 3.824 121.467 4.176C121.099 4.528 120.635 4.704 120.075 4.704ZM129.498 18C128.714 18 128.074 17.76 127.578 17.28C127.098 16.784 126.858 16.128 126.858 15.312V8.592H123.882V6.096H126.858V2.4H129.882V6.096H133.146V8.592H129.882V14.784C129.882 15.264 130.106 15.504 130.554 15.504H132.858V18H129.498ZM142.937 18L141.257 6.096H144.257L145.313 15.96H145.745L147.281 6.096H152.129L153.665 15.96H154.097L155.153 6.096H158.153L156.473 18H151.457L149.921 8.136H149.489L147.953 18H142.937ZM166.414 18.336C165.23 18.336 164.166 18.096 163.222 17.616C162.278 17.136 161.534 16.44 160.99 15.528C160.446 14.616 160.174 13.52 160.174 12.24V11.856C160.174 10.576 160.446 9.48 160.99 8.568C161.534 7.656 162.278 6.96 163.222 6.48C164.166 6 165.23 5.76 166.414 5.76C167.598 5.76 168.662 6 169.606 6.48C170.55 6.96 171.294 7.656 171.838 8.568C172.382 9.48 172.654 10.576 172.654 11.856V12.24C172.654 13.52 172.382 14.616 171.838 15.528C171.294 16.44 170.55 17.136 169.606 17.616C168.662 18.096 167.598 18.336 166.414 18.336ZM166.414 15.648C167.342 15.648 168.11 15.352 168.718 14.76C169.326 14.152 169.63 13.288 169.63 12.168V11.928C169.63 10.808 169.326 9.952 168.718 9.36C168.126 8.752 167.358 8.448 166.414 8.448C165.486 8.448 164.718 8.752 164.11 9.36C163.502 9.952 163.198 10.808 163.198 11.928V12.168C163.198 13.288 163.502 14.152 164.11 14.76C164.718 15.352 165.486 15.648 166.414 15.648ZM175.446 18V6.096H178.422V7.44H178.854C179.03 6.96 179.318 6.608 179.718 6.384C180.134 6.16 180.614 6.048 181.158 6.048H182.598V8.736H181.11C180.342 8.736 179.71 8.944 179.214 9.36C178.718 9.76 178.47 10.384 178.47 11.232V18H175.446ZM184.961 18V1.2H187.985V10.488H188.417L192.353 6.096H196.289L190.793 11.856L196.481 18H192.593L188.417 13.272H187.985V18H184.961ZM203.124 18.336C201.572 18.336 200.3 18 199.308 17.328C198.316 16.656 197.716 15.696 197.508 14.448L200.292 13.728C200.404 14.288 200.588 14.728 200.844 15.048C201.116 15.368 201.444 15.6 201.828 15.744C202.228 15.872 202.66 15.936 203.124 15.936C203.828 15.936 204.348 15.816 204.684 15.576C205.02 15.32 205.188 15.008 205.188 14.64C205.188 14.272 205.028 13.992 204.708 13.8C204.388 13.592 203.876 13.424 203.172 13.296L202.5 13.176C201.668 13.016 200.908 12.8 200.22 12.528C199.532 12.24 198.98 11.848 198.564 11.352C198.148 10.856 197.94 10.216 197.94 9.432C197.94 8.248 198.372 7.344 199.236 6.72C200.1 6.08 201.236 5.76 202.644 5.76C203.972 5.76 205.076 6.056 205.956 6.648C206.836 7.24 207.412 8.016 207.684 8.976L204.876 9.84C204.748 9.232 204.484 8.8 204.084 8.544C203.7 8.288 203.22 8.16 202.644 8.16C202.068 8.16 201.628 8.264 201.324 8.472C201.02 8.664 200.868 8.936 200.868 9.288C200.868 9.672 201.028 9.96 201.348 10.152C201.668 10.328 202.1 10.464 202.644 10.56L203.316 10.68C204.212 10.84 205.02 11.056 205.74 11.328C206.476 11.584 207.052 11.96 207.468 12.456C207.9 12.936 208.116 13.592 208.116 14.424C208.116 15.672 207.66 16.64 206.748 17.328C205.852 18 204.644 18.336 203.124 18.336ZM214.102 12.48V11.904C214.102 11.088 214.262 10.416 214.582 9.888C214.918 9.36 215.454 8.92 216.19 8.568L216.598 8.376C217.318 8.04 217.87 7.68 218.254 7.296C218.638 6.912 218.83 6.4 218.83 5.76C218.83 5.296 218.71 4.904 218.47 4.584C218.246 4.248 217.926 3.992 217.51 3.816C217.094 3.64 216.606 3.552 216.046 3.552C215.47 3.552 214.95 3.648 214.486 3.84C214.038 4.032 213.678 4.32 213.406 4.704C213.15 5.088 213.022 5.568 213.022 6.144V6.672H209.902V6.192C209.902 5.088 210.174 4.136 210.718 3.336C211.262 2.536 211.998 1.928 212.926 1.512C213.854 1.08 214.894 0.863999 216.046 0.863999C217.182 0.863999 218.19 1.072 219.07 1.488C219.966 1.904 220.67 2.48 221.182 3.216C221.694 3.952 221.95 4.8 221.95 5.76C221.95 6.72 221.774 7.512 221.422 8.136C221.07 8.744 220.622 9.24 220.078 9.624C219.55 9.992 219.006 10.312 218.446 10.584L218.038 10.776C217.75 10.904 217.55 11.064 217.438 11.256C217.326 11.432 217.27 11.696 217.27 12.048V12.48H214.102ZM215.782 18.336C215.142 18.336 214.598 18.128 214.15 17.712C213.718 17.28 213.502 16.728 213.502 16.056C213.502 15.384 213.718 14.84 214.15 14.424C214.598 13.992 215.142 13.776 215.782 13.776C216.438 13.776 216.982 13.992 217.414 14.424C217.846 14.84 218.062 15.384 218.062 16.056C218.062 16.728 217.846 17.28 217.414 17.712C216.982 18.128 216.438 18.336 215.782 18.336Z" fill="black"/>
</svg>
