<svg width="29" height="29" viewBox="0 0 29 29" fill="none" xmlns="http://www.w3.org/2000/svg">
<path d="M20.093 0H8.22696C3.07272 0 0 3.07272 0 8.22696V20.0789C0 25.2473 3.07272 28.32 8.22696 28.32H20.0789C25.2331 28.32 28.3058 25.2473 28.3058 20.093V8.22696C28.32 3.07272 25.2473 0 20.093 0ZM14.16 19.6541C11.1298 19.6541 8.66592 17.1902 8.66592 14.16C8.66592 11.1298 11.1298 8.66592 14.16 8.66592C17.1902 8.66592 19.6541 11.1298 19.6541 14.16C19.6541 17.1902 17.1902 19.6541 14.16 19.6541ZM22.5427 6.91008C22.4719 7.08 22.3728 7.23576 22.2454 7.37736C22.1038 7.5048 21.948 7.60392 21.7781 7.67472C21.6082 7.74552 21.4241 7.788 21.24 7.788C20.8577 7.788 20.5037 7.6464 20.2346 7.37736C20.1072 7.23576 20.0081 7.08 19.9373 6.91008C19.8665 6.74016 19.824 6.55608 19.824 6.372C19.824 6.18792 19.8665 6.00384 19.9373 5.83392C20.0081 5.64984 20.1072 5.50824 20.2346 5.36664C20.5603 5.04096 21.0559 4.8852 21.509 4.98432C21.6082 4.99848 21.6931 5.0268 21.7781 5.06928C21.863 5.0976 21.948 5.14008 22.033 5.19672C22.1038 5.2392 22.1746 5.31 22.2454 5.36664C22.3728 5.50824 22.4719 5.64984 22.5427 5.83392C22.6135 6.00384 22.656 6.18792 22.656 6.372C22.656 6.55608 22.6135 6.74016 22.5427 6.91008Z" fill="white"/>
</svg>
