<svg width="230" height="84" viewBox="0 0 230 84" fill="none" xmlns="http://www.w3.org/2000/svg">
<path d="M3.82588 23L0.881875 0.599998H5.07388L7.24988 20.056H7.82588L10.6419 0.599998H17.9379L20.7539 20.056H21.3299L23.5059 0.599998H27.6979L24.7539 23H17.4579L14.5779 3.096H14.0019L11.1219 23H3.82588ZM37.9564 23.448C36.3777 23.448 34.9804 23.1173 33.7644 22.456C32.5697 21.7733 31.631 20.824 30.9484 19.608C30.287 18.3707 29.9564 16.92 29.9564 15.256V14.872C29.9564 13.208 30.287 11.768 30.9484 10.552C31.6097 9.31467 32.5377 8.36533 33.7324 7.704C34.927 7.02133 36.3137 6.68 37.8924 6.68C39.4497 6.68 40.8044 7.032 41.9564 7.736C43.1084 8.41867 44.0044 9.37867 44.6444 10.616C45.2844 11.832 45.6044 13.2507 45.6044 14.872V16.248H34.0524C34.095 17.336 34.5004 18.2213 35.2684 18.904C36.0364 19.5867 36.975 19.928 38.0844 19.928C39.215 19.928 40.047 19.6827 40.5804 19.192C41.1137 18.7013 41.519 18.1573 41.7964 17.56L45.0924 19.288C44.7937 19.8427 44.3564 20.4507 43.7804 21.112C43.2257 21.752 42.479 22.3067 41.5404 22.776C40.6017 23.224 39.407 23.448 37.9564 23.448ZM34.0844 13.24H41.5084C41.423 12.3227 41.0497 11.5867 40.3884 11.032C39.7484 10.4773 38.9057 10.2 37.8604 10.2C36.7724 10.2 35.9084 10.4773 35.2684 11.032C34.6284 11.5867 34.2337 12.3227 34.0844 13.24ZM57.3181 23V0.599998H61.3501V9.08H61.9261C62.0968 8.73867 62.3635 8.39733 62.7261 8.056C63.0888 7.71467 63.5688 7.43733 64.1661 7.224C64.7848 6.98933 65.5635 6.872 66.5021 6.872C67.7395 6.872 68.8168 7.16 69.7341 7.736C70.6728 8.29067 71.3981 9.06933 71.9101 10.072C72.4221 11.0533 72.6781 12.2053 72.6781 13.528V23H68.6461V13.848C68.6461 12.6533 68.3475 11.7573 67.7501 11.16C67.1741 10.5627 66.3421 10.264 65.2541 10.264C64.0168 10.264 63.0568 10.68 62.3741 11.512C61.6915 12.3227 61.3501 13.464 61.3501 14.936V23H57.3181ZM84.2689 23.448C82.6902 23.448 81.2929 23.1173 80.0769 22.456C78.8822 21.7733 77.9435 20.824 77.2609 19.608C76.5995 18.3707 76.2689 16.92 76.2689 15.256V14.872C76.2689 13.208 76.5995 11.768 77.2609 10.552C77.9222 9.31467 78.8502 8.36533 80.0449 7.704C81.2395 7.02133 82.6262 6.68 84.2049 6.68C85.7622 6.68 87.1169 7.032 88.2689 7.736C89.4209 8.41867 90.3169 9.37867 90.9569 10.616C91.5969 11.832 91.9169 13.2507 91.9169 14.872V16.248H80.3649C80.4075 17.336 80.8129 18.2213 81.5809 18.904C82.3489 19.5867 83.2875 19.928 84.3969 19.928C85.5275 19.928 86.3595 19.6827 86.8929 19.192C87.4262 18.7013 87.8315 18.1573 88.1089 17.56L91.4049 19.288C91.1062 19.8427 90.6689 20.4507 90.0929 21.112C89.5382 21.752 88.7915 22.3067 87.8529 22.776C86.9142 23.224 85.7195 23.448 84.2689 23.448ZM80.3969 13.24H87.8209C87.7355 12.3227 87.3622 11.5867 86.7009 11.032C86.0609 10.4773 85.2182 10.2 84.1729 10.2C83.0849 10.2 82.2209 10.4773 81.5809 11.032C80.9409 11.5867 80.5462 12.3227 80.3969 13.24ZM95.5056 23V0.599998H99.5376V23H95.5056ZM104.006 29.4V7.128H107.974V9.048H108.55C108.912 8.42933 109.478 7.88533 110.246 7.416C111.014 6.92533 112.112 6.68 113.542 6.68C114.822 6.68 116.006 7 117.094 7.64C118.182 8.25867 119.056 9.176 119.718 10.392C120.379 11.608 120.71 13.08 120.71 14.808V15.32C120.71 17.048 120.379 18.52 119.718 19.736C119.056 20.952 118.182 21.88 117.094 22.52C116.006 23.1387 114.822 23.448 113.542 23.448C112.582 23.448 111.771 23.3307 111.11 23.096C110.47 22.8827 109.947 22.6053 109.542 22.264C109.158 21.9013 108.848 21.5387 108.614 21.176H108.038V29.4H104.006ZM112.326 19.928C113.584 19.928 114.619 19.5333 115.43 18.744C116.262 17.9333 116.678 16.76 116.678 15.224V14.904C116.678 13.368 116.262 12.2053 115.43 11.416C114.598 10.6053 113.563 10.2 112.326 10.2C111.088 10.2 110.054 10.6053 109.222 11.416C108.39 12.2053 107.974 13.368 107.974 14.904V15.224C107.974 16.76 108.39 17.9333 109.222 18.744C110.054 19.5333 111.088 19.928 112.326 19.928ZM134.265 29.4V25.88H142.905C143.502 25.88 143.801 25.56 143.801 24.92V20.92H143.225C143.054 21.2827 142.788 21.6453 142.425 22.008C142.062 22.3707 141.572 22.6693 140.953 22.904C140.334 23.1387 139.545 23.256 138.585 23.256C137.348 23.256 136.26 22.9787 135.321 22.424C134.404 21.848 133.689 21.0587 133.177 20.056C132.665 19.0533 132.409 17.9013 132.409 16.6V7.128H136.441V16.28C136.441 17.4747 136.729 18.3707 137.305 18.968C137.902 19.5653 138.745 19.864 139.833 19.864C141.07 19.864 142.03 19.4587 142.713 18.648C143.396 17.816 143.737 16.664 143.737 15.192V7.128H147.769V25.816C147.769 26.904 147.449 27.768 146.809 28.408C146.169 29.0693 145.316 29.4 144.249 29.4H134.265ZM159.808 23.448C158.229 23.448 156.81 23.128 155.552 22.488C154.293 21.848 153.301 20.92 152.576 19.704C151.85 18.488 151.488 17.0267 151.488 15.32V14.808C151.488 13.1013 151.85 11.64 152.576 10.424C153.301 9.208 154.293 8.28 155.552 7.64C156.81 7 158.229 6.68 159.808 6.68C161.386 6.68 162.805 7 164.064 7.64C165.322 8.28 166.314 9.208 167.04 10.424C167.765 11.64 168.128 13.1013 168.128 14.808V15.32C168.128 17.0267 167.765 18.488 167.04 19.704C166.314 20.92 165.322 21.848 164.064 22.488C162.805 23.128 161.386 23.448 159.808 23.448ZM159.808 19.864C161.045 19.864 162.069 19.4693 162.88 18.68C163.69 17.8693 164.096 16.7173 164.096 15.224V14.904C164.096 13.4107 163.69 12.2693 162.88 11.48C162.09 10.6693 161.066 10.264 159.808 10.264C158.57 10.264 157.546 10.6693 156.736 11.48C155.925 12.2693 155.52 13.4107 155.52 14.904V15.224C155.52 16.7173 155.925 17.8693 156.736 18.68C157.546 19.4693 158.57 19.864 159.808 19.864ZM177.897 23.256C176.66 23.256 175.572 22.9787 174.633 22.424C173.716 21.848 173.001 21.0587 172.489 20.056C171.977 19.0533 171.721 17.9013 171.721 16.6V7.128H175.753V16.28C175.753 17.4747 176.041 18.3707 176.617 18.968C177.215 19.5653 178.057 19.864 179.145 19.864C180.383 19.864 181.343 19.4587 182.025 18.648C182.708 17.816 183.049 16.664 183.049 15.192V7.128H187.081V23H183.113V20.92H182.537C182.281 21.4533 181.801 21.976 181.097 22.488C180.393 23 179.327 23.256 177.897 23.256ZM205.773 23C204.728 23 203.874 22.68 203.213 22.04C202.573 21.3787 202.253 20.504 202.253 19.416V10.456H198.285V7.128H202.253V2.2H206.285V7.128H210.637V10.456H206.285V18.712C206.285 19.352 206.584 19.672 207.181 19.672H210.253V23H205.773ZM221.276 23.448C219.698 23.448 218.279 23.128 217.02 22.488C215.762 21.848 214.77 20.92 214.044 19.704C213.319 18.488 212.956 17.0267 212.956 15.32V14.808C212.956 13.1013 213.319 11.64 214.044 10.424C214.77 9.208 215.762 8.28 217.02 7.64C218.279 7 219.698 6.68 221.276 6.68C222.855 6.68 224.274 7 225.532 7.64C226.791 8.28 227.783 9.208 228.508 10.424C229.234 11.64 229.596 13.1013 229.596 14.808V15.32C229.596 17.0267 229.234 18.488 228.508 19.704C227.783 20.92 226.791 21.848 225.532 22.488C224.274 23.128 222.855 23.448 221.276 23.448ZM221.276 19.864C222.514 19.864 223.538 19.4693 224.348 18.68C225.159 17.8693 225.564 16.7173 225.564 15.224V14.904C225.564 13.4107 225.159 12.2693 224.348 11.48C223.559 10.6693 222.535 10.264 221.276 10.264C220.039 10.264 219.015 10.6693 218.204 11.48C217.394 12.2693 216.988 13.4107 216.988 14.904V15.224C216.988 16.7173 217.394 17.8693 218.204 18.68C219.015 19.4693 220.039 19.864 221.276 19.864ZM16.5351 53.448C14.4658 53.448 12.7698 53 11.4471 52.104C10.1245 51.208 9.32446 49.928 9.04713 48.264L12.7591 47.304C12.9085 48.0507 13.1538 48.6373 13.4951 49.064C13.8578 49.4907 14.2951 49.8 14.8071 49.992C15.3405 50.1627 15.9165 50.248 16.5351 50.248C17.4738 50.248 18.1671 50.088 18.6151 49.768C19.0631 49.4267 19.2871 49.0107 19.2871 48.52C19.2871 48.0293 19.0738 47.656 18.6471 47.4C18.2205 47.1227 17.5378 46.8987 16.5991 46.728L15.7031 46.568C14.5938 46.3547 13.5805 46.0667 12.6631 45.704C11.7458 45.32 11.0098 44.7973 10.4551 44.136C9.90046 43.4747 9.62313 42.6213 9.62313 41.576C9.62313 39.9973 10.1991 38.792 11.3511 37.96C12.5031 37.1067 14.0178 36.68 15.8951 36.68C17.6658 36.68 19.1378 37.0747 20.3111 37.864C21.4845 38.6533 22.2525 39.688 22.6151 40.968L18.8711 42.12C18.7005 41.3093 18.3485 40.7333 17.8151 40.392C17.3031 40.0507 16.6631 39.88 15.8951 39.88C15.1271 39.88 14.5405 40.0187 14.1351 40.296C13.7298 40.552 13.5271 40.9147 13.5271 41.384C13.5271 41.896 13.7405 42.28 14.1671 42.536C14.5938 42.7707 15.1698 42.952 15.8951 43.08L16.7911 43.24C17.9858 43.4533 19.0631 43.7413 20.0231 44.104C21.0045 44.4453 21.7725 44.9467 22.3271 45.608C22.9031 46.248 23.1911 47.1227 23.1911 48.232C23.1911 49.896 22.5831 51.1867 21.3671 52.104C20.1725 53 18.5618 53.448 16.5351 53.448ZM33.9564 53.448C32.3777 53.448 30.9804 53.1173 29.7644 52.456C28.5697 51.7733 27.631 50.824 26.9484 49.608C26.287 48.3707 25.9564 46.92 25.9564 45.256V44.872C25.9564 43.208 26.287 41.768 26.9484 40.552C27.6097 39.3147 28.5377 38.3653 29.7324 37.704C30.927 37.0213 32.3137 36.68 33.8924 36.68C35.4497 36.68 36.8044 37.032 37.9564 37.736C39.1084 38.4187 40.0044 39.3787 40.6444 40.616C41.2844 41.832 41.6044 43.2507 41.6044 44.872V46.248H30.0524C30.095 47.336 30.5004 48.2213 31.2684 48.904C32.0364 49.5867 32.975 49.928 34.0844 49.928C35.215 49.928 36.047 49.6827 36.5804 49.192C37.1137 48.7013 37.519 48.1573 37.7964 47.56L41.0924 49.288C40.7937 49.8427 40.3564 50.4507 39.7804 51.112C39.2257 51.752 38.479 52.3067 37.5404 52.776C36.6017 53.224 35.407 53.448 33.9564 53.448ZM30.0844 43.24H37.5084C37.423 42.3227 37.0497 41.5867 36.3884 41.032C35.7484 40.4773 34.9057 40.2 33.8604 40.2C32.7724 40.2 31.9084 40.4773 31.2684 41.032C30.6284 41.5867 30.2337 42.3227 30.0844 43.24ZM45.1931 53V30.6H49.2251V53H45.1931ZM53.6931 53V30.6H57.7251V53H53.6931ZM72.0461 59.4V55.88H80.6861C81.2835 55.88 81.5821 55.56 81.5821 54.92V50.92H81.0061C80.8355 51.2827 80.5688 51.6453 80.2061 52.008C79.8435 52.3707 79.3528 52.6693 78.7341 52.904C78.1155 53.1387 77.3261 53.256 76.3661 53.256C75.1288 53.256 74.0408 52.9787 73.1021 52.424C72.1848 51.848 71.4701 51.0587 70.9581 50.056C70.4461 49.0533 70.1901 47.9013 70.1901 46.6V37.128H74.2221V46.28C74.2221 47.4747 74.5101 48.3707 75.0861 48.968C75.6835 49.5653 76.5261 49.864 77.6141 49.864C78.8515 49.864 79.8115 49.4587 80.4941 48.648C81.1768 47.816 81.5181 46.664 81.5181 45.192V37.128H85.5501V55.816C85.5501 56.904 85.2301 57.768 84.5901 58.408C83.9501 59.0693 83.0968 59.4 82.0301 59.4H72.0461ZM97.5889 53.448C96.0102 53.448 94.5915 53.128 93.3329 52.488C92.0742 51.848 91.0822 50.92 90.3569 49.704C89.6315 48.488 89.2689 47.0267 89.2689 45.32V44.808C89.2689 43.1013 89.6315 41.64 90.3569 40.424C91.0822 39.208 92.0742 38.28 93.3329 37.64C94.5915 37 96.0102 36.68 97.5889 36.68C99.1675 36.68 100.586 37 101.845 37.64C103.104 38.28 104.096 39.208 104.821 40.424C105.546 41.64 105.909 43.1013 105.909 44.808V45.32C105.909 47.0267 105.546 48.488 104.821 49.704C104.096 50.92 103.104 51.848 101.845 52.488C100.586 53.128 99.1675 53.448 97.5889 53.448ZM97.5889 49.864C98.8262 49.864 99.8502 49.4693 100.661 48.68C101.472 47.8693 101.877 46.7173 101.877 45.224V44.904C101.877 43.4107 101.472 42.2693 100.661 41.48C99.8715 40.6693 98.8475 40.264 97.5889 40.264C96.3515 40.264 95.3275 40.6693 94.5169 41.48C93.7062 42.2693 93.3009 43.4107 93.3009 44.904V45.224C93.3009 46.7173 93.7062 47.8693 94.5169 48.68C95.3275 49.4693 96.3515 49.864 97.5889 49.864ZM115.679 53.256C114.441 53.256 113.353 52.9787 112.415 52.424C111.497 51.848 110.783 51.0587 110.271 50.056C109.759 49.0533 109.503 47.9013 109.503 46.6V37.128H113.535V46.28C113.535 47.4747 113.823 48.3707 114.399 48.968C114.996 49.5653 115.839 49.864 116.927 49.864C118.164 49.864 119.124 49.4587 119.807 48.648C120.489 47.816 120.831 46.664 120.831 45.192V37.128H124.863V53H120.895V50.92H120.319C120.063 51.4533 119.583 51.976 118.879 52.488C118.175 53 117.108 53.256 115.679 53.256ZM129.349 53V37.128H133.317V38.92H133.893C134.128 38.28 134.512 37.8107 135.045 37.512C135.6 37.2133 136.24 37.064 136.965 37.064H138.885V40.648H136.901C135.877 40.648 135.035 40.9253 134.373 41.48C133.712 42.0133 133.381 42.8453 133.381 43.976V53H129.349ZM156.21 53.256C154.973 53.256 153.885 52.9787 152.946 52.424C152.029 51.848 151.314 51.0587 150.802 50.056C150.29 49.0533 150.034 47.9013 150.034 46.6V37.128H154.066V46.28C154.066 47.4747 154.354 48.3707 154.93 48.968C155.527 49.5653 156.37 49.864 157.458 49.864C158.695 49.864 159.655 49.4587 160.338 48.648C161.021 47.816 161.362 46.664 161.362 45.192V37.128H165.394V53H161.426V50.92H160.85C160.594 51.4533 160.114 51.976 159.41 52.488C158.706 53 157.639 53.256 156.21 53.256ZM176.473 53.448C174.403 53.448 172.707 53 171.385 52.104C170.062 51.208 169.262 49.928 168.985 48.264L172.697 47.304C172.846 48.0507 173.091 48.6373 173.433 49.064C173.795 49.4907 174.233 49.8 174.745 49.992C175.278 50.1627 175.854 50.248 176.473 50.248C177.411 50.248 178.105 50.088 178.553 49.768C179.001 49.4267 179.225 49.0107 179.225 48.52C179.225 48.0293 179.011 47.656 178.585 47.4C178.158 47.1227 177.475 46.8987 176.537 46.728L175.641 46.568C174.531 46.3547 173.518 46.0667 172.601 45.704C171.683 45.32 170.947 44.7973 170.393 44.136C169.838 43.4747 169.561 42.6213 169.561 41.576C169.561 39.9973 170.137 38.792 171.289 37.96C172.441 37.1067 173.955 36.68 175.833 36.68C177.603 36.68 179.075 37.0747 180.249 37.864C181.422 38.6533 182.19 39.688 182.553 40.968L178.809 42.12C178.638 41.3093 178.286 40.7333 177.753 40.392C177.241 40.0507 176.601 39.88 175.833 39.88C175.065 39.88 174.478 40.0187 174.073 40.296C173.667 40.552 173.465 40.9147 173.465 41.384C173.465 41.896 173.678 42.28 174.105 42.536C174.531 42.7707 175.107 42.952 175.833 43.08L176.729 43.24C177.923 43.4533 179.001 43.7413 179.961 44.104C180.942 44.4453 181.71 44.9467 182.265 45.608C182.841 46.248 183.129 47.1227 183.129 48.232C183.129 49.896 182.521 51.1867 181.305 52.104C180.11 53 178.499 53.448 176.473 53.448ZM193.894 53.448C192.315 53.448 190.918 53.1173 189.702 52.456C188.507 51.7733 187.569 50.824 186.886 49.608C186.225 48.3707 185.894 46.92 185.894 45.256V44.872C185.894 43.208 186.225 41.768 186.886 40.552C187.547 39.3147 188.475 38.3653 189.67 37.704C190.865 37.0213 192.251 36.68 193.83 36.68C195.387 36.68 196.742 37.032 197.894 37.736C199.046 38.4187 199.942 39.3787 200.582 40.616C201.222 41.832 201.542 43.2507 201.542 44.872V46.248H189.99C190.033 47.336 190.438 48.2213 191.206 48.904C191.974 49.5867 192.913 49.928 194.022 49.928C195.153 49.928 195.985 49.6827 196.518 49.192C197.051 48.7013 197.457 48.1573 197.734 47.56L201.03 49.288C200.731 49.8427 200.294 50.4507 199.718 51.112C199.163 51.752 198.417 52.3067 197.478 52.776C196.539 53.224 195.345 53.448 193.894 53.448ZM190.022 43.24H197.446C197.361 42.3227 196.987 41.5867 196.326 41.032C195.686 40.4773 194.843 40.2 193.798 40.2C192.71 40.2 191.846 40.4773 191.206 41.032C190.566 41.5867 190.171 42.3227 190.022 43.24ZM211.531 53.448C210.272 53.448 209.088 53.1387 207.979 52.52C206.891 51.88 206.016 50.952 205.355 49.736C204.693 48.52 204.363 47.048 204.363 45.32V44.808C204.363 43.08 204.693 41.608 205.355 40.392C206.016 39.176 206.891 38.2587 207.979 37.64C209.067 37 210.251 36.68 211.531 36.68C212.491 36.68 213.291 36.7973 213.931 37.032C214.592 37.2453 215.125 37.5227 215.531 37.864C215.936 38.2053 216.245 38.568 216.459 38.952H217.035V30.6H221.067V53H217.099V51.08H216.523C216.16 51.6773 215.595 52.2213 214.827 52.712C214.08 53.2027 212.981 53.448 211.531 53.448ZM212.747 49.928C213.984 49.928 215.019 49.5333 215.851 48.744C216.683 47.9333 217.099 46.76 217.099 45.224V44.904C217.099 43.368 216.683 42.2053 215.851 41.416C215.04 40.6053 214.005 40.2 212.747 40.2C211.509 40.2 210.475 40.6053 209.643 41.416C208.811 42.2053 208.395 43.368 208.395 44.904V45.224C208.395 46.76 208.811 47.9333 209.643 48.744C210.475 49.5333 211.509 49.928 212.747 49.928ZM86.7539 83.448C84.6845 83.448 82.9885 83 81.6659 82.104C80.3432 81.208 79.5432 79.928 79.2659 78.264L82.9779 77.304C83.1272 78.0507 83.3725 78.6373 83.7139 79.064C84.0765 79.4907 84.5139 79.8 85.0259 79.992C85.5592 80.1627 86.1352 80.248 86.7539 80.248C87.6925 80.248 88.3859 80.088 88.8339 79.768C89.2819 79.4267 89.5059 79.0107 89.5059 78.52C89.5059 78.0293 89.2925 77.656 88.8659 77.4C88.4392 77.1227 87.7565 76.8987 86.8179 76.728L85.9219 76.568C84.8125 76.3547 83.7992 76.0667 82.8819 75.704C81.9645 75.32 81.2285 74.7973 80.6739 74.136C80.1192 73.4747 79.8419 72.6213 79.8419 71.576C79.8419 69.9973 80.4179 68.792 81.5699 67.96C82.7219 67.1067 84.2365 66.68 86.1139 66.68C87.8845 66.68 89.3565 67.0747 90.5299 67.864C91.7032 68.6533 92.4712 69.688 92.8339 70.968L89.0899 72.12C88.9192 71.3093 88.5672 70.7333 88.0339 70.392C87.5219 70.0507 86.8819 69.88 86.1139 69.88C85.3459 69.88 84.7592 70.0187 84.3539 70.296C83.9485 70.552 83.7459 70.9147 83.7459 71.384C83.7459 71.896 83.9592 72.28 84.3859 72.536C84.8125 72.7707 85.3885 72.952 86.1139 73.08L87.0099 73.24C88.2045 73.4533 89.2819 73.7413 90.2419 74.104C91.2232 74.4453 91.9912 74.9467 92.5459 75.608C93.1219 76.248 93.4099 77.1227 93.4099 78.232C93.4099 79.896 92.8019 81.1867 91.5859 82.104C90.3912 83 88.7805 83.448 86.7539 83.448ZM102.711 83C101.665 83 100.812 82.68 100.151 82.04C99.5106 81.3787 99.1906 80.504 99.1906 79.416V70.456H95.2226V67.128H99.1906V62.2H103.223V67.128H107.575V70.456H103.223V78.712C103.223 79.352 103.521 79.672 104.119 79.672H107.191V83H102.711ZM117.272 83.256C116.035 83.256 114.947 82.9787 114.008 82.424C113.091 81.848 112.376 81.0587 111.864 80.056C111.352 79.0533 111.096 77.9013 111.096 76.6V67.128H115.128V76.28C115.128 77.4747 115.416 78.3707 115.992 78.968C116.59 79.5653 117.432 79.864 118.52 79.864C119.758 79.864 120.718 79.4587 121.4 78.648C122.083 77.816 122.424 76.664 122.424 75.192V67.128H126.456V83H122.488V80.92H121.912C121.656 81.4533 121.176 81.976 120.472 82.488C119.768 83 118.702 83.256 117.272 83.256ZM133.567 83V70.456H129.535V67.128H133.567V64.184C133.567 63.096 133.887 62.232 134.527 61.592C135.188 60.9307 136.042 60.6 137.087 60.6H141.247V63.928H138.495C137.898 63.928 137.599 64.248 137.599 64.888V67.128H140.799V70.456H137.599V83H133.567ZM143.999 83V70.456H140.799V67.128H143.999V64.184C143.999 63.096 144.319 62.232 144.959 61.592C145.62 60.9307 146.474 60.6 147.519 60.6H151.679V63.928H148.927C148.33 63.928 148.031 64.248 148.031 64.888V67.128H152.191V70.456H148.031V83H143.999Z" fill="black"/>
</svg>
