<svg width="75" height="20" viewBox="0 0 75 20" fill="none" xmlns="http://www.w3.org/2000/svg">
<rect x="0.25" y="0.25" width="74.5" height="19.5" rx="6.75" fill="#A7BBF5"/>
<path d="M16.9746 13V7.4H17.8386V12.216H20.5346V13H16.9746ZM23.1426 13.112C22.7426 13.112 22.3932 13.0293 22.0946 12.864C21.7959 12.6933 21.5612 12.456 21.3906 12.152C21.2252 11.8427 21.1426 11.4853 21.1426 11.08V10.984C21.1426 10.5733 21.2252 10.216 21.3906 9.912C21.5559 9.60267 21.7852 9.36533 22.0786 9.2C22.3772 9.02933 22.7212 8.944 23.1106 8.944C23.4892 8.944 23.8199 9.02933 24.1026 9.2C24.3906 9.36533 24.6146 9.59733 24.7746 9.896C24.9346 10.1947 25.0146 10.544 25.0146 10.944V11.256H21.9826C21.9932 11.6027 22.1079 11.88 22.3266 12.088C22.5506 12.2907 22.8279 12.392 23.1586 12.392C23.4679 12.392 23.6999 12.3227 23.8546 12.184C24.0146 12.0453 24.1372 11.8853 24.2226 11.704L24.9026 12.056C24.8279 12.2053 24.7186 12.3627 24.5746 12.528C24.4359 12.6933 24.2519 12.832 24.0226 12.944C23.7932 13.056 23.4999 13.112 23.1426 13.112ZM21.9906 10.624H24.1746C24.1532 10.3253 24.0466 10.0933 23.8546 9.928C23.6626 9.75733 23.4119 9.672 23.1026 9.672C22.7932 9.672 22.5399 9.75733 22.3426 9.928C22.1506 10.0933 22.0332 10.3253 21.9906 10.624ZM27.2304 13.112C26.9478 13.112 26.6944 13.064 26.4704 12.968C26.2518 12.872 26.0758 12.7307 25.9424 12.544C25.8144 12.3573 25.7504 12.1307 25.7504 11.864C25.7504 11.592 25.8144 11.368 25.9424 11.192C26.0758 11.0107 26.2544 10.8747 26.4784 10.784C26.7078 10.6933 26.9664 10.648 27.2544 10.648H28.4544V10.392C28.4544 10.1627 28.3851 9.97867 28.2464 9.84C28.1078 9.70133 27.8944 9.632 27.6064 9.632C27.3238 9.632 27.1078 9.69867 26.9584 9.832C26.8091 9.96533 26.7104 10.1387 26.6624 10.352L25.8944 10.104C25.9584 9.89067 26.0598 9.69867 26.1984 9.528C26.3424 9.352 26.5318 9.21067 26.7664 9.104C27.0011 8.99733 27.2838 8.944 27.6144 8.944C28.1264 8.944 28.5291 9.07467 28.8224 9.336C29.1158 9.59733 29.2624 9.968 29.2624 10.448V12.072C29.2624 12.232 29.3371 12.312 29.4864 12.312H29.8224V13H29.2064C29.0198 13 28.8678 12.952 28.7504 12.856C28.6331 12.76 28.5744 12.6293 28.5744 12.464V12.44H28.4544C28.4118 12.52 28.3478 12.6133 28.2624 12.72C28.1771 12.8267 28.0518 12.92 27.8864 13C27.7211 13.0747 27.5024 13.112 27.2304 13.112ZM27.3504 12.432C27.6811 12.432 27.9478 12.3387 28.1504 12.152C28.3531 11.96 28.4544 11.6987 28.4544 11.368V11.288H27.3024C27.0838 11.288 26.9078 11.336 26.7744 11.432C26.6411 11.5227 26.5744 11.6587 26.5744 11.84C26.5744 12.0213 26.6438 12.1653 26.7824 12.272C26.9211 12.3787 27.1104 12.432 27.3504 12.432ZM30.6236 13V9.056H31.4316V9.52H31.5596C31.6236 9.35467 31.725 9.23467 31.8636 9.16C32.0076 9.08 32.1836 9.04 32.3916 9.04H32.8636V9.784H32.3596C32.093 9.784 31.8743 9.85867 31.7036 10.008C31.533 10.152 31.4476 10.376 31.4476 10.68V13H30.6236ZM33.7174 13V9.056H34.5254V9.648H34.6534C34.728 9.488 34.8614 9.33867 35.0534 9.2C35.2454 9.06133 35.5307 8.992 35.9094 8.992C36.208 8.992 36.472 9.05867 36.7014 9.192C36.936 9.32533 37.12 9.51467 37.2534 9.76C37.3867 10 37.4534 10.2907 37.4534 10.632V13H36.6294V10.696C36.6294 10.3547 36.544 10.104 36.3734 9.944C36.2027 9.77867 35.968 9.696 35.6694 9.696C35.328 9.696 35.0534 9.808 34.8454 10.032C34.6427 10.256 34.5414 10.5813 34.5414 11.008V13H33.7174ZM40.6543 13V7.4H42.2783L43.5023 12.424H43.6303L44.8543 7.4H46.4783V13H45.6383V8.008H45.5103L44.2943 13H42.8383L41.6223 8.008H41.4943V13H40.6543ZM49.5185 13.112C49.1238 13.112 48.7718 13.032 48.4625 12.872C48.1585 12.7067 47.9185 12.472 47.7425 12.168C47.5665 11.864 47.4785 11.504 47.4785 11.088V10.968C47.4785 10.552 47.5665 10.1947 47.7425 9.896C47.9185 9.592 48.1585 9.35733 48.4625 9.192C48.7718 9.02667 49.1238 8.944 49.5185 8.944C49.9132 8.944 50.2652 9.02667 50.5745 9.192C50.8838 9.35733 51.1265 9.592 51.3025 9.896C51.4785 10.1947 51.5665 10.552 51.5665 10.968V11.088C51.5665 11.504 51.4785 11.864 51.3025 12.168C51.1265 12.472 50.8838 12.7067 50.5745 12.872C50.2652 13.032 49.9132 13.112 49.5185 13.112ZM49.5185 12.376C49.8812 12.376 50.1745 12.2613 50.3985 12.032C50.6278 11.7973 50.7425 11.4747 50.7425 11.064V10.992C50.7425 10.5813 50.6305 10.2613 50.4065 10.032C50.1825 9.79733 49.8865 9.68 49.5185 9.68C49.1612 9.68 48.8678 9.79733 48.6385 10.032C48.4145 10.2613 48.3025 10.5813 48.3025 10.992V11.064C48.3025 11.4747 48.4145 11.7973 48.6385 12.032C48.8678 12.2613 49.1612 12.376 49.5185 12.376ZM52.5924 13V9.056H53.4004V9.52H53.5284C53.5924 9.35467 53.6937 9.23467 53.8324 9.16C53.9764 9.08 54.1524 9.04 54.3604 9.04H54.8324V9.784H54.3284C54.0617 9.784 53.843 9.85867 53.6724 10.008C53.5017 10.152 53.4164 10.376 53.4164 10.68V13H52.5924ZM57.3535 13.112C56.9535 13.112 56.6042 13.0293 56.3055 12.864C56.0068 12.6933 55.7722 12.456 55.6015 12.152C55.4362 11.8427 55.3535 11.4853 55.3535 11.08V10.984C55.3535 10.5733 55.4362 10.216 55.6015 9.912C55.7668 9.60267 55.9962 9.36533 56.2895 9.2C56.5882 9.02933 56.9322 8.944 57.3215 8.944C57.7002 8.944 58.0308 9.02933 58.3135 9.2C58.6015 9.36533 58.8255 9.59733 58.9855 9.896C59.1455 10.1947 59.2255 10.544 59.2255 10.944V11.256H56.1935C56.2042 11.6027 56.3188 11.88 56.5375 12.088C56.7615 12.2907 57.0388 12.392 57.3695 12.392C57.6788 12.392 57.9108 12.3227 58.0655 12.184C58.2255 12.0453 58.3482 11.8853 58.4335 11.704L59.1135 12.056C59.0388 12.2053 58.9295 12.3627 58.7855 12.528C58.6468 12.6933 58.4628 12.832 58.2335 12.944C58.0042 13.056 57.7108 13.112 57.3535 13.112ZM56.2015 10.624H58.3855C58.3642 10.3253 58.2575 10.0933 58.0655 9.928C57.8735 9.75733 57.6228 9.672 57.3135 9.672C57.0042 9.672 56.7508 9.75733 56.5535 9.928C56.3615 10.0933 56.2442 10.3253 56.2015 10.624Z" fill="black"/>
<rect x="0.25" y="0.25" width="74.5" height="19.5" rx="6.75" stroke="black" stroke-width="0.5"/>
</svg>
