<svg width="33" height="16" viewBox="0 0 33 16" fill="none" xmlns="http://www.w3.org/2000/svg">
<path d="M0.12 12V0.799999H2.136V12H0.12ZM8.146 12.224C7.35667 12.224 6.64733 12.064 6.018 11.744C5.38867 11.424 4.89267 10.96 4.53 10.352C4.16733 9.744 3.986 9.01333 3.986 8.16V7.904C3.986 7.05067 4.16733 6.32 4.53 5.712C4.89267 5.104 5.38867 4.64 6.018 4.32C6.64733 4 7.35667 3.84 8.146 3.84C8.93533 3.84 9.64467 4 10.274 4.32C10.9033 4.64 11.3993 5.104 11.762 5.712C12.1247 6.32 12.306 7.05067 12.306 7.904V8.16C12.306 9.01333 12.1247 9.744 11.762 10.352C11.3993 10.96 10.9033 11.424 10.274 11.744C9.64467 12.064 8.93533 12.224 8.146 12.224ZM8.146 10.432C8.76467 10.432 9.27667 10.2347 9.682 9.84C10.0873 9.43467 10.29 8.85867 10.29 8.112V7.952C10.29 7.20533 10.0873 6.63467 9.682 6.24C9.28733 5.83467 8.77533 5.632 8.146 5.632C7.52733 5.632 7.01533 5.83467 6.61 6.24C6.20467 6.63467 6.002 7.20533 6.002 7.952V8.112C6.002 8.85867 6.20467 9.43467 6.61 9.84C7.01533 10.2347 7.52733 10.432 8.146 10.432ZM13.7829 8.064V7.808C13.7829 6.976 13.9482 6.26667 14.2789 5.68C14.6095 5.08267 15.0469 4.62933 15.5909 4.32C16.1455 4 16.7482 3.84 17.3989 3.84C18.1242 3.84 18.6735 3.968 19.0469 4.224C19.4202 4.48 19.6922 4.74667 19.8629 5.024H20.1509V4.064H22.1349V13.408C22.1349 13.952 21.9749 14.384 21.6549 14.704C21.3349 15.0347 20.9082 15.2 20.3749 15.2H15.0629V13.44H19.6709C19.9695 13.44 20.1189 13.28 20.1189 12.96V10.896H19.8309C19.7242 11.0667 19.5749 11.2427 19.3829 11.424C19.1909 11.5947 18.9349 11.7387 18.6149 11.856C18.2949 11.9733 17.8895 12.032 17.3989 12.032C16.7482 12.032 16.1455 11.8773 15.5909 11.568C15.0469 11.248 14.6095 10.7947 14.2789 10.208C13.9482 9.61067 13.7829 8.896 13.7829 8.064ZM17.9749 10.272C18.5935 10.272 19.1109 10.0747 19.5269 9.68C19.9429 9.28533 20.1509 8.73067 20.1509 8.016V7.856C20.1509 7.13067 19.9429 6.576 19.5269 6.192C19.1215 5.79733 18.6042 5.6 17.9749 5.6C17.3562 5.6 16.8389 5.79733 16.4229 6.192C16.0069 6.576 15.7989 7.13067 15.7989 7.856V8.016C15.7989 8.73067 16.0069 9.28533 16.4229 9.68C16.8389 10.0747 17.3562 10.272 17.9749 10.272ZM28.146 12.224C27.3567 12.224 26.6473 12.064 26.018 11.744C25.3887 11.424 24.8927 10.96 24.53 10.352C24.1673 9.744 23.986 9.01333 23.986 8.16V7.904C23.986 7.05067 24.1673 6.32 24.53 5.712C24.8927 5.104 25.3887 4.64 26.018 4.32C26.6473 4 27.3567 3.84 28.146 3.84C28.9353 3.84 29.6447 4 30.274 4.32C30.9033 4.64 31.3993 5.104 31.762 5.712C32.1247 6.32 32.306 7.05067 32.306 7.904V8.16C32.306 9.01333 32.1247 9.744 31.762 10.352C31.3993 10.96 30.9033 11.424 30.274 11.744C29.6447 12.064 28.9353 12.224 28.146 12.224ZM28.146 10.432C28.7647 10.432 29.2767 10.2347 29.682 9.84C30.0873 9.43467 30.29 8.85867 30.29 8.112V7.952C30.29 7.20533 30.0873 6.63467 29.682 6.24C29.2873 5.83467 28.7753 5.632 28.146 5.632C27.5273 5.632 27.0153 5.83467 26.61 6.24C26.2047 6.63467 26.002 7.20533 26.002 7.952V8.112C26.002 8.85867 26.2047 9.43467 26.61 9.84C27.0153 10.2347 27.5273 10.432 28.146 10.432Z" fill="black"/>
</svg>
