<svg width="50" height="15" viewBox="0 0 50 15" fill="none" xmlns="http://www.w3.org/2000/svg">
<rect width="50" height="15" rx="3" fill="white"/>
<rect x="0.15" y="0.15" width="49.7" height="14.7" rx="2.85" stroke="black" stroke-opacity="0.3" stroke-width="0.3"/>
<path d="M5.282 9V8.55H5.87V5.25H5.282V4.8H6.92C7.472 4.8 7.898 4.94 8.198 5.22C8.502 5.5 8.654 5.93 8.654 6.51V7.29C8.654 7.874 8.502 8.306 8.198 8.586C7.898 8.862 7.472 9 6.92 9H5.282ZM6.374 8.544H6.92C7.328 8.544 7.636 8.444 7.844 8.244C8.052 8.044 8.156 7.734 8.156 7.314V6.492C8.156 6.064 8.052 5.752 7.844 5.556C7.636 5.36 7.328 5.262 6.92 5.262H6.374V8.544ZM10.3765 9.084C10.1725 9.084 9.98652 9.048 9.81852 8.976C9.65052 8.904 9.51852 8.8 9.42252 8.664C9.32652 8.528 9.27852 8.362 9.27852 8.166C9.27852 7.966 9.32652 7.802 9.42252 7.674C9.51852 7.542 9.65052 7.444 9.81852 7.38C9.98652 7.312 10.1745 7.278 10.3825 7.278H11.3725V7.062C11.3725 6.854 11.3105 6.69 11.1865 6.57C11.0665 6.45 10.8865 6.39 10.6465 6.39C10.4105 6.39 10.2265 6.448 10.0945 6.564C9.96252 6.676 9.87252 6.828 9.82452 7.02L9.38052 6.876C9.42852 6.712 9.50452 6.564 9.60852 6.432C9.71252 6.296 9.85052 6.188 10.0225 6.108C10.1985 6.024 10.4085 5.982 10.6525 5.982C11.0285 5.982 11.3205 6.08 11.5285 6.276C11.7365 6.468 11.8405 6.74 11.8405 7.092V8.418C11.8405 8.538 11.8965 8.598 12.0085 8.598H12.2785V9H11.8645C11.7325 9 11.6265 8.964 11.5465 8.892C11.4665 8.816 11.4265 8.716 11.4265 8.592V8.562H11.3545C11.3105 8.638 11.2505 8.718 11.1745 8.802C11.1025 8.882 11.0025 8.948 10.8745 9C10.7465 9.056 10.5805 9.084 10.3765 9.084ZM10.4305 8.676C10.7105 8.676 10.9365 8.594 11.1085 8.43C11.2845 8.262 11.3725 8.028 11.3725 7.728V7.662H10.4005C10.2125 7.662 10.0565 7.704 9.93252 7.788C9.81252 7.868 9.75252 7.99 9.75252 8.154C9.75252 8.318 9.81452 8.446 9.93852 8.538C10.0665 8.63 10.2305 8.676 10.4305 8.676ZM13.8143 9C13.6463 9 13.5163 8.954 13.4243 8.862C13.3363 8.77 13.2923 8.644 13.2923 8.484V6.48H12.4103V6.066H13.2923V5.022H13.7663V6.066H14.7263V6.48H13.7663V8.412C13.7663 8.532 13.8243 8.592 13.9403 8.592H14.5943V9H13.8143ZM16.7326 9.084C16.4366 9.084 16.1766 9.022 15.9526 8.898C15.7286 8.77 15.5546 8.592 15.4306 8.364C15.3066 8.136 15.2446 7.872 15.2446 7.572V7.5C15.2446 7.196 15.3066 6.93 15.4306 6.702C15.5546 6.474 15.7266 6.298 15.9466 6.174C16.1666 6.046 16.4186 5.982 16.7026 5.982C16.9786 5.982 17.2226 6.042 17.4346 6.162C17.6466 6.278 17.8126 6.446 17.9326 6.666C18.0526 6.886 18.1126 7.144 18.1126 7.44V7.656H15.7186C15.7306 7.972 15.8326 8.22 16.0246 8.4C16.2166 8.576 16.4566 8.664 16.7446 8.664C16.9966 8.664 17.1906 8.606 17.3266 8.49C17.4626 8.374 17.5666 8.236 17.6386 8.076L18.0466 8.274C17.9866 8.398 17.9026 8.522 17.7946 8.646C17.6906 8.77 17.5526 8.874 17.3806 8.958C17.2126 9.042 16.9966 9.084 16.7326 9.084ZM15.7246 7.266H17.6326C17.6166 6.994 17.5226 6.782 17.3506 6.63C17.1826 6.478 16.9666 6.402 16.7026 6.402C16.4346 6.402 16.2146 6.478 16.0426 6.63C15.8706 6.782 15.7646 6.994 15.7246 7.266ZM21.3804 9.084C21.1764 9.084 20.9904 9.048 20.8224 8.976C20.6544 8.904 20.5224 8.8 20.4264 8.664C20.3304 8.528 20.2824 8.362 20.2824 8.166C20.2824 7.966 20.3304 7.802 20.4264 7.674C20.5224 7.542 20.6544 7.444 20.8224 7.38C20.9904 7.312 21.1784 7.278 21.3864 7.278H22.3764V7.062C22.3764 6.854 22.3144 6.69 22.1904 6.57C22.0704 6.45 21.8904 6.39 21.6504 6.39C21.4144 6.39 21.2304 6.448 21.0984 6.564C20.9664 6.676 20.8764 6.828 20.8284 7.02L20.3844 6.876C20.4324 6.712 20.5084 6.564 20.6124 6.432C20.7164 6.296 20.8544 6.188 21.0264 6.108C21.2024 6.024 21.4124 5.982 21.6564 5.982C22.0324 5.982 22.3244 6.08 22.5324 6.276C22.7404 6.468 22.8444 6.74 22.8444 7.092V8.418C22.8444 8.538 22.9004 8.598 23.0124 8.598H23.2824V9H22.8684C22.7364 9 22.6304 8.964 22.5504 8.892C22.4704 8.816 22.4304 8.716 22.4304 8.592V8.562H22.3584C22.3144 8.638 22.2544 8.718 22.1784 8.802C22.1064 8.882 22.0064 8.948 21.8784 9C21.7504 9.056 21.5844 9.084 21.3804 9.084ZM21.4344 8.676C21.7144 8.676 21.9404 8.594 22.1124 8.43C22.2884 8.262 22.3764 8.028 22.3764 7.728V7.662H21.4044C21.2164 7.662 21.0604 7.704 20.9364 7.788C20.8164 7.868 20.7564 7.99 20.7564 8.154C20.7564 8.318 20.8184 8.446 20.9424 8.538C21.0704 8.63 21.2344 8.676 21.4344 8.676ZM25.0916 9.084C24.8396 9.084 24.6076 9.024 24.3956 8.904C24.1836 8.784 24.0156 8.61 23.8916 8.382C23.7676 8.154 23.7056 7.884 23.7056 7.572V7.494C23.7056 7.182 23.7676 6.914 23.8916 6.69C24.0156 6.462 24.1816 6.288 24.3896 6.168C24.6016 6.044 24.8356 5.982 25.0916 5.982C25.2956 5.982 25.4676 6.01 25.6076 6.066C25.7516 6.118 25.8676 6.186 25.9556 6.27C26.0436 6.35 26.1116 6.436 26.1596 6.528H26.2436V4.8H26.7176V9H26.2556V8.514H26.1716C26.0916 8.662 25.9676 8.794 25.7996 8.91C25.6316 9.026 25.3956 9.084 25.0916 9.084ZM25.2176 8.664C25.5216 8.664 25.7676 8.568 25.9556 8.376C26.1476 8.18 26.2436 7.908 26.2436 7.56V7.506C26.2436 7.158 26.1476 6.888 25.9556 6.696C25.7676 6.5 25.5216 6.402 25.2176 6.402C24.9176 6.402 24.6696 6.5 24.4736 6.696C24.2816 6.888 24.1856 7.158 24.1856 7.506V7.56C24.1856 7.908 24.2816 8.18 24.4736 8.376C24.6696 8.568 24.9176 8.664 25.2176 8.664ZM28.9529 9.084C28.7009 9.084 28.4689 9.024 28.2569 8.904C28.0449 8.784 27.8769 8.61 27.7529 8.382C27.6289 8.154 27.5669 7.884 27.5669 7.572V7.494C27.5669 7.182 27.6289 6.914 27.7529 6.69C27.8769 6.462 28.0429 6.288 28.2509 6.168C28.4629 6.044 28.6969 5.982 28.9529 5.982C29.1569 5.982 29.3289 6.01 29.4689 6.066C29.6129 6.118 29.7289 6.186 29.8169 6.27C29.9049 6.35 29.9729 6.436 30.0209 6.528H30.1049V4.8H30.5789V9H30.1169V8.514H30.0329C29.9529 8.662 29.8289 8.794 29.6609 8.91C29.4929 9.026 29.2569 9.084 28.9529 9.084ZM29.0789 8.664C29.3829 8.664 29.6289 8.568 29.8169 8.376C30.0089 8.18 30.1049 7.908 30.1049 7.56V7.506C30.1049 7.158 30.0089 6.888 29.8169 6.696C29.6289 6.5 29.3829 6.402 29.0789 6.402C28.7789 6.402 28.5309 6.5 28.3349 6.696C28.1429 6.888 28.0469 7.158 28.0469 7.506V7.56C28.0469 7.908 28.1429 8.18 28.3349 8.376C28.5309 8.568 28.7789 8.664 29.0789 8.664ZM32.9162 9.084C32.6202 9.084 32.3602 9.022 32.1362 8.898C31.9122 8.77 31.7382 8.592 31.6142 8.364C31.4902 8.136 31.4282 7.872 31.4282 7.572V7.5C31.4282 7.196 31.4902 6.93 31.6142 6.702C31.7382 6.474 31.9102 6.298 32.1302 6.174C32.3502 6.046 32.6022 5.982 32.8862 5.982C33.1622 5.982 33.4062 6.042 33.6182 6.162C33.8302 6.278 33.9962 6.446 34.1162 6.666C34.2362 6.886 34.2962 7.144 34.2962 7.44V7.656H31.9022C31.9142 7.972 32.0162 8.22 32.2082 8.4C32.4002 8.576 32.6402 8.664 32.9282 8.664C33.1802 8.664 33.3742 8.606 33.5102 8.49C33.6462 8.374 33.7502 8.236 33.8222 8.076L34.2302 8.274C34.1702 8.398 34.0862 8.522 33.9782 8.646C33.8742 8.77 33.7362 8.874 33.5642 8.958C33.3962 9.042 33.1802 9.084 32.9162 9.084ZM31.9082 7.266H33.8162C33.8002 6.994 33.7062 6.782 33.5342 6.63C33.3662 6.478 33.1502 6.402 32.8862 6.402C32.6182 6.402 32.3982 6.478 32.2262 6.63C32.0542 6.782 31.9482 6.994 31.9082 7.266ZM36.365 9.084C36.113 9.084 35.881 9.024 35.669 8.904C35.457 8.784 35.289 8.61 35.165 8.382C35.041 8.154 34.979 7.884 34.979 7.572V7.494C34.979 7.182 35.041 6.914 35.165 6.69C35.289 6.462 35.455 6.288 35.663 6.168C35.875 6.044 36.109 5.982 36.365 5.982C36.569 5.982 36.741 6.01 36.881 6.066C37.025 6.118 37.141 6.186 37.229 6.27C37.317 6.35 37.385 6.436 37.433 6.528H37.517V4.8H37.991V9H37.529V8.514H37.445C37.365 8.662 37.241 8.794 37.073 8.91C36.905 9.026 36.669 9.084 36.365 9.084ZM36.491 8.664C36.795 8.664 37.041 8.568 37.229 8.376C37.421 8.18 37.517 7.908 37.517 7.56V7.506C37.517 7.158 37.421 6.888 37.229 6.696C37.041 6.5 36.795 6.402 36.491 6.402C36.191 6.402 35.943 6.5 35.747 6.696C35.555 6.888 35.459 7.158 35.459 7.506V7.56C35.459 7.908 35.555 8.18 35.747 8.376C35.943 8.568 36.191 8.664 36.491 8.664Z" fill="black"/>
<path d="M42.051 8.05169C42.1129 7.98904 42.2096 7.98334 42.2778 8.0346L42.2974 8.05169L43.8 9.57388L45.3026 8.05169C45.3645 7.98904 45.4612 7.98334 45.5294 8.0346L45.549 8.05169C45.6108 8.11434 45.6164 8.21238 45.5658 8.28146L45.549 8.30125L43.9232 9.94831C43.8613 10.011 43.7646 10.0167 43.6964 9.9654L43.6768 9.94831L42.051 8.30125C41.983 8.23234 41.983 8.1206 42.051 8.05169Z" fill="black"/>
<path d="M45.549 6.94831C45.4871 7.01096 45.3903 7.01666 45.3221 6.9654L45.3026 6.94831L43.8 5.42612L42.2973 6.94831C42.2355 7.01096 42.1387 7.01666 42.0705 6.9654L42.051 6.94831C41.9892 6.88566 41.9835 6.78762 42.0341 6.71854L42.051 6.69875L43.6768 5.05169C43.7386 4.98904 43.8354 4.98334 43.9036 5.0346L43.9231 5.05169L45.549 6.69875C45.617 6.76766 45.617 6.8794 45.549 6.94831Z" fill="black"/>
</svg>
