<svg width="32" height="15" viewBox="0 0 32 15" fill="none" xmlns="http://www.w3.org/2000/svg">
<rect width="32" height="15" rx="3" fill="white"/>
<rect x="0.15" y="0.15" width="31.7" height="14.7" rx="2.85" stroke="black" stroke-opacity="0.3" stroke-width="0.3"/>
<path d="M5.48 9V4.8H7.088C7.34 4.8 7.564 4.85 7.76 4.95C7.96 5.046 8.118 5.184 8.234 5.364C8.35 5.544 8.408 5.762 8.408 6.018V6.096C8.408 6.348 8.348 6.566 8.228 6.75C8.112 6.93 7.954 7.068 7.754 7.164C7.554 7.26 7.332 7.308 7.088 7.308H5.984V9H5.48ZM5.984 6.852H7.034C7.302 6.852 7.514 6.786 7.67 6.654C7.826 6.518 7.904 6.328 7.904 6.084V6.024C7.904 5.78 7.826 5.592 7.67 5.46C7.518 5.324 7.306 5.256 7.034 5.256H5.984V6.852ZM9.10152 9V6.066H9.56352V6.426H9.64752C9.69952 6.298 9.77952 6.204 9.88752 6.144C9.99552 6.084 10.1375 6.054 10.3135 6.054H10.6615V6.486H10.2835C10.0715 6.486 9.89952 6.546 9.76752 6.666C9.63952 6.782 9.57552 6.964 9.57552 7.212V9H9.10152ZM11.3632 9V6.066H11.8372V9H11.3632ZM11.6032 5.61C11.4992 5.61 11.4112 5.576 11.3392 5.508C11.2712 5.44 11.2372 5.354 11.2372 5.25C11.2372 5.142 11.2712 5.054 11.3392 4.986C11.4112 4.918 11.4992 4.884 11.6032 4.884C11.7072 4.884 11.7932 4.918 11.8612 4.986C11.9292 5.054 11.9632 5.142 11.9632 5.25C11.9632 5.354 11.9292 5.44 11.8612 5.508C11.7932 5.576 11.7072 5.61 11.6032 5.61ZM14.1839 9.084C13.8999 9.084 13.6439 9.024 13.4159 8.904C13.1919 8.78 13.0139 8.604 12.8819 8.376C12.7539 8.148 12.6899 7.878 12.6899 7.566V7.5C12.6899 7.184 12.7539 6.914 12.8819 6.69C13.0139 6.462 13.1919 6.288 13.4159 6.168C13.6439 6.044 13.8999 5.982 14.1839 5.982C14.4639 5.982 14.7019 6.034 14.8979 6.138C15.0979 6.242 15.2539 6.38 15.3659 6.552C15.4819 6.724 15.5559 6.908 15.5879 7.104L15.1259 7.2C15.1059 7.056 15.0579 6.924 14.9819 6.804C14.9099 6.684 14.8079 6.588 14.6759 6.516C14.5439 6.444 14.3819 6.408 14.1899 6.408C13.9939 6.408 13.8179 6.452 13.6619 6.54C13.5099 6.628 13.3879 6.754 13.2959 6.918C13.2079 7.082 13.1639 7.278 13.1639 7.506V7.56C13.1639 7.788 13.2079 7.984 13.2959 8.148C13.3879 8.312 13.5099 8.438 13.6619 8.526C13.8179 8.614 13.9939 8.658 14.1899 8.658C14.4819 8.658 14.7039 8.582 14.8559 8.43C15.0119 8.278 15.1079 8.09 15.1439 7.866L15.6119 7.968C15.5679 8.16 15.4879 8.342 15.3719 8.514C15.2559 8.686 15.0979 8.824 14.8979 8.928C14.7019 9.032 14.4639 9.084 14.1839 9.084ZM17.7639 9.084C17.4679 9.084 17.2079 9.022 16.9839 8.898C16.7599 8.77 16.5859 8.592 16.4619 8.364C16.3379 8.136 16.2759 7.872 16.2759 7.572V7.5C16.2759 7.196 16.3379 6.93 16.4619 6.702C16.5859 6.474 16.7579 6.298 16.9779 6.174C17.1979 6.046 17.4499 5.982 17.7339 5.982C18.0099 5.982 18.2539 6.042 18.4659 6.162C18.6779 6.278 18.8439 6.446 18.9639 6.666C19.0839 6.886 19.1439 7.144 19.1439 7.44V7.656H16.7499C16.7619 7.972 16.8639 8.22 17.0559 8.4C17.2479 8.576 17.4879 8.664 17.7759 8.664C18.0279 8.664 18.2219 8.606 18.3579 8.49C18.4939 8.374 18.5979 8.236 18.6699 8.076L19.0779 8.274C19.0179 8.398 18.9339 8.522 18.8259 8.646C18.7219 8.77 18.5839 8.874 18.4119 8.958C18.2439 9.042 18.0279 9.084 17.7639 9.084ZM16.7559 7.266H18.6639C18.6479 6.994 18.5539 6.782 18.3819 6.63C18.2139 6.478 17.9979 6.402 17.7339 6.402C17.4659 6.402 17.2459 6.478 17.0739 6.63C16.9019 6.782 16.7959 6.994 16.7559 7.266Z" fill="black"/>
<path d="M23.051 8.05169C23.1129 7.98904 23.2096 7.98334 23.2778 8.0346L23.2974 8.05169L24.8 9.57388L26.3026 8.05169C26.3645 7.98904 26.4612 7.98334 26.5294 8.0346L26.549 8.05169C26.6108 8.11434 26.6164 8.21238 26.5658 8.28146L26.549 8.30125L24.9232 9.94831C24.8613 10.011 24.7646 10.0167 24.6964 9.9654L24.6768 9.94831L23.051 8.30125C22.983 8.23234 22.983 8.1206 23.051 8.05169Z" fill="black"/>
<path d="M26.549 6.94831C26.4871 7.01096 26.3903 7.01666 26.3221 6.9654L26.3026 6.94831L24.8 5.42612L23.2973 6.94831C23.2355 7.01096 23.1387 7.01666 23.0705 6.9654L23.051 6.94831C22.9892 6.88566 22.9835 6.78762 23.0341 6.71854L23.051 6.69875L24.6768 5.05169C24.7386 4.98904 24.8354 4.98334 24.9036 5.0346L24.9231 5.05169L26.549 6.69875C26.617 6.76766 26.617 6.8794 26.549 6.94831Z" fill="black"/>
</svg>
