<svg width="50" height="50" viewBox="0 0 50 50" fill="none" xmlns="http://www.w3.org/2000/svg">
<path d="M0 8C0 3.58172 3.58172 0 8 0H42C46.4183 0 50 3.58172 50 8V42C50 46.4183 46.4183 50 42 50H8C3.58172 50 0 46.4183 0 42V8Z" fill="#F5F5F5"/>
<path d="M16.0457 40.098C15.4297 40.098 14.9397 39.93 14.5757 39.594C14.2117 39.2533 14.0297 38.768 14.0297 38.138V36.962C14.0297 36.332 14.2117 35.849 14.5757 35.513C14.9397 35.1723 15.4297 35.002 16.0457 35.002C16.6617 35.002 17.1517 35.1723 17.5157 35.513C17.8797 35.849 18.0617 36.332 18.0617 36.962V38.138C18.0617 38.768 17.8797 39.2533 17.5157 39.594C17.1517 39.93 16.6617 40.098 16.0457 40.098ZM16.0457 39.272C16.391 39.272 16.6594 39.1717 16.8507 38.971C17.042 38.7703 17.1377 38.502 17.1377 38.166V36.934C17.1377 36.598 17.042 36.3297 16.8507 36.129C16.6594 35.9283 16.391 35.828 16.0457 35.828C15.705 35.828 15.4367 35.9283 15.2407 36.129C15.0494 36.3297 14.9537 36.598 14.9537 36.934V38.166C14.9537 38.502 15.0494 38.7703 15.2407 38.971C15.4367 39.1717 15.705 39.272 16.0457 39.272Z" fill="black"/>
<path d="M20.2302 40C20.0015 40 19.8148 39.93 19.6702 39.79C19.5302 39.6453 19.4602 39.454 19.4602 39.216V37.256H18.5922V36.528H19.4602V35.45H20.3422V36.528H21.2942V37.256H20.3422V39.062C20.3422 39.202 20.4075 39.272 20.5382 39.272H21.2102V40H20.2302Z" fill="black"/>
<path d="M22.0925 40V35.1H22.9745V36.955H23.1005C23.1379 36.8803 23.1962 36.8057 23.2755 36.731C23.3549 36.6563 23.4599 36.5957 23.5905 36.549C23.7259 36.4977 23.8962 36.472 24.1015 36.472C24.3722 36.472 24.6079 36.535 24.8085 36.661C25.0139 36.7823 25.1725 36.9527 25.2845 37.172C25.3965 37.3867 25.4525 37.6387 25.4525 37.928V40H24.5705V37.998C24.5705 37.7367 24.5052 37.5407 24.3745 37.41C24.2485 37.2793 24.0665 37.214 23.8285 37.214C23.5579 37.214 23.3479 37.305 23.1985 37.487C23.0492 37.6643 22.9745 37.914 22.9745 38.236V40H22.0925Z" fill="black"/>
<path d="M27.988 40.098C27.6427 40.098 27.337 40.0257 27.071 39.881C26.8097 39.7317 26.6043 39.524 26.455 39.258C26.3103 38.9873 26.238 38.67 26.238 38.306V38.222C26.238 37.858 26.3103 37.543 26.455 37.277C26.5997 37.0063 26.8027 36.7987 27.064 36.654C27.3253 36.5047 27.6287 36.43 27.974 36.43C28.3147 36.43 28.611 36.507 28.863 36.661C29.115 36.8103 29.311 37.0203 29.451 37.291C29.591 37.557 29.661 37.8673 29.661 38.222V38.523H27.134C27.1433 38.761 27.232 38.9547 27.4 39.104C27.568 39.2533 27.7733 39.328 28.016 39.328C28.2633 39.328 28.4453 39.2743 28.562 39.167C28.6787 39.0597 28.7673 38.9407 28.828 38.81L29.549 39.188C29.4837 39.3093 29.388 39.4423 29.262 39.587C29.1407 39.727 28.9773 39.8483 28.772 39.951C28.5667 40.049 28.3053 40.098 27.988 40.098ZM27.141 37.865H28.765C28.7463 37.6643 28.6647 37.5033 28.52 37.382C28.38 37.2607 28.1957 37.2 27.967 37.2C27.729 37.2 27.54 37.2607 27.4 37.382C27.26 37.5033 27.1737 37.6643 27.141 37.865Z" fill="black"/>
<path d="M30.4461 40V36.528H31.3141V36.92H31.4401C31.4914 36.78 31.5754 36.6773 31.6921 36.612C31.8134 36.5467 31.9534 36.514 32.1121 36.514H32.5321V37.298H32.0981C31.8741 37.298 31.6897 37.3587 31.5451 37.48C31.4004 37.5967 31.3281 37.7787 31.3281 38.026V40H30.4461Z" fill="black"/>
<path d="M34.5814 40.098C34.1287 40.098 33.7577 40 33.4684 39.804C33.1791 39.608 33.0041 39.328 32.9434 38.964L33.7554 38.754C33.7881 38.9173 33.8417 39.0457 33.9164 39.139C33.9957 39.2323 34.0914 39.3 34.2034 39.342C34.3201 39.3793 34.4461 39.398 34.5814 39.398C34.7867 39.398 34.9384 39.363 35.0364 39.293C35.1344 39.2183 35.1834 39.1273 35.1834 39.02C35.1834 38.9127 35.1367 38.831 35.0434 38.775C34.9501 38.7143 34.8007 38.6653 34.5954 38.628L34.3994 38.593C34.1567 38.5463 33.9351 38.4833 33.7344 38.404C33.5337 38.32 33.3727 38.2057 33.2514 38.061C33.1301 37.9163 33.0694 37.7297 33.0694 37.501C33.0694 37.1557 33.1954 36.892 33.4474 36.71C33.6994 36.5233 34.0307 36.43 34.4414 36.43C34.8287 36.43 35.1507 36.5163 35.4074 36.689C35.6641 36.8617 35.8321 37.088 35.9114 37.368L35.0924 37.62C35.0551 37.4427 34.9781 37.3167 34.8614 37.242C34.7494 37.1673 34.6094 37.13 34.4414 37.13C34.2734 37.13 34.1451 37.1603 34.0564 37.221C33.9677 37.277 33.9234 37.3563 33.9234 37.459C33.9234 37.571 33.9701 37.655 34.0634 37.711C34.1567 37.7623 34.2827 37.802 34.4414 37.83L34.6374 37.865C34.8987 37.9117 35.1344 37.9747 35.3444 38.054C35.5591 38.1287 35.7271 38.2383 35.8484 38.383C35.9744 38.523 36.0374 38.7143 36.0374 38.957C36.0374 39.321 35.9044 39.6033 35.6384 39.804C35.3771 40 35.0247 40.098 34.5814 40.098Z" fill="black"/>
<path fill-rule="evenodd" clip-rule="evenodd" d="M18.405 10C17.3643 10 16.5207 10.8483 16.5207 11.8947V13.6357L15.0981 17.9271C14.7311 19.0343 15.4348 20.1741 16.5207 20.386V26.1053C16.5207 27.1517 17.3643 28 18.405 28H31.595C32.6357 28 33.4793 27.1517 33.4793 26.1053V20.386C34.5652 20.1741 35.2689 19.0343 34.9018 17.9271L33.4793 13.6357V11.8947C33.4793 10.8483 32.6357 10 31.595 10H18.405ZM27.8264 26.1053H31.595V20.4211H25H18.405V26.1053H22.1736V23.2632C22.1736 21.6935 23.439 20.4211 25 20.4211C26.561 20.4211 27.8264 21.6935 27.8264 23.2632V26.1053ZM24.0579 26.1053H25.9422V23.2632C25.9422 22.7399 25.5204 22.3158 25 22.3158C24.4797 22.3158 24.0579 22.7399 24.0579 23.2632V26.1053ZM16.8857 18.5263L18.1419 14.7368H19.6482L19.0201 18.5263H16.8857ZM20.9304 18.5263L21.5585 14.7368H24.0579V18.5263H20.9304ZM25.9422 18.5263V14.7368H28.4416L29.0696 18.5263H25.9422ZM30.9799 18.5263L30.3519 14.7368H31.8581L33.1143 18.5263H30.9799ZM31.595 11.8947V12.8421H18.405V11.8947H31.595Z" fill="black"/>
</svg>
