<svg width="32" height="15" viewBox="0 0 32 15" fill="none" xmlns="http://www.w3.org/2000/svg">
<rect width="32" height="15" rx="3" fill="#BFCDF5"/>
<path d="M5.438 9V4.8H7.106C7.362 4.8 7.59 4.852 7.79 4.956C7.994 5.056 8.152 5.2 8.264 5.388C8.38 5.572 8.438 5.794 8.438 6.054V6.132C8.438 6.392 8.378 6.616 8.258 6.804C8.142 6.992 7.984 7.136 7.784 7.236C7.584 7.336 7.358 7.386 7.106 7.386H6.086V9H5.438ZM6.086 6.798H7.04C7.268 6.798 7.45 6.738 7.586 6.618C7.722 6.498 7.79 6.334 7.79 6.126V6.066C7.79 5.854 7.722 5.688 7.586 5.568C7.45 5.448 7.268 5.388 7.04 5.388H6.086V6.798ZM9.07123 9V6.042H9.67723V6.39H9.77323C9.82123 6.266 9.89723 6.176 10.0012 6.12C10.1092 6.06 10.2412 6.03 10.3972 6.03H10.7512V6.588H10.3732C10.1732 6.588 10.0092 6.644 9.88123 6.756C9.75323 6.864 9.68923 7.032 9.68923 7.26V9H9.07123ZM11.3915 9V6.042H12.0095V9H11.3915ZM11.7035 5.64C11.5835 5.64 11.4815 5.602 11.3975 5.526C11.3175 5.446 11.2775 5.344 11.2775 5.22C11.2775 5.096 11.3175 4.996 11.3975 4.92C11.4815 4.84 11.5835 4.8 11.7035 4.8C11.8275 4.8 11.9295 4.84 12.0095 4.92C12.0895 4.996 12.1295 5.096 12.1295 5.22C12.1295 5.344 12.0895 5.446 12.0095 5.526C11.9295 5.602 11.8275 5.64 11.7035 5.64ZM14.3007 9.084C14.0167 9.084 13.7587 9.024 13.5267 8.904C13.2987 8.784 13.1167 8.61 12.9807 8.382C12.8487 8.154 12.7827 7.88 12.7827 7.56V7.482C12.7827 7.162 12.8487 6.89 12.9807 6.666C13.1167 6.438 13.2987 6.264 13.5267 6.144C13.7587 6.02 14.0167 5.958 14.3007 5.958C14.5847 5.958 14.8267 6.01 15.0267 6.114C15.2267 6.218 15.3867 6.356 15.5067 6.528C15.6307 6.7 15.7107 6.89 15.7467 7.098L15.1467 7.224C15.1267 7.092 15.0847 6.972 15.0207 6.864C14.9567 6.756 14.8667 6.67 14.7507 6.606C14.6347 6.542 14.4887 6.51 14.3127 6.51C14.1407 6.51 13.9847 6.55 13.8447 6.63C13.7087 6.706 13.6007 6.818 13.5207 6.966C13.4407 7.11 13.4007 7.286 13.4007 7.494V7.548C13.4007 7.756 13.4407 7.934 13.5207 8.082C13.6007 8.23 13.7087 8.342 13.8447 8.418C13.9847 8.494 14.1407 8.532 14.3127 8.532C14.5727 8.532 14.7707 8.466 14.9067 8.334C15.0427 8.198 15.1287 8.026 15.1647 7.818L15.7647 7.956C15.7167 8.16 15.6307 8.348 15.5067 8.52C15.3867 8.692 15.2267 8.83 15.0267 8.934C14.8267 9.034 14.5847 9.084 14.3007 9.084ZM17.8335 9.084C17.5335 9.084 17.2715 9.022 17.0475 8.898C16.8235 8.77 16.6475 8.592 16.5195 8.364C16.3955 8.132 16.3335 7.864 16.3335 7.56V7.488C16.3335 7.18 16.3955 6.912 16.5195 6.684C16.6435 6.452 16.8155 6.274 17.0355 6.15C17.2595 6.022 17.5175 5.958 17.8095 5.958C18.0935 5.958 18.3415 6.022 18.5535 6.15C18.7695 6.274 18.9375 6.448 19.0575 6.672C19.1775 6.896 19.2375 7.158 19.2375 7.458V7.692H16.9635C16.9715 7.952 17.0575 8.16 17.2215 8.316C17.3895 8.468 17.5975 8.544 17.8455 8.544C18.0775 8.544 18.2515 8.492 18.3675 8.388C18.4875 8.284 18.5795 8.164 18.6435 8.028L19.1535 8.292C19.0975 8.404 19.0155 8.522 18.9075 8.646C18.8035 8.77 18.6655 8.874 18.4935 8.958C18.3215 9.042 18.1015 9.084 17.8335 9.084ZM16.9695 7.218H18.6075C18.5915 6.994 18.5115 6.82 18.3675 6.696C18.2235 6.568 18.0355 6.504 17.8035 6.504C17.5715 6.504 17.3815 6.568 17.2335 6.696C17.0895 6.82 17.0015 6.994 16.9695 7.218Z" fill="#0C1AF5"/>
<path d="M23 6.42824L24.5 5L26 6.42824M24.5 9V5.04" stroke="#0C1AF5" stroke-width="0.5" stroke-miterlimit="10" stroke-linecap="round" stroke-linejoin="round"/>
</svg>
