<svg width="21" height="20" viewBox="0 0 21 20" fill="none" xmlns="http://www.w3.org/2000/svg">
<path d="M10.6745 16.3489C6.99537 16.3489 4 13.3535 4 9.67446C4 5.99537 6.99537 3 10.6745 3C14.3535 3 17.3489 5.99537 17.3489 9.67446C17.3489 13.3535 14.3535 16.3489 10.6745 16.3489ZM10.6745 3.97675C7.52932 3.97675 4.97675 6.53583 4.97675 9.67446C4.97675 12.8131 7.52932 15.3722 10.6745 15.3722C13.8196 15.3722 16.3722 12.8131 16.3722 9.67446C16.3722 6.53583 13.8196 3.97675 10.6745 3.97675Z" fill="#292D32"/>
<path d="M17.5112 17C17.3875 17 17.2638 16.9544 17.1661 16.8567L15.8638 15.5544C15.675 15.3656 15.675 15.053 15.8638 14.8642C16.0526 14.6753 16.3652 14.6753 16.554 14.8642L17.8564 16.1665C18.0452 16.3553 18.0452 16.6679 17.8564 16.8567C17.7587 16.9544 17.635 17 17.5112 17Z" fill="#292D32"/>
</svg>
