<svg width="48" height="20" viewBox="0 0 48 20" fill="none" xmlns="http://www.w3.org/2000/svg">
<rect x="0.25" y="0.25" width="47" height="19.5" rx="6.75" fill="#A7BBF5"/>
<path d="M25.1677 13.112C24.7464 13.112 24.373 13.0373 24.0477 12.888C23.7224 12.7387 23.4664 12.52 23.2797 12.232C23.0984 11.9387 23.0077 11.584 23.0077 11.168V10.968H23.8637V11.168C23.8637 11.5627 23.981 11.8587 24.2157 12.056C24.4557 12.2533 24.773 12.352 25.1677 12.352C25.5677 12.352 25.869 12.2693 26.0717 12.104C26.2744 11.9333 26.3757 11.7147 26.3757 11.448C26.3757 11.272 26.3277 11.128 26.2317 11.016C26.1357 10.904 25.9997 10.816 25.8237 10.752C25.6477 10.6827 25.437 10.6187 25.1917 10.56L24.8957 10.488C24.5384 10.4027 24.2264 10.2987 23.9597 10.176C23.6984 10.048 23.4957 9.88 23.3517 9.672C23.2077 9.464 23.1357 9.19733 23.1357 8.872C23.1357 8.54133 23.2157 8.25867 23.3757 8.024C23.541 7.78933 23.7677 7.608 24.0557 7.48C24.3437 7.352 24.6824 7.288 25.0717 7.288C25.461 7.288 25.8077 7.35467 26.1117 7.488C26.421 7.62133 26.6637 7.81867 26.8397 8.08C27.0157 8.34133 27.1037 8.66933 27.1037 9.064V9.352H26.2477V9.064C26.2477 8.824 26.197 8.62933 26.0957 8.48C25.9997 8.33067 25.8637 8.22133 25.6877 8.152C25.5117 8.08267 25.3064 8.048 25.0717 8.048C24.7304 8.048 24.4637 8.12 24.2717 8.264C24.085 8.40267 23.9917 8.59733 23.9917 8.848C23.9917 9.01867 24.0317 9.16 24.1117 9.272C24.197 9.37867 24.3197 9.46667 24.4797 9.536C24.6397 9.60533 24.8397 9.66667 25.0797 9.72L25.3757 9.792C25.7384 9.872 26.0584 9.976 26.3357 10.104C26.613 10.2267 26.8317 10.3947 26.9917 10.608C27.1517 10.8213 27.2317 11.096 27.2317 11.432C27.2317 11.768 27.1464 12.0613 26.9757 12.312C26.8104 12.5627 26.573 12.76 26.2637 12.904C25.9544 13.0427 25.589 13.112 25.1677 13.112ZM29.9707 13.112C29.5707 13.112 29.2214 13.0293 28.9227 12.864C28.624 12.6933 28.3894 12.456 28.2187 12.152C28.0534 11.8427 27.9707 11.4853 27.9707 11.08V10.984C27.9707 10.5733 28.0534 10.216 28.2187 9.912C28.384 9.60267 28.6134 9.36533 28.9067 9.2C29.2054 9.02933 29.5494 8.944 29.9387 8.944C30.3174 8.944 30.648 9.02933 30.9307 9.2C31.2187 9.36533 31.4427 9.59733 31.6027 9.896C31.7627 10.1947 31.8427 10.544 31.8427 10.944V11.256H28.8107C28.8214 11.6027 28.936 11.88 29.1547 12.088C29.3787 12.2907 29.656 12.392 29.9867 12.392C30.296 12.392 30.528 12.3227 30.6827 12.184C30.8427 12.0453 30.9654 11.8853 31.0507 11.704L31.7307 12.056C31.656 12.2053 31.5467 12.3627 31.4027 12.528C31.264 12.6933 31.08 12.832 30.8507 12.944C30.6214 13.056 30.328 13.112 29.9707 13.112ZM28.8187 10.624H31.0027C30.9814 10.3253 30.8747 10.0933 30.6827 9.928C30.4907 9.75733 30.24 9.672 29.9307 9.672C29.6214 9.672 29.368 9.75733 29.1707 9.928C28.9787 10.0933 28.8614 10.3253 28.8187 10.624ZM32.8346 13V7.4H33.6586V13H32.8346ZM34.8814 13V7.4H35.7054V13H34.8814Z" fill="black"/>
<path d="M10 6.5H10.6676C11.082 6.5 11.4081 6.84875 11.3735 7.25L11.0551 10.985C11.0014 11.5963 11.4963 12.1213 12.1255 12.1213H16.2117C16.7642 12.1213 17.2476 11.6788 17.2898 11.1425L17.497 8.33C17.543 7.7075 17.0596 7.20125 16.4188 7.20125H11.4656" stroke="black" stroke-miterlimit="10" stroke-linecap="round" stroke-linejoin="round"/>
<path d="M15.4674 14C15.7323 14 15.947 13.7902 15.947 13.5312C15.947 13.2723 15.7323 13.0625 15.4674 13.0625C15.2025 13.0625 14.9878 13.2723 14.9878 13.5312C14.9878 13.7902 15.2025 14 15.4674 14Z" stroke="black" stroke-miterlimit="10" stroke-linecap="round" stroke-linejoin="round"/>
<path d="M12.3978 14C12.6627 14 12.8774 13.7902 12.8774 13.5312C12.8774 13.2723 12.6627 13.0625 12.3978 13.0625C12.1329 13.0625 11.9182 13.2723 11.9182 13.5312C11.9182 13.7902 12.1329 14 12.3978 14Z" stroke="black" stroke-miterlimit="10" stroke-linecap="round" stroke-linejoin="round"/>
<path d="M12.6858 8.75H17.2899" stroke="black" stroke-miterlimit="10" stroke-linecap="round" stroke-linejoin="round"/>
<rect x="0.25" y="0.25" width="47" height="19.5" rx="6.75" stroke="black" stroke-width="0.5"/>
</svg>
