<svg width="50" height="50" viewBox="0 0 50 50" fill="none" xmlns="http://www.w3.org/2000/svg">
<path d="M0 8C0 3.58172 3.58172 0 8 0H42C46.4183 0 50 3.58172 50 8V42C50 46.4183 46.4183 50 42 50H8C3.58172 50 0 46.4183 0 42V8Z" fill="#F5F5F5"/>
<path d="M16.8852 39.098C16.5072 39.098 16.1735 39.0303 15.8842 38.895C15.5948 38.7597 15.3685 38.566 15.2052 38.314C15.0418 38.062 14.9602 37.7587 14.9602 37.404V37.208H15.8702V37.404C15.8702 37.698 15.9612 37.9197 16.1432 38.069C16.3252 38.2137 16.5725 38.286 16.8852 38.286C17.2025 38.286 17.4382 38.223 17.5922 38.097C17.7508 37.971 17.8302 37.81 17.8302 37.614C17.8302 37.4787 17.7905 37.369 17.7112 37.285C17.6365 37.201 17.5245 37.1333 17.3752 37.082C17.2305 37.026 17.0532 36.9747 16.8432 36.928L16.6822 36.893C16.3462 36.8183 16.0568 36.725 15.8142 36.613C15.5762 36.4963 15.3918 36.3447 15.2612 36.158C15.1352 35.9713 15.0722 35.7287 15.0722 35.43C15.0722 35.1313 15.1422 34.877 15.2822 34.667C15.4268 34.4523 15.6275 34.289 15.8842 34.177C16.1455 34.0603 16.4512 34.002 16.8012 34.002C17.1512 34.002 17.4615 34.0627 17.7322 34.184C18.0075 34.3007 18.2222 34.478 18.3762 34.716C18.5348 34.9493 18.6142 35.2433 18.6142 35.598V35.808H17.7042V35.598C17.7042 35.4113 17.6668 35.262 17.5922 35.15C17.5222 35.0333 17.4195 34.9493 17.2842 34.898C17.1488 34.842 16.9878 34.814 16.8012 34.814C16.5212 34.814 16.3135 34.8677 16.1782 34.975C16.0475 35.0777 15.9822 35.22 15.9822 35.402C15.9822 35.5233 16.0125 35.626 16.0732 35.71C16.1385 35.794 16.2342 35.864 16.3602 35.92C16.4862 35.976 16.6472 36.025 16.8432 36.067L17.0042 36.102C17.3542 36.1767 17.6575 36.2723 17.9142 36.389C18.1755 36.5057 18.3785 36.6597 18.5232 36.851C18.6678 37.0423 18.7402 37.2873 18.7402 37.586C18.7402 37.8847 18.6632 38.1483 18.5092 38.377C18.3598 38.601 18.1452 38.7783 17.8652 38.909C17.5898 39.035 17.2632 39.098 16.8852 39.098Z" fill="black"/>
<path d="M19.4573 39V34.1H20.3393V35.955H20.4653C20.5026 35.8803 20.561 35.8057 20.6403 35.731C20.7196 35.6563 20.8246 35.5957 20.9553 35.549C21.0906 35.4977 21.261 35.472 21.4663 35.472C21.737 35.472 21.9726 35.535 22.1733 35.661C22.3786 35.7823 22.5373 35.9527 22.6493 36.172C22.7613 36.3867 22.8173 36.6387 22.8173 36.928V39H21.9353V36.998C21.9353 36.7367 21.87 36.5407 21.7393 36.41C21.6133 36.2793 21.4313 36.214 21.1933 36.214C20.9226 36.214 20.7126 36.305 20.5633 36.487C20.414 36.6643 20.3393 36.914 20.3393 37.236V39H19.4573Z" fill="black"/>
<path d="M25.4228 39.098C25.0774 39.098 24.7671 39.028 24.4918 38.888C24.2164 38.748 23.9994 38.545 23.8408 38.279C23.6821 38.013 23.6028 37.6933 23.6028 37.32V37.208C23.6028 36.8347 23.6821 36.515 23.8408 36.249C23.9994 35.983 24.2164 35.78 24.4918 35.64C24.7671 35.5 25.0774 35.43 25.4228 35.43C25.7681 35.43 26.0784 35.5 26.3538 35.64C26.6291 35.78 26.8461 35.983 27.0048 36.249C27.1634 36.515 27.2428 36.8347 27.2428 37.208V37.32C27.2428 37.6933 27.1634 38.013 27.0048 38.279C26.8461 38.545 26.6291 38.748 26.3538 38.888C26.0784 39.028 25.7681 39.098 25.4228 39.098ZM25.4228 38.314C25.6934 38.314 25.9174 38.2277 26.0948 38.055C26.2721 37.8777 26.3608 37.6257 26.3608 37.299V37.229C26.3608 36.9023 26.2721 36.6527 26.0948 36.48C25.9221 36.3027 25.6981 36.214 25.4228 36.214C25.1521 36.214 24.9281 36.3027 24.7508 36.48C24.5734 36.6527 24.4848 36.9023 24.4848 37.229V37.299C24.4848 37.6257 24.5734 37.8777 24.7508 38.055C24.9281 38.2277 25.1521 38.314 25.4228 38.314Z" fill="black"/>
<path d="M29.6389 39.098C29.2936 39.098 28.9879 39.0257 28.7219 38.881C28.4606 38.7317 28.2552 38.524 28.1059 38.258C27.9612 37.9873 27.8889 37.67 27.8889 37.306V37.222C27.8889 36.858 27.9612 36.543 28.1059 36.277C28.2506 36.0063 28.4536 35.7987 28.7149 35.654C28.9762 35.5047 29.2796 35.43 29.6249 35.43C29.9656 35.43 30.2619 35.507 30.5139 35.661C30.7659 35.8103 30.9619 36.0203 31.1019 36.291C31.2419 36.557 31.3119 36.8673 31.3119 37.222V37.523H28.7849C28.7942 37.761 28.8829 37.9547 29.0509 38.104C29.2189 38.2533 29.4242 38.328 29.6669 38.328C29.9142 38.328 30.0962 38.2743 30.2129 38.167C30.3296 38.0597 30.4182 37.9407 30.4789 37.81L31.1999 38.188C31.1346 38.3093 31.0389 38.4423 30.9129 38.587C30.7916 38.727 30.6282 38.8483 30.4229 38.951C30.2176 39.049 29.9562 39.098 29.6389 39.098ZM28.7919 36.865H30.4159C30.3972 36.6643 30.3156 36.5033 30.1709 36.382C30.0309 36.2607 29.8466 36.2 29.6179 36.2C29.3799 36.2 29.1909 36.2607 29.0509 36.382C28.9109 36.5033 28.8246 36.6643 28.7919 36.865Z" fill="black"/>
<path d="M33.5389 39.098C33.0863 39.098 32.7153 39 32.4259 38.804C32.1366 38.608 31.9616 38.328 31.9009 37.964L32.7129 37.754C32.7456 37.9173 32.7993 38.0457 32.8739 38.139C32.9533 38.2323 33.0489 38.3 33.1609 38.342C33.2776 38.3793 33.4036 38.398 33.5389 38.398C33.7443 38.398 33.8959 38.363 33.9939 38.293C34.0919 38.2183 34.1409 38.1273 34.1409 38.02C34.1409 37.9127 34.0943 37.831 34.0009 37.775C33.9076 37.7143 33.7583 37.6653 33.5529 37.628L33.3569 37.593C33.1143 37.5463 32.8926 37.4833 32.6919 37.404C32.4913 37.32 32.3303 37.2057 32.2089 37.061C32.0876 36.9163 32.0269 36.7297 32.0269 36.501C32.0269 36.1557 32.1529 35.892 32.4049 35.71C32.6569 35.5233 32.9883 35.43 33.3989 35.43C33.7863 35.43 34.1083 35.5163 34.3649 35.689C34.6216 35.8617 34.7896 36.088 34.8689 36.368L34.0499 36.62C34.0126 36.4427 33.9356 36.3167 33.8189 36.242C33.7069 36.1673 33.5669 36.13 33.3989 36.13C33.2309 36.13 33.1026 36.1603 33.0139 36.221C32.9253 36.277 32.8809 36.3563 32.8809 36.459C32.8809 36.571 32.9276 36.655 33.0209 36.711C33.1143 36.7623 33.2403 36.802 33.3989 36.83L33.5949 36.865C33.8563 36.9117 34.0919 36.9747 34.3019 37.054C34.5166 37.1287 34.6846 37.2383 34.8059 37.383C34.9319 37.523 34.9949 37.7143 34.9949 37.957C34.9949 38.321 34.8619 38.6033 34.5959 38.804C34.3346 39 33.9823 39.098 33.5389 39.098Z" fill="black"/>
<path d="M15.125 15C15.125 15 14 18.375 14 22.875H22.25C23 22.875 24.2096 24.375 24.2 24.375H35C35 19.875 30.5 19.5 29 19.5H26C24.5 16.5 21.5 15 21.5 15H21.125C20 17.2626 17.0247 17.2626 15.5 15H15.125ZM22.25 16.5C22.6642 16.5 23 16.8358 23 17.25C23 17.6642 22.6642 18 22.25 18C21.8358 18 21.5 17.6642 21.5 17.25C21.5 16.8358 21.8358 16.5 22.25 16.5ZM23.75 18C24.1642 18 24.5 18.3358 24.5 18.75C24.5 19.1642 24.1642 19.5 23.75 19.5C23.3358 19.5 23 19.1642 23 18.75C23 18.3358 23.3358 18 23.75 18ZM14 24V27H21.875V24H14ZM24.95 25.5C24.95 25.5 26 27 26.75 27H35V25.5H24.95Z" fill="black"/>
</svg>
