<svg width="50" height="50" viewBox="0 0 50 50" fill="none" xmlns="http://www.w3.org/2000/svg">
<path d="M0 8C0 3.58172 3.58172 0 8 0H42C46.4183 0 50 3.58172 50 8V42C50 46.4183 46.4183 50 42 50H8C3.58172 50 0 46.4183 0 42V8Z" fill="#F5F5F5"/>
<path d="M9.15714 39.098C8.77914 39.098 8.44547 39.0303 8.15614 38.895C7.86681 38.7597 7.64047 38.566 7.47714 38.314C7.31381 38.062 7.23214 37.7587 7.23214 37.404V37.208H8.14214V37.404C8.14214 37.698 8.23314 37.9197 8.41514 38.069C8.59714 38.2137 8.84447 38.286 9.15714 38.286C9.47447 38.286 9.71014 38.223 9.86414 38.097C10.0228 37.971 10.1021 37.81 10.1021 37.614C10.1021 37.4787 10.0625 37.369 9.98314 37.285C9.90847 37.201 9.79647 37.1333 9.64714 37.082C9.50247 37.026 9.32514 36.9747 9.11514 36.928L8.95414 36.893C8.61814 36.8183 8.32881 36.725 8.08614 36.613C7.84814 36.4963 7.66381 36.3447 7.53314 36.158C7.40714 35.9713 7.34414 35.7287 7.34414 35.43C7.34414 35.1313 7.41414 34.877 7.55414 34.667C7.69881 34.4523 7.89947 34.289 8.15614 34.177C8.41747 34.0603 8.72314 34.002 9.07314 34.002C9.42314 34.002 9.73347 34.0627 10.0041 34.184C10.2795 34.3007 10.4941 34.478 10.6481 34.716C10.8068 34.9493 10.8861 35.2433 10.8861 35.598V35.808H9.97614V35.598C9.97614 35.4113 9.93881 35.262 9.86414 35.15C9.79414 35.0333 9.69147 34.9493 9.55614 34.898C9.42081 34.842 9.25981 34.814 9.07314 34.814C8.79314 34.814 8.58547 34.8677 8.45014 34.975C8.31947 35.0777 8.25414 35.22 8.25414 35.402C8.25414 35.5233 8.28447 35.626 8.34514 35.71C8.41047 35.794 8.50614 35.864 8.63214 35.92C8.75814 35.976 8.91914 36.025 9.11514 36.067L9.27614 36.102C9.62614 36.1767 9.92947 36.2723 10.1861 36.389C10.4475 36.5057 10.6505 36.6597 10.7951 36.851C10.9398 37.0423 11.0121 37.2873 11.0121 37.586C11.0121 37.8847 10.9351 38.1483 10.7811 38.377C10.6318 38.601 10.4171 38.7783 10.1371 38.909C9.86181 39.035 9.53514 39.098 9.15714 39.098Z" fill="black"/>
<path d="M13.0593 39C12.8306 39 12.6439 38.93 12.4993 38.79C12.3593 38.6453 12.2893 38.454 12.2893 38.216V36.256H11.4213V35.528H12.2893V34.45H13.1713V35.528H14.1233V36.256H13.1713V38.062C13.1713 38.202 13.2366 38.272 13.3673 38.272H14.0393V39H13.0593Z" fill="black"/>
<path d="M15.9996 39.098C15.7523 39.098 15.5306 39.056 15.3346 38.972C15.1386 38.8833 14.9823 38.7573 14.8656 38.594C14.7536 38.426 14.6976 38.223 14.6976 37.985C14.6976 37.747 14.7536 37.5487 14.8656 37.39C14.9823 37.2267 15.141 37.1053 15.3416 37.026C15.547 36.942 15.7803 36.9 16.0416 36.9H16.9936V36.704C16.9936 36.5407 16.9423 36.4077 16.8396 36.305C16.737 36.1977 16.5736 36.144 16.3496 36.144C16.1303 36.144 15.967 36.1953 15.8596 36.298C15.7523 36.396 15.6823 36.5243 15.6496 36.683L14.8376 36.41C14.8936 36.2327 14.9823 36.0717 15.1036 35.927C15.2296 35.7777 15.3953 35.6587 15.6006 35.57C15.8106 35.4767 16.065 35.43 16.3636 35.43C16.821 35.43 17.1826 35.5443 17.4486 35.773C17.7146 36.0017 17.8476 36.333 17.8476 36.767V38.062C17.8476 38.202 17.913 38.272 18.0436 38.272H18.3236V39H17.7356C17.563 39 17.4206 38.958 17.3086 38.874C17.1966 38.79 17.1406 38.678 17.1406 38.538V38.531H17.0076C16.989 38.587 16.947 38.6617 16.8816 38.755C16.8163 38.8437 16.7136 38.923 16.5736 38.993C16.4336 39.063 16.2423 39.098 15.9996 39.098ZM16.1536 38.384C16.401 38.384 16.6016 38.3163 16.7556 38.181C16.9143 38.041 16.9936 37.8567 16.9936 37.628V37.558H16.1046C15.9413 37.558 15.813 37.593 15.7196 37.663C15.6263 37.733 15.5796 37.831 15.5796 37.957C15.5796 38.083 15.6286 38.1857 15.7266 38.265C15.8246 38.3443 15.967 38.384 16.1536 38.384Z" fill="black"/>
<path d="M20.0456 39C19.8169 39 19.6303 38.93 19.4856 38.79C19.3456 38.6453 19.2756 38.454 19.2756 38.216V36.256H18.4076V35.528H19.2756V34.45H20.1576V35.528H21.1096V36.256H20.1576V38.062C20.1576 38.202 20.2229 38.272 20.3536 38.272H21.0256V39H20.0456Z" fill="black"/>
<path d="M21.908 39V35.528H22.79V39H21.908ZM22.349 35.122C22.1903 35.122 22.055 35.0707 21.943 34.968C21.8356 34.8653 21.782 34.73 21.782 34.562C21.782 34.394 21.8356 34.2587 21.943 34.156C22.055 34.0533 22.1903 34.002 22.349 34.002C22.5123 34.002 22.6476 34.0533 22.755 34.156C22.8623 34.2587 22.916 34.394 22.916 34.562C22.916 34.73 22.8623 34.8653 22.755 34.968C22.6476 35.0707 22.5123 35.122 22.349 35.122Z" fill="black"/>
<path d="M25.4193 39.098C25.074 39.098 24.7637 39.028 24.4883 38.888C24.213 38.748 23.996 38.545 23.8373 38.279C23.6787 38.013 23.5993 37.6933 23.5993 37.32V37.208C23.5993 36.8347 23.6787 36.515 23.8373 36.249C23.996 35.983 24.213 35.78 24.4883 35.64C24.7637 35.5 25.074 35.43 25.4193 35.43C25.7647 35.43 26.075 35.5 26.3503 35.64C26.6257 35.78 26.8427 35.983 27.0013 36.249C27.16 36.515 27.2393 36.8347 27.2393 37.208V37.32C27.2393 37.6933 27.16 38.013 27.0013 38.279C26.8427 38.545 26.6257 38.748 26.3503 38.888C26.075 39.028 25.7647 39.098 25.4193 39.098ZM25.4193 38.314C25.69 38.314 25.914 38.2277 26.0913 38.055C26.2687 37.8777 26.3573 37.6257 26.3573 37.299V37.229C26.3573 36.9023 26.2687 36.6527 26.0913 36.48C25.9187 36.3027 25.6947 36.214 25.4193 36.214C25.1487 36.214 24.9247 36.3027 24.7473 36.48C24.57 36.6527 24.4813 36.9023 24.4813 37.229V37.299C24.4813 37.6257 24.57 37.8777 24.7473 38.055C24.9247 38.2277 25.1487 38.314 25.4193 38.314Z" fill="black"/>
<path d="M28.0535 39V35.528H28.9215V35.983H29.0475C29.1035 35.8617 29.2085 35.7473 29.3625 35.64C29.5165 35.528 29.7498 35.472 30.0625 35.472C30.3331 35.472 30.5688 35.535 30.7695 35.661C30.9748 35.7823 31.1335 35.9527 31.2455 36.172C31.3575 36.3867 31.4135 36.6387 31.4135 36.928V39H30.5315V36.998C30.5315 36.7367 30.4661 36.5407 30.3355 36.41C30.2095 36.2793 30.0275 36.214 29.7895 36.214C29.5188 36.214 29.3088 36.305 29.1595 36.487C29.0101 36.6643 28.9355 36.914 28.9355 37.236V39H28.0535Z" fill="black"/>
<path d="M33.949 39.098C33.6036 39.098 33.298 39.0257 33.032 38.881C32.7706 38.7317 32.5653 38.524 32.416 38.258C32.2713 37.9873 32.199 37.67 32.199 37.306V37.222C32.199 36.858 32.2713 36.543 32.416 36.277C32.5606 36.0063 32.7636 35.7987 33.025 35.654C33.2863 35.5047 33.5896 35.43 33.935 35.43C34.2756 35.43 34.572 35.507 34.824 35.661C35.076 35.8103 35.272 36.0203 35.412 36.291C35.552 36.557 35.622 36.8673 35.622 37.222V37.523H33.095C33.1043 37.761 33.193 37.9547 33.361 38.104C33.529 38.2533 33.7343 38.328 33.977 38.328C34.2243 38.328 34.4063 38.2743 34.523 38.167C34.6396 38.0597 34.7283 37.9407 34.789 37.81L35.51 38.188C35.4446 38.3093 35.349 38.4423 35.223 38.587C35.1016 38.727 34.9383 38.8483 34.733 38.951C34.5276 39.049 34.2663 39.098 33.949 39.098ZM33.102 36.865H34.726C34.7073 36.6643 34.6256 36.5033 34.481 36.382C34.341 36.2607 34.1566 36.2 33.928 36.2C33.69 36.2 33.501 36.2607 33.361 36.382C33.221 36.5033 33.1346 36.6643 33.102 36.865Z" fill="black"/>
<path d="M36.407 39V35.528H37.275V35.92H37.401C37.4523 35.78 37.5363 35.6773 37.653 35.612C37.7743 35.5467 37.9143 35.514 38.073 35.514H38.493V36.298H38.059C37.835 36.298 37.6507 36.3587 37.506 36.48C37.3613 36.5967 37.289 36.7787 37.289 37.026V39H36.407Z" fill="black"/>
<path d="M39.5604 40.4V39.63H41.4504C41.581 39.63 41.6464 39.56 41.6464 39.42V38.545H41.5204C41.483 38.6243 41.4247 38.7037 41.3454 38.783C41.266 38.8623 41.1587 38.9277 41.0234 38.979C40.8881 39.0303 40.7154 39.056 40.5054 39.056C40.2347 39.056 39.9967 38.9953 39.7914 38.874C39.5907 38.748 39.4344 38.5753 39.3224 38.356C39.2104 38.1367 39.1544 37.8847 39.1544 37.6V35.528H40.0364V37.53C40.0364 37.7913 40.0994 37.9873 40.2254 38.118C40.3561 38.2487 40.5404 38.314 40.7784 38.314C41.049 38.314 41.259 38.2253 41.4084 38.048C41.5577 37.866 41.6324 37.614 41.6324 37.292V35.528H42.5144V39.616C42.5144 39.854 42.4444 40.043 42.3044 40.183C42.1644 40.3277 41.9777 40.4 41.7444 40.4H39.5604Z" fill="black"/>
<path d="M34.562 21.9098L34.8642 20.8141C35.4143 18.8181 34.2438 16.753 32.2481 16.2025L17.2721 12.068C16.2741 11.7927 15.2418 12.3778 14.9666 13.3764L14.1659 16.2795C14.0738 16.612 14.2692 16.9567 14.6012 17.0485L15.3222 17.247V19.8274C15.3222 19.9431 15.369 20.0568 15.4519 20.1388C15.5339 20.2211 15.6473 20.2683 15.7632 20.2683H26.2639L28.3162 20.8342C28.3052 20.9498 28.2901 21.0689 28.2687 21.193C28.1789 21.7127 27.9838 22.267 27.6307 22.6661C27.4627 22.8562 27.26 23.0143 27.0044 23.1336H14V24.8129C14 25.4683 14.5315 26 15.1871 26H33.5313C34.1863 26 34.7184 25.4683 34.7184 24.8129V23.1336H34.0568V22.3601C34.2915 22.3227 34.4941 22.1543 34.562 21.9098ZM16.204 19.3862V17.4909L23.0701 19.3862H16.204ZM31.616 19.412C31.7288 19.0013 32.1535 18.7603 32.5637 18.8738C32.9749 18.9872 33.2162 19.412 33.1034 19.823C32.99 20.2334 32.5647 20.4744 32.1535 20.361C31.7432 20.2478 31.5023 19.823 31.616 19.412ZM33.1747 23.1337H28.3857C28.4338 23.0737 28.4812 23.0124 28.5236 22.9496C28.838 22.4861 29.0093 21.9736 29.1073 21.5013C29.1378 21.3527 29.1591 21.21 29.1767 21.0718L33.1747 22.176V23.1337Z" fill="black"/>
</svg>
