<svg width="352" height="93" viewBox="0 0 352 93" fill="none" xmlns="http://www.w3.org/2000/svg">
<g filter="url(#filter0_d_435_32)">
<rect x="4.25" y="2.25" width="343.5" height="84.5" rx="9.75" fill="#BFCDF5" stroke="black" stroke-width="0.5"/>
<path d="M143.168 27.8333V16.6333H150.08V18.2013H144.896V21.4333H149.664V23.0013H144.896V27.8333H143.168ZM151.81 27.8333V19.9453H153.458V27.8333H151.81ZM152.642 18.8733C152.322 18.8733 152.05 18.772 151.826 18.5693C151.612 18.356 151.506 18.084 151.506 17.7533C151.506 17.4227 151.612 17.156 151.826 16.9533C152.05 16.74 152.322 16.6333 152.642 16.6333C152.972 16.6333 153.244 16.74 153.458 16.9533C153.671 17.156 153.778 17.4227 153.778 17.7533C153.778 18.084 153.671 18.356 153.458 18.5693C153.244 18.772 152.972 18.8733 152.642 18.8733ZM155.904 27.8333V16.6333H157.552V27.8333H155.904ZM159.997 27.8333V16.6333H161.645V27.8333H159.997ZM168.169 27.8333V19.9453H169.817V27.8333H168.169ZM169.001 18.8733C168.681 18.8733 168.409 18.772 168.185 18.5693C167.972 18.356 167.865 18.084 167.865 17.7533C167.865 17.4227 167.972 17.156 168.185 16.9533C168.409 16.74 168.681 16.6333 169.001 16.6333C169.332 16.6333 169.604 16.74 169.817 16.9533C170.03 17.156 170.137 17.4227 170.137 17.7533C170.137 18.084 170.03 18.356 169.817 18.5693C169.604 18.772 169.332 18.8733 169.001 18.8733ZM172.263 27.8333V19.9453H173.879V21.1293H174.135C174.284 20.8093 174.551 20.5107 174.935 20.2333C175.319 19.956 175.89 19.8173 176.647 19.8173C177.244 19.8173 177.772 19.9507 178.231 20.2173C178.7 20.484 179.068 20.8627 179.335 21.3533C179.602 21.8333 179.735 22.4147 179.735 23.0973V27.8333H178.087V23.2253C178.087 22.5427 177.916 22.0413 177.575 21.7213C177.234 21.3907 176.764 21.2253 176.167 21.2253C175.484 21.2253 174.935 21.4493 174.519 21.8973C174.114 22.3453 173.911 22.996 173.911 23.8493V27.8333H172.263ZM189.145 27.8333C188.665 27.8333 188.281 27.6893 187.993 27.4013C187.715 27.1133 187.577 26.7293 187.577 26.2493V21.3373H185.401V19.9453H187.577V17.3373H189.225V19.9453H191.577V21.3373H189.225V25.9613C189.225 26.2813 189.374 26.4413 189.673 26.4413H191.321V27.8333H189.145ZM193.513 27.8333V16.6333H195.161V21.0653H195.417C195.524 20.8627 195.673 20.6653 195.865 20.4733C196.068 20.2813 196.329 20.1267 196.649 20.0093C196.98 19.8813 197.396 19.8173 197.897 19.8173C198.494 19.8173 199.022 19.9507 199.481 20.2173C199.95 20.484 200.318 20.8627 200.585 21.3533C200.852 21.8333 200.985 22.4147 200.985 23.0973V27.8333H199.337V23.2253C199.337 22.5427 199.166 22.0413 198.825 21.7213C198.484 21.3907 198.014 21.2253 197.417 21.2253C196.734 21.2253 196.185 21.4493 195.769 21.8973C195.364 22.3453 195.161 22.996 195.161 23.8493V27.8333H193.513ZM206.973 28.0573C206.173 28.0573 205.474 27.892 204.877 27.5613C204.279 27.22 203.81 26.7453 203.469 26.1373C203.138 25.5187 202.973 24.804 202.973 23.9933V23.8013C202.973 22.98 203.138 22.2653 203.469 21.6573C203.799 21.0387 204.258 20.564 204.845 20.2333C205.442 19.892 206.13 19.7213 206.909 19.7213C207.666 19.7213 208.327 19.892 208.893 20.2333C209.469 20.564 209.917 21.028 210.237 21.6253C210.557 22.2227 210.717 22.9213 210.717 23.7213V24.3453H204.653C204.674 25.0387 204.903 25.5933 205.341 26.0093C205.789 26.4147 206.343 26.6173 207.005 26.6173C207.623 26.6173 208.087 26.4787 208.397 26.2013C208.717 25.924 208.962 25.604 209.133 25.2413L210.493 25.9453C210.343 26.244 210.125 26.5587 209.837 26.8893C209.559 27.22 209.191 27.4973 208.733 27.7213C208.274 27.9453 207.687 28.0573 206.973 28.0573ZM204.669 23.0813H209.037C208.994 22.484 208.781 22.02 208.397 21.6893C208.013 21.348 207.511 21.1773 206.893 21.1773C206.274 21.1773 205.767 21.348 205.373 21.6893C204.989 22.02 204.754 22.484 204.669 23.0813ZM218.203 27.8333V21.3373H215.995V19.9453H218.203V18.2173C218.203 17.7373 218.347 17.3533 218.635 17.0653C218.923 16.7773 219.307 16.6333 219.786 16.6333H221.819V18.0253H220.315C220.005 18.0253 219.851 18.1853 219.851 18.5053V19.9453H222.123V21.3373H219.851V27.8333H218.203ZM227.193 28.0573C226.404 28.0573 225.7 27.8973 225.081 27.5773C224.473 27.2467 223.993 26.7773 223.641 26.1693C223.289 25.5613 223.113 24.8413 223.113 24.0093V23.7693C223.113 22.9373 223.289 22.2227 223.641 21.6253C223.993 21.0173 224.473 20.548 225.081 20.2173C225.7 19.8867 226.404 19.7213 227.193 19.7213C227.983 19.7213 228.687 19.8867 229.305 20.2173C229.924 20.548 230.409 21.0173 230.761 21.6253C231.113 22.2227 231.289 22.9373 231.289 23.7693V24.0093C231.289 24.8413 231.113 25.5613 230.761 26.1693C230.409 26.7773 229.924 27.2467 229.305 27.5773C228.687 27.8973 227.983 28.0573 227.193 28.0573ZM227.193 26.5853C227.919 26.5853 228.505 26.356 228.953 25.8973C229.412 25.428 229.641 24.7827 229.641 23.9613V23.8173C229.641 22.996 229.417 22.356 228.969 21.8973C228.521 21.428 227.929 21.1933 227.193 21.1933C226.479 21.1933 225.892 21.428 225.433 21.8973C224.985 22.356 224.761 22.996 224.761 23.8173V23.9613C224.761 24.7827 224.985 25.428 225.433 25.8973C225.892 26.356 226.479 26.5853 227.193 26.5853ZM233.341 27.8333V19.9453H234.957V20.8733H235.213C235.341 20.5427 235.544 20.3027 235.821 20.1533C236.109 19.9933 236.461 19.9133 236.877 19.9133H237.821V21.4013H236.813C236.28 21.4013 235.842 21.5507 235.501 21.8493C235.16 22.1373 234.989 22.5853 234.989 23.1933V27.8333H233.341ZM239.529 27.8333V19.9453H241.145V20.8733H241.401C241.55 20.596 241.79 20.3507 242.121 20.1373C242.451 19.924 242.899 19.8173 243.465 19.8173C244.051 19.8173 244.521 19.94 244.873 20.1853C245.235 20.42 245.507 20.724 245.689 21.0973H245.945C246.126 20.7347 246.387 20.4307 246.729 20.1853C247.081 19.94 247.577 19.8173 248.217 19.8173C248.729 19.8173 249.182 19.924 249.577 20.1373C249.971 20.34 250.286 20.6493 250.521 21.0653C250.755 21.4707 250.873 21.9773 250.873 22.5853V27.8333H249.225V22.7133C249.225 22.2333 249.091 21.8653 248.825 21.6093C248.569 21.3427 248.201 21.2093 247.72 21.2093C247.209 21.2093 246.798 21.3747 246.489 21.7053C246.179 22.036 246.025 22.5107 246.025 23.1293V27.8333H244.377V22.7133C244.377 22.2333 244.243 21.8653 243.977 21.6093C243.721 21.3427 243.353 21.2093 242.873 21.2093C242.361 21.2093 241.95 21.3747 241.641 21.7053C241.331 22.036 241.177 22.5107 241.177 23.1293V27.8333H239.529Z" fill="black"/>
<path d="M142.96 45V36.6H148.036V37.512H143.968V40.332H147.712V41.244H143.968V45H142.96ZM149.476 45V39.132H150.424V45H149.476ZM149.956 38.22C149.748 38.22 149.572 38.152 149.428 38.016C149.292 37.88 149.224 37.708 149.224 37.5C149.224 37.284 149.292 37.108 149.428 36.972C149.572 36.836 149.748 36.768 149.956 36.768C150.164 36.768 150.336 36.836 150.472 36.972C150.608 37.108 150.676 37.284 150.676 37.5C150.676 37.708 150.608 37.88 150.472 38.016C150.336 38.152 150.164 38.22 149.956 38.22ZM152.418 45V36.6H153.366V45H152.418ZM155.359 45V36.6H156.307V45H155.359ZM161.383 45V39.132H162.331V45H161.383ZM161.863 38.22C161.655 38.22 161.479 38.152 161.335 38.016C161.199 37.88 161.131 37.708 161.131 37.5C161.131 37.284 161.199 37.108 161.335 36.972C161.479 36.836 161.655 36.768 161.863 36.768C162.071 36.768 162.243 36.836 162.379 36.972C162.515 37.108 162.583 37.284 162.583 37.5C162.583 37.708 162.515 37.88 162.379 38.016C162.243 38.152 162.071 38.22 161.863 38.22ZM164.324 45V39.132H165.248V40.128H165.416C165.544 39.848 165.76 39.596 166.064 39.372C166.376 39.14 166.832 39.024 167.432 39.024C167.872 39.024 168.264 39.116 168.608 39.3C168.96 39.484 169.24 39.756 169.448 40.116C169.656 40.476 169.76 40.92 169.76 41.448V45H168.812V41.52C168.812 40.936 168.664 40.512 168.368 40.248C168.08 39.984 167.688 39.852 167.192 39.852C166.624 39.852 166.16 40.036 165.8 40.404C165.448 40.772 165.272 41.32 165.272 42.048V45H164.324ZM176.566 45.168C176.158 45.168 175.786 45.096 175.45 44.952C175.114 44.808 174.85 44.6 174.658 44.328C174.466 44.056 174.37 43.724 174.37 43.332C174.37 42.932 174.466 42.604 174.658 42.348C174.85 42.084 175.114 41.888 175.45 41.76C175.786 41.624 176.162 41.556 176.578 41.556H178.558V41.124C178.558 40.708 178.434 40.38 178.186 40.14C177.946 39.9 177.586 39.78 177.106 39.78C176.634 39.78 176.266 39.896 176.002 40.128C175.738 40.352 175.558 40.656 175.462 41.04L174.574 40.752C174.67 40.424 174.822 40.128 175.03 39.864C175.238 39.592 175.514 39.376 175.858 39.216C176.21 39.048 176.63 38.964 177.118 38.964C177.87 38.964 178.454 39.16 178.87 39.552C179.286 39.936 179.494 40.48 179.494 41.184V43.836C179.494 44.076 179.606 44.196 179.83 44.196H180.37V45H179.542C179.278 45 179.066 44.928 178.906 44.784C178.746 44.632 178.666 44.432 178.666 44.184V44.124H178.522C178.434 44.276 178.314 44.436 178.162 44.604C178.018 44.764 177.818 44.896 177.562 45C177.306 45.112 176.974 45.168 176.566 45.168ZM176.674 44.352C177.234 44.352 177.686 44.188 178.03 43.86C178.382 43.524 178.558 43.056 178.558 42.456V42.324H176.614C176.238 42.324 175.926 42.408 175.678 42.576C175.438 42.736 175.318 42.98 175.318 43.308C175.318 43.636 175.442 43.892 175.69 44.076C175.946 44.26 176.274 44.352 176.674 44.352ZM181.668 45V36.6H182.616V45H181.668ZM184.609 45V36.6H185.557V45H184.609ZM193.345 45.168C192.753 45.168 192.229 45.044 191.773 44.796C191.325 44.548 190.973 44.2 190.717 43.752C190.469 43.296 190.345 42.76 190.345 42.144V41.988C190.345 41.38 190.469 40.848 190.717 40.392C190.973 39.936 191.325 39.584 191.773 39.336C192.229 39.088 192.753 38.964 193.345 38.964C193.937 38.964 194.457 39.088 194.905 39.336C195.361 39.584 195.713 39.936 195.961 40.392C196.217 40.848 196.345 41.38 196.345 41.988V42.144C196.345 42.76 196.217 43.296 195.961 43.752C195.713 44.2 195.361 44.548 194.905 44.796C194.457 45.044 193.937 45.168 193.345 45.168ZM193.345 44.316C193.969 44.316 194.465 44.12 194.833 43.728C195.209 43.328 195.397 42.792 195.397 42.12V42.012C195.397 41.34 195.209 40.808 194.833 40.416C194.465 40.016 193.969 39.816 193.345 39.816C192.729 39.816 192.233 40.016 191.857 40.416C191.481 40.808 191.293 41.34 191.293 42.012V42.12C191.293 42.792 191.481 43.328 191.857 43.728C192.233 44.12 192.729 44.316 193.345 44.316ZM198.968 45V39.96H197.168V39.132H198.968V37.632C198.968 37.312 199.056 37.06 199.232 36.876C199.416 36.692 199.676 36.6 200.012 36.6H201.488V37.416H200.276C200.036 37.416 199.916 37.536 199.916 37.776V39.132H201.764V39.96H199.916V45H198.968ZM206.915 47.4V46.56H210.275C210.507 46.56 210.623 46.44 210.623 46.2V44.064H210.455C210.375 44.232 210.251 44.4 210.083 44.568C209.923 44.728 209.711 44.86 209.447 44.964C209.183 45.06 208.851 45.108 208.451 45.108C208.027 45.108 207.635 45.016 207.275 44.832C206.923 44.648 206.643 44.376 206.435 44.016C206.235 43.656 206.135 43.216 206.135 42.696V39.132H207.083V42.624C207.083 43.2 207.227 43.62 207.515 43.884C207.811 44.148 208.207 44.28 208.703 44.28C209.263 44.28 209.723 44.096 210.083 43.728C210.443 43.36 210.623 42.812 210.623 42.084V39.132H211.571V46.368C211.571 46.688 211.479 46.94 211.295 47.124C211.119 47.308 210.859 47.4 210.515 47.4H206.915ZM216.267 45.168C215.675 45.168 215.151 45.044 214.695 44.796C214.247 44.548 213.895 44.2 213.639 43.752C213.391 43.296 213.267 42.76 213.267 42.144V41.988C213.267 41.38 213.391 40.848 213.639 40.392C213.895 39.936 214.247 39.584 214.695 39.336C215.151 39.088 215.675 38.964 216.267 38.964C216.859 38.964 217.379 39.088 217.827 39.336C218.283 39.584 218.635 39.936 218.883 40.392C219.139 40.848 219.267 41.38 219.267 41.988V42.144C219.267 42.76 219.139 43.296 218.883 43.752C218.635 44.2 218.283 44.548 217.827 44.796C217.379 45.044 216.859 45.168 216.267 45.168ZM216.267 44.316C216.891 44.316 217.387 44.12 217.755 43.728C218.131 43.328 218.319 42.792 218.319 42.12V42.012C218.319 41.34 218.131 40.808 217.755 40.416C217.387 40.016 216.891 39.816 216.267 39.816C215.651 39.816 215.155 40.016 214.779 40.416C214.403 40.808 214.215 41.34 214.215 42.012V42.12C214.215 42.792 214.403 43.328 214.779 43.728C215.155 44.12 215.651 44.316 216.267 44.316ZM223.217 45.108C222.793 45.108 222.401 45.016 222.041 44.832C221.689 44.648 221.409 44.376 221.201 44.016C221.001 43.648 220.901 43.204 220.901 42.684V39.132H221.849V42.612C221.849 43.196 221.993 43.62 222.281 43.884C222.577 44.148 222.973 44.28 223.469 44.28C224.029 44.28 224.489 44.096 224.849 43.728C225.209 43.36 225.389 42.812 225.389 42.084V39.132H226.337V45H225.413V44.004H225.245C225.117 44.284 224.897 44.54 224.585 44.772C224.273 44.996 223.817 45.108 223.217 45.108ZM228.32 45V39.132H229.244V39.852H229.412C229.516 39.596 229.676 39.408 229.892 39.288C230.108 39.168 230.392 39.108 230.744 39.108H231.44V39.972H230.684C230.26 39.972 229.916 40.092 229.652 40.332C229.396 40.564 229.268 40.928 229.268 41.424V45H228.32ZM235.926 47.4V39.132H236.85V40.104H237.018C237.17 39.808 237.414 39.544 237.75 39.312C238.094 39.08 238.57 38.964 239.178 38.964C239.682 38.964 240.142 39.088 240.558 39.336C240.982 39.576 241.318 39.92 241.566 40.368C241.822 40.816 241.95 41.356 241.95 41.988V42.144C241.95 42.768 241.826 43.308 241.578 43.764C241.33 44.22 240.994 44.568 240.57 44.808C240.154 45.048 239.69 45.168 239.178 45.168C238.77 45.168 238.422 45.112 238.134 45C237.854 44.896 237.626 44.76 237.45 44.592C237.274 44.424 237.138 44.252 237.042 44.076H236.874V47.4H235.926ZM238.926 44.328C239.534 44.328 240.026 44.136 240.402 43.752C240.786 43.36 240.978 42.816 240.978 42.12V42.012C240.978 41.316 240.786 40.776 240.402 40.392C240.026 40 239.534 39.804 238.926 39.804C238.326 39.804 237.83 40 237.438 40.392C237.054 40.776 236.862 41.316 236.862 42.012V42.12C236.862 42.816 237.054 43.36 237.438 43.752C237.83 44.136 238.326 44.328 238.926 44.328ZM243.648 45V39.132H244.572V39.852H244.74C244.844 39.596 245.004 39.408 245.22 39.288C245.436 39.168 245.72 39.108 246.072 39.108H246.768V39.972H246.012C245.588 39.972 245.244 40.092 244.98 40.332C244.724 40.564 244.596 40.928 244.596 41.424V45H243.648ZM250.673 45.168C250.081 45.168 249.557 45.044 249.101 44.796C248.653 44.548 248.301 44.2 248.045 43.752C247.797 43.296 247.673 42.76 247.673 42.144V41.988C247.673 41.38 247.797 40.848 248.045 40.392C248.301 39.936 248.653 39.584 249.101 39.336C249.557 39.088 250.081 38.964 250.673 38.964C251.265 38.964 251.785 39.088 252.233 39.336C252.689 39.584 253.041 39.936 253.289 40.392C253.545 40.848 253.673 41.38 253.673 41.988V42.144C253.673 42.76 253.545 43.296 253.289 43.752C253.041 44.2 252.689 44.548 252.233 44.796C251.785 45.044 251.265 45.168 250.673 45.168ZM250.673 44.316C251.297 44.316 251.793 44.12 252.161 43.728C252.537 43.328 252.725 42.792 252.725 42.12V42.012C252.725 41.34 252.537 40.808 252.161 40.416C251.793 40.016 251.297 39.816 250.673 39.816C250.057 39.816 249.561 40.016 249.185 40.416C248.809 40.808 248.621 41.34 248.621 42.012V42.12C248.621 42.792 248.809 43.328 249.185 43.728C249.561 44.12 250.057 44.316 250.673 44.316ZM257.863 45.168C257.359 45.168 256.895 45.048 256.471 44.808C256.047 44.568 255.711 44.22 255.463 43.764C255.215 43.308 255.091 42.768 255.091 42.144V41.988C255.091 41.364 255.215 40.828 255.463 40.38C255.711 39.924 256.043 39.576 256.459 39.336C256.883 39.088 257.351 38.964 257.863 38.964C258.271 38.964 258.615 39.02 258.895 39.132C259.183 39.236 259.415 39.372 259.591 39.54C259.767 39.7 259.903 39.872 259.999 40.056H260.167V36.6H261.115V45H260.191V44.028H260.023C259.863 44.324 259.615 44.588 259.279 44.82C258.943 45.052 258.471 45.168 257.863 45.168ZM258.115 44.328C258.723 44.328 259.215 44.136 259.591 43.752C259.975 43.36 260.167 42.816 260.167 42.12V42.012C260.167 41.316 259.975 40.776 259.591 40.392C259.215 40 258.723 39.804 258.115 39.804C257.515 39.804 257.019 40 256.627 40.392C256.243 40.776 256.051 41.316 256.051 42.012V42.12C256.051 42.816 256.243 43.36 256.627 43.752C257.019 44.136 257.515 44.328 258.115 44.328ZM265.345 45.108C264.921 45.108 264.529 45.016 264.169 44.832C263.817 44.648 263.537 44.376 263.329 44.016C263.129 43.648 263.029 43.204 263.029 42.684V39.132H263.977V42.612C263.977 43.196 264.121 43.62 264.409 43.884C264.705 44.148 265.101 44.28 265.597 44.28C266.157 44.28 266.617 44.096 266.977 43.728C267.337 43.36 267.517 42.812 267.517 42.084V39.132H268.465V45H267.541V44.004H267.373C267.245 44.284 267.025 44.54 266.713 44.772C266.401 44.996 265.945 45.108 265.345 45.108ZM273.149 45.168C272.581 45.168 272.069 45.048 271.613 44.808C271.165 44.56 270.809 44.208 270.545 43.752C270.289 43.296 270.161 42.756 270.161 42.132V42C270.161 41.368 270.289 40.828 270.545 40.38C270.809 39.924 271.165 39.576 271.613 39.336C272.069 39.088 272.581 38.964 273.149 38.964C273.709 38.964 274.185 39.068 274.577 39.276C274.977 39.484 275.289 39.76 275.513 40.104C275.745 40.448 275.893 40.816 275.957 41.208L275.033 41.4C274.993 41.112 274.897 40.848 274.745 40.608C274.601 40.368 274.397 40.176 274.133 40.032C273.869 39.888 273.545 39.816 273.161 39.816C272.769 39.816 272.417 39.904 272.105 40.08C271.801 40.256 271.557 40.508 271.373 40.836C271.197 41.164 271.109 41.556 271.109 42.012V42.12C271.109 42.576 271.197 42.968 271.373 43.296C271.557 43.624 271.801 43.876 272.105 44.052C272.417 44.228 272.769 44.316 273.161 44.316C273.745 44.316 274.189 44.164 274.493 43.86C274.805 43.556 274.997 43.18 275.069 42.732L276.005 42.936C275.917 43.32 275.757 43.684 275.525 44.028C275.293 44.372 274.977 44.648 274.577 44.856C274.185 45.064 273.709 45.168 273.149 45.168ZM279.547 45C279.211 45 278.951 44.908 278.767 44.724C278.591 44.54 278.503 44.288 278.503 43.968V39.96H276.739V39.132H278.503V37.044H279.451V39.132H281.371V39.96H279.451V43.824C279.451 44.064 279.567 44.184 279.799 44.184H281.107V45H279.547ZM282.857 39.384V38.784H283.205C283.493 38.784 283.637 38.64 283.637 38.352V37.968H283.469C283.237 37.968 283.041 37.896 282.881 37.752C282.729 37.608 282.653 37.428 282.653 37.212C282.653 36.98 282.729 36.792 282.881 36.648C283.041 36.504 283.237 36.432 283.469 36.432C283.701 36.432 283.893 36.508 284.045 36.66C284.197 36.812 284.273 37.004 284.273 37.236V38.352C284.273 39.04 283.929 39.384 283.241 39.384H282.857ZM288.282 45.168C287.554 45.168 286.938 45 286.434 44.664C285.938 44.328 285.638 43.796 285.534 43.068L286.434 42.864C286.498 43.248 286.618 43.552 286.794 43.776C286.97 43.992 287.186 44.148 287.442 44.244C287.706 44.332 287.986 44.376 288.282 44.376C288.722 44.376 289.07 44.288 289.326 44.112C289.582 43.936 289.71 43.7 289.71 43.404C289.71 43.1 289.586 42.888 289.338 42.768C289.098 42.64 288.766 42.536 288.342 42.456L287.85 42.372C287.474 42.308 287.13 42.208 286.818 42.072C286.506 41.936 286.258 41.752 286.074 41.52C285.89 41.288 285.798 40.996 285.798 40.644C285.798 40.116 286.002 39.704 286.41 39.408C286.818 39.112 287.358 38.964 288.03 38.964C288.694 38.964 289.23 39.116 289.638 39.42C290.054 39.716 290.322 40.136 290.442 40.68L289.554 40.908C289.482 40.484 289.31 40.188 289.038 40.02C288.766 39.844 288.43 39.756 288.03 39.756C287.63 39.756 287.314 39.832 287.082 39.984C286.85 40.128 286.734 40.344 286.734 40.632C286.734 40.912 286.842 41.12 287.058 41.256C287.282 41.384 287.578 41.48 287.946 41.544L288.438 41.628C288.854 41.7 289.226 41.8 289.554 41.928C289.89 42.048 290.154 42.224 290.346 42.456C290.546 42.688 290.646 42.992 290.646 43.368C290.646 43.944 290.43 44.388 289.998 44.7C289.574 45.012 289.002 45.168 288.282 45.168ZM145.48 60.168C144.976 60.168 144.512 60.048 144.088 59.808C143.664 59.568 143.328 59.22 143.08 58.764C142.832 58.308 142.708 57.768 142.708 57.144V56.988C142.708 56.364 142.832 55.828 143.08 55.38C143.328 54.924 143.66 54.576 144.076 54.336C144.5 54.088 144.968 53.964 145.48 53.964C145.888 53.964 146.232 54.02 146.512 54.132C146.8 54.236 147.032 54.372 147.208 54.54C147.384 54.7 147.52 54.872 147.616 55.056H147.784V51.6H148.732V60H147.808V59.028H147.64C147.48 59.324 147.232 59.588 146.896 59.82C146.56 60.052 146.088 60.168 145.48 60.168ZM145.732 59.328C146.34 59.328 146.832 59.136 147.208 58.752C147.592 58.36 147.784 57.816 147.784 57.12V57.012C147.784 56.316 147.592 55.776 147.208 55.392C146.832 55 146.34 54.804 145.732 54.804C145.132 54.804 144.636 55 144.244 55.392C143.86 55.776 143.668 56.316 143.668 57.012V57.12C143.668 57.816 143.86 58.36 144.244 58.752C144.636 59.136 145.132 59.328 145.732 59.328ZM153.407 60.168C152.815 60.168 152.295 60.044 151.847 59.796C151.399 59.54 151.051 59.184 150.803 58.728C150.555 58.272 150.431 57.744 150.431 57.144V57C150.431 56.392 150.555 55.86 150.803 55.404C151.051 54.948 151.395 54.596 151.835 54.348C152.275 54.092 152.779 53.964 153.347 53.964C153.899 53.964 154.387 54.084 154.811 54.324C155.235 54.556 155.567 54.892 155.807 55.332C156.047 55.772 156.167 56.288 156.167 56.88V57.312H151.379C151.403 57.944 151.607 58.44 151.991 58.8C152.375 59.152 152.855 59.328 153.431 59.328C153.935 59.328 154.323 59.212 154.595 58.98C154.867 58.748 155.075 58.472 155.219 58.152L156.035 58.548C155.915 58.796 155.747 59.044 155.531 59.292C155.323 59.54 155.047 59.748 154.703 59.916C154.367 60.084 153.935 60.168 153.407 60.168ZM151.391 56.532H155.207C155.175 55.988 154.987 55.564 154.643 55.26C154.307 54.956 153.875 54.804 153.347 54.804C152.811 54.804 152.371 54.956 152.027 55.26C151.683 55.564 151.471 55.988 151.391 56.532ZM159.746 60C159.41 60 159.15 59.908 158.966 59.724C158.79 59.54 158.702 59.288 158.702 58.968V54.96H156.938V54.132H158.702V52.044H159.65V54.132H161.57V54.96H159.65V58.824C159.65 59.064 159.766 59.184 159.998 59.184H161.306V60H159.746ZM164.87 60.168C164.462 60.168 164.09 60.096 163.754 59.952C163.418 59.808 163.154 59.6 162.962 59.328C162.77 59.056 162.674 58.724 162.674 58.332C162.674 57.932 162.77 57.604 162.962 57.348C163.154 57.084 163.418 56.888 163.754 56.76C164.09 56.624 164.466 56.556 164.882 56.556H166.862V56.124C166.862 55.708 166.738 55.38 166.49 55.14C166.25 54.9 165.89 54.78 165.41 54.78C164.938 54.78 164.57 54.896 164.306 55.128C164.042 55.352 163.862 55.656 163.766 56.04L162.878 55.752C162.974 55.424 163.126 55.128 163.334 54.864C163.542 54.592 163.818 54.376 164.162 54.216C164.514 54.048 164.934 53.964 165.422 53.964C166.174 53.964 166.758 54.16 167.174 54.552C167.59 54.936 167.798 55.48 167.798 56.184V58.836C167.798 59.076 167.91 59.196 168.134 59.196H168.674V60H167.846C167.582 60 167.37 59.928 167.21 59.784C167.05 59.632 166.97 59.432 166.97 59.184V59.124H166.826C166.738 59.276 166.618 59.436 166.466 59.604C166.322 59.764 166.122 59.896 165.866 60C165.61 60.112 165.278 60.168 164.87 60.168ZM164.978 59.352C165.538 59.352 165.99 59.188 166.334 58.86C166.686 58.524 166.862 58.056 166.862 57.456V57.324H164.918C164.542 57.324 164.23 57.408 163.982 57.576C163.742 57.736 163.622 57.98 163.622 58.308C163.622 58.636 163.746 58.892 163.994 59.076C164.25 59.26 164.578 59.352 164.978 59.352ZM169.973 60V54.132H170.921V60H169.973ZM170.453 53.22C170.245 53.22 170.069 53.152 169.925 53.016C169.789 52.88 169.721 52.708 169.721 52.5C169.721 52.284 169.789 52.108 169.925 51.972C170.069 51.836 170.245 51.768 170.453 51.768C170.661 51.768 170.833 51.836 170.969 51.972C171.105 52.108 171.173 52.284 171.173 52.5C171.173 52.708 171.105 52.88 170.969 53.016C170.833 53.152 170.661 53.22 170.453 53.22ZM172.914 60V51.6H173.862V60H172.914ZM178.219 60.168C177.491 60.168 176.875 60 176.371 59.664C175.875 59.328 175.575 58.796 175.471 58.068L176.371 57.864C176.435 58.248 176.555 58.552 176.731 58.776C176.907 58.992 177.123 59.148 177.379 59.244C177.643 59.332 177.923 59.376 178.219 59.376C178.659 59.376 179.007 59.288 179.263 59.112C179.519 58.936 179.647 58.7 179.647 58.404C179.647 58.1 179.523 57.888 179.275 57.768C179.035 57.64 178.703 57.536 178.279 57.456L177.787 57.372C177.411 57.308 177.067 57.208 176.755 57.072C176.443 56.936 176.195 56.752 176.011 56.52C175.827 56.288 175.735 55.996 175.735 55.644C175.735 55.116 175.939 54.704 176.347 54.408C176.755 54.112 177.295 53.964 177.967 53.964C178.631 53.964 179.167 54.116 179.575 54.42C179.991 54.716 180.259 55.136 180.379 55.68L179.491 55.908C179.419 55.484 179.247 55.188 178.975 55.02C178.703 54.844 178.367 54.756 177.967 54.756C177.567 54.756 177.251 54.832 177.019 54.984C176.787 55.128 176.671 55.344 176.671 55.632C176.671 55.912 176.779 56.12 176.995 56.256C177.219 56.384 177.515 56.48 177.883 56.544L178.375 56.628C178.791 56.7 179.163 56.8 179.491 56.928C179.827 57.048 180.091 57.224 180.283 57.456C180.483 57.688 180.583 57.992 180.583 58.368C180.583 58.944 180.367 59.388 179.935 59.7C179.511 60.012 178.939 60.168 178.219 60.168ZM187.066 60.168C186.658 60.168 186.286 60.096 185.95 59.952C185.614 59.808 185.35 59.6 185.158 59.328C184.966 59.056 184.87 58.724 184.87 58.332C184.87 57.932 184.966 57.604 185.158 57.348C185.35 57.084 185.614 56.888 185.95 56.76C186.286 56.624 186.662 56.556 187.078 56.556H189.058V56.124C189.058 55.708 188.934 55.38 188.686 55.14C188.446 54.9 188.086 54.78 187.606 54.78C187.134 54.78 186.766 54.896 186.502 55.128C186.238 55.352 186.058 55.656 185.962 56.04L185.074 55.752C185.17 55.424 185.322 55.128 185.53 54.864C185.738 54.592 186.014 54.376 186.358 54.216C186.71 54.048 187.13 53.964 187.618 53.964C188.37 53.964 188.954 54.16 189.37 54.552C189.786 54.936 189.994 55.48 189.994 56.184V58.836C189.994 59.076 190.106 59.196 190.33 59.196H190.87V60H190.042C189.778 60 189.566 59.928 189.406 59.784C189.246 59.632 189.166 59.432 189.166 59.184V59.124H189.022C188.934 59.276 188.814 59.436 188.662 59.604C188.518 59.764 188.318 59.896 188.062 60C187.806 60.112 187.474 60.168 187.066 60.168ZM187.174 59.352C187.734 59.352 188.186 59.188 188.53 58.86C188.882 58.524 189.058 58.056 189.058 57.456V57.324H187.114C186.738 57.324 186.426 57.408 186.178 57.576C185.938 57.736 185.818 57.98 185.818 58.308C185.818 58.636 185.942 58.892 186.19 59.076C186.446 59.26 186.774 59.352 187.174 59.352ZM192.168 60V54.132H193.092V55.128H193.26C193.388 54.848 193.604 54.596 193.908 54.372C194.22 54.14 194.676 54.024 195.276 54.024C195.716 54.024 196.108 54.116 196.452 54.3C196.804 54.484 197.084 54.756 197.292 55.116C197.5 55.476 197.604 55.92 197.604 56.448V60H196.656V56.52C196.656 55.936 196.508 55.512 196.212 55.248C195.924 54.984 195.532 54.852 195.036 54.852C194.468 54.852 194.004 55.036 193.644 55.404C193.292 55.772 193.116 56.32 193.116 57.048V60H192.168ZM202.011 60.168C201.507 60.168 201.043 60.048 200.619 59.808C200.195 59.568 199.859 59.22 199.611 58.764C199.363 58.308 199.239 57.768 199.239 57.144V56.988C199.239 56.364 199.363 55.828 199.611 55.38C199.859 54.924 200.191 54.576 200.607 54.336C201.031 54.088 201.499 53.964 202.011 53.964C202.419 53.964 202.763 54.02 203.043 54.132C203.331 54.236 203.563 54.372 203.739 54.54C203.915 54.7 204.051 54.872 204.147 55.056H204.315V51.6H205.263V60H204.339V59.028H204.171C204.011 59.324 203.763 59.588 203.427 59.82C203.091 60.052 202.619 60.168 202.011 60.168ZM202.263 59.328C202.871 59.328 203.363 59.136 203.739 58.752C204.123 58.36 204.315 57.816 204.315 57.12V57.012C204.315 56.316 204.123 55.776 203.739 55.392C203.363 55 202.871 54.804 202.263 54.804C201.663 54.804 201.167 55 200.775 55.392C200.391 55.776 200.199 56.316 200.199 57.012V57.12C200.199 57.816 200.391 58.36 200.775 58.752C201.167 59.136 201.663 59.328 202.263 59.328ZM211.04 62.4V61.56H214.4C214.632 61.56 214.748 61.44 214.748 61.2V59.064H214.58C214.5 59.232 214.376 59.4 214.208 59.568C214.048 59.728 213.836 59.86 213.572 59.964C213.308 60.06 212.976 60.108 212.576 60.108C212.152 60.108 211.76 60.016 211.4 59.832C211.048 59.648 210.768 59.376 210.56 59.016C210.36 58.656 210.26 58.216 210.26 57.696V54.132H211.208V57.624C211.208 58.2 211.352 58.62 211.64 58.884C211.936 59.148 212.332 59.28 212.828 59.28C213.388 59.28 213.848 59.096 214.208 58.728C214.568 58.36 214.748 57.812 214.748 57.084V54.132H215.696V61.368C215.696 61.688 215.604 61.94 215.42 62.124C215.244 62.308 214.984 62.4 214.64 62.4H211.04ZM220.392 60.168C219.8 60.168 219.276 60.044 218.82 59.796C218.372 59.548 218.02 59.2 217.764 58.752C217.516 58.296 217.392 57.76 217.392 57.144V56.988C217.392 56.38 217.516 55.848 217.764 55.392C218.02 54.936 218.372 54.584 218.82 54.336C219.276 54.088 219.8 53.964 220.392 53.964C220.984 53.964 221.504 54.088 221.952 54.336C222.408 54.584 222.76 54.936 223.008 55.392C223.264 55.848 223.392 56.38 223.392 56.988V57.144C223.392 57.76 223.264 58.296 223.008 58.752C222.76 59.2 222.408 59.548 221.952 59.796C221.504 60.044 220.984 60.168 220.392 60.168ZM220.392 59.316C221.016 59.316 221.512 59.12 221.88 58.728C222.256 58.328 222.444 57.792 222.444 57.12V57.012C222.444 56.34 222.256 55.808 221.88 55.416C221.512 55.016 221.016 54.816 220.392 54.816C219.776 54.816 219.28 55.016 218.904 55.416C218.528 55.808 218.34 56.34 218.34 57.012V57.12C218.34 57.792 218.528 58.328 218.904 58.728C219.28 59.12 219.776 59.316 220.392 59.316ZM227.342 60.108C226.918 60.108 226.526 60.016 226.166 59.832C225.814 59.648 225.534 59.376 225.326 59.016C225.126 58.648 225.026 58.204 225.026 57.684V54.132H225.974V57.612C225.974 58.196 226.118 58.62 226.406 58.884C226.702 59.148 227.098 59.28 227.594 59.28C228.154 59.28 228.614 59.096 228.974 58.728C229.334 58.36 229.514 57.812 229.514 57.084V54.132H230.462V60H229.538V59.004H229.37C229.242 59.284 229.022 59.54 228.71 59.772C228.398 59.996 227.942 60.108 227.342 60.108ZM232.445 60V54.132H233.369V54.852H233.537C233.641 54.596 233.801 54.408 234.017 54.288C234.233 54.168 234.517 54.108 234.869 54.108H235.565V54.972H234.809C234.385 54.972 234.041 55.092 233.777 55.332C233.521 55.564 233.393 55.928 233.393 56.424V60H232.445ZM242.751 60.168C242.183 60.168 241.671 60.048 241.215 59.808C240.767 59.56 240.411 59.208 240.147 58.752C239.891 58.296 239.763 57.756 239.763 57.132V57C239.763 56.368 239.891 55.828 240.147 55.38C240.411 54.924 240.767 54.576 241.215 54.336C241.671 54.088 242.183 53.964 242.751 53.964C243.311 53.964 243.787 54.068 244.179 54.276C244.579 54.484 244.891 54.76 245.115 55.104C245.347 55.448 245.495 55.816 245.559 56.208L244.635 56.4C244.595 56.112 244.499 55.848 244.347 55.608C244.203 55.368 243.999 55.176 243.735 55.032C243.471 54.888 243.147 54.816 242.763 54.816C242.371 54.816 242.019 54.904 241.707 55.08C241.403 55.256 241.159 55.508 240.975 55.836C240.799 56.164 240.711 56.556 240.711 57.012V57.12C240.711 57.576 240.799 57.968 240.975 58.296C241.159 58.624 241.403 58.876 241.707 59.052C242.019 59.228 242.371 59.316 242.763 59.316C243.347 59.316 243.791 59.164 244.095 58.86C244.407 58.556 244.599 58.18 244.671 57.732L245.607 57.936C245.519 58.32 245.359 58.684 245.127 59.028C244.895 59.372 244.579 59.648 244.179 59.856C243.787 60.064 243.311 60.168 242.751 60.168ZM249.935 60.168C249.343 60.168 248.819 60.044 248.363 59.796C247.915 59.548 247.563 59.2 247.307 58.752C247.059 58.296 246.935 57.76 246.935 57.144V56.988C246.935 56.38 247.059 55.848 247.307 55.392C247.563 54.936 247.915 54.584 248.363 54.336C248.819 54.088 249.343 53.964 249.935 53.964C250.527 53.964 251.047 54.088 251.495 54.336C251.951 54.584 252.303 54.936 252.551 55.392C252.807 55.848 252.935 56.38 252.935 56.988V57.144C252.935 57.76 252.807 58.296 252.551 58.752C252.303 59.2 251.951 59.548 251.495 59.796C251.047 60.044 250.527 60.168 249.935 60.168ZM249.935 59.316C250.559 59.316 251.055 59.12 251.423 58.728C251.799 58.328 251.987 57.792 251.987 57.12V57.012C251.987 56.34 251.799 55.808 251.423 55.416C251.055 55.016 250.559 54.816 249.935 54.816C249.319 54.816 248.823 55.016 248.447 55.416C248.071 55.808 247.883 56.34 247.883 57.012V57.12C247.883 57.792 248.071 58.328 248.447 58.728C248.823 59.12 249.319 59.316 249.935 59.316ZM254.641 60V54.132H255.565V55.128H255.733C255.861 54.848 256.077 54.596 256.381 54.372C256.693 54.14 257.149 54.024 257.749 54.024C258.189 54.024 258.581 54.116 258.925 54.3C259.277 54.484 259.557 54.756 259.765 55.116C259.973 55.476 260.077 55.92 260.077 56.448V60H259.129V56.52C259.129 55.936 258.981 55.512 258.685 55.248C258.397 54.984 258.005 54.852 257.509 54.852C256.941 54.852 256.477 55.036 256.117 55.404C255.765 55.772 255.589 56.32 255.589 57.048V60H254.641ZM263.996 60C263.66 60 263.4 59.908 263.216 59.724C263.04 59.54 262.952 59.288 262.952 58.968V54.96H261.188V54.132H262.952V52.044H263.9V54.132H265.82V54.96H263.9V58.824C263.9 59.064 264.016 59.184 264.248 59.184H265.556V60H263.996ZM269.12 60.168C268.712 60.168 268.34 60.096 268.004 59.952C267.668 59.808 267.404 59.6 267.212 59.328C267.02 59.056 266.924 58.724 266.924 58.332C266.924 57.932 267.02 57.604 267.212 57.348C267.404 57.084 267.668 56.888 268.004 56.76C268.34 56.624 268.716 56.556 269.132 56.556H271.112V56.124C271.112 55.708 270.988 55.38 270.74 55.14C270.5 54.9 270.14 54.78 269.66 54.78C269.188 54.78 268.82 54.896 268.556 55.128C268.292 55.352 268.112 55.656 268.016 56.04L267.128 55.752C267.224 55.424 267.376 55.128 267.584 54.864C267.792 54.592 268.068 54.376 268.412 54.216C268.764 54.048 269.184 53.964 269.672 53.964C270.424 53.964 271.008 54.16 271.424 54.552C271.84 54.936 272.048 55.48 272.048 56.184V58.836C272.048 59.076 272.16 59.196 272.384 59.196H272.924V60H272.096C271.832 60 271.62 59.928 271.46 59.784C271.3 59.632 271.22 59.432 271.22 59.184V59.124H271.076C270.988 59.276 270.868 59.436 270.716 59.604C270.572 59.764 270.372 59.896 270.116 60C269.86 60.112 269.528 60.168 269.12 60.168ZM269.228 59.352C269.788 59.352 270.24 59.188 270.584 58.86C270.936 58.524 271.112 58.056 271.112 57.456V57.324H269.168C268.792 57.324 268.48 57.408 268.232 57.576C267.992 57.736 267.872 57.98 267.872 58.308C267.872 58.636 267.996 58.892 268.244 59.076C268.5 59.26 268.828 59.352 269.228 59.352ZM276.759 60.168C276.191 60.168 275.679 60.048 275.223 59.808C274.775 59.56 274.419 59.208 274.155 58.752C273.899 58.296 273.771 57.756 273.771 57.132V57C273.771 56.368 273.899 55.828 274.155 55.38C274.419 54.924 274.775 54.576 275.223 54.336C275.679 54.088 276.191 53.964 276.759 53.964C277.319 53.964 277.795 54.068 278.187 54.276C278.587 54.484 278.899 54.76 279.122 55.104C279.355 55.448 279.503 55.816 279.567 56.208L278.643 56.4C278.603 56.112 278.507 55.848 278.355 55.608C278.211 55.368 278.007 55.176 277.743 55.032C277.479 54.888 277.155 54.816 276.771 54.816C276.379 54.816 276.027 54.904 275.715 55.08C275.411 55.256 275.167 55.508 274.983 55.836C274.807 56.164 274.719 56.556 274.719 57.012V57.12C274.719 57.576 274.807 57.968 274.983 58.296C275.167 58.624 275.411 58.876 275.715 59.052C276.027 59.228 276.379 59.316 276.771 59.316C277.355 59.316 277.799 59.164 278.103 58.86C278.415 58.556 278.607 58.18 278.679 57.732L279.615 57.936C279.527 58.32 279.367 58.684 279.135 59.028C278.903 59.372 278.587 59.648 278.187 59.856C277.795 60.064 277.319 60.168 276.759 60.168ZM283.156 60C282.82 60 282.56 59.908 282.376 59.724C282.2 59.54 282.112 59.288 282.112 58.968V54.96H280.348V54.132H282.112V52.044H283.06V54.132H284.98V54.96H283.06V58.824C283.06 59.064 283.176 59.184 283.408 59.184H284.716V60H283.156ZM142.996 75V69.132H143.944V75H142.996ZM143.476 68.22C143.268 68.22 143.092 68.152 142.948 68.016C142.812 67.88 142.744 67.708 142.744 67.5C142.744 67.284 142.812 67.108 142.948 66.972C143.092 66.836 143.268 66.768 143.476 66.768C143.684 66.768 143.856 66.836 143.992 66.972C144.128 67.108 144.196 67.284 144.196 67.5C144.196 67.708 144.128 67.88 143.992 68.016C143.856 68.152 143.684 68.22 143.476 68.22ZM145.937 75V69.132H146.861V70.128H147.029C147.157 69.848 147.373 69.596 147.677 69.372C147.989 69.14 148.445 69.024 149.045 69.024C149.485 69.024 149.877 69.116 150.221 69.3C150.573 69.484 150.853 69.756 151.061 70.116C151.269 70.476 151.373 70.92 151.373 71.448V75H150.425V71.52C150.425 70.936 150.277 70.512 149.981 70.248C149.693 69.984 149.301 69.852 148.805 69.852C148.237 69.852 147.773 70.036 147.413 70.404C147.061 70.772 146.885 71.32 146.885 72.048V75H145.937ZM154.285 75V69.96H152.485V69.132H154.285V67.632C154.285 67.312 154.373 67.06 154.549 66.876C154.733 66.692 154.993 66.6 155.329 66.6H156.805V67.416H155.593C155.353 67.416 155.233 67.536 155.233 67.776V69.132H157.081V69.96H155.233V75H154.285ZM160.86 75.168C160.268 75.168 159.744 75.044 159.288 74.796C158.84 74.548 158.488 74.2 158.232 73.752C157.984 73.296 157.86 72.76 157.86 72.144V71.988C157.86 71.38 157.984 70.848 158.232 70.392C158.488 69.936 158.84 69.584 159.288 69.336C159.744 69.088 160.268 68.964 160.86 68.964C161.452 68.964 161.972 69.088 162.42 69.336C162.876 69.584 163.228 69.936 163.476 70.392C163.732 70.848 163.86 71.38 163.86 71.988V72.144C163.86 72.76 163.732 73.296 163.476 73.752C163.228 74.2 162.876 74.548 162.42 74.796C161.972 75.044 161.452 75.168 160.86 75.168ZM160.86 74.316C161.484 74.316 161.98 74.12 162.348 73.728C162.724 73.328 162.912 72.792 162.912 72.12V72.012C162.912 71.34 162.724 70.808 162.348 70.416C161.98 70.016 161.484 69.816 160.86 69.816C160.244 69.816 159.748 70.016 159.372 70.416C158.996 70.808 158.808 71.34 158.808 72.012V72.12C158.808 72.792 158.996 73.328 159.372 73.728C159.748 74.12 160.244 74.316 160.86 74.316ZM165.566 75V69.132H166.49V69.852H166.658C166.762 69.596 166.922 69.408 167.138 69.288C167.354 69.168 167.638 69.108 167.99 69.108H168.686V69.972H167.93C167.506 69.972 167.162 70.092 166.898 70.332C166.642 70.564 166.514 70.928 166.514 71.424V75H165.566ZM170.09 75V69.132H171.014V69.864H171.182C171.294 69.656 171.478 69.464 171.734 69.288C171.99 69.112 172.35 69.024 172.814 69.024C173.27 69.024 173.638 69.124 173.918 69.324C174.206 69.524 174.414 69.768 174.542 70.056H174.71C174.846 69.768 175.05 69.524 175.322 69.324C175.602 69.124 175.99 69.024 176.486 69.024C176.878 69.024 177.222 69.104 177.518 69.264C177.814 69.424 178.046 69.656 178.214 69.96C178.39 70.256 178.478 70.612 178.478 71.028V75H177.53V71.112C177.53 70.72 177.414 70.412 177.182 70.188C176.958 69.956 176.642 69.84 176.234 69.84C175.802 69.84 175.446 69.98 175.166 70.26C174.894 70.54 174.758 70.944 174.758 71.472V75H173.81V71.112C173.81 70.72 173.694 70.412 173.462 70.188C173.238 69.956 172.922 69.84 172.514 69.84C172.082 69.84 171.726 69.98 171.446 70.26C171.174 70.54 171.038 70.944 171.038 71.472V75H170.09ZM182.214 75.168C181.806 75.168 181.434 75.096 181.098 74.952C180.762 74.808 180.498 74.6 180.306 74.328C180.114 74.056 180.018 73.724 180.018 73.332C180.018 72.932 180.114 72.604 180.306 72.348C180.498 72.084 180.762 71.888 181.098 71.76C181.434 71.624 181.81 71.556 182.226 71.556H184.206V71.124C184.206 70.708 184.082 70.38 183.834 70.14C183.594 69.9 183.234 69.78 182.754 69.78C182.282 69.78 181.914 69.896 181.65 70.128C181.386 70.352 181.206 70.656 181.11 71.04L180.222 70.752C180.318 70.424 180.47 70.128 180.678 69.864C180.886 69.592 181.162 69.376 181.506 69.216C181.858 69.048 182.278 68.964 182.766 68.964C183.518 68.964 184.102 69.16 184.518 69.552C184.934 69.936 185.142 70.48 185.142 71.184V73.836C185.142 74.076 185.254 74.196 185.478 74.196H186.018V75H185.19C184.926 75 184.714 74.928 184.554 74.784C184.394 74.632 184.314 74.432 184.314 74.184V74.124H184.17C184.082 74.276 183.962 74.436 183.81 74.604C183.666 74.764 183.466 74.896 183.21 75C182.954 75.112 182.622 75.168 182.214 75.168ZM182.322 74.352C182.882 74.352 183.334 74.188 183.678 73.86C184.03 73.524 184.206 73.056 184.206 72.456V72.324H182.262C181.886 72.324 181.574 72.408 181.326 72.576C181.086 72.736 180.966 72.98 180.966 73.308C180.966 73.636 181.09 73.892 181.338 74.076C181.594 74.26 181.922 74.352 182.322 74.352ZM189.09 75C188.754 75 188.494 74.908 188.31 74.724C188.134 74.54 188.046 74.288 188.046 73.968V69.96H186.282V69.132H188.046V67.044H188.994V69.132H190.914V69.96H188.994V73.824C188.994 74.064 189.11 74.184 189.342 74.184H190.65V75H189.09ZM192.449 75V69.132H193.397V75H192.449ZM192.929 68.22C192.721 68.22 192.545 68.152 192.401 68.016C192.265 67.88 192.197 67.708 192.197 67.5C192.197 67.284 192.265 67.108 192.401 66.972C192.545 66.836 192.721 66.768 192.929 66.768C193.137 66.768 193.309 66.836 193.445 66.972C193.581 67.108 193.649 67.284 193.649 67.5C193.649 67.708 193.581 67.88 193.445 68.016C193.309 68.152 193.137 68.22 192.929 68.22ZM198.103 75.168C197.511 75.168 196.987 75.044 196.531 74.796C196.083 74.548 195.731 74.2 195.475 73.752C195.227 73.296 195.103 72.76 195.103 72.144V71.988C195.103 71.38 195.227 70.848 195.475 70.392C195.731 69.936 196.083 69.584 196.531 69.336C196.987 69.088 197.511 68.964 198.103 68.964C198.695 68.964 199.215 69.088 199.663 69.336C200.119 69.584 200.471 69.936 200.719 70.392C200.975 70.848 201.103 71.38 201.103 71.988V72.144C201.103 72.76 200.975 73.296 200.719 73.752C200.471 74.2 200.119 74.548 199.663 74.796C199.215 75.044 198.695 75.168 198.103 75.168ZM198.103 74.316C198.727 74.316 199.223 74.12 199.591 73.728C199.967 73.328 200.155 72.792 200.155 72.12V72.012C200.155 71.34 199.967 70.808 199.591 70.416C199.223 70.016 198.727 69.816 198.103 69.816C197.487 69.816 196.991 70.016 196.615 70.416C196.239 70.808 196.051 71.34 196.051 72.012V72.12C196.051 72.792 196.239 73.328 196.615 73.728C196.991 74.12 197.487 74.316 198.103 74.316ZM202.809 75V69.132H203.733V70.128H203.901C204.029 69.848 204.245 69.596 204.549 69.372C204.861 69.14 205.317 69.024 205.917 69.024C206.357 69.024 206.749 69.116 207.093 69.3C207.445 69.484 207.725 69.756 207.933 70.116C208.141 70.476 208.245 70.92 208.245 71.448V75H207.297V71.52C207.297 70.936 207.149 70.512 206.853 70.248C206.565 69.984 206.173 69.852 205.677 69.852C205.109 69.852 204.645 70.036 204.285 70.404C203.933 70.772 203.757 71.32 203.757 72.048V75H202.809ZM210.684 75.168C210.452 75.168 210.256 75.092 210.096 74.94C209.944 74.788 209.868 74.592 209.868 74.352C209.868 74.112 209.944 73.916 210.096 73.764C210.256 73.612 210.452 73.536 210.684 73.536C210.924 73.536 211.12 73.612 211.272 73.764C211.424 73.916 211.5 74.112 211.5 74.352C211.5 74.592 211.424 74.788 211.272 74.94C211.12 75.092 210.924 75.168 210.684 75.168Z" fill="black"/>
<path opacity="0.4" d="M92.8899 67H47.8756C46.8503 67 46 66.1497 46 65.1244C46 64.0991 46.8503 63.2488 47.8756 63.2488H92.8899C93.9152 63.2488 94.7655 64.0991 94.7655 65.1244C94.7655 66.1497 93.9152 67 92.8899 67Z" fill="#426EEB"/>
<path opacity="0.4" d="M87.9398 20.6857C83.0883 15.8342 78.3368 15.7091 73.3602 20.6857L70.3342 23.7117C70.0841 23.9617 69.9841 24.3619 70.0841 24.712C71.9848 31.3391 77.2864 36.6408 83.9135 38.5415C84.0136 38.5665 84.1136 38.5915 84.2136 38.5915C84.4887 38.5915 84.7388 38.4914 84.9389 38.2914L87.9398 35.2653C90.4156 32.8145 91.616 30.4388 91.616 28.038C91.641 25.5622 90.4406 23.1615 87.9398 20.6857Z" fill="#426EEB"/>
<path d="M79.4114 40.8162C78.6861 40.4661 77.9859 40.1159 77.3107 39.7158C76.7605 39.3907 76.2353 39.0406 75.7102 38.6655C75.285 38.3904 74.7849 37.9903 74.3097 37.5901C74.2597 37.5651 74.0847 37.4151 73.8846 37.215C73.0593 36.5148 72.134 35.6145 71.3088 34.6142C71.2338 34.5642 71.1087 34.3891 70.9337 34.1641C70.6836 33.864 70.2584 33.3638 69.8833 32.7886C69.5832 32.4135 69.2331 31.8633 68.908 31.3132C68.5079 30.6379 68.1578 29.9627 67.8077 29.2625C67.4576 28.5123 67.1825 27.787 66.9324 27.1118L51.2275 42.8168C50.9024 43.1419 50.6023 43.7671 50.5272 44.1922L49.1768 53.7703C48.9267 55.4708 49.4019 57.0713 50.4522 58.1467C51.3525 59.022 52.6029 59.4971 53.9533 59.4971C54.2534 59.4971 54.5535 59.4721 54.8536 59.4221L64.4567 58.0716C64.9068 57.9966 65.5319 57.6965 65.832 57.3714L81.537 41.6664C80.8368 41.4164 80.1616 41.1413 79.4114 40.8162Z" fill="#426EEB"/>
</g>
<defs>
<filter id="filter0_d_435_32" x="0" y="0" width="352" height="93" filterUnits="userSpaceOnUse" color-interpolation-filters="sRGB">
<feFlood flood-opacity="0" result="BackgroundImageFix"/>
<feColorMatrix in="SourceAlpha" type="matrix" values="0 0 0 0 0 0 0 0 0 0 0 0 0 0 0 0 0 0 127 0" result="hardAlpha"/>
<feOffset dy="2"/>
<feGaussianBlur stdDeviation="2"/>
<feComposite in2="hardAlpha" operator="out"/>
<feColorMatrix type="matrix" values="0 0 0 0 0 0 0 0 0 0 0 0 0 0 0 0 0 0 0.05 0"/>
<feBlend mode="normal" in2="BackgroundImageFix" result="effect1_dropShadow_435_32"/>
<feBlend mode="normal" in="SourceGraphic" in2="effect1_dropShadow_435_32" result="shape"/>
</filter>
</defs>
</svg>
