<svg width="352" height="124" viewBox="0 0 352 124" fill="none" xmlns="http://www.w3.org/2000/svg">
<g filter="url(#filter0_d_496_991)">
<rect x="4" y="2" width="344" height="116" rx="10" fill="#BFCDF5"/>
<rect x="4.25" y="2.25" width="343.5" height="115.5" rx="9.75" stroke="black" stroke-width="0.5"/>
</g>
<g filter="url(#filter1_d_496_991)">
<path d="M144.176 31L142.528 19.8H144.256L145.6 29.832H145.856L147.584 19.8H150.608L152.336 29.832H152.592L153.92 19.8H155.648L154 31H150.976L149.216 20.824H148.96L147.216 31H144.176ZM159.727 31.224C159.161 31.224 158.655 31.128 158.207 30.936C157.769 30.744 157.417 30.4613 157.151 30.088C156.895 29.7147 156.767 29.2613 156.767 28.728C156.767 28.184 156.895 27.736 157.151 27.384C157.417 27.0213 157.775 26.7493 158.223 26.568C158.681 26.3867 159.199 26.296 159.775 26.296H162.175V25.784C162.175 25.3253 162.036 24.9573 161.759 24.68C161.481 24.4027 161.055 24.264 160.479 24.264C159.913 24.264 159.481 24.3973 159.183 24.664C158.884 24.9307 158.687 25.2773 158.591 25.704L157.055 25.208C157.183 24.7813 157.385 24.3973 157.663 24.056C157.951 23.704 158.329 23.4213 158.799 23.208C159.268 22.9947 159.833 22.888 160.495 22.888C161.519 22.888 162.324 23.1493 162.911 23.672C163.497 24.1947 163.791 24.936 163.791 25.896V29.144C163.791 29.464 163.94 29.624 164.239 29.624H164.911V31H163.679C163.305 31 163.001 30.904 162.767 30.712C162.532 30.52 162.415 30.2587 162.415 29.928V29.88H162.175C162.089 30.04 161.961 30.2267 161.791 30.44C161.62 30.6533 161.369 30.84 161.039 31C160.708 31.1493 160.271 31.224 159.727 31.224ZM159.967 29.864C160.628 29.864 161.161 29.6773 161.567 29.304C161.972 28.92 162.175 28.3973 162.175 27.736V27.576H159.871C159.433 27.576 159.081 27.672 158.815 27.864C158.548 28.0453 158.414 28.3173 158.414 28.68C158.414 29.0427 158.553 29.3307 158.831 29.544C159.108 29.7573 159.487 29.864 159.967 29.864ZM166.513 31V23.112H168.161V31H166.513ZM167.345 22.04C167.025 22.04 166.753 21.9387 166.529 21.736C166.316 21.5227 166.209 21.2507 166.209 20.92C166.209 20.5893 166.316 20.3227 166.529 20.12C166.753 19.9067 167.025 19.8 167.345 19.8C167.676 19.8 167.948 19.9067 168.161 20.12C168.374 20.3227 168.481 20.5893 168.481 20.92C168.481 21.2507 168.374 21.5227 168.161 21.736C167.948 21.9387 167.676 22.04 167.345 22.04ZM173.567 31C173.087 31 172.703 30.856 172.415 30.568C172.137 30.28 171.999 29.896 171.999 29.416V24.504H169.823V23.112H171.999V20.504H173.647V23.112H175.999V24.504H173.647V29.128C173.647 29.448 173.796 29.608 174.095 29.608H175.743V31H173.567ZM183.437 31V24.504H181.229V23.112H183.437V21.384C183.437 20.904 183.581 20.52 183.869 20.232C184.157 19.944 184.541 19.8 185.021 19.8H187.053V21.192H185.549C185.24 21.192 185.085 21.352 185.085 21.672V23.112H187.357V24.504H185.085V31H183.437ZM192.428 31.224C191.638 31.224 190.934 31.064 190.316 30.744C189.708 30.4133 189.228 29.944 188.876 29.336C188.524 28.728 188.348 28.008 188.348 27.176V26.936C188.348 26.104 188.524 25.3893 188.876 24.792C189.228 24.184 189.708 23.7147 190.316 23.384C190.934 23.0533 191.638 22.888 192.428 22.888C193.217 22.888 193.921 23.0533 194.54 23.384C195.158 23.7147 195.644 24.184 195.996 24.792C196.348 25.3893 196.524 26.104 196.524 26.936V27.176C196.524 28.008 196.348 28.728 195.996 29.336C195.644 29.944 195.158 30.4133 194.54 30.744C193.921 31.064 193.217 31.224 192.428 31.224ZM192.428 29.752C193.153 29.752 193.74 29.5227 194.188 29.064C194.646 28.5947 194.876 27.9493 194.876 27.128V26.984C194.876 26.1627 194.652 25.5227 194.204 25.064C193.756 24.5947 193.164 24.36 192.428 24.36C191.713 24.36 191.126 24.5947 190.668 25.064C190.22 25.5227 189.996 26.1627 189.996 26.984V27.128C189.996 27.9493 190.22 28.5947 190.668 29.064C191.126 29.5227 191.713 29.752 192.428 29.752ZM198.575 31V23.112H200.191V24.04H200.447C200.575 23.7093 200.778 23.4693 201.055 23.32C201.343 23.16 201.695 23.08 202.111 23.08H203.055V24.568H202.047C201.514 24.568 201.077 24.7173 200.735 25.016C200.394 25.304 200.223 25.752 200.223 26.36V31H198.575ZM209.753 34.2V32.76H214.153C214.452 32.76 214.601 32.6 214.601 32.28V29.848H214.345C214.249 30.0613 214.1 30.2693 213.897 30.472C213.705 30.664 213.444 30.824 213.113 30.952C212.782 31.08 212.366 31.144 211.865 31.144C211.268 31.144 210.734 31.0107 210.265 30.744C209.796 30.4773 209.428 30.0987 209.161 29.608C208.894 29.1173 208.761 28.536 208.761 27.864V23.112H210.409V27.736C210.409 28.4187 210.58 28.9253 210.921 29.256C211.262 29.576 211.737 29.736 212.345 29.736C213.017 29.736 213.556 29.512 213.961 29.064C214.377 28.616 214.585 27.9653 214.585 27.112V23.112H216.233V32.616C216.233 33.096 216.089 33.48 215.801 33.768C215.524 34.056 215.14 34.2 214.649 34.2H209.753ZM222.365 31.224C221.576 31.224 220.872 31.064 220.253 30.744C219.645 30.4133 219.165 29.944 218.813 29.336C218.461 28.728 218.285 28.008 218.285 27.176V26.936C218.285 26.104 218.461 25.3893 218.813 24.792C219.165 24.184 219.645 23.7147 220.253 23.384C220.872 23.0533 221.576 22.888 222.365 22.888C223.154 22.888 223.858 23.0533 224.477 23.384C225.096 23.7147 225.581 24.184 225.933 24.792C226.285 25.3893 226.461 26.104 226.461 26.936V27.176C226.461 28.008 226.285 28.728 225.933 29.336C225.581 29.944 225.096 30.4133 224.477 30.744C223.858 31.064 223.154 31.224 222.365 31.224ZM222.365 29.752C223.09 29.752 223.677 29.5227 224.125 29.064C224.584 28.5947 224.813 27.9493 224.813 27.128V26.984C224.813 26.1627 224.589 25.5227 224.141 25.064C223.693 24.5947 223.101 24.36 222.365 24.36C221.65 24.36 221.064 24.5947 220.605 25.064C220.157 25.5227 219.933 26.1627 219.933 26.984V27.128C219.933 27.9493 220.157 28.5947 220.605 29.064C221.064 29.5227 221.65 29.752 222.365 29.752ZM231.537 31.144C230.94 31.144 230.406 31.0107 229.937 30.744C229.468 30.4773 229.1 30.0987 228.833 29.608C228.566 29.1173 228.433 28.5307 228.433 27.848V23.112H230.081V27.736C230.081 28.4187 230.252 28.9253 230.593 29.256C230.934 29.576 231.409 29.736 232.017 29.736C232.689 29.736 233.228 29.512 233.633 29.064C234.049 28.6053 234.257 27.9493 234.257 27.096V23.112H235.905V31H234.289V29.816H234.033C233.884 30.136 233.617 30.44 233.233 30.728C232.849 31.0053 232.284 31.144 231.537 31.144ZM238.341 31V23.112H239.957V24.04H240.213C240.341 23.7093 240.544 23.4693 240.821 23.32C241.109 23.16 241.461 23.08 241.877 23.08H242.821V24.568H241.813C241.28 24.568 240.842 24.7173 240.501 25.016C240.16 25.304 239.989 25.752 239.989 26.36V31H238.341ZM248.607 34.2V23.112H250.223V24.248H250.479C250.681 23.896 250.985 23.5813 251.391 23.304C251.807 23.0267 252.399 22.888 253.167 22.888C253.828 22.888 254.431 23.048 254.975 23.368C255.529 23.688 255.972 24.152 256.303 24.76C256.644 25.3573 256.815 26.0827 256.815 26.936V27.176C256.815 28.0293 256.649 28.76 256.319 29.368C255.988 29.9653 255.545 30.424 254.991 30.744C254.436 31.064 253.828 31.224 253.167 31.224C252.655 31.224 252.223 31.16 251.871 31.032C251.519 30.904 251.236 30.744 251.023 30.552C250.809 30.3493 250.639 30.1413 250.511 29.928H250.255V34.2H248.607ZM252.687 29.784C253.412 29.784 254.004 29.5547 254.463 29.096C254.921 28.6373 255.151 27.9813 255.151 27.128V26.984C255.151 26.1413 254.916 25.4907 254.447 25.032C253.988 24.5733 253.401 24.344 252.687 24.344C251.983 24.344 251.396 24.5733 250.927 25.032C250.468 25.4907 250.239 26.1413 250.239 26.984V27.128C250.239 27.9813 250.468 28.6373 250.927 29.096C251.396 29.5547 251.983 29.784 252.687 29.784ZM258.857 31V23.112H260.473V24.04H260.729C260.857 23.7093 261.059 23.4693 261.337 23.32C261.625 23.16 261.977 23.08 262.393 23.08H263.337V24.568H262.329C261.795 24.568 261.358 24.7173 261.017 25.016C260.675 25.304 260.505 25.752 260.505 26.36V31H258.857ZM268.459 31.224C267.67 31.224 266.966 31.064 266.347 30.744C265.739 30.4133 265.259 29.944 264.907 29.336C264.555 28.728 264.379 28.008 264.379 27.176V26.936C264.379 26.104 264.555 25.3893 264.907 24.792C265.259 24.184 265.739 23.7147 266.347 23.384C266.966 23.0533 267.67 22.888 268.459 22.888C269.248 22.888 269.952 23.0533 270.571 23.384C271.19 23.7147 271.675 24.184 272.027 24.792C272.379 25.3893 272.555 26.104 272.555 26.936V27.176C272.555 28.008 272.379 28.728 272.027 29.336C271.675 29.944 271.19 30.4133 270.571 30.744C269.952 31.064 269.248 31.224 268.459 31.224ZM268.459 29.752C269.184 29.752 269.771 29.5227 270.219 29.064C270.678 28.5947 270.907 27.9493 270.907 27.128V26.984C270.907 26.1627 270.683 25.5227 270.235 25.064C269.787 24.5947 269.195 24.36 268.459 24.36C267.744 24.36 267.158 24.5947 266.699 25.064C266.251 25.5227 266.027 26.1627 266.027 26.984V27.128C266.027 27.9493 266.251 28.5947 266.699 29.064C267.158 29.5227 267.744 29.752 268.459 29.752ZM277.871 31.224C277.22 31.224 276.617 31.064 276.063 30.744C275.508 30.424 275.06 29.9653 274.719 29.368C274.388 28.76 274.223 28.0293 274.223 27.176V26.936C274.223 26.0933 274.388 25.368 274.719 24.76C275.049 24.152 275.492 23.688 276.047 23.368C276.601 23.048 277.209 22.888 277.871 22.888C278.383 22.888 278.809 22.952 279.151 23.08C279.503 23.208 279.791 23.3733 280.015 23.576C280.239 23.768 280.409 23.9707 280.527 24.184H280.783V19.8H282.431V31H280.815V29.88H280.559C280.356 30.2213 280.047 30.5307 279.631 30.808C279.225 31.0853 278.639 31.224 277.871 31.224ZM278.335 29.784C279.049 29.784 279.636 29.5547 280.095 29.096C280.564 28.6373 280.799 27.9813 280.799 27.128V26.984C280.799 26.1413 280.569 25.4907 280.111 25.032C279.652 24.5733 279.06 24.344 278.335 24.344C277.631 24.344 277.044 24.5733 276.575 25.032C276.116 25.4907 275.887 26.1413 275.887 26.984V27.128C275.887 27.9813 276.116 28.6373 276.575 29.096C277.044 29.5547 277.631 29.784 278.335 29.784ZM287.881 31.144C287.283 31.144 286.75 31.0107 286.281 30.744C285.811 30.4773 285.443 30.0987 285.177 29.608C284.91 29.1173 284.777 28.5307 284.777 27.848V23.112H286.425V27.736C286.425 28.4187 286.595 28.9253 286.937 29.256C287.278 29.576 287.753 29.736 288.361 29.736C289.033 29.736 289.571 29.512 289.977 29.064C290.393 28.6053 290.601 27.9493 290.601 27.096V23.112H292.249V31H290.633V29.816H290.377C290.227 30.136 289.961 30.44 289.577 30.728C289.193 31.0053 288.627 31.144 287.881 31.144ZM298.349 31.224C297.591 31.224 296.903 31.064 296.285 30.744C295.677 30.424 295.191 29.96 294.829 29.352C294.477 28.744 294.301 28.0133 294.301 27.16V26.952C294.301 26.0987 294.477 25.3733 294.829 24.776C295.191 24.168 295.677 23.704 296.285 23.384C296.903 23.0533 297.591 22.888 298.349 22.888C299.106 22.888 299.751 23.0267 300.285 23.304C300.818 23.5813 301.245 23.9493 301.565 24.408C301.895 24.8667 302.109 25.3733 302.205 25.928L300.605 26.264C300.551 25.912 300.439 25.592 300.269 25.304C300.098 25.016 299.858 24.7867 299.549 24.616C299.239 24.4453 298.85 24.36 298.381 24.36C297.922 24.36 297.506 24.4667 297.133 24.68C296.77 24.8827 296.482 25.1813 296.269 25.576C296.055 25.96 295.949 26.4293 295.949 26.984V27.128C295.949 27.6827 296.055 28.1573 296.269 28.552C296.482 28.9467 296.77 29.2453 297.133 29.448C297.506 29.6507 297.922 29.752 298.381 29.752C299.074 29.752 299.602 29.576 299.965 29.224C300.327 28.8613 300.557 28.4027 300.653 27.848L302.253 28.216C302.125 28.76 301.895 29.2613 301.565 29.72C301.245 30.1787 300.818 30.5467 300.285 30.824C299.751 31.0907 299.106 31.224 298.349 31.224ZM306.832 31C306.352 31 305.968 30.856 305.68 30.568C305.403 30.28 305.264 29.896 305.264 29.416V24.504H303.088V23.112H305.264V20.504H306.912V23.112H309.264V24.504H306.912V29.128C306.912 29.448 307.062 29.608 307.36 29.608H309.008V31H306.832ZM318.239 31C317.759 31 317.375 30.856 317.087 30.568C316.809 30.28 316.671 29.896 316.671 29.416V24.504H314.495V23.112H316.671V20.504H318.319V23.112H320.671V24.504H318.319V29.128C318.319 29.448 318.468 29.608 318.766 29.608H320.415V31H318.239ZM326.021 31.224C325.232 31.224 324.528 31.064 323.909 30.744C323.301 30.4133 322.821 29.944 322.469 29.336C322.117 28.728 321.941 28.008 321.941 27.176V26.936C321.941 26.104 322.117 25.3893 322.469 24.792C322.821 24.184 323.301 23.7147 323.909 23.384C324.528 23.0533 325.232 22.888 326.021 22.888C326.811 22.888 327.515 23.0533 328.133 23.384C328.752 23.7147 329.237 24.184 329.589 24.792C329.941 25.3893 330.117 26.104 330.117 26.936V27.176C330.117 28.008 329.941 28.728 329.589 29.336C329.237 29.944 328.752 30.4133 328.133 30.744C327.515 31.064 326.811 31.224 326.021 31.224ZM326.021 29.752C326.747 29.752 327.333 29.5227 327.781 29.064C328.24 28.5947 328.469 27.9493 328.469 27.128V26.984C328.469 26.1627 328.245 25.5227 327.797 25.064C327.349 24.5947 326.757 24.36 326.021 24.36C325.307 24.36 324.72 24.5947 324.261 25.064C323.813 25.5227 323.589 26.1627 323.589 26.984V27.128C323.589 27.9493 323.813 28.5947 324.261 29.064C324.72 29.5227 325.307 29.752 326.021 29.752ZM147.776 51.224C147.008 51.224 146.416 51.0853 146 50.808C145.595 50.5307 145.291 50.2213 145.088 49.88H144.832V51H143.216V39.8H144.864V44.184H145.12C145.248 43.9707 145.419 43.768 145.632 43.576C145.845 43.3733 146.128 43.208 146.48 43.08C146.832 42.952 147.264 42.888 147.776 42.888C148.437 42.888 149.045 43.048 149.6 43.368C150.155 43.688 150.597 44.152 150.928 44.76C151.259 45.368 151.424 46.0933 151.424 46.936V47.176C151.424 48.0293 151.253 48.76 150.912 49.368C150.581 49.9653 150.139 50.424 149.584 50.744C149.04 51.064 148.437 51.224 147.776 51.224ZM147.296 49.784C148.011 49.784 148.597 49.5547 149.056 49.096C149.525 48.6373 149.76 47.9813 149.76 47.128V46.984C149.76 46.1413 149.531 45.4907 149.072 45.032C148.613 44.5733 148.021 44.344 147.296 44.344C146.592 44.344 146.005 44.5733 145.536 45.032C145.077 45.4907 144.848 46.1413 144.848 46.984V47.128C144.848 47.9813 145.077 48.6373 145.536 49.096C146.005 49.5547 146.592 49.784 147.296 49.784ZM157.082 51.224C156.282 51.224 155.583 51.0587 154.986 50.728C154.389 50.3867 153.919 49.912 153.578 49.304C153.247 48.6853 153.082 47.9707 153.082 47.16V46.968C153.082 46.1467 153.247 45.432 153.578 44.824C153.909 44.2053 154.367 43.7307 154.954 43.4C155.551 43.0587 156.239 42.888 157.018 42.888C157.775 42.888 158.437 43.0587 159.002 43.4C159.578 43.7307 160.026 44.1947 160.346 44.792C160.666 45.3893 160.826 46.088 160.826 46.888V47.512H154.762C154.783 48.2053 155.013 48.76 155.45 49.176C155.898 49.5813 156.453 49.784 157.114 49.784C157.733 49.784 158.197 49.6453 158.506 49.368C158.826 49.0907 159.071 48.7707 159.242 48.408L160.602 49.112C160.453 49.4107 160.234 49.7253 159.946 50.056C159.669 50.3867 159.301 50.664 158.842 50.888C158.383 51.112 157.797 51.224 157.082 51.224ZM154.778 46.248H159.146C159.103 45.6507 158.89 45.1867 158.506 44.856C158.122 44.5147 157.621 44.344 157.002 44.344C156.383 44.344 155.877 44.5147 155.482 44.856C155.098 45.1867 154.863 45.6507 154.778 46.248ZM168.712 51L166.056 43.112H167.8L169.896 49.784H170.152L172.248 43.112H173.992L171.336 51H168.712ZM178.941 51.224C178.141 51.224 177.443 51.0587 176.845 50.728C176.248 50.3867 175.779 49.912 175.437 49.304C175.107 48.6853 174.941 47.9707 174.941 47.16V46.968C174.941 46.1467 175.107 45.432 175.437 44.824C175.768 44.2053 176.227 43.7307 176.813 43.4C177.411 43.0587 178.099 42.888 178.877 42.888C179.635 42.888 180.296 43.0587 180.861 43.4C181.437 43.7307 181.885 44.1947 182.205 44.792C182.525 45.3893 182.685 46.088 182.685 46.888V47.512H176.621C176.643 48.2053 176.872 48.76 177.309 49.176C177.757 49.5813 178.312 49.784 178.973 49.784C179.592 49.784 180.056 49.6453 180.365 49.368C180.685 49.0907 180.931 48.7707 181.101 48.408L182.461 49.112C182.312 49.4107 182.093 49.7253 181.805 50.056C181.528 50.3867 181.16 50.664 180.701 50.888C180.243 51.112 179.656 51.224 178.941 51.224ZM176.637 46.248H181.005C180.963 45.6507 180.749 45.1867 180.365 44.856C179.981 44.5147 179.48 44.344 178.861 44.344C178.243 44.344 177.736 44.5147 177.341 44.856C176.957 45.1867 176.723 45.6507 176.637 46.248ZM184.669 51V43.112H186.285V44.04H186.541C186.669 43.7093 186.872 43.4693 187.149 43.32C187.437 43.16 187.789 43.08 188.205 43.08H189.149V44.568H188.141C187.608 44.568 187.17 44.7173 186.829 45.016C186.488 45.304 186.317 45.752 186.317 46.36V51H184.669ZM190.857 51V43.112H192.505V51H190.857ZM191.689 42.04C191.369 42.04 191.097 41.9387 190.873 41.736C190.659 41.5227 190.553 41.2507 190.553 40.92C190.553 40.5893 190.659 40.3227 190.873 40.12C191.097 39.9067 191.369 39.8 191.689 39.8C192.019 39.8 192.291 39.9067 192.505 40.12C192.718 40.3227 192.825 40.5893 192.825 40.92C192.825 41.2507 192.718 41.5227 192.505 41.736C192.291 41.9387 192.019 42.04 191.689 42.04ZM196.374 51V44.504H194.166V43.112H196.374V41.384C196.374 40.904 196.518 40.52 196.806 40.232C197.094 39.944 197.478 39.8 197.958 39.8H199.878V41.192H198.486C198.177 41.192 198.022 41.352 198.022 41.672V43.112H201.558V44.504H198.022V51H196.374ZM201.558 51V43.112H203.206V51H201.558ZM202.39 42.088C202.07 42.088 201.798 41.9867 201.574 41.784C201.361 41.5707 201.254 41.2987 201.254 40.968C201.254 40.6267 201.361 40.3547 201.574 40.152C201.798 39.9493 202.07 39.848 202.39 39.848C202.71 39.848 202.977 39.9493 203.19 40.152C203.414 40.3547 203.526 40.6267 203.526 40.968C203.526 41.2987 203.414 41.5707 203.19 41.784C202.977 41.9867 202.71 42.088 202.39 42.088ZM209.254 51.224C208.454 51.224 207.755 51.0587 207.158 50.728C206.561 50.3867 206.091 49.912 205.75 49.304C205.419 48.6853 205.254 47.9707 205.254 47.16V46.968C205.254 46.1467 205.419 45.432 205.75 44.824C206.081 44.2053 206.539 43.7307 207.126 43.4C207.723 43.0587 208.411 42.888 209.19 42.888C209.947 42.888 210.609 43.0587 211.174 43.4C211.75 43.7307 212.198 44.1947 212.518 44.792C212.838 45.3893 212.998 46.088 212.998 46.888V47.512H206.934C206.955 48.2053 207.185 48.76 207.622 49.176C208.07 49.5813 208.625 49.784 209.286 49.784C209.905 49.784 210.369 49.6453 210.678 49.368C210.998 49.0907 211.243 48.7707 211.414 48.408L212.774 49.112C212.625 49.4107 212.406 49.7253 212.118 50.056C211.841 50.3867 211.473 50.664 211.014 50.888C210.555 51.112 209.969 51.224 209.254 51.224ZM206.95 46.248H211.318C211.275 45.6507 211.062 45.1867 210.678 44.856C210.294 44.5147 209.793 44.344 209.174 44.344C208.555 44.344 208.049 44.5147 207.654 44.856C207.27 45.1867 207.035 45.6507 206.95 46.248ZM218.246 51.224C217.595 51.224 216.992 51.064 216.438 50.744C215.883 50.424 215.435 49.9653 215.094 49.368C214.763 48.76 214.598 48.0293 214.598 47.176V46.936C214.598 46.0933 214.763 45.368 215.094 44.76C215.424 44.152 215.867 43.688 216.422 43.368C216.976 43.048 217.584 42.888 218.246 42.888C218.758 42.888 219.184 42.952 219.526 43.08C219.878 43.208 220.166 43.3733 220.39 43.576C220.614 43.768 220.784 43.9707 220.902 44.184H221.158V39.8H222.806V51H221.19V49.88H220.934C220.731 50.2213 220.422 50.5307 220.006 50.808C219.6 51.0853 219.014 51.224 218.246 51.224ZM218.71 49.784C219.424 49.784 220.011 49.5547 220.47 49.096C220.939 48.6373 221.174 47.9813 221.174 47.128V46.984C221.174 46.1413 220.944 45.4907 220.486 45.032C220.027 44.5733 219.435 44.344 218.71 44.344C218.006 44.344 217.419 44.5733 216.95 45.032C216.491 45.4907 216.262 46.1413 216.262 46.984V47.128C216.262 47.9813 216.491 48.6373 216.95 49.096C217.419 49.5547 218.006 49.784 218.71 49.784Z" fill="black"/>
</g>
<g filter="url(#filter2_d_496_991)">
<path d="M143.812 71L142.444 62.6H143.452L144.64 70.352H144.808L146.356 62.6H148.156L149.692 70.352H149.86L151.048 62.6H152.056L150.688 71H148.888L147.34 63.2H147.172L145.624 71H143.812ZM156.02 71.168C155.428 71.168 154.908 71.044 154.46 70.796C154.012 70.54 153.664 70.184 153.416 69.728C153.168 69.272 153.044 68.744 153.044 68.144V68C153.044 67.392 153.168 66.86 153.416 66.404C153.664 65.948 154.008 65.596 154.448 65.348C154.888 65.092 155.392 64.964 155.96 64.964C156.512 64.964 157 65.084 157.424 65.324C157.848 65.556 158.18 65.892 158.42 66.332C158.66 66.772 158.78 67.288 158.78 67.88V68.312H153.992C154.016 68.944 154.22 69.44 154.604 69.8C154.988 70.152 155.468 70.328 156.044 70.328C156.548 70.328 156.936 70.212 157.208 69.98C157.48 69.748 157.688 69.472 157.832 69.152L158.648 69.548C158.528 69.796 158.36 70.044 158.144 70.292C157.936 70.54 157.66 70.748 157.316 70.916C156.98 71.084 156.548 71.168 156.02 71.168ZM154.004 67.532H157.82C157.788 66.988 157.6 66.564 157.256 66.26C156.92 65.956 156.488 65.804 155.96 65.804C155.424 65.804 154.984 65.956 154.64 66.26C154.296 66.564 154.084 66.988 154.004 67.532ZM166.216 71.168C165.648 71.168 165.136 71.048 164.68 70.808C164.232 70.56 163.876 70.208 163.612 69.752C163.356 69.296 163.228 68.756 163.228 68.132V68C163.228 67.368 163.356 66.828 163.612 66.38C163.876 65.924 164.232 65.576 164.68 65.336C165.136 65.088 165.648 64.964 166.216 64.964C166.776 64.964 167.252 65.068 167.644 65.276C168.044 65.484 168.356 65.76 168.58 66.104C168.812 66.448 168.96 66.816 169.024 67.208L168.1 67.4C168.06 67.112 167.964 66.848 167.812 66.608C167.668 66.368 167.464 66.176 167.2 66.032C166.936 65.888 166.612 65.816 166.228 65.816C165.836 65.816 165.484 65.904 165.172 66.08C164.868 66.256 164.624 66.508 164.44 66.836C164.264 67.164 164.176 67.556 164.176 68.012V68.12C164.176 68.576 164.264 68.968 164.44 69.296C164.624 69.624 164.868 69.876 165.172 70.052C165.484 70.228 165.836 70.316 166.228 70.316C166.812 70.316 167.256 70.164 167.56 69.86C167.872 69.556 168.064 69.18 168.136 68.732L169.072 68.936C168.984 69.32 168.824 69.684 168.592 70.028C168.36 70.372 168.044 70.648 167.644 70.856C167.252 71.064 166.776 71.168 166.216 71.168ZM170.687 71V62.6H171.635V66.068H171.803C171.883 65.892 172.003 65.728 172.163 65.576C172.331 65.416 172.543 65.284 172.799 65.18C173.063 65.076 173.395 65.024 173.795 65.024C174.235 65.024 174.627 65.12 174.971 65.312C175.323 65.496 175.603 65.768 175.811 66.128C176.019 66.48 176.123 66.92 176.123 67.448V71H175.175V67.52C175.175 66.936 175.027 66.512 174.731 66.248C174.443 65.984 174.051 65.852 173.555 65.852C172.987 65.852 172.523 66.036 172.163 66.404C171.811 66.772 171.635 67.32 171.635 68.048V71H170.687ZM180.735 71.168C180.143 71.168 179.623 71.044 179.175 70.796C178.727 70.54 178.379 70.184 178.131 69.728C177.883 69.272 177.759 68.744 177.759 68.144V68C177.759 67.392 177.883 66.86 178.131 66.404C178.379 65.948 178.723 65.596 179.163 65.348C179.603 65.092 180.107 64.964 180.675 64.964C181.227 64.964 181.715 65.084 182.139 65.324C182.563 65.556 182.895 65.892 183.135 66.332C183.375 66.772 183.495 67.288 183.495 67.88V68.312H178.707C178.731 68.944 178.935 69.44 179.319 69.8C179.703 70.152 180.183 70.328 180.759 70.328C181.263 70.328 181.651 70.212 181.923 69.98C182.195 69.748 182.403 69.472 182.547 69.152L183.363 69.548C183.243 69.796 183.075 70.044 182.859 70.292C182.651 70.54 182.375 70.748 182.031 70.916C181.695 71.084 181.263 71.168 180.735 71.168ZM178.719 67.532H182.535C182.503 66.988 182.315 66.564 181.971 66.26C181.635 65.956 181.203 65.804 180.675 65.804C180.139 65.804 179.699 65.956 179.355 66.26C179.011 66.564 178.799 66.988 178.719 67.532ZM187.848 71.168C187.28 71.168 186.768 71.048 186.312 70.808C185.864 70.56 185.508 70.208 185.244 69.752C184.988 69.296 184.86 68.756 184.86 68.132V68C184.86 67.368 184.988 66.828 185.244 66.38C185.508 65.924 185.864 65.576 186.312 65.336C186.768 65.088 187.28 64.964 187.848 64.964C188.408 64.964 188.884 65.068 189.276 65.276C189.676 65.484 189.988 65.76 190.212 66.104C190.444 66.448 190.592 66.816 190.656 67.208L189.732 67.4C189.692 67.112 189.596 66.848 189.444 66.608C189.3 66.368 189.096 66.176 188.832 66.032C188.568 65.888 188.244 65.816 187.86 65.816C187.468 65.816 187.116 65.904 186.804 66.08C186.5 66.256 186.256 66.508 186.072 66.836C185.896 67.164 185.808 67.556 185.808 68.012V68.12C185.808 68.576 185.896 68.968 186.072 69.296C186.256 69.624 186.5 69.876 186.804 70.052C187.116 70.228 187.468 70.316 187.86 70.316C188.444 70.316 188.888 70.164 189.192 69.86C189.504 69.556 189.696 69.18 189.768 68.732L190.704 68.936C190.616 69.32 190.456 69.684 190.224 70.028C189.992 70.372 189.676 70.648 189.276 70.856C188.884 71.064 188.408 71.168 187.848 71.168ZM192.32 71V62.6H193.268V67.544H193.436L196.124 65.132H197.444L194.192 67.988L197.54 71H196.232L193.436 68.444H193.268V71H192.32ZM204.547 71.168C203.955 71.168 203.435 71.044 202.987 70.796C202.539 70.54 202.191 70.184 201.943 69.728C201.695 69.272 201.571 68.744 201.571 68.144V68C201.571 67.392 201.695 66.86 201.943 66.404C202.191 65.948 202.535 65.596 202.975 65.348C203.415 65.092 203.919 64.964 204.487 64.964C205.039 64.964 205.527 65.084 205.951 65.324C206.375 65.556 206.707 65.892 206.947 66.332C207.187 66.772 207.307 67.288 207.307 67.88V68.312H202.519C202.543 68.944 202.747 69.44 203.131 69.8C203.515 70.152 203.995 70.328 204.571 70.328C205.075 70.328 205.463 70.212 205.735 69.98C206.007 69.748 206.215 69.472 206.359 69.152L207.175 69.548C207.055 69.796 206.887 70.044 206.671 70.292C206.463 70.54 206.187 70.748 205.843 70.916C205.507 71.084 205.075 71.168 204.547 71.168ZM202.531 67.532H206.347C206.315 66.988 206.127 66.564 205.783 66.26C205.447 65.956 205.015 65.804 204.487 65.804C203.951 65.804 203.511 65.956 203.167 66.26C202.823 66.564 202.611 66.988 202.531 67.532ZM210.214 71L208.114 65.132H209.122L210.886 70.292H211.054L212.818 65.132H213.826L211.726 71H210.214ZM217.649 71.168C217.057 71.168 216.537 71.044 216.089 70.796C215.641 70.54 215.293 70.184 215.045 69.728C214.797 69.272 214.673 68.744 214.673 68.144V68C214.673 67.392 214.797 66.86 215.045 66.404C215.293 65.948 215.637 65.596 216.077 65.348C216.517 65.092 217.021 64.964 217.589 64.964C218.141 64.964 218.629 65.084 219.053 65.324C219.477 65.556 219.809 65.892 220.049 66.332C220.289 66.772 220.409 67.288 220.409 67.88V68.312H215.621C215.645 68.944 215.849 69.44 216.233 69.8C216.617 70.152 217.097 70.328 217.673 70.328C218.177 70.328 218.565 70.212 218.837 69.98C219.109 69.748 219.317 69.472 219.461 69.152L220.277 69.548C220.157 69.796 219.989 70.044 219.773 70.292C219.565 70.54 219.289 70.748 218.945 70.916C218.609 71.084 218.177 71.168 217.649 71.168ZM215.633 67.532H219.449C219.417 66.988 219.229 66.564 218.885 66.26C218.549 65.956 218.117 65.804 217.589 65.804C217.053 65.804 216.613 65.956 216.269 66.26C215.925 66.564 215.713 66.988 215.633 67.532ZM222.062 71V65.132H222.986V65.852H223.154C223.258 65.596 223.418 65.408 223.634 65.288C223.85 65.168 224.134 65.108 224.486 65.108H225.182V65.972H224.426C224.002 65.972 223.658 66.092 223.394 66.332C223.138 66.564 223.01 66.928 223.01 67.424V71H222.062ZM227.294 73.4V72.56H230.654C230.886 72.56 231.002 72.44 231.002 72.2V70.064H230.834C230.754 70.232 230.63 70.4 230.462 70.568C230.302 70.728 230.09 70.86 229.826 70.964C229.562 71.06 229.23 71.108 228.83 71.108C228.406 71.108 228.014 71.016 227.654 70.832C227.302 70.648 227.022 70.376 226.814 70.016C226.614 69.656 226.514 69.216 226.514 68.696V65.132H227.462V68.624C227.462 69.2 227.606 69.62 227.894 69.884C228.19 70.148 228.586 70.28 229.082 70.28C229.642 70.28 230.102 70.096 230.462 69.728C230.822 69.36 231.002 68.812 231.002 68.084V65.132H231.95V72.368C231.95 72.688 231.858 72.94 231.674 73.124C231.498 73.308 231.238 73.4 230.894 73.4H227.294ZM237.016 73.4V65.132H237.94V66.104H238.108C238.26 65.808 238.504 65.544 238.84 65.312C239.184 65.08 239.66 64.964 240.268 64.964C240.772 64.964 241.232 65.088 241.648 65.336C242.072 65.576 242.408 65.92 242.656 66.368C242.912 66.816 243.04 67.356 243.04 67.988V68.144C243.04 68.768 242.916 69.308 242.668 69.764C242.42 70.22 242.084 70.568 241.66 70.808C241.244 71.048 240.78 71.168 240.268 71.168C239.86 71.168 239.512 71.112 239.224 71C238.944 70.896 238.716 70.76 238.54 70.592C238.364 70.424 238.228 70.252 238.132 70.076H237.964V73.4H237.016ZM240.016 70.328C240.624 70.328 241.116 70.136 241.492 69.752C241.876 69.36 242.068 68.816 242.068 68.12V68.012C242.068 67.316 241.876 66.776 241.492 66.392C241.116 66 240.624 65.804 240.016 65.804C239.416 65.804 238.92 66 238.528 66.392C238.144 66.776 237.952 67.316 237.952 68.012V68.12C237.952 68.816 238.144 69.36 238.528 69.752C238.92 70.136 239.416 70.328 240.016 70.328ZM244.738 71V65.132H245.662V65.852H245.83C245.934 65.596 246.094 65.408 246.31 65.288C246.526 65.168 246.81 65.108 247.162 65.108H247.858V65.972H247.102C246.678 65.972 246.334 66.092 246.07 66.332C245.814 66.564 245.686 66.928 245.686 67.424V71H244.738ZM251.763 71.168C251.171 71.168 250.647 71.044 250.191 70.796C249.743 70.548 249.391 70.2 249.135 69.752C248.887 69.296 248.763 68.76 248.763 68.144V67.988C248.763 67.38 248.887 66.848 249.135 66.392C249.391 65.936 249.743 65.584 250.191 65.336C250.647 65.088 251.171 64.964 251.763 64.964C252.355 64.964 252.875 65.088 253.323 65.336C253.779 65.584 254.131 65.936 254.379 66.392C254.635 66.848 254.763 67.38 254.763 67.988V68.144C254.763 68.76 254.635 69.296 254.379 69.752C254.131 70.2 253.779 70.548 253.323 70.796C252.875 71.044 252.355 71.168 251.763 71.168ZM251.763 70.316C252.387 70.316 252.883 70.12 253.251 69.728C253.627 69.328 253.815 68.792 253.815 68.12V68.012C253.815 67.34 253.627 66.808 253.251 66.416C252.883 66.016 252.387 65.816 251.763 65.816C251.147 65.816 250.651 66.016 250.275 66.416C249.899 66.808 249.711 67.34 249.711 68.012V68.12C249.711 68.792 249.899 69.328 250.275 69.728C250.651 70.12 251.147 70.316 251.763 70.316ZM258.953 71.168C258.449 71.168 257.985 71.048 257.561 70.808C257.137 70.568 256.801 70.22 256.553 69.764C256.305 69.308 256.181 68.768 256.181 68.144V67.988C256.181 67.364 256.305 66.828 256.553 66.38C256.801 65.924 257.133 65.576 257.549 65.336C257.973 65.088 258.441 64.964 258.953 64.964C259.361 64.964 259.705 65.02 259.985 65.132C260.273 65.236 260.505 65.372 260.681 65.54C260.857 65.7 260.993 65.872 261.089 66.056H261.257V62.6H262.205V71H261.281V70.028H261.113C260.953 70.324 260.705 70.588 260.369 70.82C260.033 71.052 259.561 71.168 258.953 71.168ZM259.205 70.328C259.813 70.328 260.305 70.136 260.681 69.752C261.065 69.36 261.257 68.816 261.257 68.12V68.012C261.257 67.316 261.065 66.776 260.681 66.392C260.305 66 259.813 65.804 259.205 65.804C258.605 65.804 258.109 66 257.717 66.392C257.333 66.776 257.141 67.316 257.141 68.012V68.12C257.141 68.816 257.333 69.36 257.717 69.752C258.109 70.136 258.605 70.328 259.205 70.328ZM266.435 71.108C266.011 71.108 265.619 71.016 265.259 70.832C264.907 70.648 264.627 70.376 264.419 70.016C264.219 69.648 264.119 69.204 264.119 68.684V65.132H265.067V68.612C265.067 69.196 265.211 69.62 265.499 69.884C265.795 70.148 266.191 70.28 266.687 70.28C267.247 70.28 267.707 70.096 268.067 69.728C268.427 69.36 268.607 68.812 268.607 68.084V65.132H269.555V71H268.631V70.004H268.463C268.335 70.284 268.115 70.54 267.803 70.772C267.491 70.996 267.035 71.108 266.435 71.108ZM274.239 71.168C273.671 71.168 273.159 71.048 272.703 70.808C272.255 70.56 271.899 70.208 271.635 69.752C271.379 69.296 271.251 68.756 271.251 68.132V68C271.251 67.368 271.379 66.828 271.635 66.38C271.899 65.924 272.255 65.576 272.703 65.336C273.159 65.088 273.671 64.964 274.239 64.964C274.799 64.964 275.275 65.068 275.667 65.276C276.067 65.484 276.379 65.76 276.603 66.104C276.835 66.448 276.983 66.816 277.047 67.208L276.123 67.4C276.083 67.112 275.987 66.848 275.835 66.608C275.691 66.368 275.487 66.176 275.223 66.032C274.959 65.888 274.635 65.816 274.251 65.816C273.859 65.816 273.507 65.904 273.195 66.08C272.891 66.256 272.647 66.508 272.463 66.836C272.287 67.164 272.199 67.556 272.199 68.012V68.12C272.199 68.576 272.287 68.968 272.463 69.296C272.647 69.624 272.891 69.876 273.195 70.052C273.507 70.228 273.859 70.316 274.251 70.316C274.835 70.316 275.279 70.164 275.583 69.86C275.895 69.556 276.087 69.18 276.159 68.732L277.095 68.936C277.007 69.32 276.847 69.684 276.615 70.028C276.383 70.372 276.067 70.648 275.667 70.856C275.275 71.064 274.799 71.168 274.239 71.168ZM280.636 71C280.3 71 280.04 70.908 279.856 70.724C279.68 70.54 279.592 70.288 279.592 69.968V65.96H277.828V65.132H279.592V63.044H280.54V65.132H282.46V65.96H280.54V69.824C280.54 70.064 280.656 70.184 280.888 70.184H282.196V71H280.636ZM142.996 86V80.132H143.944V86H142.996ZM143.476 79.22C143.268 79.22 143.092 79.152 142.948 79.016C142.812 78.88 142.744 78.708 142.744 78.5C142.744 78.284 142.812 78.108 142.948 77.972C143.092 77.836 143.268 77.768 143.476 77.768C143.684 77.768 143.856 77.836 143.992 77.972C144.128 78.108 144.196 78.284 144.196 78.5C144.196 78.708 144.128 78.88 143.992 79.016C143.856 79.152 143.684 79.22 143.476 79.22ZM145.937 86V80.132H146.861V81.128H147.029C147.157 80.848 147.373 80.596 147.677 80.372C147.989 80.14 148.445 80.024 149.045 80.024C149.485 80.024 149.877 80.116 150.221 80.3C150.573 80.484 150.853 80.756 151.061 81.116C151.269 81.476 151.373 81.92 151.373 82.448V86H150.425V82.52C150.425 81.936 150.277 81.512 149.981 81.248C149.693 80.984 149.301 80.852 148.805 80.852C148.237 80.852 147.773 81.036 147.413 81.404C147.061 81.772 146.885 82.32 146.885 83.048V86H145.937ZM154.285 86V80.96H152.485V80.132H154.285V78.632C154.285 78.312 154.373 78.06 154.549 77.876C154.733 77.692 154.993 77.6 155.329 77.6H156.805V78.416H155.593C155.353 78.416 155.233 78.536 155.233 78.776V80.132H157.081V80.96H155.233V86H154.285ZM160.86 86.168C160.268 86.168 159.744 86.044 159.288 85.796C158.84 85.548 158.488 85.2 158.232 84.752C157.984 84.296 157.86 83.76 157.86 83.144V82.988C157.86 82.38 157.984 81.848 158.232 81.392C158.488 80.936 158.84 80.584 159.288 80.336C159.744 80.088 160.268 79.964 160.86 79.964C161.452 79.964 161.972 80.088 162.42 80.336C162.876 80.584 163.228 80.936 163.476 81.392C163.732 81.848 163.86 82.38 163.86 82.988V83.144C163.86 83.76 163.732 84.296 163.476 84.752C163.228 85.2 162.876 85.548 162.42 85.796C161.972 86.044 161.452 86.168 160.86 86.168ZM160.86 85.316C161.484 85.316 161.98 85.12 162.348 84.728C162.724 84.328 162.912 83.792 162.912 83.12V83.012C162.912 82.34 162.724 81.808 162.348 81.416C161.98 81.016 161.484 80.816 160.86 80.816C160.244 80.816 159.748 81.016 159.372 81.416C158.996 81.808 158.808 82.34 158.808 83.012V83.12C158.808 83.792 158.996 84.328 159.372 84.728C159.748 85.12 160.244 85.316 160.86 85.316ZM165.566 86V80.132H166.49V80.852H166.658C166.762 80.596 166.922 80.408 167.138 80.288C167.354 80.168 167.638 80.108 167.99 80.108H168.686V80.972H167.93C167.506 80.972 167.162 81.092 166.898 81.332C166.642 81.564 166.514 81.928 166.514 82.424V86H165.566ZM170.09 86V80.132H171.014V80.864H171.182C171.294 80.656 171.478 80.464 171.734 80.288C171.99 80.112 172.35 80.024 172.814 80.024C173.27 80.024 173.638 80.124 173.918 80.324C174.206 80.524 174.414 80.768 174.542 81.056H174.71C174.846 80.768 175.05 80.524 175.322 80.324C175.602 80.124 175.99 80.024 176.486 80.024C176.878 80.024 177.222 80.104 177.518 80.264C177.814 80.424 178.046 80.656 178.214 80.96C178.39 81.256 178.478 81.612 178.478 82.028V86H177.53V82.112C177.53 81.72 177.414 81.412 177.182 81.188C176.958 80.956 176.642 80.84 176.234 80.84C175.802 80.84 175.446 80.98 175.166 81.26C174.894 81.54 174.758 81.944 174.758 82.472V86H173.81V82.112C173.81 81.72 173.694 81.412 173.462 81.188C173.238 80.956 172.922 80.84 172.514 80.84C172.082 80.84 171.726 80.98 171.446 81.26C171.174 81.54 171.038 81.944 171.038 82.472V86H170.09ZM182.214 86.168C181.806 86.168 181.434 86.096 181.098 85.952C180.762 85.808 180.498 85.6 180.306 85.328C180.114 85.056 180.018 84.724 180.018 84.332C180.018 83.932 180.114 83.604 180.306 83.348C180.498 83.084 180.762 82.888 181.098 82.76C181.434 82.624 181.81 82.556 182.226 82.556H184.206V82.124C184.206 81.708 184.082 81.38 183.834 81.14C183.594 80.9 183.234 80.78 182.754 80.78C182.282 80.78 181.914 80.896 181.65 81.128C181.386 81.352 181.206 81.656 181.11 82.04L180.222 81.752C180.318 81.424 180.47 81.128 180.678 80.864C180.886 80.592 181.162 80.376 181.506 80.216C181.858 80.048 182.278 79.964 182.766 79.964C183.518 79.964 184.102 80.16 184.518 80.552C184.934 80.936 185.142 81.48 185.142 82.184V84.836C185.142 85.076 185.254 85.196 185.478 85.196H186.018V86H185.19C184.926 86 184.714 85.928 184.554 85.784C184.394 85.632 184.314 85.432 184.314 85.184V85.124H184.17C184.082 85.276 183.962 85.436 183.81 85.604C183.666 85.764 183.466 85.896 183.21 86C182.954 86.112 182.622 86.168 182.214 86.168ZM182.322 85.352C182.882 85.352 183.334 85.188 183.678 84.86C184.03 84.524 184.206 84.056 184.206 83.456V83.324H182.262C181.886 83.324 181.574 83.408 181.326 83.576C181.086 83.736 180.966 83.98 180.966 84.308C180.966 84.636 181.09 84.892 181.338 85.076C181.594 85.26 181.922 85.352 182.322 85.352ZM189.09 86C188.754 86 188.494 85.908 188.31 85.724C188.134 85.54 188.046 85.288 188.046 84.968V80.96H186.282V80.132H188.046V78.044H188.994V80.132H190.914V80.96H188.994V84.824C188.994 85.064 189.11 85.184 189.342 85.184H190.65V86H189.09ZM192.449 86V80.132H193.397V86H192.449ZM192.929 79.22C192.721 79.22 192.545 79.152 192.401 79.016C192.265 78.88 192.197 78.708 192.197 78.5C192.197 78.284 192.265 78.108 192.401 77.972C192.545 77.836 192.721 77.768 192.929 77.768C193.137 77.768 193.309 77.836 193.445 77.972C193.581 78.108 193.649 78.284 193.649 78.5C193.649 78.708 193.581 78.88 193.445 79.016C193.309 79.152 193.137 79.22 192.929 79.22ZM198.103 86.168C197.511 86.168 196.987 86.044 196.531 85.796C196.083 85.548 195.731 85.2 195.475 84.752C195.227 84.296 195.103 83.76 195.103 83.144V82.988C195.103 82.38 195.227 81.848 195.475 81.392C195.731 80.936 196.083 80.584 196.531 80.336C196.987 80.088 197.511 79.964 198.103 79.964C198.695 79.964 199.215 80.088 199.663 80.336C200.119 80.584 200.471 80.936 200.719 81.392C200.975 81.848 201.103 82.38 201.103 82.988V83.144C201.103 83.76 200.975 84.296 200.719 84.752C200.471 85.2 200.119 85.548 199.663 85.796C199.215 86.044 198.695 86.168 198.103 86.168ZM198.103 85.316C198.727 85.316 199.223 85.12 199.591 84.728C199.967 84.328 200.155 83.792 200.155 83.12V83.012C200.155 82.34 199.967 81.808 199.591 81.416C199.223 81.016 198.727 80.816 198.103 80.816C197.487 80.816 196.991 81.016 196.615 81.416C196.239 81.808 196.051 82.34 196.051 83.012V83.12C196.051 83.792 196.239 84.328 196.615 84.728C196.991 85.12 197.487 85.316 198.103 85.316ZM202.809 86V80.132H203.733V81.128H203.901C204.029 80.848 204.245 80.596 204.549 80.372C204.861 80.14 205.317 80.024 205.917 80.024C206.357 80.024 206.749 80.116 207.093 80.3C207.445 80.484 207.725 80.756 207.933 81.116C208.141 81.476 208.245 81.92 208.245 82.448V86H207.297V82.52C207.297 81.936 207.149 81.512 206.853 81.248C206.565 80.984 206.173 80.852 205.677 80.852C205.109 80.852 204.645 81.036 204.285 81.404C203.933 81.772 203.757 82.32 203.757 83.048V86H202.809ZM216.502 86.168C215.894 86.168 215.418 86.052 215.074 85.82C214.738 85.588 214.494 85.324 214.342 85.028H214.174V86H213.25V77.6H214.198V81.056H214.366C214.462 80.872 214.598 80.7 214.774 80.54C214.95 80.372 215.178 80.236 215.458 80.132C215.746 80.02 216.094 79.964 216.502 79.964C217.014 79.964 217.478 80.088 217.894 80.336C218.318 80.576 218.654 80.924 218.902 81.38C219.15 81.828 219.274 82.364 219.274 82.988V83.144C219.274 83.768 219.146 84.308 218.89 84.764C218.642 85.22 218.306 85.568 217.882 85.808C217.466 86.048 217.006 86.168 216.502 86.168ZM216.25 85.328C216.858 85.328 217.35 85.136 217.726 84.752C218.11 84.36 218.302 83.816 218.302 83.12V83.012C218.302 82.316 218.11 81.776 217.726 81.392C217.35 81 216.858 80.804 216.25 80.804C215.65 80.804 215.154 81 214.762 81.392C214.378 81.776 214.186 82.316 214.186 83.012V83.12C214.186 83.816 214.378 84.36 214.762 84.752C215.154 85.136 215.65 85.328 216.25 85.328ZM223.661 86.168C223.069 86.168 222.549 86.044 222.101 85.796C221.653 85.54 221.305 85.184 221.057 84.728C220.809 84.272 220.685 83.744 220.685 83.144V83C220.685 82.392 220.809 81.86 221.057 81.404C221.305 80.948 221.649 80.596 222.089 80.348C222.529 80.092 223.033 79.964 223.601 79.964C224.153 79.964 224.641 80.084 225.065 80.324C225.489 80.556 225.821 80.892 226.061 81.332C226.301 81.772 226.421 82.288 226.421 82.88V83.312H221.633C221.657 83.944 221.861 84.44 222.245 84.8C222.629 85.152 223.109 85.328 223.685 85.328C224.189 85.328 224.577 85.212 224.849 84.98C225.121 84.748 225.329 84.472 225.473 84.152L226.289 84.548C226.169 84.796 226.001 85.044 225.785 85.292C225.577 85.54 225.301 85.748 224.957 85.916C224.621 86.084 224.189 86.168 223.661 86.168ZM221.645 82.532H225.461C225.429 81.988 225.241 81.564 224.897 81.26C224.561 80.956 224.129 80.804 223.601 80.804C223.065 80.804 222.625 80.956 222.281 81.26C221.937 81.564 221.725 81.988 221.645 82.532ZM228.992 86V80.96H227.192V80.132H228.992V78.632C228.992 78.312 229.08 78.06 229.256 77.876C229.44 77.692 229.7 77.6 230.036 77.6H231.512V78.416H230.3C230.06 78.416 229.94 78.536 229.94 78.776V80.132H231.788V80.96H229.94V86H228.992ZM235.567 86.168C234.975 86.168 234.451 86.044 233.995 85.796C233.547 85.548 233.195 85.2 232.939 84.752C232.691 84.296 232.567 83.76 232.567 83.144V82.988C232.567 82.38 232.691 81.848 232.939 81.392C233.195 80.936 233.547 80.584 233.995 80.336C234.451 80.088 234.975 79.964 235.567 79.964C236.159 79.964 236.679 80.088 237.127 80.336C237.583 80.584 237.935 80.936 238.183 81.392C238.439 81.848 238.567 82.38 238.567 82.988V83.144C238.567 83.76 238.439 84.296 238.183 84.752C237.935 85.2 237.583 85.548 237.127 85.796C236.679 86.044 236.159 86.168 235.567 86.168ZM235.567 85.316C236.191 85.316 236.687 85.12 237.055 84.728C237.431 84.328 237.619 83.792 237.619 83.12V83.012C237.619 82.34 237.431 81.808 237.055 81.416C236.687 81.016 236.191 80.816 235.567 80.816C234.951 80.816 234.455 81.016 234.079 81.416C233.703 81.808 233.515 82.34 233.515 83.012V83.12C233.515 83.792 233.703 84.328 234.079 84.728C234.455 85.12 234.951 85.316 235.567 85.316ZM240.273 86V80.132H241.197V80.852H241.365C241.469 80.596 241.629 80.408 241.845 80.288C242.061 80.168 242.345 80.108 242.697 80.108H243.393V80.972H242.637C242.213 80.972 241.869 81.092 241.605 81.332C241.349 81.564 241.221 81.928 241.221 82.424V86H240.273ZM247.274 86.168C246.682 86.168 246.162 86.044 245.714 85.796C245.266 85.54 244.918 85.184 244.67 84.728C244.422 84.272 244.298 83.744 244.298 83.144V83C244.298 82.392 244.422 81.86 244.67 81.404C244.918 80.948 245.262 80.596 245.702 80.348C246.142 80.092 246.646 79.964 247.214 79.964C247.766 79.964 248.254 80.084 248.678 80.324C249.102 80.556 249.434 80.892 249.674 81.332C249.914 81.772 250.034 82.288 250.034 82.88V83.312H245.246C245.27 83.944 245.474 84.44 245.858 84.8C246.242 85.152 246.722 85.328 247.298 85.328C247.802 85.328 248.19 85.212 248.462 84.98C248.734 84.748 248.942 84.472 249.086 84.152L249.902 84.548C249.782 84.796 249.614 85.044 249.398 85.292C249.19 85.54 248.914 85.748 248.57 85.916C248.234 86.084 247.802 86.168 247.274 86.168ZM245.258 82.532H249.074C249.042 81.988 248.854 81.564 248.51 81.26C248.174 80.956 247.742 80.804 247.214 80.804C246.678 80.804 246.238 80.956 245.894 81.26C245.55 81.564 245.338 81.988 245.258 82.532ZM254.769 86V77.6H255.717V86H254.769ZM257.711 86V80.132H258.659V86H257.711ZM258.191 79.22C257.983 79.22 257.807 79.152 257.663 79.016C257.527 78.88 257.459 78.708 257.459 78.5C257.459 78.284 257.527 78.108 257.663 77.972C257.807 77.836 257.983 77.768 258.191 77.768C258.399 77.768 258.571 77.836 258.707 77.972C258.843 78.108 258.911 78.284 258.911 78.5C258.911 78.708 258.843 78.88 258.707 79.016C258.571 79.152 258.399 79.22 258.191 79.22ZM263.016 86.168C262.288 86.168 261.672 86 261.168 85.664C260.672 85.328 260.372 84.796 260.268 84.068L261.168 83.864C261.232 84.248 261.352 84.552 261.528 84.776C261.704 84.992 261.92 85.148 262.176 85.244C262.44 85.332 262.72 85.376 263.016 85.376C263.456 85.376 263.804 85.288 264.06 85.112C264.316 84.936 264.444 84.7 264.444 84.404C264.444 84.1 264.32 83.888 264.072 83.768C263.832 83.64 263.5 83.536 263.076 83.456L262.584 83.372C262.208 83.308 261.864 83.208 261.552 83.072C261.24 82.936 260.992 82.752 260.808 82.52C260.624 82.288 260.532 81.996 260.532 81.644C260.532 81.116 260.736 80.704 261.144 80.408C261.552 80.112 262.092 79.964 262.764 79.964C263.428 79.964 263.964 80.116 264.372 80.42C264.788 80.716 265.056 81.136 265.176 81.68L264.288 81.908C264.216 81.484 264.044 81.188 263.772 81.02C263.5 80.844 263.164 80.756 262.764 80.756C262.364 80.756 262.048 80.832 261.816 80.984C261.584 81.128 261.468 81.344 261.468 81.632C261.468 81.912 261.576 82.12 261.792 82.256C262.016 82.384 262.312 82.48 262.68 82.544L263.172 82.628C263.588 82.7 263.96 82.8 264.288 82.928C264.624 83.048 264.888 83.224 265.08 83.456C265.28 83.688 265.38 83.992 265.38 84.368C265.38 84.944 265.164 85.388 264.732 85.7C264.308 86.012 263.736 86.168 263.016 86.168ZM269.011 86C268.675 86 268.415 85.908 268.231 85.724C268.055 85.54 267.967 85.288 267.967 84.968V80.96H266.203V80.132H267.967V78.044H268.915V80.132H270.835V80.96H268.915V84.824C268.915 85.064 269.031 85.184 269.263 85.184H270.571V86H269.011ZM272.371 86V80.132H273.319V86H272.371ZM272.851 79.22C272.643 79.22 272.467 79.152 272.323 79.016C272.187 78.88 272.119 78.708 272.119 78.5C272.119 78.284 272.187 78.108 272.323 77.972C272.467 77.836 272.643 77.768 272.851 77.768C273.059 77.768 273.231 77.836 273.367 77.972C273.503 78.108 273.571 78.284 273.571 78.5C273.571 78.708 273.503 78.88 273.367 79.016C273.231 79.152 273.059 79.22 272.851 79.22ZM275.312 86V80.132H276.236V81.128H276.404C276.532 80.848 276.748 80.596 277.052 80.372C277.364 80.14 277.82 80.024 278.42 80.024C278.86 80.024 279.252 80.116 279.596 80.3C279.948 80.484 280.228 80.756 280.436 81.116C280.644 81.476 280.748 81.92 280.748 82.448V86H279.8V82.52C279.8 81.936 279.652 81.512 279.356 81.248C279.068 80.984 278.676 80.852 278.18 80.852C277.612 80.852 277.148 81.036 276.788 81.404C276.436 81.772 276.26 82.32 276.26 83.048V86H275.312ZM282.384 83.096V82.928C282.384 82.312 282.508 81.784 282.756 81.344C283.004 80.904 283.34 80.564 283.764 80.324C284.188 80.084 284.652 79.964 285.156 79.964C285.772 79.964 286.244 80.084 286.572 80.324C286.908 80.556 287.156 80.816 287.316 81.104H287.484V80.132H288.384V87.368C288.384 87.688 288.296 87.94 288.12 88.124C287.944 88.308 287.688 88.4 287.352 88.4H283.368V87.56H287.1C287.34 87.56 287.46 87.44 287.46 87.2V84.968H287.292C287.196 85.144 287.06 85.316 286.884 85.484C286.708 85.652 286.48 85.792 286.2 85.904C285.92 86.008 285.572 86.06 285.156 86.06C284.652 86.06 284.188 85.94 283.764 85.7C283.34 85.46 283.004 85.12 282.756 84.68C282.508 84.232 282.384 83.704 282.384 83.096ZM285.408 85.22C286.016 85.22 286.508 85.028 286.884 84.644C287.268 84.26 287.46 83.732 287.46 83.06V82.964C287.46 82.284 287.268 81.756 286.884 81.38C286.508 80.996 286.016 80.804 285.408 80.804C284.808 80.804 284.312 80.996 283.92 81.38C283.536 81.756 283.344 82.284 283.344 82.964V83.06C283.344 83.732 283.536 84.26 283.92 84.644C284.312 85.028 284.808 85.22 285.408 85.22ZM295.613 86C295.277 86 295.017 85.908 294.833 85.724C294.657 85.54 294.569 85.288 294.569 84.968V80.96H292.805V80.132H294.569V78.044H295.517V80.132H297.437V80.96H295.517V84.824C295.517 85.064 295.633 85.184 295.865 85.184H297.173V86H295.613ZM298.973 86V77.6H299.921V81.068H300.089C300.169 80.892 300.289 80.728 300.449 80.576C300.617 80.416 300.829 80.284 301.085 80.18C301.349 80.076 301.681 80.024 302.081 80.024C302.521 80.024 302.913 80.12 303.257 80.312C303.609 80.496 303.889 80.768 304.097 81.128C304.305 81.48 304.409 81.92 304.409 82.448V86H303.461V82.52C303.461 81.936 303.313 81.512 303.017 81.248C302.729 80.984 302.337 80.852 301.841 80.852C301.273 80.852 300.809 81.036 300.449 81.404C300.097 81.772 299.921 82.32 299.921 83.048V86H298.973ZM309.02 86.168C308.428 86.168 307.908 86.044 307.46 85.796C307.012 85.54 306.664 85.184 306.416 84.728C306.168 84.272 306.044 83.744 306.044 83.144V83C306.044 82.392 306.168 81.86 306.416 81.404C306.664 80.948 307.008 80.596 307.448 80.348C307.888 80.092 308.392 79.964 308.96 79.964C309.512 79.964 310 80.084 310.424 80.324C310.848 80.556 311.18 80.892 311.42 81.332C311.66 81.772 311.78 82.288 311.78 82.88V83.312H306.992C307.016 83.944 307.22 84.44 307.604 84.8C307.988 85.152 308.468 85.328 309.044 85.328C309.548 85.328 309.936 85.212 310.208 84.98C310.48 84.748 310.688 84.472 310.832 84.152L311.648 84.548C311.528 84.796 311.36 85.044 311.144 85.292C310.936 85.54 310.66 85.748 310.316 85.916C309.98 86.084 309.548 86.168 309.02 86.168ZM307.004 82.532H310.82C310.788 81.988 310.6 81.564 310.256 81.26C309.92 80.956 309.488 80.804 308.96 80.804C308.424 80.804 307.984 80.956 307.64 81.26C307.296 81.564 307.084 81.988 307.004 82.532ZM313.434 86V80.132H314.358V80.864H314.526C314.638 80.656 314.822 80.464 315.078 80.288C315.334 80.112 315.694 80.024 316.158 80.024C316.614 80.024 316.982 80.124 317.262 80.324C317.55 80.524 317.758 80.768 317.886 81.056H318.054C318.19 80.768 318.394 80.524 318.666 80.324C318.946 80.124 319.334 80.024 319.83 80.024C320.222 80.024 320.566 80.104 320.862 80.264C321.158 80.424 321.39 80.656 321.558 80.96C321.734 81.256 321.822 81.612 321.822 82.028V86H320.874V82.112C320.874 81.72 320.758 81.412 320.526 81.188C320.302 80.956 319.986 80.84 319.578 80.84C319.146 80.84 318.79 80.98 318.51 81.26C318.238 81.54 318.102 81.944 318.102 82.472V86H317.154V82.112C317.154 81.72 317.038 81.412 316.806 81.188C316.582 80.956 316.266 80.84 315.858 80.84C315.426 80.84 315.07 80.98 314.79 81.26C314.518 81.54 314.382 81.944 314.382 82.472V86H313.434ZM145.156 101C144.82 101 144.56 100.908 144.376 100.724C144.2 100.54 144.112 100.288 144.112 99.968V95.96H142.348V95.132H144.112V93.044H145.06V95.132H146.98V95.96H145.06V99.824C145.06 100.064 145.176 100.184 145.408 100.184H146.716V101H145.156ZM151.017 101.168C150.425 101.168 149.901 101.044 149.445 100.796C148.997 100.548 148.645 100.2 148.389 99.752C148.141 99.296 148.017 98.76 148.017 98.144V97.988C148.017 97.38 148.141 96.848 148.389 96.392C148.645 95.936 148.997 95.584 149.445 95.336C149.901 95.088 150.425 94.964 151.017 94.964C151.609 94.964 152.129 95.088 152.577 95.336C153.033 95.584 153.385 95.936 153.633 96.392C153.889 96.848 154.017 97.38 154.017 97.988V98.144C154.017 98.76 153.889 99.296 153.633 99.752C153.385 100.2 153.033 100.548 152.577 100.796C152.129 101.044 151.609 101.168 151.017 101.168ZM151.017 100.316C151.641 100.316 152.137 100.12 152.505 99.728C152.881 99.328 153.069 98.792 153.069 98.12V98.012C153.069 97.34 152.881 96.808 152.505 96.416C152.137 96.016 151.641 95.816 151.017 95.816C150.401 95.816 149.905 96.016 149.529 96.416C149.153 96.808 148.965 97.34 148.965 98.012V98.12C148.965 98.792 149.153 99.328 149.529 99.728C149.905 100.12 150.401 100.316 151.017 100.316ZM161.493 101.168C160.901 101.168 160.381 101.044 159.933 100.796C159.485 100.54 159.137 100.184 158.889 99.728C158.641 99.272 158.517 98.744 158.517 98.144V98C158.517 97.392 158.641 96.86 158.889 96.404C159.137 95.948 159.481 95.596 159.921 95.348C160.361 95.092 160.865 94.964 161.433 94.964C161.985 94.964 162.473 95.084 162.897 95.324C163.321 95.556 163.653 95.892 163.893 96.332C164.133 96.772 164.253 97.288 164.253 97.88V98.312H159.465C159.489 98.944 159.693 99.44 160.077 99.8C160.461 100.152 160.941 100.328 161.517 100.328C162.021 100.328 162.409 100.212 162.681 99.98C162.953 99.748 163.161 99.472 163.305 99.152L164.121 99.548C164.001 99.796 163.833 100.044 163.617 100.292C163.409 100.54 163.133 100.748 162.789 100.916C162.453 101.084 162.021 101.168 161.493 101.168ZM159.477 97.532H163.293C163.261 96.988 163.073 96.564 162.729 96.26C162.393 95.956 161.961 95.804 161.433 95.804C160.897 95.804 160.457 95.956 160.113 96.26C159.769 96.564 159.557 96.988 159.477 97.532ZM165.906 101V95.132H166.83V96.128H166.998C167.126 95.848 167.342 95.596 167.646 95.372C167.958 95.14 168.414 95.024 169.014 95.024C169.454 95.024 169.846 95.116 170.19 95.3C170.542 95.484 170.822 95.756 171.03 96.116C171.238 96.476 171.342 96.92 171.342 97.448V101H170.394V97.52C170.394 96.936 170.246 96.512 169.95 96.248C169.662 95.984 169.27 95.852 168.774 95.852C168.206 95.852 167.742 96.036 167.382 96.404C167.03 96.772 166.854 97.32 166.854 98.048V101H165.906ZM175.63 101.168C174.902 101.168 174.286 101 173.782 100.664C173.286 100.328 172.986 99.796 172.882 99.068L173.782 98.864C173.846 99.248 173.966 99.552 174.142 99.776C174.318 99.992 174.534 100.148 174.79 100.244C175.054 100.332 175.334 100.376 175.63 100.376C176.07 100.376 176.418 100.288 176.674 100.112C176.93 99.936 177.058 99.7 177.058 99.404C177.058 99.1 176.934 98.888 176.686 98.768C176.446 98.64 176.114 98.536 175.69 98.456L175.198 98.372C174.822 98.308 174.478 98.208 174.166 98.072C173.854 97.936 173.606 97.752 173.422 97.52C173.238 97.288 173.146 96.996 173.146 96.644C173.146 96.116 173.35 95.704 173.758 95.408C174.166 95.112 174.706 94.964 175.378 94.964C176.042 94.964 176.578 95.116 176.986 95.42C177.402 95.716 177.67 96.136 177.79 96.68L176.902 96.908C176.83 96.484 176.658 96.188 176.386 96.02C176.114 95.844 175.778 95.756 175.378 95.756C174.978 95.756 174.662 95.832 174.43 95.984C174.198 96.128 174.082 96.344 174.082 96.632C174.082 96.912 174.19 97.12 174.406 97.256C174.63 97.384 174.926 97.48 175.294 97.544L175.786 97.628C176.202 97.7 176.574 97.8 176.902 97.928C177.238 98.048 177.502 98.224 177.694 98.456C177.894 98.688 177.994 98.992 177.994 99.368C177.994 99.944 177.778 100.388 177.346 100.7C176.922 101.012 176.35 101.168 175.63 101.168ZM181.838 101.108C181.414 101.108 181.022 101.016 180.662 100.832C180.31 100.648 180.03 100.376 179.822 100.016C179.622 99.648 179.522 99.204 179.522 98.684V95.132H180.47V98.612C180.47 99.196 180.614 99.62 180.902 99.884C181.198 100.148 181.594 100.28 182.09 100.28C182.65 100.28 183.11 100.096 183.47 99.728C183.83 99.36 184.01 98.812 184.01 98.084V95.132H184.958V101H184.034V100.004H183.866C183.738 100.284 183.518 100.54 183.206 100.772C182.894 100.996 182.438 101.108 181.838 101.108ZM186.941 101V95.132H187.865V95.852H188.033C188.137 95.596 188.297 95.408 188.513 95.288C188.729 95.168 189.013 95.108 189.365 95.108H190.061V95.972H189.305C188.881 95.972 188.537 96.092 188.273 96.332C188.017 96.564 187.889 96.928 187.889 97.424V101H186.941ZM193.942 101.168C193.35 101.168 192.83 101.044 192.382 100.796C191.934 100.54 191.586 100.184 191.338 99.728C191.09 99.272 190.966 98.744 190.966 98.144V98C190.966 97.392 191.09 96.86 191.338 96.404C191.586 95.948 191.93 95.596 192.37 95.348C192.81 95.092 193.314 94.964 193.882 94.964C194.434 94.964 194.922 95.084 195.346 95.324C195.77 95.556 196.102 95.892 196.342 96.332C196.582 96.772 196.702 97.288 196.702 97.88V98.312H191.914C191.938 98.944 192.142 99.44 192.526 99.8C192.91 100.152 193.39 100.328 193.966 100.328C194.47 100.328 194.858 100.212 195.13 99.98C195.402 99.748 195.61 99.472 195.754 99.152L196.57 99.548C196.45 99.796 196.282 100.044 196.066 100.292C195.858 100.54 195.582 100.748 195.238 100.916C194.902 101.084 194.47 101.168 193.942 101.168ZM191.926 97.532H195.742C195.71 96.988 195.522 96.564 195.178 96.26C194.842 95.956 194.41 95.804 193.882 95.804C193.346 95.804 192.906 95.956 192.562 96.26C192.218 96.564 192.006 96.988 191.926 97.532ZM201.437 101V95.132H202.361V95.852H202.529C202.633 95.596 202.793 95.408 203.009 95.288C203.225 95.168 203.509 95.108 203.861 95.108H204.557V95.972H203.801C203.377 95.972 203.033 96.092 202.769 96.332C202.513 96.564 202.385 96.928 202.385 97.424V101H201.437ZM208.438 101.168C207.846 101.168 207.326 101.044 206.878 100.796C206.43 100.54 206.082 100.184 205.834 99.728C205.586 99.272 205.462 98.744 205.462 98.144V98C205.462 97.392 205.586 96.86 205.834 96.404C206.082 95.948 206.426 95.596 206.866 95.348C207.306 95.092 207.81 94.964 208.378 94.964C208.93 94.964 209.418 95.084 209.842 95.324C210.266 95.556 210.598 95.892 210.838 96.332C211.078 96.772 211.198 97.288 211.198 97.88V98.312H206.41C206.434 98.944 206.638 99.44 207.022 99.8C207.406 100.152 207.886 100.328 208.462 100.328C208.966 100.328 209.354 100.212 209.626 99.98C209.898 99.748 210.106 99.472 210.25 99.152L211.066 99.548C210.946 99.796 210.778 100.044 210.562 100.292C210.354 100.54 210.078 100.748 209.734 100.916C209.398 101.084 208.966 101.168 208.438 101.168ZM206.422 97.532H210.238C210.206 96.988 210.018 96.564 209.674 96.26C209.338 95.956 208.906 95.804 208.378 95.804C207.842 95.804 207.402 95.956 207.058 96.26C206.714 96.564 206.502 96.988 206.422 97.532ZM212.851 101V92.6H213.799V101H212.851ZM215.793 101V95.132H216.741V101H215.793ZM216.273 94.22C216.065 94.22 215.889 94.152 215.745 94.016C215.609 93.88 215.541 93.708 215.541 93.5C215.541 93.284 215.609 93.108 215.745 92.972C215.889 92.836 216.065 92.768 216.273 92.768C216.481 92.768 216.653 92.836 216.789 92.972C216.925 93.108 216.993 93.284 216.993 93.5C216.993 93.708 216.925 93.88 216.789 94.016C216.653 94.152 216.481 94.22 216.273 94.22ZM220.534 101.168C220.126 101.168 219.754 101.096 219.418 100.952C219.082 100.808 218.818 100.6 218.626 100.328C218.434 100.056 218.338 99.724 218.338 99.332C218.338 98.932 218.434 98.604 218.626 98.348C218.818 98.084 219.082 97.888 219.418 97.76C219.754 97.624 220.13 97.556 220.546 97.556H222.526V97.124C222.526 96.708 222.402 96.38 222.154 96.14C221.914 95.9 221.554 95.78 221.074 95.78C220.602 95.78 220.234 95.896 219.97 96.128C219.706 96.352 219.526 96.656 219.43 97.04L218.542 96.752C218.638 96.424 218.79 96.128 218.998 95.864C219.206 95.592 219.482 95.376 219.826 95.216C220.178 95.048 220.598 94.964 221.086 94.964C221.838 94.964 222.422 95.16 222.838 95.552C223.254 95.936 223.462 96.48 223.462 97.184V99.836C223.462 100.076 223.574 100.196 223.798 100.196H224.338V101H223.51C223.246 101 223.034 100.928 222.874 100.784C222.714 100.632 222.634 100.432 222.634 100.184V100.124H222.49C222.402 100.276 222.282 100.436 222.13 100.604C221.986 100.764 221.786 100.896 221.53 101C221.274 101.112 220.942 101.168 220.534 101.168ZM220.642 100.352C221.202 100.352 221.654 100.188 221.998 99.86C222.35 99.524 222.526 99.056 222.526 98.456V98.324H220.582C220.206 98.324 219.894 98.408 219.646 98.576C219.406 98.736 219.286 98.98 219.286 99.308C219.286 99.636 219.41 99.892 219.658 100.076C219.914 100.26 220.242 100.352 220.642 100.352ZM228.889 101.168C228.281 101.168 227.805 101.052 227.461 100.82C227.125 100.588 226.881 100.324 226.729 100.028H226.561V101H225.637V92.6H226.585V96.056H226.753C226.849 95.872 226.985 95.7 227.161 95.54C227.337 95.372 227.565 95.236 227.845 95.132C228.133 95.02 228.481 94.964 228.889 94.964C229.401 94.964 229.865 95.088 230.281 95.336C230.705 95.576 231.041 95.924 231.289 96.38C231.537 96.828 231.661 97.364 231.661 97.988V98.144C231.661 98.768 231.533 99.308 231.277 99.764C231.029 100.22 230.693 100.568 230.269 100.808C229.853 101.048 229.393 101.168 228.889 101.168ZM228.637 100.328C229.245 100.328 229.737 100.136 230.113 99.752C230.497 99.36 230.689 98.816 230.689 98.12V98.012C230.689 97.316 230.497 96.776 230.113 96.392C229.737 96 229.245 95.804 228.637 95.804C228.037 95.804 227.541 96 227.149 96.392C226.765 96.776 226.573 97.316 226.573 98.012V98.12C226.573 98.816 226.765 99.36 227.149 99.752C227.541 100.136 228.037 100.328 228.637 100.328ZM233.359 101V95.132H234.307V101H233.359ZM233.839 94.22C233.631 94.22 233.455 94.152 233.311 94.016C233.175 93.88 233.107 93.708 233.107 93.5C233.107 93.284 233.175 93.108 233.311 92.972C233.455 92.836 233.631 92.768 233.839 92.768C234.047 92.768 234.219 92.836 234.355 92.972C234.491 93.108 234.559 93.284 234.559 93.5C234.559 93.708 234.491 93.88 234.355 94.016C234.219 94.152 234.047 94.22 233.839 94.22ZM236.301 101V92.6H237.249V101H236.301ZM239.242 101V95.132H240.19V101H239.242ZM239.722 94.22C239.514 94.22 239.338 94.152 239.194 94.016C239.058 93.88 238.99 93.708 238.99 93.5C238.99 93.284 239.058 93.108 239.194 92.972C239.338 92.836 239.514 92.768 239.722 92.768C239.93 92.768 240.102 92.836 240.238 92.972C240.374 93.108 240.442 93.284 240.442 93.5C240.442 93.708 240.374 93.88 240.238 94.016C240.102 94.152 239.93 94.22 239.722 94.22ZM244.344 101C244.008 101 243.748 100.908 243.564 100.724C243.388 100.54 243.3 100.288 243.3 99.968V95.96H241.536V95.132H243.3V93.044H244.248V95.132H246.168V95.96H244.248V99.824C244.248 100.064 244.364 100.184 244.596 100.184H245.904V101H244.344ZM248.411 103.4V102.56H251.771C252.003 102.56 252.119 102.44 252.119 102.2V100.064H251.951C251.871 100.232 251.747 100.4 251.579 100.568C251.419 100.728 251.207 100.86 250.943 100.964C250.679 101.06 250.347 101.108 249.947 101.108C249.523 101.108 249.131 101.016 248.771 100.832C248.419 100.648 248.139 100.376 247.931 100.016C247.731 99.656 247.631 99.216 247.631 98.696V95.132H248.579V98.624C248.579 99.2 248.723 99.62 249.011 99.884C249.307 100.148 249.703 100.28 250.199 100.28C250.759 100.28 251.219 100.096 251.579 99.728C251.939 99.36 252.119 98.812 252.119 98.084V95.132H253.067V102.368C253.067 102.688 252.975 102.94 252.791 103.124C252.615 103.308 252.355 103.4 252.011 103.4H248.411ZM255.567 101.168C255.335 101.168 255.139 101.092 254.979 100.94C254.827 100.788 254.751 100.592 254.751 100.352C254.751 100.112 254.827 99.916 254.979 99.764C255.139 99.612 255.335 99.536 255.567 99.536C255.807 99.536 256.003 99.612 256.155 99.764C256.307 99.916 256.383 100.112 256.383 100.352C256.383 100.592 256.307 100.788 256.155 100.94C256.003 101.092 255.807 101.168 255.567 101.168Z" fill="black"/>
</g>
<path opacity="0.4" d="M93.5592 88.3C91.4967 93.5875 86.4717 97 80.8092 97H58.6841C52.9841 97 47.9966 93.5875 45.9341 88.3C43.8716 82.975 45.2966 77.0875 49.4966 73.2625L64.6842 59.5H74.8467L89.9967 73.2625C94.1967 77.0875 95.5842 82.975 93.5592 88.3Z" fill="#426EEB"/>
<path d="M76.5735 82.525H62.9235C61.4985 82.525 60.3735 81.3625 60.3735 79.975C60.3735 78.55 61.536 77.425 62.9235 77.425H76.5735C77.9985 77.425 79.1235 78.5875 79.1235 79.975C79.1235 81.3625 77.961 82.525 76.5735 82.525Z" fill="#426EEB"/>
<path d="M93.5633 30.7C91.5008 25.4125 86.4758 22 80.8133 22H58.6885C53.026 22 48.001 25.4125 45.9385 30.7C43.9135 36.025 45.301 41.9125 49.5385 45.7375L64.6883 59.5H74.8508L90.0008 45.7375C94.2008 41.9125 95.5883 36.025 93.5633 30.7ZM76.5758 41.6125H62.9258C61.501 41.6125 60.376 40.45 60.376 39.0625C60.376 37.675 61.5385 36.5125 62.9258 36.5125H76.5758C78.0008 36.5125 79.1258 37.675 79.1258 39.0625C79.1258 40.45 77.9633 41.6125 76.5758 41.6125Z" fill="#426EEB"/>
<defs>
<filter id="filter0_d_496_991" x="0" y="0" width="352" height="124" filterUnits="userSpaceOnUse" color-interpolation-filters="sRGB">
<feFlood flood-opacity="0" result="BackgroundImageFix"/>
<feColorMatrix in="SourceAlpha" type="matrix" values="0 0 0 0 0 0 0 0 0 0 0 0 0 0 0 0 0 0 127 0" result="hardAlpha"/>
<feOffset dy="2"/>
<feGaussianBlur stdDeviation="2"/>
<feComposite in2="hardAlpha" operator="out"/>
<feColorMatrix type="matrix" values="0 0 0 0 0 0 0 0 0 0 0 0 0 0 0 0 0 0 0.05 0"/>
<feBlend mode="normal" in2="BackgroundImageFix" result="effect1_dropShadow_496_991"/>
<feBlend mode="normal" in="SourceGraphic" in2="effect1_dropShadow_496_991" result="shape"/>
</filter>
<filter id="filter1_d_496_991" x="138.528" y="17.8" width="195.589" height="39.424" filterUnits="userSpaceOnUse" color-interpolation-filters="sRGB">
<feFlood flood-opacity="0" result="BackgroundImageFix"/>
<feColorMatrix in="SourceAlpha" type="matrix" values="0 0 0 0 0 0 0 0 0 0 0 0 0 0 0 0 0 0 127 0" result="hardAlpha"/>
<feOffset dy="2"/>
<feGaussianBlur stdDeviation="2"/>
<feComposite in2="hardAlpha" operator="out"/>
<feColorMatrix type="matrix" values="0 0 0 0 0 0 0 0 0 0 0 0 0 0 0 0 0 0 0.05 0"/>
<feBlend mode="normal" in2="BackgroundImageFix" result="effect1_dropShadow_496_991"/>
<feBlend mode="normal" in="SourceGraphic" in2="effect1_dropShadow_496_991" result="shape"/>
</filter>
<filter id="filter2_d_496_991" x="138.348" y="60.6" width="187.474" height="48.8" filterUnits="userSpaceOnUse" color-interpolation-filters="sRGB">
<feFlood flood-opacity="0" result="BackgroundImageFix"/>
<feColorMatrix in="SourceAlpha" type="matrix" values="0 0 0 0 0 0 0 0 0 0 0 0 0 0 0 0 0 0 127 0" result="hardAlpha"/>
<feOffset dy="2"/>
<feGaussianBlur stdDeviation="2"/>
<feComposite in2="hardAlpha" operator="out"/>
<feColorMatrix type="matrix" values="0 0 0 0 0 0 0 0 0 0 0 0 0 0 0 0 0 0 0.05 0"/>
<feBlend mode="normal" in2="BackgroundImageFix" result="effect1_dropShadow_496_991"/>
<feBlend mode="normal" in="SourceGraphic" in2="effect1_dropShadow_496_991" result="shape"/>
</filter>
</defs>
</svg>
