<svg width="352" height="93" viewBox="0 0 352 93" fill="none" xmlns="http://www.w3.org/2000/svg">
<g filter="url(#filter0_d_496_992)">
<rect x="4.25" y="2.25" width="343.5" height="84.5" rx="9.75" fill="#F5F5F5" stroke="black" stroke-width="0.5"/>
<path d="M27.168 33.8334V22.6334H31.616C32.2987 22.6334 32.9067 22.772 33.44 23.0494C33.984 23.316 34.4053 23.7 34.704 24.2014C35.0133 24.692 35.168 25.284 35.168 25.9774V26.1854C35.168 26.8787 35.008 27.476 34.688 27.9774C34.3787 28.4787 33.9573 28.8627 33.424 29.1294C32.8907 29.396 32.288 29.5294 31.616 29.5294H28.896V33.8334H27.168ZM28.896 27.9614H31.44C32.048 27.9614 32.5333 27.8014 32.896 27.4814C33.2587 27.1614 33.44 26.724 33.44 26.1694V26.0094C33.44 25.444 33.2587 25.0014 32.896 24.6814C32.5333 24.3614 32.048 24.2014 31.44 24.2014H28.896V27.9614ZM39.1328 34.0574C38.5674 34.0574 38.0608 33.9614 37.6128 33.7694C37.1754 33.5774 36.8234 33.2947 36.5568 32.9214C36.3008 32.548 36.1728 32.0947 36.1728 31.5614C36.1728 31.0174 36.3008 30.5694 36.5568 30.2174C36.8234 29.8547 37.1808 29.5827 37.6288 29.4014C38.0874 29.22 38.6048 29.1294 39.1808 29.1294H41.5808V28.6174C41.5808 28.1587 41.4421 27.7907 41.1648 27.5134C40.8874 27.236 40.4608 27.0974 39.8848 27.0974C39.3194 27.0974 38.8874 27.2307 38.5888 27.4974C38.2901 27.764 38.0928 28.1107 37.9968 28.5374L36.4608 28.0414C36.5888 27.6147 36.7914 27.2307 37.0688 26.8894C37.3568 26.5374 37.7354 26.2547 38.2048 26.0414C38.6741 25.828 39.2394 25.7214 39.9008 25.7214C40.9248 25.7214 41.7301 25.9827 42.3168 26.5054C42.9034 27.028 43.1968 27.7694 43.1968 28.7294V31.9774C43.1968 32.2974 43.3461 32.4574 43.6448 32.4574H44.3168V33.8334H43.0848C42.7114 33.8334 42.4074 33.7374 42.1728 33.5454C41.9381 33.3534 41.8208 33.092 41.8208 32.7614V32.7134H41.5808C41.4954 32.8734 41.3674 33.06 41.1968 33.2734C41.0261 33.4867 40.7754 33.6734 40.4448 33.8334C40.1141 33.9827 39.6768 34.0574 39.1328 34.0574ZM39.3728 32.6974C40.0341 32.6974 40.5674 32.5107 40.9728 32.1374C41.3781 31.7534 41.5808 31.2307 41.5808 30.5694V30.4094H39.2768C38.8394 30.4094 38.4874 30.5054 38.2208 30.6974C37.9541 30.8787 37.8207 31.1507 37.8207 31.5134C37.8207 31.876 37.9594 32.164 38.2368 32.3774C38.5141 32.5907 38.8928 32.6974 39.3728 32.6974ZM46.628 37.0334V35.5934H51.028C51.3267 35.5934 51.476 35.4334 51.476 35.1134V32.6814H51.22C51.124 32.8947 50.9747 33.1027 50.772 33.3054C50.58 33.4974 50.3187 33.6574 49.988 33.7854C49.6573 33.9134 49.2413 33.9774 48.74 33.9774C48.1427 33.9774 47.6093 33.844 47.14 33.5774C46.6707 33.3107 46.3027 32.932 46.036 32.4414C45.7693 31.9507 45.636 31.3694 45.636 30.6974V25.9454H47.284V30.5694C47.284 31.252 47.4547 31.7587 47.796 32.0894C48.1373 32.4094 48.612 32.5694 49.22 32.5694C49.892 32.5694 50.4307 32.3454 50.836 31.8974C51.252 31.4494 51.46 30.7987 51.46 29.9454V25.9454H53.108V35.4494C53.108 35.9294 52.964 36.3134 52.676 36.6014C52.3987 36.8894 52.0147 37.0334 51.524 37.0334H46.628ZM60.5343 37.0334V35.5934H64.9343C65.2329 35.5934 65.3823 35.4334 65.3823 35.1134V32.6814H65.1263C65.0303 32.8947 64.8809 33.1027 64.6783 33.3054C64.4863 33.4974 64.2249 33.6574 63.8943 33.7854C63.5636 33.9134 63.1476 33.9774 62.6463 33.9774C62.0489 33.9774 61.5156 33.844 61.0463 33.5774C60.5769 33.3107 60.2089 32.932 59.9423 32.4414C59.6756 31.9507 59.5423 31.3694 59.5423 30.6974V25.9454H61.1903V30.5694C61.1903 31.252 61.3609 31.7587 61.7023 32.0894C62.0436 32.4094 62.5183 32.5694 63.1263 32.5694C63.7983 32.5694 64.3369 32.3454 64.7423 31.8974C65.1583 31.4494 65.3663 30.7987 65.3663 29.9454V25.9454H67.0143V35.4494C67.0143 35.9294 66.8703 36.3134 66.5823 36.6014C66.3049 36.8894 65.9209 37.0334 65.4303 37.0334H60.5343ZM73.1464 34.0574C72.357 34.0574 71.653 33.8974 71.0344 33.5774C70.4264 33.2467 69.9464 32.7774 69.5944 32.1694C69.2424 31.5614 69.0664 30.8414 69.0664 30.0094V29.7694C69.0664 28.9374 69.2424 28.2227 69.5944 27.6254C69.9464 27.0174 70.4264 26.548 71.0344 26.2174C71.653 25.8867 72.357 25.7214 73.1464 25.7214C73.9357 25.7214 74.6397 25.8867 75.2584 26.2174C75.877 26.548 76.3624 27.0174 76.7144 27.6254C77.0664 28.2227 77.2424 28.9374 77.2424 29.7694V30.0094C77.2424 30.8414 77.0664 31.5614 76.7144 32.1694C76.3624 32.7774 75.877 33.2467 75.2584 33.5774C74.6397 33.8974 73.9357 34.0574 73.1464 34.0574ZM73.1464 32.5854C73.8717 32.5854 74.4584 32.356 74.9064 31.8974C75.365 31.428 75.5944 30.7827 75.5944 29.9614V29.8174C75.5944 28.996 75.3704 28.356 74.9224 27.8974C74.4744 27.428 73.8824 27.1934 73.1464 27.1934C72.4317 27.1934 71.845 27.428 71.3864 27.8974C70.9384 28.356 70.7144 28.996 70.7144 29.8174V29.9614C70.7144 30.7827 70.9384 31.428 71.3864 31.8974C71.845 32.356 72.4317 32.5854 73.1464 32.5854ZM82.3181 33.9774C81.7208 33.9774 81.1875 33.844 80.7181 33.5774C80.2488 33.3107 79.8808 32.932 79.6141 32.4414C79.3475 31.9507 79.2141 31.364 79.2141 30.6814V25.9454H80.8621V30.5694C80.8621 31.252 81.0328 31.7587 81.3741 32.0894C81.7155 32.4094 82.1901 32.5694 82.7981 32.5694C83.4701 32.5694 84.0088 32.3454 84.4141 31.8974C84.8301 31.4387 85.0381 30.7827 85.0381 29.9294V25.9454H86.6861V33.8334H85.0701V32.6494H84.8141C84.6648 32.9694 84.3981 33.2734 84.0141 33.5614C83.6301 33.8387 83.0648 33.9774 82.3181 33.9774ZM89.1223 33.8334V25.9454H90.7383V26.8734H90.9943C91.1223 26.5427 91.3249 26.3027 91.6023 26.1534C91.8903 25.9934 92.2423 25.9134 92.6583 25.9134H93.6023V27.4014H92.5943C92.0609 27.4014 91.6236 27.5507 91.2823 27.8494C90.9409 28.1374 90.7703 28.5854 90.7703 29.1934V33.8334H89.1223ZM99.3879 33.8334V22.6334H101.036V33.8334H99.3879ZM103.482 33.8334V25.9454H105.13V33.8334H103.482ZM104.314 24.8734C103.994 24.8734 103.722 24.772 103.498 24.5694C103.284 24.356 103.178 24.084 103.178 23.7534C103.178 23.4227 103.284 23.156 103.498 22.9534C103.722 22.74 103.994 22.6334 104.314 22.6334C104.644 22.6334 104.916 22.74 105.13 22.9534C105.343 23.156 105.45 23.4227 105.45 23.7534C105.45 24.084 105.343 24.356 105.13 24.5694C104.916 24.772 104.644 24.8734 104.314 24.8734ZM110.807 34.0574C109.805 34.0574 108.973 33.8334 108.311 33.3854C107.65 32.9374 107.245 32.26 107.095 31.3534L108.631 30.9854C108.717 31.4227 108.861 31.7694 109.063 32.0254C109.266 32.2814 109.517 32.4627 109.815 32.5694C110.125 32.676 110.455 32.7294 110.807 32.7294C111.33 32.7294 111.73 32.628 112.007 32.4254C112.295 32.2227 112.439 31.9614 112.439 31.6414C112.439 31.3214 112.306 31.0867 112.039 30.9374C111.773 30.788 111.378 30.6654 110.855 30.5694L110.311 30.4734C109.778 30.3774 109.293 30.2387 108.855 30.0574C108.418 29.876 108.071 29.6254 107.815 29.3054C107.559 28.9854 107.431 28.5747 107.431 28.0734C107.431 27.3267 107.709 26.7507 108.263 26.3454C108.818 25.9294 109.554 25.7214 110.471 25.7214C111.357 25.7214 112.082 25.924 112.647 26.3294C113.223 26.724 113.597 27.2627 113.767 27.9454L112.231 28.3774C112.135 27.8974 111.933 27.5614 111.623 27.3694C111.314 27.1667 110.93 27.0654 110.471 27.0654C110.023 27.0654 109.671 27.1507 109.415 27.3214C109.159 27.4814 109.031 27.7107 109.031 28.0094C109.031 28.3294 109.154 28.564 109.399 28.7134C109.655 28.8627 109.997 28.9747 110.423 29.0494L110.983 29.1454C111.549 29.2414 112.066 29.3747 112.535 29.5454C113.005 29.716 113.373 29.9614 113.639 30.2814C113.917 30.6014 114.055 31.028 114.055 31.5614C114.055 32.3507 113.762 32.964 113.175 33.4014C112.589 33.8387 111.799 34.0574 110.807 34.0574ZM118.77 33.8334C118.29 33.8334 117.906 33.6894 117.618 33.4014C117.34 33.1134 117.202 32.7294 117.202 32.2494V27.3374H115.026V25.9454H117.202V23.3374H118.85V25.9454H121.202V27.3374H118.85V31.9614C118.85 32.2814 118.999 32.4414 119.298 32.4414H120.946V33.8334H118.77ZM123.138 33.8334V25.9454H124.786V33.8334H123.138ZM123.97 24.8734C123.65 24.8734 123.378 24.772 123.154 24.5694C122.941 24.356 122.834 24.084 122.834 23.7534C122.834 23.4227 122.941 23.156 123.154 22.9534C123.378 22.74 123.65 22.6334 123.97 22.6334C124.301 22.6334 124.573 22.74 124.786 22.9534C124.999 23.156 125.106 23.4227 125.106 23.7534C125.106 24.084 124.999 24.356 124.786 24.5694C124.573 24.772 124.301 24.8734 123.97 24.8734ZM127.232 33.8334V25.9454H128.848V27.1294H129.104C129.253 26.8094 129.52 26.5107 129.904 26.2334C130.288 25.956 130.858 25.8174 131.616 25.8174C132.213 25.8174 132.741 25.9507 133.2 26.2174C133.669 26.484 134.037 26.8627 134.304 27.3534C134.57 27.8334 134.704 28.4147 134.704 29.0974V33.8334H133.056V29.2254C133.056 28.5427 132.885 28.0414 132.544 27.7214C132.202 27.3907 131.733 27.2254 131.136 27.2254C130.453 27.2254 129.904 27.4494 129.488 27.8974C129.082 28.3454 128.88 28.996 128.88 29.8494V33.8334H127.232ZM136.691 29.9294V29.6894C136.691 28.8574 136.857 28.148 137.187 27.5614C137.529 26.9747 137.977 26.5214 138.531 26.2014C139.086 25.8814 139.694 25.7214 140.355 25.7214C141.123 25.7214 141.71 25.8654 142.115 26.1534C142.531 26.4414 142.835 26.7507 143.027 27.0814H143.283V25.9454H144.883V35.4494C144.883 35.9294 144.739 36.3134 144.451 36.6014C144.174 36.8894 143.79 37.0334 143.299 37.0334H137.987V35.5934H142.787C143.097 35.5934 143.251 35.4334 143.251 35.1134V32.6014H142.995C142.878 32.7934 142.713 32.9907 142.499 33.1934C142.286 33.396 142.003 33.5614 141.651 33.6894C141.31 33.8174 140.878 33.8814 140.355 33.8814C139.694 33.8814 139.081 33.7267 138.515 33.4174C137.961 33.0974 137.518 32.644 137.187 32.0574C136.857 31.46 136.691 30.7507 136.691 29.9294ZM140.803 32.4414C141.518 32.4414 142.105 32.2174 142.563 31.7694C143.033 31.3107 143.267 30.6814 143.267 29.8814V29.7374C143.267 28.916 143.038 28.2867 142.579 27.8494C142.121 27.4014 141.529 27.1774 140.803 27.1774C140.099 27.1774 139.513 27.4014 139.043 27.8494C138.585 28.2867 138.355 28.916 138.355 29.7374V29.8814C138.355 30.6814 138.585 31.3107 139.043 31.7694C139.513 32.2174 140.099 32.4414 140.803 32.4414ZM152.812 33.8334V27.3374H150.604V25.9454H152.812V24.2174C152.812 23.7374 152.956 23.3534 153.244 23.0654C153.532 22.7774 153.916 22.6334 154.396 22.6334H156.428V24.0254H154.924C154.615 24.0254 154.46 24.1854 154.46 24.5054V25.9454H156.732V27.3374H154.46V33.8334H152.812ZM161.723 34.0574C160.923 34.0574 160.224 33.892 159.627 33.5614C159.029 33.22 158.56 32.7454 158.219 32.1374C157.888 31.5187 157.723 30.804 157.723 29.9934V29.8014C157.723 28.98 157.888 28.2654 158.219 27.6574C158.549 27.0387 159.008 26.564 159.595 26.2334C160.192 25.892 160.88 25.7214 161.659 25.7214C162.416 25.7214 163.077 25.892 163.643 26.2334C164.219 26.564 164.667 27.028 164.987 27.6254C165.307 28.2227 165.467 28.9214 165.467 29.7214V30.3454H159.403C159.424 31.0387 159.653 31.5934 160.091 32.0094C160.539 32.4147 161.093 32.6174 161.755 32.6174C162.373 32.6174 162.837 32.4787 163.147 32.2014C163.467 31.924 163.712 31.604 163.883 31.2414L165.243 31.9454C165.093 32.244 164.875 32.5587 164.587 32.8894C164.309 33.22 163.941 33.4974 163.483 33.7214C163.024 33.9454 162.437 34.0574 161.723 34.0574ZM159.419 29.0814H163.787C163.744 28.484 163.531 28.02 163.147 27.6894C162.763 27.348 162.261 27.1774 161.643 27.1774C161.024 27.1774 160.517 27.348 160.123 27.6894C159.739 28.02 159.504 28.484 159.419 29.0814ZM171.066 34.0574C170.266 34.0574 169.568 33.892 168.97 33.5614C168.373 33.22 167.904 32.7454 167.562 32.1374C167.232 31.5187 167.066 30.804 167.066 29.9934V29.8014C167.066 28.98 167.232 28.2654 167.562 27.6574C167.893 27.0387 168.352 26.564 168.938 26.2334C169.536 25.892 170.224 25.7214 171.002 25.7214C171.76 25.7214 172.421 25.892 172.986 26.2334C173.562 26.564 174.01 27.028 174.33 27.6254C174.65 28.2227 174.81 28.9214 174.81 29.7214V30.3454H168.746C168.768 31.0387 168.997 31.5934 169.434 32.0094C169.882 32.4147 170.437 32.6174 171.098 32.6174C171.717 32.6174 172.181 32.4787 172.49 32.2014C172.81 31.924 173.056 31.604 173.226 31.2414L174.586 31.9454C174.437 32.244 174.218 32.5587 173.93 32.8894C173.653 33.22 173.285 33.4974 172.826 33.7214C172.368 33.9454 171.781 34.0574 171.066 34.0574ZM168.762 29.0814H173.13C173.088 28.484 172.874 28.02 172.49 27.6894C172.106 27.348 171.605 27.1774 170.986 27.1774C170.368 27.1774 169.861 27.348 169.466 27.6894C169.082 28.02 168.848 28.484 168.762 29.0814Z" fill="black"/>
<path d="M26.96 52V43.6H30.176C30.68 43.6 31.128 43.7 31.52 43.9C31.92 44.092 32.236 44.368 32.468 44.728C32.7 45.088 32.816 45.524 32.816 46.036V46.192C32.816 46.696 32.696 47.132 32.456 47.5C32.224 47.86 31.908 48.136 31.508 48.328C31.108 48.52 30.664 48.616 30.176 48.616H27.968V52H26.96ZM27.968 47.704H30.068C30.604 47.704 31.028 47.572 31.34 47.308C31.652 47.036 31.808 46.656 31.808 46.168V46.048C31.808 45.56 31.652 45.184 31.34 44.92C31.036 44.648 30.612 44.512 30.068 44.512H27.968V47.704ZM35.8741 52.168C35.4661 52.168 35.0941 52.096 34.7581 51.952C34.4221 51.808 34.1581 51.6 33.9661 51.328C33.7741 51.056 33.6781 50.724 33.6781 50.332C33.6781 49.932 33.7741 49.604 33.9661 49.348C34.1581 49.084 34.4221 48.888 34.7581 48.76C35.0941 48.624 35.4701 48.556 35.8861 48.556H37.8661V48.124C37.8661 47.708 37.7421 47.38 37.4941 47.14C37.2541 46.9 36.8941 46.78 36.4141 46.78C35.9421 46.78 35.5741 46.896 35.3101 47.128C35.0461 47.352 34.8661 47.656 34.7701 48.04L33.8821 47.752C33.9781 47.424 34.1301 47.128 34.3381 46.864C34.5461 46.592 34.8221 46.376 35.1661 46.216C35.5181 46.048 35.9381 45.964 36.4261 45.964C37.1781 45.964 37.7621 46.16 38.1781 46.552C38.5941 46.936 38.8021 47.48 38.8021 48.184V50.836C38.8021 51.076 38.9141 51.196 39.1381 51.196H39.6781V52H38.8501C38.5861 52 38.3741 51.928 38.2141 51.784C38.0541 51.632 37.9741 51.432 37.9741 51.184V51.124H37.8301C37.7421 51.276 37.6221 51.436 37.4701 51.604C37.3261 51.764 37.1261 51.896 36.8701 52C36.6141 52.112 36.2821 52.168 35.8741 52.168ZM35.9821 51.352C36.5421 51.352 36.9941 51.188 37.3381 50.86C37.6901 50.524 37.8661 50.056 37.8661 49.456V49.324H35.9221C35.5461 49.324 35.2341 49.408 34.9861 49.576C34.7461 49.736 34.6261 49.98 34.6261 50.308C34.6261 50.636 34.7501 50.892 34.9981 51.076C35.2541 51.26 35.5821 51.352 35.9821 51.352ZM41.5321 54.4V53.56H44.8921C45.1241 53.56 45.2401 53.44 45.2401 53.2V51.064H45.0721C44.9921 51.232 44.8681 51.4 44.7001 51.568C44.5401 51.728 44.3281 51.86 44.0641 51.964C43.8001 52.06 43.4681 52.108 43.0681 52.108C42.6441 52.108 42.2521 52.016 41.8921 51.832C41.5401 51.648 41.2601 51.376 41.0521 51.016C40.8521 50.656 40.7521 50.216 40.7521 49.696V46.132H41.7001V49.624C41.7001 50.2 41.8441 50.62 42.1321 50.884C42.4281 51.148 42.8241 51.28 43.3201 51.28C43.8801 51.28 44.3401 51.096 44.7001 50.728C45.0601 50.36 45.2401 49.812 45.2401 49.084V46.132H46.1881V53.368C46.1881 53.688 46.0961 53.94 45.9121 54.124C45.7361 54.308 45.4761 54.4 45.1321 54.4H41.5321ZM53.0538 52.168C52.6458 52.168 52.2738 52.096 51.9378 51.952C51.6018 51.808 51.3378 51.6 51.1458 51.328C50.9538 51.056 50.8578 50.724 50.8578 50.332C50.8578 49.932 50.9538 49.604 51.1458 49.348C51.3378 49.084 51.6018 48.888 51.9378 48.76C52.2738 48.624 52.6498 48.556 53.0658 48.556H55.0458V48.124C55.0458 47.708 54.9218 47.38 54.6738 47.14C54.4338 46.9 54.0738 46.78 53.5938 46.78C53.1218 46.78 52.7538 46.896 52.4898 47.128C52.2258 47.352 52.0458 47.656 51.9498 48.04L51.0618 47.752C51.1578 47.424 51.3098 47.128 51.5178 46.864C51.7258 46.592 52.0018 46.376 52.3458 46.216C52.6978 46.048 53.1178 45.964 53.6058 45.964C54.3578 45.964 54.9418 46.16 55.3578 46.552C55.7738 46.936 55.9818 47.48 55.9818 48.184V50.836C55.9818 51.076 56.0938 51.196 56.3178 51.196H56.8578V52H56.0298C55.7658 52 55.5538 51.928 55.3938 51.784C55.2338 51.632 55.1538 51.432 55.1538 51.184V51.124H55.0098C54.9218 51.276 54.8018 51.436 54.6498 51.604C54.5058 51.764 54.3058 51.896 54.0498 52C53.7938 52.112 53.4618 52.168 53.0538 52.168ZM53.1618 51.352C53.7218 51.352 54.1738 51.188 54.5178 50.86C54.8698 50.524 55.0458 50.056 55.0458 49.456V49.324H53.1018C52.7258 49.324 52.4138 49.408 52.1658 49.576C51.9258 49.736 51.8058 49.98 51.8058 50.308C51.8058 50.636 51.9298 50.892 52.1778 51.076C52.4338 51.26 52.7618 51.352 53.1618 51.352ZM60.6921 52.168C60.1241 52.168 59.6121 52.048 59.1561 51.808C58.7081 51.56 58.3521 51.208 58.0881 50.752C57.8321 50.296 57.7041 49.756 57.7041 49.132V49C57.7041 48.368 57.8321 47.828 58.0881 47.38C58.3521 46.924 58.7081 46.576 59.1561 46.336C59.6121 46.088 60.1241 45.964 60.6921 45.964C61.2521 45.964 61.7281 46.068 62.1201 46.276C62.5201 46.484 62.8321 46.76 63.0561 47.104C63.2881 47.448 63.4361 47.816 63.5001 48.208L62.5761 48.4C62.5361 48.112 62.4401 47.848 62.2881 47.608C62.1441 47.368 61.9401 47.176 61.6761 47.032C61.4121 46.888 61.0881 46.816 60.7041 46.816C60.3121 46.816 59.9601 46.904 59.6481 47.08C59.3441 47.256 59.1001 47.508 58.9161 47.836C58.7401 48.164 58.6521 48.556 58.6521 49.012V49.12C58.6521 49.576 58.7401 49.968 58.9161 50.296C59.1001 50.624 59.3441 50.876 59.6481 51.052C59.9601 51.228 60.3121 51.316 60.7041 51.316C61.2881 51.316 61.7321 51.164 62.0361 50.86C62.3481 50.556 62.5401 50.18 62.6121 49.732L63.5481 49.936C63.4601 50.32 63.3001 50.684 63.0681 51.028C62.8361 51.372 62.5201 51.648 62.1201 51.856C61.7281 52.064 61.2521 52.168 60.6921 52.168ZM67.864 52.168C67.296 52.168 66.784 52.048 66.328 51.808C65.88 51.56 65.524 51.208 65.26 50.752C65.004 50.296 64.876 49.756 64.876 49.132V49C64.876 48.368 65.004 47.828 65.26 47.38C65.524 46.924 65.88 46.576 66.328 46.336C66.784 46.088 67.296 45.964 67.864 45.964C68.424 45.964 68.9 46.068 69.292 46.276C69.692 46.484 70.004 46.76 70.228 47.104C70.46 47.448 70.608 47.816 70.672 48.208L69.748 48.4C69.708 48.112 69.612 47.848 69.46 47.608C69.316 47.368 69.112 47.176 68.848 47.032C68.584 46.888 68.26 46.816 67.876 46.816C67.484 46.816 67.132 46.904 66.82 47.08C66.516 47.256 66.272 47.508 66.088 47.836C65.912 48.164 65.824 48.556 65.824 49.012V49.12C65.824 49.576 65.912 49.968 66.088 50.296C66.272 50.624 66.516 50.876 66.82 51.052C67.132 51.228 67.484 51.316 67.876 51.316C68.46 51.316 68.904 51.164 69.208 50.86C69.52 50.556 69.712 50.18 69.784 49.732L70.72 49.936C70.632 50.32 70.472 50.684 70.24 51.028C70.008 51.372 69.692 51.648 69.292 51.856C68.9 52.064 68.424 52.168 67.864 52.168ZM75.0478 52.168C74.4558 52.168 73.9318 52.044 73.4758 51.796C73.0278 51.548 72.6758 51.2 72.4198 50.752C72.1718 50.296 72.0478 49.76 72.0478 49.144V48.988C72.0478 48.38 72.1718 47.848 72.4198 47.392C72.6758 46.936 73.0278 46.584 73.4758 46.336C73.9318 46.088 74.4558 45.964 75.0478 45.964C75.6398 45.964 76.1598 46.088 76.6078 46.336C77.0638 46.584 77.4158 46.936 77.6638 47.392C77.9198 47.848 78.0478 48.38 78.0478 48.988V49.144C78.0478 49.76 77.9198 50.296 77.6638 50.752C77.4158 51.2 77.0638 51.548 76.6078 51.796C76.1598 52.044 75.6398 52.168 75.0478 52.168ZM75.0478 51.316C75.6718 51.316 76.1678 51.12 76.5358 50.728C76.9118 50.328 77.0998 49.792 77.0998 49.12V49.012C77.0998 48.34 76.9118 47.808 76.5358 47.416C76.1678 47.016 75.6718 46.816 75.0478 46.816C74.4318 46.816 73.9358 47.016 73.5598 47.416C73.1838 47.808 72.9958 48.34 72.9958 49.012V49.12C72.9958 49.792 73.1838 50.328 73.5598 50.728C73.9358 51.12 74.4318 51.316 75.0478 51.316ZM79.7538 52V46.132H80.6778V46.852H80.8458C80.9498 46.596 81.1098 46.408 81.3258 46.288C81.5418 46.168 81.8258 46.108 82.1778 46.108H82.8738V46.972H82.1178C81.6938 46.972 81.3498 47.092 81.0858 47.332C80.8298 47.564 80.7018 47.928 80.7018 48.424V52H79.7538ZM86.5503 52.168C86.0463 52.168 85.5823 52.048 85.1583 51.808C84.7343 51.568 84.3983 51.22 84.1503 50.764C83.9023 50.308 83.7783 49.768 83.7783 49.144V48.988C83.7783 48.364 83.9023 47.828 84.1503 47.38C84.3983 46.924 84.7303 46.576 85.1463 46.336C85.5703 46.088 86.0383 45.964 86.5503 45.964C86.9583 45.964 87.3023 46.02 87.5823 46.132C87.8703 46.236 88.1023 46.372 88.2783 46.54C88.4543 46.7 88.5903 46.872 88.6863 47.056H88.8543V43.6H89.8023V52H88.8783V51.028H88.7103C88.5503 51.324 88.3023 51.588 87.9663 51.82C87.6303 52.052 87.1583 52.168 86.5503 52.168ZM86.8023 51.328C87.4103 51.328 87.9023 51.136 88.2783 50.752C88.6623 50.36 88.8543 49.816 88.8543 49.12V49.012C88.8543 48.316 88.6623 47.776 88.2783 47.392C87.9023 47 87.4103 46.804 86.8023 46.804C86.2023 46.804 85.7063 47 85.3143 47.392C84.9303 47.776 84.7383 48.316 84.7383 49.012V49.12C84.7383 49.816 84.9303 50.36 85.3143 50.752C85.7063 51.136 86.2023 51.328 86.8023 51.328ZM91.789 52V46.132H92.737V52H91.789ZM92.269 45.22C92.061 45.22 91.885 45.152 91.741 45.016C91.605 44.88 91.537 44.708 91.537 44.5C91.537 44.284 91.605 44.108 91.741 43.972C91.885 43.836 92.061 43.768 92.269 43.768C92.477 43.768 92.649 43.836 92.785 43.972C92.921 44.108 92.989 44.284 92.989 44.5C92.989 44.708 92.921 44.88 92.785 45.016C92.649 45.152 92.477 45.22 92.269 45.22ZM94.7304 52V46.132H95.6544V47.128H95.8224C95.9504 46.848 96.1664 46.596 96.4704 46.372C96.7824 46.14 97.2384 46.024 97.8384 46.024C98.2784 46.024 98.6704 46.116 99.0144 46.3C99.3664 46.484 99.6464 46.756 99.8544 47.116C100.062 47.476 100.166 47.92 100.166 48.448V52H99.2184V48.52C99.2184 47.936 99.0704 47.512 98.7744 47.248C98.4864 46.984 98.0944 46.852 97.5984 46.852C97.0304 46.852 96.5664 47.036 96.2064 47.404C95.8544 47.772 95.6784 48.32 95.6784 49.048V52H94.7304ZM101.802 49.096V48.928C101.802 48.312 101.926 47.784 102.174 47.344C102.422 46.904 102.758 46.564 103.182 46.324C103.606 46.084 104.07 45.964 104.574 45.964C105.19 45.964 105.662 46.084 105.99 46.324C106.326 46.556 106.574 46.816 106.734 47.104H106.902V46.132H107.802V53.368C107.802 53.688 107.714 53.94 107.538 54.124C107.362 54.308 107.106 54.4 106.77 54.4H102.786V53.56H106.518C106.758 53.56 106.878 53.44 106.878 53.2V50.968H106.71C106.614 51.144 106.478 51.316 106.302 51.484C106.126 51.652 105.898 51.792 105.618 51.904C105.338 52.008 104.99 52.06 104.574 52.06C104.07 52.06 103.606 51.94 103.182 51.7C102.758 51.46 102.422 51.12 102.174 50.68C101.926 50.232 101.802 49.704 101.802 49.096ZM104.826 51.22C105.434 51.22 105.926 51.028 106.302 50.644C106.686 50.26 106.878 49.732 106.878 49.06V48.964C106.878 48.284 106.686 47.756 106.302 47.38C105.926 46.996 105.434 46.804 104.826 46.804C104.226 46.804 103.73 46.996 103.338 47.38C102.954 47.756 102.762 48.284 102.762 48.964V49.06C102.762 49.732 102.954 50.26 103.338 50.644C103.73 51.028 104.226 51.22 104.826 51.22ZM115.031 52C114.695 52 114.435 51.908 114.251 51.724C114.075 51.54 113.987 51.288 113.987 50.968V46.96H112.223V46.132H113.987V44.044H114.935V46.132H116.855V46.96H114.935V50.824C114.935 51.064 115.051 51.184 115.283 51.184H116.591V52H115.031ZM120.892 52.168C120.3 52.168 119.776 52.044 119.32 51.796C118.872 51.548 118.52 51.2 118.264 50.752C118.016 50.296 117.892 49.76 117.892 49.144V48.988C117.892 48.38 118.016 47.848 118.264 47.392C118.52 46.936 118.872 46.584 119.32 46.336C119.776 46.088 120.3 45.964 120.892 45.964C121.484 45.964 122.004 46.088 122.452 46.336C122.908 46.584 123.26 46.936 123.508 47.392C123.764 47.848 123.892 48.38 123.892 48.988V49.144C123.892 49.76 123.764 50.296 123.508 50.752C123.26 51.2 122.908 51.548 122.452 51.796C122.004 52.044 121.484 52.168 120.892 52.168ZM120.892 51.316C121.516 51.316 122.012 51.12 122.38 50.728C122.756 50.328 122.944 49.792 122.944 49.12V49.012C122.944 48.34 122.756 47.808 122.38 47.416C122.012 47.016 121.516 46.816 120.892 46.816C120.276 46.816 119.78 47.016 119.404 47.416C119.028 47.808 118.84 48.34 118.84 49.012V49.12C118.84 49.792 119.028 50.328 119.404 50.728C119.78 51.12 120.276 51.316 120.892 51.316ZM130.84 52C130.504 52 130.244 51.908 130.06 51.724C129.884 51.54 129.796 51.288 129.796 50.968V46.96H128.032V46.132H129.796V44.044H130.744V46.132H132.664V46.96H130.744V50.824C130.744 51.064 130.86 51.184 131.092 51.184H132.4V52H130.84ZM134.199 52V43.6H135.147V47.068H135.315C135.395 46.892 135.515 46.728 135.675 46.576C135.843 46.416 136.055 46.284 136.311 46.18C136.575 46.076 136.907 46.024 137.307 46.024C137.747 46.024 138.139 46.12 138.483 46.312C138.835 46.496 139.115 46.768 139.323 47.128C139.531 47.48 139.635 47.92 139.635 48.448V52H138.687V48.52C138.687 47.936 138.539 47.512 138.243 47.248C137.955 46.984 137.563 46.852 137.067 46.852C136.499 46.852 136.035 47.036 135.675 47.404C135.323 47.772 135.147 48.32 135.147 49.048V52H134.199ZM144.247 52.168C143.655 52.168 143.135 52.044 142.687 51.796C142.239 51.54 141.891 51.184 141.643 50.728C141.395 50.272 141.271 49.744 141.271 49.144V49C141.271 48.392 141.395 47.86 141.643 47.404C141.891 46.948 142.235 46.596 142.675 46.348C143.115 46.092 143.619 45.964 144.187 45.964C144.739 45.964 145.227 46.084 145.651 46.324C146.075 46.556 146.407 46.892 146.647 47.332C146.887 47.772 147.007 48.288 147.007 48.88V49.312H142.219C142.243 49.944 142.447 50.44 142.831 50.8C143.215 51.152 143.695 51.328 144.271 51.328C144.775 51.328 145.163 51.212 145.435 50.98C145.707 50.748 145.915 50.472 146.059 50.152L146.875 50.548C146.755 50.796 146.587 51.044 146.371 51.292C146.163 51.54 145.887 51.748 145.543 51.916C145.207 52.084 144.775 52.168 144.247 52.168ZM142.231 48.532H146.047C146.015 47.988 145.827 47.564 145.483 47.26C145.147 46.956 144.715 46.804 144.187 46.804C143.651 46.804 143.211 46.956 142.867 47.26C142.523 47.564 142.311 47.988 142.231 48.532ZM151.742 54.4V46.132H152.666V47.104H152.834C152.986 46.808 153.23 46.544 153.566 46.312C153.91 46.08 154.386 45.964 154.994 45.964C155.498 45.964 155.958 46.088 156.374 46.336C156.798 46.576 157.134 46.92 157.382 47.368C157.638 47.816 157.766 48.356 157.766 48.988V49.144C157.766 49.768 157.642 50.308 157.394 50.764C157.146 51.22 156.81 51.568 156.386 51.808C155.97 52.048 155.506 52.168 154.994 52.168C154.586 52.168 154.238 52.112 153.95 52C153.67 51.896 153.442 51.76 153.266 51.592C153.09 51.424 152.954 51.252 152.858 51.076H152.69V54.4H151.742ZM154.742 51.328C155.35 51.328 155.842 51.136 156.218 50.752C156.602 50.36 156.794 49.816 156.794 49.12V49.012C156.794 48.316 156.602 47.776 156.218 47.392C155.842 47 155.35 46.804 154.742 46.804C154.142 46.804 153.646 47 153.254 47.392C152.87 47.776 152.678 48.316 152.678 49.012V49.12C152.678 49.816 152.87 50.36 153.254 50.752C153.646 51.136 154.142 51.328 154.742 51.328ZM159.465 52V46.132H160.389V46.852H160.557C160.661 46.596 160.821 46.408 161.037 46.288C161.253 46.168 161.537 46.108 161.889 46.108H162.585V46.972H161.829C161.405 46.972 161.061 47.092 160.797 47.332C160.541 47.564 160.413 47.928 160.413 48.424V52H159.465ZM163.988 52V46.132H164.936V52H163.988ZM164.468 45.22C164.26 45.22 164.084 45.152 163.94 45.016C163.804 44.88 163.736 44.708 163.736 44.5C163.736 44.284 163.804 44.108 163.94 43.972C164.084 43.836 164.26 43.768 164.468 43.768C164.676 43.768 164.848 43.836 164.984 43.972C165.12 44.108 165.188 44.284 165.188 44.5C165.188 44.708 165.12 44.88 164.984 45.016C164.848 45.152 164.676 45.22 164.468 45.22ZM169.63 52.168C169.062 52.168 168.55 52.048 168.094 51.808C167.646 51.56 167.29 51.208 167.026 50.752C166.77 50.296 166.642 49.756 166.642 49.132V49C166.642 48.368 166.77 47.828 167.026 47.38C167.29 46.924 167.646 46.576 168.094 46.336C168.55 46.088 169.062 45.964 169.63 45.964C170.19 45.964 170.666 46.068 171.058 46.276C171.458 46.484 171.77 46.76 171.994 47.104C172.226 47.448 172.374 47.816 172.438 48.208L171.514 48.4C171.474 48.112 171.378 47.848 171.226 47.608C171.082 47.368 170.878 47.176 170.614 47.032C170.35 46.888 170.026 46.816 169.642 46.816C169.25 46.816 168.898 46.904 168.586 47.08C168.282 47.256 168.038 47.508 167.854 47.836C167.678 48.164 167.59 48.556 167.59 49.012V49.12C167.59 49.576 167.678 49.968 167.854 50.296C168.038 50.624 168.282 50.876 168.586 51.052C168.898 51.228 169.25 51.316 169.642 51.316C170.226 51.316 170.67 51.164 170.974 50.86C171.286 50.556 171.478 50.18 171.55 49.732L172.486 49.936C172.398 50.32 172.238 50.684 172.006 51.028C171.774 51.372 171.458 51.648 171.058 51.856C170.666 52.064 170.19 52.168 169.63 52.168ZM176.789 52.168C176.197 52.168 175.677 52.044 175.229 51.796C174.781 51.54 174.433 51.184 174.185 50.728C173.937 50.272 173.813 49.744 173.813 49.144V49C173.813 48.392 173.937 47.86 174.185 47.404C174.433 46.948 174.777 46.596 175.217 46.348C175.657 46.092 176.161 45.964 176.729 45.964C177.281 45.964 177.769 46.084 178.193 46.324C178.617 46.556 178.949 46.892 179.189 47.332C179.429 47.772 179.549 48.288 179.549 48.88V49.312H174.761C174.785 49.944 174.989 50.44 175.373 50.8C175.757 51.152 176.237 51.328 176.813 51.328C177.317 51.328 177.705 51.212 177.977 50.98C178.249 50.748 178.457 50.472 178.601 50.152L179.417 50.548C179.297 50.796 179.129 51.044 178.913 51.292C178.705 51.54 178.429 51.748 178.085 51.916C177.749 52.084 177.317 52.168 176.789 52.168ZM174.773 48.532H178.589C178.557 47.988 178.369 47.564 178.025 47.26C177.689 46.956 177.257 46.804 176.729 46.804C176.193 46.804 175.753 46.956 175.409 47.26C175.065 47.564 174.853 47.988 174.773 48.532ZM185.437 52V46.96H183.637V46.132H185.437V44.632C185.437 44.312 185.525 44.06 185.701 43.876C185.885 43.692 186.145 43.6 186.481 43.6H187.957V44.416H186.745C186.505 44.416 186.385 44.536 186.385 44.776V46.132H188.233V46.96H186.385V52H185.437ZM189.594 52V46.132H190.518V46.852H190.686C190.79 46.596 190.95 46.408 191.166 46.288C191.382 46.168 191.666 46.108 192.018 46.108H192.714V46.972H191.958C191.534 46.972 191.19 47.092 190.926 47.332C190.67 47.564 190.542 47.928 190.542 48.424V52H189.594ZM196.618 52.168C196.026 52.168 195.502 52.044 195.046 51.796C194.598 51.548 194.246 51.2 193.99 50.752C193.742 50.296 193.618 49.76 193.618 49.144V48.988C193.618 48.38 193.742 47.848 193.99 47.392C194.246 46.936 194.598 46.584 195.046 46.336C195.502 46.088 196.026 45.964 196.618 45.964C197.21 45.964 197.73 46.088 198.178 46.336C198.634 46.584 198.986 46.936 199.234 47.392C199.49 47.848 199.618 48.38 199.618 48.988V49.144C199.618 49.76 199.49 50.296 199.234 50.752C198.986 51.2 198.634 51.548 198.178 51.796C197.73 52.044 197.21 52.168 196.618 52.168ZM196.618 51.316C197.242 51.316 197.738 51.12 198.106 50.728C198.482 50.328 198.67 49.792 198.67 49.12V49.012C198.67 48.34 198.482 47.808 198.106 47.416C197.738 47.016 197.242 46.816 196.618 46.816C196.002 46.816 195.506 47.016 195.13 47.416C194.754 47.808 194.566 48.34 194.566 49.012V49.12C194.566 49.792 194.754 50.328 195.13 50.728C195.506 51.12 196.002 51.316 196.618 51.316ZM201.324 52V46.132H202.248V46.864H202.416C202.528 46.656 202.712 46.464 202.968 46.288C203.224 46.112 203.584 46.024 204.048 46.024C204.504 46.024 204.872 46.124 205.152 46.324C205.44 46.524 205.648 46.768 205.776 47.056H205.944C206.08 46.768 206.284 46.524 206.556 46.324C206.836 46.124 207.224 46.024 207.72 46.024C208.112 46.024 208.456 46.104 208.752 46.264C209.048 46.424 209.28 46.656 209.448 46.96C209.624 47.256 209.712 47.612 209.712 48.028V52H208.764V48.112C208.764 47.72 208.648 47.412 208.416 47.188C208.192 46.956 207.876 46.84 207.468 46.84C207.036 46.84 206.68 46.98 206.4 47.26C206.128 47.54 205.992 47.944 205.992 48.472V52H205.044V48.112C205.044 47.72 204.928 47.412 204.696 47.188C204.472 46.956 204.156 46.84 203.748 46.84C203.316 46.84 202.96 46.98 202.68 47.26C202.408 47.54 202.272 47.944 202.272 48.472V52H201.324ZM29.708 67.168C29.116 67.168 28.592 67.044 28.136 66.796C27.688 66.548 27.336 66.2 27.08 65.752C26.832 65.296 26.708 64.76 26.708 64.144V63.988C26.708 63.38 26.832 62.848 27.08 62.392C27.336 61.936 27.688 61.584 28.136 61.336C28.592 61.088 29.116 60.964 29.708 60.964C30.3 60.964 30.82 61.088 31.268 61.336C31.724 61.584 32.076 61.936 32.324 62.392C32.58 62.848 32.708 63.38 32.708 63.988V64.144C32.708 64.76 32.58 65.296 32.324 65.752C32.076 66.2 31.724 66.548 31.268 66.796C30.82 67.044 30.3 67.168 29.708 67.168ZM29.708 66.316C30.332 66.316 30.828 66.12 31.196 65.728C31.572 65.328 31.76 64.792 31.76 64.12V64.012C31.76 63.34 31.572 62.808 31.196 62.416C30.828 62.016 30.332 61.816 29.708 61.816C29.092 61.816 28.596 62.016 28.22 62.416C27.844 62.808 27.656 63.34 27.656 64.012V64.12C27.656 64.792 27.844 65.328 28.22 65.728C28.596 66.12 29.092 66.316 29.708 66.316ZM36.658 67.108C36.234 67.108 35.842 67.016 35.482 66.832C35.13 66.648 34.85 66.376 34.642 66.016C34.442 65.648 34.342 65.204 34.342 64.684V61.132H35.29V64.612C35.29 65.196 35.434 65.62 35.722 65.884C36.018 66.148 36.414 66.28 36.91 66.28C37.47 66.28 37.93 66.096 38.29 65.728C38.65 65.36 38.83 64.812 38.83 64.084V61.132H39.778V67H38.854V66.004H38.686C38.558 66.284 38.338 66.54 38.026 66.772C37.714 66.996 37.258 67.108 36.658 67.108ZM41.7616 67V61.132H42.6856V61.852H42.8536C42.9576 61.596 43.1176 61.408 43.3336 61.288C43.5496 61.168 43.8336 61.108 44.1856 61.108H44.8816V61.972H44.1256C43.7016 61.972 43.3576 62.092 43.0936 62.332C42.8376 62.564 42.7096 62.928 42.7096 63.424V67H41.7616ZM49.3671 69.4V61.132H50.2911V62.104H50.4591C50.6111 61.808 50.8551 61.544 51.1911 61.312C51.5351 61.08 52.0111 60.964 52.6191 60.964C53.1231 60.964 53.5831 61.088 53.9991 61.336C54.4231 61.576 54.7591 61.92 55.0071 62.368C55.2631 62.816 55.3911 63.356 55.3911 63.988V64.144C55.3911 64.768 55.2671 65.308 55.0191 65.764C54.7711 66.22 54.4351 66.568 54.0111 66.808C53.5951 67.048 53.1311 67.168 52.6191 67.168C52.2111 67.168 51.8631 67.112 51.5751 67C51.2951 66.896 51.0671 66.76 50.8911 66.592C50.7151 66.424 50.5791 66.252 50.4831 66.076H50.3151V69.4H49.3671ZM52.3671 66.328C52.9751 66.328 53.4671 66.136 53.8431 65.752C54.2271 65.36 54.4191 64.816 54.4191 64.12V64.012C54.4191 63.316 54.2271 62.776 53.8431 62.392C53.4671 62 52.9751 61.804 52.3671 61.804C51.7671 61.804 51.2711 62 50.8791 62.392C50.4951 62.776 50.3031 63.316 50.3031 64.012V64.12C50.3031 64.816 50.4951 65.36 50.8791 65.752C51.2711 66.136 51.7671 66.328 52.3671 66.328ZM58.8898 67.168C58.4818 67.168 58.1098 67.096 57.7738 66.952C57.4378 66.808 57.1738 66.6 56.9818 66.328C56.7898 66.056 56.6938 65.724 56.6938 65.332C56.6938 64.932 56.7898 64.604 56.9818 64.348C57.1738 64.084 57.4378 63.888 57.7738 63.76C58.1098 63.624 58.4858 63.556 58.9018 63.556H60.8818V63.124C60.8818 62.708 60.7578 62.38 60.5098 62.14C60.2698 61.9 59.9098 61.78 59.4298 61.78C58.9578 61.78 58.5898 61.896 58.3258 62.128C58.0618 62.352 57.8818 62.656 57.7858 63.04L56.8978 62.752C56.9938 62.424 57.1458 62.128 57.3538 61.864C57.5618 61.592 57.8378 61.376 58.1818 61.216C58.5338 61.048 58.9538 60.964 59.4418 60.964C60.1938 60.964 60.7778 61.16 61.1938 61.552C61.6098 61.936 61.8178 62.48 61.8178 63.184V65.836C61.8178 66.076 61.9298 66.196 62.1537 66.196H62.6938V67H61.8658C61.6018 67 61.3898 66.928 61.2298 66.784C61.0698 66.632 60.9898 66.432 60.9898 66.184V66.124H60.8458C60.7578 66.276 60.6378 66.436 60.4858 66.604C60.3418 66.764 60.1418 66.896 59.8858 67C59.6298 67.112 59.2978 67.168 58.8898 67.168ZM58.9978 66.352C59.5578 66.352 60.0098 66.188 60.3538 65.86C60.7058 65.524 60.8818 65.056 60.8818 64.456V64.324H58.9378C58.5618 64.324 58.2498 64.408 58.0018 64.576C57.7618 64.736 57.6418 64.98 57.6418 65.308C57.6418 65.636 57.7658 65.892 58.0138 66.076C58.2698 66.26 58.5978 66.352 58.9978 66.352ZM66.528 67.168C65.96 67.168 65.448 67.048 64.992 66.808C64.544 66.56 64.188 66.208 63.924 65.752C63.668 65.296 63.54 64.756 63.54 64.132V64C63.54 63.368 63.668 62.828 63.924 62.38C64.188 61.924 64.544 61.576 64.992 61.336C65.448 61.088 65.96 60.964 66.528 60.964C67.088 60.964 67.564 61.068 67.956 61.276C68.356 61.484 68.668 61.76 68.892 62.104C69.124 62.448 69.272 62.816 69.336 63.208L68.412 63.4C68.372 63.112 68.276 62.848 68.124 62.608C67.98 62.368 67.776 62.176 67.512 62.032C67.248 61.888 66.924 61.816 66.54 61.816C66.148 61.816 65.796 61.904 65.484 62.08C65.18 62.256 64.936 62.508 64.752 62.836C64.576 63.164 64.488 63.556 64.488 64.012V64.12C64.488 64.576 64.576 64.968 64.752 65.296C64.936 65.624 65.18 65.876 65.484 66.052C65.796 66.228 66.148 66.316 66.54 66.316C67.124 66.316 67.568 66.164 67.872 65.86C68.184 65.556 68.376 65.18 68.448 64.732L69.384 64.936C69.296 65.32 69.136 65.684 68.904 66.028C68.672 66.372 68.356 66.648 67.956 66.856C67.564 67.064 67.088 67.168 66.528 67.168ZM70.9999 67V58.6H71.9479V63.544H72.1159L74.8039 61.132H76.1239L72.8719 63.988L76.2199 67H74.9119L72.1159 64.444H71.9479V67H70.9999ZM79.128 67.168C78.72 67.168 78.348 67.096 78.012 66.952C77.676 66.808 77.412 66.6 77.22 66.328C77.028 66.056 76.932 65.724 76.932 65.332C76.932 64.932 77.028 64.604 77.22 64.348C77.412 64.084 77.676 63.888 78.012 63.76C78.348 63.624 78.724 63.556 79.14 63.556H81.12V63.124C81.12 62.708 80.996 62.38 80.748 62.14C80.508 61.9 80.148 61.78 79.668 61.78C79.196 61.78 78.828 61.896 78.564 62.128C78.3 62.352 78.12 62.656 78.024 63.04L77.136 62.752C77.232 62.424 77.384 62.128 77.592 61.864C77.8 61.592 78.076 61.376 78.42 61.216C78.772 61.048 79.192 60.964 79.68 60.964C80.432 60.964 81.016 61.16 81.432 61.552C81.848 61.936 82.056 62.48 82.056 63.184V65.836C82.056 66.076 82.168 66.196 82.392 66.196H82.932V67H82.104C81.84 67 81.628 66.928 81.468 66.784C81.308 66.632 81.228 66.432 81.228 66.184V66.124H81.084C80.996 66.276 80.876 66.436 80.724 66.604C80.58 66.764 80.38 66.896 80.124 67C79.868 67.112 79.536 67.168 79.128 67.168ZM79.236 66.352C79.796 66.352 80.248 66.188 80.592 65.86C80.944 65.524 81.12 65.056 81.12 64.456V64.324H79.176C78.8 64.324 78.488 64.408 78.24 64.576C78 64.736 77.88 64.98 77.88 65.308C77.88 65.636 78.004 65.892 78.252 66.076C78.508 66.26 78.836 66.352 79.236 66.352ZM83.7783 64.096V63.928C83.7783 63.312 83.9023 62.784 84.1503 62.344C84.3983 61.904 84.7343 61.564 85.1583 61.324C85.5823 61.084 86.0463 60.964 86.5503 60.964C87.1663 60.964 87.6383 61.084 87.9663 61.324C88.3023 61.556 88.5503 61.816 88.7103 62.104H88.8783V61.132H89.7783V68.368C89.7783 68.688 89.6903 68.94 89.5143 69.124C89.3383 69.308 89.0823 69.4 88.7463 69.4H84.7623V68.56H88.4943C88.7343 68.56 88.8543 68.44 88.8543 68.2V65.968H88.6863C88.5903 66.144 88.4543 66.316 88.2783 66.484C88.1023 66.652 87.8743 66.792 87.5943 66.904C87.3143 67.008 86.9663 67.06 86.5503 67.06C86.0463 67.06 85.5823 66.94 85.1583 66.7C84.7343 66.46 84.3983 66.12 84.1503 65.68C83.9023 65.232 83.7783 64.704 83.7783 64.096ZM86.8023 66.22C87.4103 66.22 87.9023 66.028 88.2783 65.644C88.6623 65.26 88.8543 64.732 88.8543 64.06V63.964C88.8543 63.284 88.6623 62.756 88.2783 62.38C87.9023 61.996 87.4103 61.804 86.8023 61.804C86.2023 61.804 85.7063 61.996 85.3143 62.38C84.9303 62.756 84.7383 63.284 84.7383 63.964V64.06C84.7383 64.732 84.9303 65.26 85.3143 65.644C85.7063 66.028 86.2023 66.22 86.8023 66.22ZM94.4535 67.168C93.8615 67.168 93.3415 67.044 92.8935 66.796C92.4455 66.54 92.0975 66.184 91.8495 65.728C91.6015 65.272 91.4775 64.744 91.4775 64.144V64C91.4775 63.392 91.6015 62.86 91.8495 62.404C92.0975 61.948 92.4415 61.596 92.8815 61.348C93.3215 61.092 93.8255 60.964 94.3935 60.964C94.9455 60.964 95.4335 61.084 95.8575 61.324C96.2815 61.556 96.6135 61.892 96.8535 62.332C97.0935 62.772 97.2135 63.288 97.2135 63.88V64.312H92.4255C92.4495 64.944 92.6535 65.44 93.0375 65.8C93.4215 66.152 93.9015 66.328 94.4775 66.328C94.9815 66.328 95.3695 66.212 95.6415 65.98C95.9135 65.748 96.1215 65.472 96.2655 65.152L97.0815 65.548C96.9615 65.796 96.7935 66.044 96.5775 66.292C96.3695 66.54 96.0935 66.748 95.7495 66.916C95.4135 67.084 94.9815 67.168 94.4535 67.168ZM92.4375 63.532H96.2535C96.2215 62.988 96.0335 62.564 95.6895 62.26C95.3535 61.956 94.9215 61.804 94.3935 61.804C93.8575 61.804 93.4175 61.956 93.0735 62.26C92.7295 62.564 92.5175 62.988 92.4375 63.532ZM101.231 67.168C100.503 67.168 99.8871 67 99.3831 66.664C98.8871 66.328 98.5871 65.796 98.4831 65.068L99.3831 64.864C99.4471 65.248 99.5671 65.552 99.7431 65.776C99.9191 65.992 100.135 66.148 100.391 66.244C100.655 66.332 100.935 66.376 101.231 66.376C101.671 66.376 102.019 66.288 102.275 66.112C102.531 65.936 102.659 65.7 102.659 65.404C102.659 65.1 102.535 64.888 102.287 64.768C102.047 64.64 101.715 64.536 101.291 64.456L100.799 64.372C100.423 64.308 100.079 64.208 99.7671 64.072C99.4551 63.936 99.2071 63.752 99.0231 63.52C98.8391 63.288 98.7471 62.996 98.7471 62.644C98.7471 62.116 98.9511 61.704 99.3591 61.408C99.7671 61.112 100.307 60.964 100.979 60.964C101.643 60.964 102.179 61.116 102.587 61.42C103.003 61.716 103.271 62.136 103.391 62.68L102.503 62.908C102.431 62.484 102.259 62.188 101.987 62.02C101.715 61.844 101.379 61.756 100.979 61.756C100.579 61.756 100.263 61.832 100.031 61.984C99.7991 62.128 99.6831 62.344 99.6831 62.632C99.6831 62.912 99.7911 63.12 100.007 63.256C100.231 63.384 100.527 63.48 100.895 63.544L101.387 63.628C101.803 63.7 102.175 63.8 102.503 63.928C102.839 64.048 103.103 64.224 103.295 64.456C103.495 64.688 103.595 64.992 103.595 65.368C103.595 65.944 103.379 66.388 102.947 66.7C102.523 67.012 101.951 67.168 101.231 67.168ZM105.711 67.168C105.479 67.168 105.283 67.092 105.123 66.94C104.971 66.788 104.895 66.592 104.895 66.352C104.895 66.112 104.971 65.916 105.123 65.764C105.283 65.612 105.479 65.536 105.711 65.536C105.951 65.536 106.147 65.612 106.299 65.764C106.451 65.916 106.527 66.112 106.527 66.352C106.527 66.592 106.451 66.788 106.299 66.94C106.147 67.092 105.951 67.168 105.711 67.168Z" fill="black"/>
</g>
<path d="M322.888 31.9792V47.1709C322.888 56.2564 317.696 60.1502 309.908 60.1502H283.979C282.652 60.1502 281.383 60.0322 280.203 59.7667C279.466 59.6487 278.758 59.4422 278.109 59.2062C273.684 57.5543 271 53.7195 271 47.1709V31.9792C271 22.8937 276.192 19 283.979 19H309.908C316.516 19 321.265 21.8023 322.534 28.2035C322.74 29.3834 322.888 30.5927 322.888 31.9792Z" stroke="#426EEB" stroke-width="5.02248" stroke-miterlimit="10" stroke-linecap="round" stroke-linejoin="round"/>
<path opacity="0.4" d="M331.735 40.829V56.0207C331.735 65.1062 326.543 69 318.755 69H292.826C290.643 69 288.667 68.705 286.956 68.056C283.446 66.7581 281.056 64.0737 280.201 59.767C281.381 60.0325 282.649 60.1505 283.977 60.1505H309.906C317.693 60.1505 322.885 56.2567 322.885 47.1712V31.9795C322.885 30.5931 322.767 29.3543 322.531 28.2038C328.136 29.3838 331.735 33.3365 331.735 40.829Z" stroke="#426EEB" stroke-width="5.02248" stroke-miterlimit="10" stroke-linecap="round" stroke-linejoin="round"/>
<path d="M296.925 47.3771C301.225 47.3771 304.712 43.8904 304.712 39.5895C304.712 35.2885 301.225 31.8018 296.925 31.8018C292.624 31.8018 289.137 35.2885 289.137 39.5895C289.137 43.8904 292.624 47.3771 296.925 47.3771Z" stroke="#426EEB" stroke-width="5.02248" stroke-miterlimit="10" stroke-linecap="round" stroke-linejoin="round"/>
<path opacity="0.4" d="M280.051 33.0996V46.0789" stroke="#426EEB" stroke-width="5.02248" stroke-miterlimit="10" stroke-linecap="round" stroke-linejoin="round"/>
<path opacity="0.4" d="M313.801 33.0996V46.0789" stroke="#426EEB" stroke-width="5.02248" stroke-miterlimit="10" stroke-linecap="round" stroke-linejoin="round"/>
<defs>
<filter id="filter0_d_496_992" x="0" y="0" width="352" height="93" filterUnits="userSpaceOnUse" color-interpolation-filters="sRGB">
<feFlood flood-opacity="0" result="BackgroundImageFix"/>
<feColorMatrix in="SourceAlpha" type="matrix" values="0 0 0 0 0 0 0 0 0 0 0 0 0 0 0 0 0 0 127 0" result="hardAlpha"/>
<feOffset dy="2"/>
<feGaussianBlur stdDeviation="2"/>
<feComposite in2="hardAlpha" operator="out"/>
<feColorMatrix type="matrix" values="0 0 0 0 0 0 0 0 0 0 0 0 0 0 0 0 0 0 0.05 0"/>
<feBlend mode="normal" in2="BackgroundImageFix" result="effect1_dropShadow_496_992"/>
<feBlend mode="normal" in="SourceGraphic" in2="effect1_dropShadow_496_992" result="shape"/>
</filter>
</defs>
</svg>
