<svg width="352" height="102" viewBox="0 0 352 102" fill="none" xmlns="http://www.w3.org/2000/svg">
<g filter="url(#filter0_d_496_990)">
<rect x="4.25" y="2.25" width="343.5" height="93.5" rx="9.75" fill="#F5F5F5" stroke="black" stroke-width="0.5"/>
<path d="M30.064 30.8334V26.7694L26.176 19.6334H28.128L30.816 24.7054H31.056L33.744 19.6334H35.696L31.808 26.7694V30.8334H30.064ZM39.3964 31.0574C38.607 31.0574 37.903 30.8974 37.2844 30.5774C36.6764 30.2467 36.1964 29.7774 35.8444 29.1694C35.4924 28.5614 35.3164 27.8414 35.3164 27.0094V26.7694C35.3164 25.9374 35.4924 25.2227 35.8444 24.6254C36.1964 24.0174 36.6764 23.548 37.2844 23.2174C37.903 22.8867 38.607 22.7214 39.3964 22.7214C40.1857 22.7214 40.8897 22.8867 41.5084 23.2174C42.127 23.548 42.6124 24.0174 42.9644 24.6254C43.3164 25.2227 43.4924 25.9374 43.4924 26.7694V27.0094C43.4924 27.8414 43.3164 28.5614 42.9644 29.1694C42.6124 29.7774 42.127 30.2467 41.5084 30.5774C40.8897 30.8974 40.1857 31.0574 39.3964 31.0574ZM39.3964 29.5854C40.1217 29.5854 40.7084 29.356 41.1564 28.8974C41.615 28.428 41.8444 27.7827 41.8444 26.9614V26.8174C41.8444 25.996 41.6204 25.356 41.1724 24.8974C40.7244 24.428 40.1324 24.1934 39.3964 24.1934C38.6817 24.1934 38.095 24.428 37.6364 24.8974C37.1884 25.356 36.9644 25.996 36.9644 26.8174V26.9614C36.9644 27.7827 37.1884 28.428 37.6364 28.8974C38.095 29.356 38.6817 29.5854 39.3964 29.5854ZM48.5681 30.9774C47.9708 30.9774 47.4375 30.844 46.9681 30.5774C46.4988 30.3107 46.1308 29.932 45.8641 29.4414C45.5975 28.9507 45.4641 28.364 45.4641 27.6814V22.9454H47.1121V27.5694C47.1121 28.252 47.2828 28.7587 47.6241 29.0894C47.9655 29.4094 48.4401 29.5694 49.0481 29.5694C49.7201 29.5694 50.2588 29.3454 50.6641 28.8974C51.0801 28.4387 51.2881 27.7827 51.2881 26.9294V22.9454H52.9361V30.8334H51.3201V29.6494H51.0641C50.9148 29.9694 50.6481 30.2734 50.2641 30.5614C49.8801 30.8387 49.3148 30.9774 48.5681 30.9774ZM55.3723 30.8334V22.9454H56.9883V23.8734H57.2443C57.3723 23.5427 57.5749 23.3027 57.8523 23.1534C58.1403 22.9934 58.4923 22.9134 58.9083 22.9134H59.8523V24.4014H58.8443C58.3109 24.4014 57.8736 24.5507 57.5323 24.8494C57.1909 25.1374 57.0203 25.5854 57.0203 26.1934V30.8334H55.3723ZM65.6379 34.0334V22.9454H67.2539V24.0814H67.5099C67.7125 23.7294 68.0165 23.4147 68.4219 23.1374C68.8379 22.86 69.4299 22.7214 70.1979 22.7214C70.8592 22.7214 71.4619 22.8814 72.0059 23.2014C72.5605 23.5214 73.0032 23.9854 73.3339 24.5934C73.6752 25.1907 73.8459 25.916 73.8459 26.7694V27.0094C73.8459 27.8627 73.6805 28.5934 73.3499 29.2014C73.0192 29.7987 72.5765 30.2574 72.0219 30.5774C71.4672 30.8974 70.8592 31.0574 70.1979 31.0574C69.6859 31.0574 69.2539 30.9934 68.9019 30.8654C68.5499 30.7374 68.2672 30.5774 68.0539 30.3854C67.8405 30.1827 67.6699 29.9747 67.5419 29.7614H67.2859V34.0334H65.6379ZM69.7179 29.6174C70.4432 29.6174 71.0352 29.388 71.4939 28.9294C71.9525 28.4707 72.1819 27.8147 72.1819 26.9614V26.8174C72.1819 25.9747 71.9472 25.324 71.4779 24.8654C71.0192 24.4067 70.4325 24.1774 69.7179 24.1774C69.0139 24.1774 68.4272 24.4067 67.9579 24.8654C67.4992 25.324 67.2699 25.9747 67.2699 26.8174V26.9614C67.2699 27.8147 67.4992 28.4707 67.9579 28.9294C68.4272 29.388 69.0139 29.6174 69.7179 29.6174ZM75.8879 30.8334V22.9454H77.5039V23.8734H77.7599C77.8879 23.5427 78.0905 23.3027 78.3679 23.1534C78.6559 22.9934 79.0079 22.9134 79.4239 22.9134H80.3679V24.4014H79.3599C78.8265 24.4014 78.3892 24.5507 78.0479 24.8494C77.7065 25.1374 77.5359 25.5854 77.5359 26.1934V30.8334H75.8879ZM85.4901 31.0574C84.7008 31.0574 83.9968 30.8974 83.3781 30.5774C82.7701 30.2467 82.2901 29.7774 81.9381 29.1694C81.5861 28.5614 81.4101 27.8414 81.4101 27.0094V26.7694C81.4101 25.9374 81.5861 25.2227 81.9381 24.6254C82.2901 24.0174 82.7701 23.548 83.3781 23.2174C83.9968 22.8867 84.7008 22.7214 85.4901 22.7214C86.2795 22.7214 86.9835 22.8867 87.6021 23.2174C88.2208 23.548 88.7061 24.0174 89.0581 24.6254C89.4101 25.2227 89.5861 25.9374 89.5861 26.7694V27.0094C89.5861 27.8414 89.4101 28.5614 89.0581 29.1694C88.7061 29.7774 88.2208 30.2467 87.6021 30.5774C86.9835 30.8974 86.2795 31.0574 85.4901 31.0574ZM85.4901 29.5854C86.2155 29.5854 86.8021 29.356 87.2501 28.8974C87.7088 28.428 87.9381 27.7827 87.9381 26.9614V26.8174C87.9381 25.996 87.7141 25.356 87.2661 24.8974C86.8181 24.428 86.2261 24.1934 85.4901 24.1934C84.7755 24.1934 84.1888 24.428 83.7301 24.8974C83.2821 25.356 83.0581 25.996 83.0581 26.8174V26.9614C83.0581 27.7827 83.2821 28.428 83.7301 28.8974C84.1888 29.356 84.7755 29.5854 85.4901 29.5854ZM94.9019 31.0574C94.2512 31.0574 93.6485 30.8974 93.0939 30.5774C92.5392 30.2574 92.0912 29.7987 91.7499 29.2014C91.4192 28.5934 91.2539 27.8627 91.2539 27.0094V26.7694C91.2539 25.9267 91.4192 25.2014 91.7499 24.5934C92.0805 23.9854 92.5232 23.5214 93.0779 23.2014C93.6325 22.8814 94.2405 22.7214 94.9019 22.7214C95.4139 22.7214 95.8405 22.7854 96.1819 22.9134C96.5339 23.0414 96.8219 23.2067 97.0459 23.4094C97.2699 23.6014 97.4405 23.804 97.5579 24.0174H97.8139V19.6334H99.4619V30.8334H97.8459V29.7134H97.5899C97.3872 30.0547 97.0779 30.364 96.6619 30.6414C96.2565 30.9187 95.6699 31.0574 94.9019 31.0574ZM95.3659 29.6174C96.0805 29.6174 96.6672 29.388 97.1259 28.9294C97.5952 28.4707 97.8299 27.8147 97.8299 26.9614V26.8174C97.8299 25.9747 97.6005 25.324 97.1419 24.8654C96.6832 24.4067 96.0912 24.1774 95.3659 24.1774C94.6619 24.1774 94.0752 24.4067 93.6059 24.8654C93.1472 25.324 92.9179 25.9747 92.9179 26.8174V26.9614C92.9179 27.8147 93.1472 28.4707 93.6059 28.9294C94.0752 29.388 94.6619 29.6174 95.3659 29.6174ZM104.912 30.9774C104.315 30.9774 103.781 30.844 103.312 30.5774C102.843 30.3107 102.475 29.932 102.208 29.4414C101.941 28.9507 101.808 28.364 101.808 27.6814V22.9454H103.456V27.5694C103.456 28.252 103.627 28.7587 103.968 29.0894C104.309 29.4094 104.784 29.5694 105.392 29.5694C106.064 29.5694 106.603 29.3454 107.008 28.8974C107.424 28.4387 107.632 27.7827 107.632 26.9294V22.9454H109.28V30.8334H107.664V29.6494H107.408C107.259 29.9694 106.992 30.2734 106.608 30.5614C106.224 30.8387 105.659 30.9774 104.912 30.9774ZM115.38 31.0574C114.623 31.0574 113.935 30.8974 113.316 30.5774C112.708 30.2574 112.223 29.7934 111.86 29.1854C111.508 28.5774 111.332 27.8467 111.332 26.9934V26.7854C111.332 25.932 111.508 25.2067 111.86 24.6094C112.223 24.0014 112.708 23.5374 113.316 23.2174C113.935 22.8867 114.623 22.7214 115.38 22.7214C116.137 22.7214 116.783 22.86 117.316 23.1374C117.849 23.4147 118.276 23.7827 118.596 24.2414C118.927 24.7 119.14 25.2067 119.236 25.7614L117.636 26.0974C117.583 25.7454 117.471 25.4254 117.3 25.1374C117.129 24.8494 116.889 24.62 116.58 24.4494C116.271 24.2787 115.881 24.1934 115.412 24.1934C114.953 24.1934 114.537 24.3 114.164 24.5134C113.801 24.716 113.513 25.0147 113.3 25.4094C113.087 25.7934 112.98 26.2627 112.98 26.8174V26.9614C112.98 27.516 113.087 27.9907 113.3 28.3854C113.513 28.78 113.801 29.0787 114.164 29.2814C114.537 29.484 114.953 29.5854 115.412 29.5854C116.105 29.5854 116.633 29.4094 116.996 29.0574C117.359 28.6947 117.588 28.236 117.684 27.6814L119.284 28.0494C119.156 28.5934 118.927 29.0947 118.596 29.5534C118.276 30.012 117.849 30.38 117.316 30.6574C116.783 30.924 116.137 31.0574 115.38 31.0574ZM123.864 30.8334C123.384 30.8334 123 30.6894 122.712 30.4014C122.434 30.1134 122.296 29.7294 122.296 29.2494V24.3374H120.12V22.9454H122.296V20.3374H123.944V22.9454H126.296V24.3374H123.944V28.9614C123.944 29.2814 124.093 29.4414 124.391 29.4414H126.04V30.8334H123.864ZM132.31 30.8334V22.9454H133.958V30.8334H132.31ZM133.142 21.8734C132.822 21.8734 132.55 21.772 132.326 21.5694C132.112 21.356 132.006 21.084 132.006 20.7534C132.006 20.4227 132.112 20.156 132.326 19.9534C132.55 19.74 132.822 19.6334 133.142 19.6334C133.472 19.6334 133.744 19.74 133.958 19.9534C134.171 20.156 134.278 20.4227 134.278 20.7534C134.278 21.084 134.171 21.356 133.958 21.5694C133.744 21.772 133.472 21.8734 133.142 21.8734ZM139.636 31.0574C138.633 31.0574 137.801 30.8334 137.14 30.3854C136.478 29.9374 136.073 29.26 135.924 28.3534L137.46 27.9854C137.545 28.4227 137.689 28.7694 137.892 29.0254C138.094 29.2814 138.345 29.4627 138.644 29.5694C138.953 29.676 139.284 29.7294 139.636 29.7294C140.158 29.7294 140.558 29.628 140.836 29.4254C141.124 29.2227 141.268 28.9614 141.268 28.6414C141.268 28.3214 141.134 28.0867 140.868 27.9374C140.601 27.788 140.206 27.6654 139.684 27.5694L139.14 27.4734C138.606 27.3774 138.121 27.2387 137.684 27.0574C137.246 26.876 136.9 26.6254 136.644 26.3054C136.388 25.9854 136.26 25.5747 136.26 25.0734C136.26 24.3267 136.537 23.7507 137.092 23.3454C137.646 22.9294 138.382 22.7214 139.299 22.7214C140.185 22.7214 140.91 22.924 141.476 23.3294C142.052 23.724 142.425 24.2627 142.596 24.9454L141.06 25.3774C140.964 24.8974 140.761 24.5614 140.452 24.3694C140.142 24.1667 139.758 24.0654 139.299 24.0654C138.852 24.0654 138.5 24.1507 138.244 24.3214C137.988 24.4814 137.86 24.7107 137.86 25.0094C137.86 25.3294 137.982 25.564 138.228 25.7134C138.484 25.8627 138.825 25.9747 139.252 26.0494L139.812 26.1454C140.377 26.2414 140.894 26.3747 141.364 26.5454C141.833 26.716 142.201 26.9614 142.468 27.2814C142.745 27.6014 142.884 28.028 142.884 28.5614C142.884 29.3507 142.59 29.964 142.004 30.4014C141.417 30.8387 140.628 31.0574 139.636 31.0574ZM148.888 30.8334V19.6334H150.536V30.8334H148.888ZM152.982 30.8334V22.9454H154.63V30.8334H152.982ZM153.814 21.8734C153.494 21.8734 153.222 21.772 152.998 21.5694C152.784 21.356 152.678 21.084 152.678 20.7534C152.678 20.4227 152.784 20.156 152.998 19.9534C153.222 19.74 153.494 19.6334 153.814 19.6334C154.144 19.6334 154.416 19.74 154.63 19.9534C154.843 20.156 154.95 20.4227 154.95 20.7534C154.95 21.084 154.843 21.356 154.63 21.5694C154.416 21.772 154.144 21.8734 153.814 21.8734ZM160.307 31.0574C159.305 31.0574 158.473 30.8334 157.811 30.3854C157.15 29.9374 156.745 29.26 156.595 28.3534L158.131 27.9854C158.217 28.4227 158.361 28.7694 158.563 29.0254C158.766 29.2814 159.017 29.4627 159.315 29.5694C159.625 29.676 159.955 29.7294 160.307 29.7294C160.83 29.7294 161.23 29.628 161.507 29.4254C161.795 29.2227 161.939 28.9614 161.939 28.6414C161.939 28.3214 161.806 28.0867 161.539 27.9374C161.273 27.788 160.878 27.6654 160.355 27.5694L159.811 27.4734C159.278 27.3774 158.793 27.2387 158.355 27.0574C157.918 26.876 157.571 26.6254 157.315 26.3054C157.059 25.9854 156.931 25.5747 156.931 25.0734C156.931 24.3267 157.209 23.7507 157.763 23.3454C158.318 22.9294 159.054 22.7214 159.971 22.7214C160.857 22.7214 161.582 22.924 162.147 23.3294C162.723 23.724 163.097 24.2627 163.267 24.9454L161.731 25.3774C161.635 24.8974 161.433 24.5614 161.123 24.3694C160.814 24.1667 160.43 24.0654 159.971 24.0654C159.523 24.0654 159.171 24.1507 158.915 24.3214C158.659 24.4814 158.531 24.7107 158.531 25.0094C158.531 25.3294 158.654 25.564 158.899 25.7134C159.155 25.8627 159.497 25.9747 159.923 26.0494L160.483 26.1454C161.049 26.2414 161.566 26.3747 162.035 26.5454C162.505 26.716 162.873 26.9614 163.139 27.2814C163.417 27.6014 163.555 28.028 163.555 28.5614C163.555 29.3507 163.262 29.964 162.675 30.4014C162.089 30.8387 161.299 31.0574 160.307 31.0574ZM168.27 30.8334C167.79 30.8334 167.406 30.6894 167.118 30.4014C166.84 30.1134 166.702 29.7294 166.702 29.2494V24.3374H164.526V22.9454H166.702V20.3374H168.35V22.9454H170.702V24.3374H168.35V28.9614C168.35 29.2814 168.499 29.4414 168.798 29.4414H170.446V30.8334H168.27ZM175.973 31.0574C175.173 31.0574 174.474 30.892 173.877 30.5614C173.279 30.22 172.81 29.7454 172.469 29.1374C172.138 28.5187 171.973 27.804 171.973 26.9934V26.8014C171.973 25.98 172.138 25.2654 172.469 24.6574C172.799 24.0387 173.258 23.564 173.845 23.2334C174.442 22.892 175.13 22.7214 175.909 22.7214C176.666 22.7214 177.327 22.892 177.893 23.2334C178.469 23.564 178.917 24.028 179.237 24.6254C179.557 25.2227 179.717 25.9214 179.717 26.7214V27.3454H173.653C173.674 28.0387 173.903 28.5934 174.341 29.0094C174.789 29.4147 175.343 29.6174 176.005 29.6174C176.623 29.6174 177.087 29.4787 177.397 29.2014C177.717 28.924 177.962 28.604 178.133 28.2414L179.493 28.9454C179.343 29.244 179.125 29.5587 178.837 29.8894C178.559 30.22 178.191 30.4974 177.733 30.7214C177.274 30.9454 176.687 31.0574 175.973 31.0574ZM173.669 26.0814H178.037C177.994 25.484 177.781 25.02 177.397 24.6894C177.013 24.348 176.511 24.1774 175.893 24.1774C175.274 24.1774 174.767 24.348 174.373 24.6894C173.989 25.02 173.754 25.484 173.669 26.0814ZM184.964 31.0574C184.314 31.0574 183.711 30.8974 183.156 30.5774C182.602 30.2574 182.154 29.7987 181.812 29.2014C181.482 28.5934 181.316 27.8627 181.316 27.0094V26.7694C181.316 25.9267 181.482 25.2014 181.812 24.5934C182.143 23.9854 182.586 23.5214 183.14 23.2014C183.695 22.8814 184.303 22.7214 184.964 22.7214C185.476 22.7214 185.903 22.7854 186.244 22.9134C186.596 23.0414 186.884 23.2067 187.108 23.4094C187.332 23.6014 187.503 23.804 187.62 24.0174H187.876V19.6334H189.524V30.8334H187.908V29.7134H187.652C187.45 30.0547 187.14 30.364 186.724 30.6414C186.319 30.9187 185.732 31.0574 184.964 31.0574ZM185.428 29.6174C186.143 29.6174 186.73 29.388 187.188 28.9294C187.658 28.4707 187.892 27.8147 187.892 26.9614V26.8174C187.892 25.9747 187.663 25.324 187.204 24.8654C186.746 24.4067 186.154 24.1774 185.428 24.1774C184.724 24.1774 184.138 24.4067 183.668 24.8654C183.21 25.324 182.98 25.9747 182.98 26.8174V26.9614C182.98 27.8147 183.21 28.4707 183.668 28.9294C184.138 29.388 184.724 29.6174 185.428 29.6174ZM192.094 27.4894V19.6334H193.774V27.4894H192.094ZM192.942 31.0574C192.569 31.0574 192.254 30.9347 191.998 30.6894C191.753 30.444 191.63 30.1294 191.63 29.7454C191.63 29.3614 191.753 29.052 191.998 28.8174C192.254 28.572 192.569 28.4494 192.942 28.4494C193.316 28.4494 193.625 28.572 193.87 28.8174C194.126 29.0627 194.254 29.372 194.254 29.7454C194.254 30.1294 194.126 30.444 193.87 30.6894C193.625 30.9347 193.316 31.0574 192.942 31.0574Z" fill="black"/>
<path d="M26.3 50L28.892 41.6H30.668L33.26 50H32.216L31.568 47.876H27.992L27.344 50H26.3ZM28.244 46.964H31.304L29.864 42.212H29.696L28.244 46.964ZM35.4839 50V44.96H33.6839V44.132H35.4839V42.632C35.4839 42.312 35.5719 42.06 35.7479 41.876C35.9319 41.692 36.1919 41.6 36.5279 41.6H38.0039V42.416H36.7919C36.5519 42.416 36.4319 42.536 36.4319 42.776V44.132H38.2799V44.96H36.4319V50H35.4839ZM41.6013 50C41.2653 50 41.0053 49.908 40.8213 49.724C40.6453 49.54 40.5573 49.288 40.5573 48.968V44.96H38.7933V44.132H40.5573V42.044H41.5053V44.132H43.4253V44.96H41.5053V48.824C41.5053 49.064 41.6213 49.184 41.8533 49.184H43.1613V50H41.6013ZM47.4379 50.168C46.8459 50.168 46.3259 50.044 45.8779 49.796C45.4299 49.54 45.0819 49.184 44.8339 48.728C44.5859 48.272 44.4619 47.744 44.4619 47.144V47C44.4619 46.392 44.5859 45.86 44.8339 45.404C45.0819 44.948 45.4259 44.596 45.8659 44.348C46.3059 44.092 46.8099 43.964 47.3779 43.964C47.9299 43.964 48.4179 44.084 48.8419 44.324C49.2659 44.556 49.5979 44.892 49.8379 45.332C50.0779 45.772 50.1979 46.288 50.1979 46.88V47.312H45.4099C45.4339 47.944 45.6379 48.44 46.0219 48.8C46.4059 49.152 46.8859 49.328 47.4619 49.328C47.9659 49.328 48.3539 49.212 48.6259 48.98C48.8979 48.748 49.1059 48.472 49.2499 48.152L50.0659 48.548C49.9459 48.796 49.7779 49.044 49.5619 49.292C49.3539 49.54 49.0779 49.748 48.7339 49.916C48.3979 50.084 47.9659 50.168 47.4379 50.168ZM45.4219 46.532H49.2379C49.2059 45.988 49.0179 45.564 48.6739 45.26C48.3379 44.956 47.9059 44.804 47.3779 44.804C46.8419 44.804 46.4019 44.956 46.0579 45.26C45.7139 45.564 45.5019 45.988 45.4219 46.532ZM51.8515 50V44.132H52.7755V44.852H52.9435C53.0475 44.596 53.2075 44.408 53.4235 44.288C53.6395 44.168 53.9235 44.108 54.2755 44.108H54.9715V44.972H54.2155C53.7915 44.972 53.4475 45.092 53.1835 45.332C52.9275 45.564 52.7995 45.928 52.7995 46.424V50H51.8515ZM59.4569 50V44.132H60.4049V50H59.4569ZM59.9369 43.22C59.7289 43.22 59.5529 43.152 59.4089 43.016C59.2729 42.88 59.2049 42.708 59.2049 42.5C59.2049 42.284 59.2729 42.108 59.4089 41.972C59.5529 41.836 59.7289 41.768 59.9369 41.768C60.1449 41.768 60.3169 41.836 60.4529 41.972C60.5889 42.108 60.6569 42.284 60.6569 42.5C60.6569 42.708 60.5889 42.88 60.4529 43.016C60.3169 43.152 60.1449 43.22 59.9369 43.22ZM64.5583 50C64.2223 50 63.9623 49.908 63.7783 49.724C63.6023 49.54 63.5143 49.288 63.5143 48.968V44.96H61.7503V44.132H63.5143V42.044H64.4623V44.132H66.3823V44.96H64.4623V48.824C64.4623 49.064 64.5783 49.184 64.8103 49.184H66.1183V50H64.5583ZM70.9999 50V41.6H71.9479V45.068H72.1159C72.1959 44.892 72.3159 44.728 72.4759 44.576C72.6439 44.416 72.8559 44.284 73.1119 44.18C73.3759 44.076 73.7079 44.024 74.1079 44.024C74.5479 44.024 74.9399 44.12 75.2839 44.312C75.6359 44.496 75.9159 44.768 76.1239 45.128C76.3319 45.48 76.4359 45.92 76.4359 46.448V50H75.4879V46.52C75.4879 45.936 75.3399 45.512 75.0439 45.248C74.7559 44.984 74.3639 44.852 73.8679 44.852C73.2999 44.852 72.8359 45.036 72.4759 45.404C72.1239 45.772 71.9479 46.32 71.9479 47.048V50H70.9999ZM80.1593 50.168C79.7513 50.168 79.3793 50.096 79.0433 49.952C78.7073 49.808 78.4433 49.6 78.2513 49.328C78.0593 49.056 77.9633 48.724 77.9633 48.332C77.9633 47.932 78.0593 47.604 78.2513 47.348C78.4433 47.084 78.7073 46.888 79.0433 46.76C79.3793 46.624 79.7553 46.556 80.1713 46.556H82.1513V46.124C82.1513 45.708 82.0273 45.38 81.7793 45.14C81.5393 44.9 81.1793 44.78 80.6993 44.78C80.2273 44.78 79.8593 44.896 79.5953 45.128C79.3313 45.352 79.1513 45.656 79.0553 46.04L78.1673 45.752C78.2633 45.424 78.4153 45.128 78.6233 44.864C78.8313 44.592 79.1073 44.376 79.4513 44.216C79.8033 44.048 80.2233 43.964 80.7113 43.964C81.4633 43.964 82.0473 44.16 82.4633 44.552C82.8793 44.936 83.0873 45.48 83.0873 46.184V48.836C83.0873 49.076 83.1993 49.196 83.4233 49.196H83.9633V50H83.1353C82.8713 50 82.6593 49.928 82.4993 49.784C82.3393 49.632 82.2593 49.432 82.2593 49.184V49.124H82.1153C82.0273 49.276 81.9073 49.436 81.7553 49.604C81.6113 49.764 81.4113 49.896 81.1553 50C80.8993 50.112 80.5673 50.168 80.1593 50.168ZM80.2673 49.352C80.8273 49.352 81.2793 49.188 81.6233 48.86C81.9753 48.524 82.1513 48.056 82.1513 47.456V47.324H80.2073C79.8313 47.324 79.5193 47.408 79.2713 47.576C79.0313 47.736 78.9113 47.98 78.9113 48.308C78.9113 48.636 79.0353 48.892 79.2833 49.076C79.5393 49.26 79.8673 49.352 80.2673 49.352ZM87.5788 50.168C86.8508 50.168 86.2348 50 85.7308 49.664C85.2348 49.328 84.9348 48.796 84.8308 48.068L85.7308 47.864C85.7948 48.248 85.9148 48.552 86.0908 48.776C86.2668 48.992 86.4828 49.148 86.7388 49.244C87.0028 49.332 87.2828 49.376 87.5788 49.376C88.0188 49.376 88.3668 49.288 88.6228 49.112C88.8788 48.936 89.0068 48.7 89.0068 48.404C89.0068 48.1 88.8828 47.888 88.6348 47.768C88.3948 47.64 88.0628 47.536 87.6388 47.456L87.1468 47.372C86.7708 47.308 86.4268 47.208 86.1148 47.072C85.8028 46.936 85.5548 46.752 85.3708 46.52C85.1868 46.288 85.0948 45.996 85.0948 45.644C85.0948 45.116 85.2988 44.704 85.7068 44.408C86.1148 44.112 86.6548 43.964 87.3268 43.964C87.9908 43.964 88.5268 44.116 88.9348 44.42C89.3508 44.716 89.6188 45.136 89.7388 45.68L88.8508 45.908C88.7788 45.484 88.6068 45.188 88.3348 45.02C88.0628 44.844 87.7268 44.756 87.3268 44.756C86.9268 44.756 86.6108 44.832 86.3788 44.984C86.1468 45.128 86.0308 45.344 86.0308 45.632C86.0308 45.912 86.1388 46.12 86.3548 46.256C86.5788 46.384 86.8748 46.48 87.2428 46.544L87.7348 46.628C88.1508 46.7 88.5228 46.8 88.8508 46.928C89.1868 47.048 89.4508 47.224 89.6428 47.456C89.8428 47.688 89.9428 47.992 89.9428 48.368C89.9428 48.944 89.7268 49.388 89.2948 49.7C88.8708 50.012 88.2988 50.168 87.5788 50.168ZM97.8769 50.168C97.2689 50.168 96.7929 50.052 96.4489 49.82C96.1129 49.588 95.8689 49.324 95.7169 49.028H95.5489V50H94.6249V41.6H95.5729V45.056H95.7409C95.8369 44.872 95.9729 44.7 96.1489 44.54C96.3249 44.372 96.5529 44.236 96.8329 44.132C97.1209 44.02 97.4689 43.964 97.8769 43.964C98.3889 43.964 98.8529 44.088 99.2689 44.336C99.6929 44.576 100.029 44.924 100.277 45.38C100.525 45.828 100.649 46.364 100.649 46.988V47.144C100.649 47.768 100.521 48.308 100.265 48.764C100.017 49.22 99.6809 49.568 99.2569 49.808C98.8409 50.048 98.3809 50.168 97.8769 50.168ZM97.6249 49.328C98.2329 49.328 98.7249 49.136 99.1009 48.752C99.4849 48.36 99.6769 47.816 99.6769 47.12V47.012C99.6769 46.316 99.4849 45.776 99.1009 45.392C98.7249 45 98.2329 44.804 97.6249 44.804C97.0249 44.804 96.5289 45 96.1369 45.392C95.7529 45.776 95.5609 46.316 95.5609 47.012V47.12C95.5609 47.816 95.7529 48.36 96.1369 48.752C96.5289 49.136 97.0249 49.328 97.6249 49.328ZM105.036 50.168C104.444 50.168 103.924 50.044 103.476 49.796C103.028 49.54 102.68 49.184 102.432 48.728C102.184 48.272 102.06 47.744 102.06 47.144V47C102.06 46.392 102.184 45.86 102.432 45.404C102.68 44.948 103.024 44.596 103.464 44.348C103.904 44.092 104.408 43.964 104.976 43.964C105.528 43.964 106.016 44.084 106.44 44.324C106.864 44.556 107.196 44.892 107.436 45.332C107.676 45.772 107.796 46.288 107.796 46.88V47.312H103.008C103.032 47.944 103.236 48.44 103.62 48.8C104.004 49.152 104.484 49.328 105.06 49.328C105.564 49.328 105.952 49.212 106.224 48.98C106.496 48.748 106.704 48.472 106.848 48.152L107.664 48.548C107.544 48.796 107.376 49.044 107.16 49.292C106.952 49.54 106.676 49.748 106.332 49.916C105.996 50.084 105.564 50.168 105.036 50.168ZM103.02 46.532H106.836C106.804 45.988 106.616 45.564 106.272 45.26C105.936 44.956 105.504 44.804 104.976 44.804C104.44 44.804 104 44.956 103.656 45.26C103.312 45.564 103.1 45.988 103.02 46.532ZM112.137 50.168C111.545 50.168 111.025 50.044 110.577 49.796C110.129 49.54 109.781 49.184 109.533 48.728C109.285 48.272 109.161 47.744 109.161 47.144V47C109.161 46.392 109.285 45.86 109.533 45.404C109.781 44.948 110.125 44.596 110.565 44.348C111.005 44.092 111.509 43.964 112.077 43.964C112.629 43.964 113.117 44.084 113.541 44.324C113.965 44.556 114.297 44.892 114.537 45.332C114.777 45.772 114.897 46.288 114.897 46.88V47.312H110.109C110.133 47.944 110.337 48.44 110.721 48.8C111.105 49.152 111.585 49.328 112.161 49.328C112.665 49.328 113.053 49.212 113.325 48.98C113.597 48.748 113.805 48.472 113.949 48.152L114.765 48.548C114.645 48.796 114.477 49.044 114.261 49.292C114.053 49.54 113.777 49.748 113.433 49.916C113.097 50.084 112.665 50.168 112.137 50.168ZM110.121 46.532H113.937C113.905 45.988 113.717 45.564 113.373 45.26C113.037 44.956 112.605 44.804 112.077 44.804C111.541 44.804 111.101 44.956 110.757 45.26C110.413 45.564 110.201 45.988 110.121 46.532ZM116.551 50V44.132H117.475V45.128H117.643C117.771 44.848 117.987 44.596 118.291 44.372C118.603 44.14 119.059 44.024 119.659 44.024C120.099 44.024 120.491 44.116 120.835 44.3C121.187 44.484 121.467 44.756 121.675 45.116C121.883 45.476 121.987 45.92 121.987 46.448V50H121.039V46.52C121.039 45.936 120.891 45.512 120.595 45.248C120.307 44.984 119.915 44.852 119.419 44.852C118.851 44.852 118.387 45.036 118.027 45.404C117.675 45.772 117.499 46.32 117.499 47.048V50H116.551ZM128.48 50L126.38 44.132H127.388L129.152 49.292H129.32L131.084 44.132H132.092L129.992 50H128.48ZM135.914 50.168C135.322 50.168 134.802 50.044 134.354 49.796C133.906 49.54 133.558 49.184 133.31 48.728C133.062 48.272 132.938 47.744 132.938 47.144V47C132.938 46.392 133.062 45.86 133.31 45.404C133.558 44.948 133.902 44.596 134.342 44.348C134.782 44.092 135.286 43.964 135.854 43.964C136.406 43.964 136.894 44.084 137.318 44.324C137.742 44.556 138.074 44.892 138.314 45.332C138.554 45.772 138.674 46.288 138.674 46.88V47.312H133.886C133.91 47.944 134.114 48.44 134.498 48.8C134.882 49.152 135.362 49.328 135.938 49.328C136.442 49.328 136.83 49.212 137.102 48.98C137.374 48.748 137.582 48.472 137.726 48.152L138.542 48.548C138.422 48.796 138.254 49.044 138.038 49.292C137.83 49.54 137.554 49.748 137.21 49.916C136.874 50.084 136.442 50.168 135.914 50.168ZM133.898 46.532H137.714C137.682 45.988 137.494 45.564 137.15 45.26C136.814 44.956 136.382 44.804 135.854 44.804C135.318 44.804 134.878 44.956 134.534 45.26C134.19 45.564 133.978 45.988 133.898 46.532ZM140.328 50V44.132H141.252V44.852H141.42C141.524 44.596 141.684 44.408 141.9 44.288C142.116 44.168 142.4 44.108 142.752 44.108H143.448V44.972H142.692C142.268 44.972 141.924 45.092 141.66 45.332C141.404 45.564 141.276 45.928 141.276 46.424V50H140.328ZM144.851 50V44.132H145.799V50H144.851ZM145.331 43.22C145.123 43.22 144.947 43.152 144.803 43.016C144.667 42.88 144.599 42.708 144.599 42.5C144.599 42.284 144.667 42.108 144.803 41.972C144.947 41.836 145.123 41.768 145.331 41.768C145.539 41.768 145.711 41.836 145.847 41.972C145.983 42.108 146.051 42.284 146.051 42.5C146.051 42.708 145.983 42.88 145.847 43.016C145.711 43.152 145.539 43.22 145.331 43.22ZM148.945 50V44.96H147.145V44.132H148.945V42.632C148.945 42.312 149.033 42.06 149.209 41.876C149.393 41.692 149.653 41.6 149.989 41.6H151.429V42.416H150.253C150.013 42.416 149.893 42.536 149.893 42.776V44.132H152.809V44.96H149.893V50H148.945ZM152.809 50V44.132H153.757V50H152.809ZM153.277 43.232C153.077 43.232 152.905 43.164 152.761 43.028C152.625 42.892 152.557 42.72 152.557 42.512C152.557 42.296 152.625 42.124 152.761 41.996C152.905 41.86 153.077 41.792 153.277 41.792C153.493 41.792 153.669 41.86 153.805 41.996C153.941 42.124 154.009 42.296 154.009 42.512C154.009 42.72 153.941 42.892 153.805 43.028C153.669 43.164 153.493 43.232 153.277 43.232ZM158.438 50.168C157.846 50.168 157.326 50.044 156.878 49.796C156.43 49.54 156.082 49.184 155.834 48.728C155.586 48.272 155.462 47.744 155.462 47.144V47C155.462 46.392 155.586 45.86 155.834 45.404C156.082 44.948 156.426 44.596 156.866 44.348C157.306 44.092 157.81 43.964 158.378 43.964C158.93 43.964 159.418 44.084 159.842 44.324C160.266 44.556 160.598 44.892 160.838 45.332C161.078 45.772 161.198 46.288 161.198 46.88V47.312H156.41C156.434 47.944 156.638 48.44 157.022 48.8C157.406 49.152 157.886 49.328 158.462 49.328C158.966 49.328 159.354 49.212 159.626 48.98C159.898 48.748 160.106 48.472 160.25 48.152L161.066 48.548C160.946 48.796 160.778 49.044 160.562 49.292C160.354 49.54 160.078 49.748 159.734 49.916C159.398 50.084 158.966 50.168 158.438 50.168ZM156.422 46.532H160.238C160.206 45.988 160.018 45.564 159.674 45.26C159.338 44.956 158.906 44.804 158.378 44.804C157.842 44.804 157.402 44.956 157.058 45.26C156.714 45.564 156.502 45.988 156.422 46.532ZM165.335 50.168C164.831 50.168 164.367 50.048 163.943 49.808C163.519 49.568 163.183 49.22 162.935 48.764C162.687 48.308 162.563 47.768 162.563 47.144V46.988C162.563 46.364 162.687 45.828 162.935 45.38C163.183 44.924 163.515 44.576 163.931 44.336C164.355 44.088 164.823 43.964 165.335 43.964C165.743 43.964 166.087 44.02 166.367 44.132C166.655 44.236 166.887 44.372 167.063 44.54C167.239 44.7 167.375 44.872 167.471 45.056H167.639V41.6H168.587V50H167.663V49.028H167.495C167.335 49.324 167.087 49.588 166.751 49.82C166.415 50.052 165.943 50.168 165.335 50.168ZM165.587 49.328C166.195 49.328 166.687 49.136 167.063 48.752C167.447 48.36 167.639 47.816 167.639 47.12V47.012C167.639 46.316 167.447 45.776 167.063 45.392C166.687 45 166.195 44.804 165.587 44.804C164.987 44.804 164.491 45 164.099 45.392C163.715 45.776 163.523 46.316 163.523 47.012V47.12C163.523 47.816 163.715 48.36 164.099 48.752C164.491 49.136 164.987 49.328 165.587 49.328ZM174.364 52.4V51.56H177.724C177.956 51.56 178.072 51.44 178.072 51.2V49.064H177.904C177.824 49.232 177.7 49.4 177.532 49.568C177.372 49.728 177.16 49.86 176.896 49.964C176.632 50.06 176.3 50.108 175.9 50.108C175.476 50.108 175.084 50.016 174.724 49.832C174.372 49.648 174.092 49.376 173.884 49.016C173.684 48.656 173.584 48.216 173.584 47.696V44.132H174.532V47.624C174.532 48.2 174.676 48.62 174.964 48.884C175.26 49.148 175.656 49.28 176.152 49.28C176.712 49.28 177.172 49.096 177.532 48.728C177.892 48.36 178.072 47.812 178.072 47.084V44.132H179.02V51.368C179.02 51.688 178.928 51.94 178.744 52.124C178.568 52.308 178.308 52.4 177.964 52.4H174.364ZM183.716 50.168C183.124 50.168 182.6 50.044 182.144 49.796C181.696 49.548 181.344 49.2 181.088 48.752C180.84 48.296 180.716 47.76 180.716 47.144V46.988C180.716 46.38 180.84 45.848 181.088 45.392C181.344 44.936 181.696 44.584 182.144 44.336C182.6 44.088 183.124 43.964 183.716 43.964C184.308 43.964 184.828 44.088 185.276 44.336C185.732 44.584 186.084 44.936 186.332 45.392C186.588 45.848 186.716 46.38 186.716 46.988V47.144C186.716 47.76 186.588 48.296 186.332 48.752C186.084 49.2 185.732 49.548 185.276 49.796C184.828 50.044 184.308 50.168 183.716 50.168ZM183.716 49.316C184.34 49.316 184.836 49.12 185.204 48.728C185.58 48.328 185.768 47.792 185.768 47.12V47.012C185.768 46.34 185.58 45.808 185.204 45.416C184.836 45.016 184.34 44.816 183.716 44.816C183.1 44.816 182.604 45.016 182.228 45.416C181.852 45.808 181.664 46.34 181.664 47.012V47.12C181.664 47.792 181.852 48.328 182.228 48.728C182.604 49.12 183.1 49.316 183.716 49.316ZM190.666 50.108C190.242 50.108 189.85 50.016 189.49 49.832C189.138 49.648 188.858 49.376 188.65 49.016C188.45 48.648 188.35 48.204 188.35 47.684V44.132H189.298V47.612C189.298 48.196 189.442 48.62 189.73 48.884C190.026 49.148 190.422 49.28 190.918 49.28C191.478 49.28 191.938 49.096 192.298 48.728C192.658 48.36 192.838 47.812 192.838 47.084V44.132H193.786V50H192.862V49.004H192.694C192.566 49.284 192.346 49.54 192.034 49.772C191.722 49.996 191.266 50.108 190.666 50.108ZM195.769 50V44.132H196.693V44.852H196.861C196.965 44.596 197.125 44.408 197.341 44.288C197.557 44.168 197.841 44.108 198.193 44.108H198.889V44.972H198.133C197.709 44.972 197.365 45.092 197.101 45.332C196.845 45.564 196.717 45.928 196.717 46.424V50H195.769ZM26.996 67.4V59.132H27.92V60.104H28.088C28.24 59.808 28.484 59.544 28.82 59.312C29.164 59.08 29.64 58.964 30.248 58.964C30.752 58.964 31.212 59.088 31.628 59.336C32.052 59.576 32.388 59.92 32.636 60.368C32.892 60.816 33.02 61.356 33.02 61.988V62.144C33.02 62.768 32.896 63.308 32.648 63.764C32.4 64.22 32.064 64.568 31.64 64.808C31.224 65.048 30.76 65.168 30.248 65.168C29.84 65.168 29.492 65.112 29.204 65C28.924 64.896 28.696 64.76 28.52 64.592C28.344 64.424 28.208 64.252 28.112 64.076H27.944V67.4H26.996ZM29.996 64.328C30.604 64.328 31.096 64.136 31.472 63.752C31.856 63.36 32.048 62.816 32.048 62.12V62.012C32.048 61.316 31.856 60.776 31.472 60.392C31.096 60 30.604 59.804 29.996 59.804C29.396 59.804 28.9 60 28.508 60.392C28.124 60.776 27.932 61.316 27.932 62.012V62.12C27.932 62.816 28.124 63.36 28.508 63.752C28.9 64.136 29.396 64.328 29.996 64.328ZM34.7187 65V59.132H35.6427V59.852H35.8107C35.9147 59.596 36.0747 59.408 36.2907 59.288C36.5067 59.168 36.7907 59.108 37.1427 59.108H37.8387V59.972H37.0827C36.6587 59.972 36.3147 60.092 36.0507 60.332C35.7947 60.564 35.6667 60.928 35.6667 61.424V65H34.7187ZM41.7432 65.168C41.1512 65.168 40.6272 65.044 40.1712 64.796C39.7232 64.548 39.3712 64.2 39.1152 63.752C38.8672 63.296 38.7432 62.76 38.7432 62.144V61.988C38.7432 61.38 38.8672 60.848 39.1152 60.392C39.3712 59.936 39.7232 59.584 40.1712 59.336C40.6272 59.088 41.1512 58.964 41.7432 58.964C42.3352 58.964 42.8552 59.088 43.3032 59.336C43.7592 59.584 44.1112 59.936 44.3592 60.392C44.6152 60.848 44.7432 61.38 44.7432 61.988V62.144C44.7432 62.76 44.6152 63.296 44.3592 63.752C44.1112 64.2 43.7592 64.548 43.3032 64.796C42.8552 65.044 42.3352 65.168 41.7432 65.168ZM41.7432 64.316C42.3672 64.316 42.8632 64.12 43.2312 63.728C43.6072 63.328 43.7952 62.792 43.7952 62.12V62.012C43.7952 61.34 43.6072 60.808 43.2312 60.416C42.8632 60.016 42.3672 59.816 41.7432 59.816C41.1272 59.816 40.6312 60.016 40.2552 60.416C39.8792 60.808 39.6912 61.34 39.6912 62.012V62.12C39.6912 62.792 39.8792 63.328 40.2552 63.728C40.6312 64.12 41.1272 64.316 41.7432 64.316ZM48.9331 65.168C48.4291 65.168 47.9651 65.048 47.5411 64.808C47.1171 64.568 46.7811 64.22 46.5331 63.764C46.2851 63.308 46.1611 62.768 46.1611 62.144V61.988C46.1611 61.364 46.2851 60.828 46.5331 60.38C46.7811 59.924 47.1131 59.576 47.5291 59.336C47.9531 59.088 48.4211 58.964 48.9331 58.964C49.3411 58.964 49.6851 59.02 49.9651 59.132C50.2531 59.236 50.4851 59.372 50.6611 59.54C50.8371 59.7 50.9731 59.872 51.0691 60.056H51.2371V56.6H52.1851V65H51.2611V64.028H51.0931C50.9331 64.324 50.6851 64.588 50.3491 64.82C50.0131 65.052 49.5411 65.168 48.9331 65.168ZM49.1851 64.328C49.7931 64.328 50.2851 64.136 50.6611 63.752C51.0451 63.36 51.2371 62.816 51.2371 62.12V62.012C51.2371 61.316 51.0451 60.776 50.6611 60.392C50.2851 60 49.7931 59.804 49.1851 59.804C48.5851 59.804 48.0891 60 47.6971 60.392C47.3131 60.776 47.1211 61.316 47.1211 62.012V62.12C47.1211 62.816 47.3131 63.36 47.6971 63.752C48.0891 64.136 48.5851 64.328 49.1851 64.328ZM56.4158 65.108C55.9918 65.108 55.5998 65.016 55.2398 64.832C54.8878 64.648 54.6078 64.376 54.3998 64.016C54.1998 63.648 54.0998 63.204 54.0998 62.684V59.132H55.0478V62.612C55.0478 63.196 55.1918 63.62 55.4798 63.884C55.7758 64.148 56.1718 64.28 56.6678 64.28C57.2278 64.28 57.6878 64.096 58.0478 63.728C58.4078 63.36 58.5878 62.812 58.5878 62.084V59.132H59.5358V65H58.6118V64.004H58.4438C58.3158 64.284 58.0958 64.54 57.7838 64.772C57.4718 64.996 57.0158 65.108 56.4158 65.108ZM64.2194 65.168C63.6514 65.168 63.1394 65.048 62.6834 64.808C62.2354 64.56 61.8794 64.208 61.6154 63.752C61.3594 63.296 61.2314 62.756 61.2314 62.132V62C61.2314 61.368 61.3594 60.828 61.6154 60.38C61.8794 59.924 62.2354 59.576 62.6834 59.336C63.1394 59.088 63.6514 58.964 64.2194 58.964C64.7794 58.964 65.2554 59.068 65.6474 59.276C66.0474 59.484 66.3594 59.76 66.5834 60.104C66.8154 60.448 66.9634 60.816 67.0274 61.208L66.1034 61.4C66.0634 61.112 65.9674 60.848 65.8154 60.608C65.6714 60.368 65.4674 60.176 65.2034 60.032C64.9394 59.888 64.6154 59.816 64.2314 59.816C63.8394 59.816 63.4874 59.904 63.1754 60.08C62.8714 60.256 62.6274 60.508 62.4434 60.836C62.2674 61.164 62.1794 61.556 62.1794 62.012V62.12C62.1794 62.576 62.2674 62.968 62.4434 63.296C62.6274 63.624 62.8714 63.876 63.1754 64.052C63.4874 64.228 63.8394 64.316 64.2314 64.316C64.8154 64.316 65.2594 64.164 65.5634 63.86C65.8754 63.556 66.0674 63.18 66.1394 62.732L67.0754 62.936C66.9874 63.32 66.8274 63.684 66.5954 64.028C66.3634 64.372 66.0474 64.648 65.6474 64.856C65.2554 65.064 64.7794 65.168 64.2194 65.168ZM70.6169 65C70.2809 65 70.0209 64.908 69.8369 64.724C69.6609 64.54 69.5729 64.288 69.5729 63.968V59.96H67.8089V59.132H69.5729V57.044H70.5209V59.132H72.4409V59.96H70.5209V63.824C70.5209 64.064 70.6369 64.184 70.8689 64.184H72.1769V65H70.6169ZM77.8745 65L76.6985 59.132H77.6585L78.6305 64.364H78.7985L80.0825 59.132H81.6545L82.9385 64.364H83.1065L84.0785 59.132H85.0385L83.8625 65H82.2425L80.9465 59.768H80.7905L79.4945 65H77.8745ZM86.6679 65V59.132H87.6159V65H86.6679ZM87.1479 58.22C86.9399 58.22 86.7639 58.152 86.6199 58.016C86.4839 57.88 86.4159 57.708 86.4159 57.5C86.4159 57.284 86.4839 57.108 86.6199 56.972C86.7639 56.836 86.9399 56.768 87.1479 56.768C87.3559 56.768 87.5279 56.836 87.6639 56.972C87.7999 57.108 87.8679 57.284 87.8679 57.5C87.8679 57.708 87.7999 57.88 87.6639 58.016C87.5279 58.152 87.3559 58.22 87.1479 58.22ZM89.6093 65V56.6H90.5573V65H89.6093ZM92.5507 65V56.6H93.4987V65H92.5507ZM101.826 65.168C101.218 65.168 100.742 65.052 100.398 64.82C100.062 64.588 99.8181 64.324 99.6661 64.028H99.4981V65H98.5741V56.6H99.5221V60.056H99.6901C99.7861 59.872 99.9221 59.7 100.098 59.54C100.274 59.372 100.502 59.236 100.782 59.132C101.07 59.02 101.418 58.964 101.826 58.964C102.338 58.964 102.802 59.088 103.218 59.336C103.642 59.576 103.978 59.924 104.226 60.38C104.474 60.828 104.598 61.364 104.598 61.988V62.144C104.598 62.768 104.47 63.308 104.214 63.764C103.966 64.22 103.63 64.568 103.206 64.808C102.79 65.048 102.33 65.168 101.826 65.168ZM101.574 64.328C102.182 64.328 102.674 64.136 103.05 63.752C103.434 63.36 103.626 62.816 103.626 62.12V62.012C103.626 61.316 103.434 60.776 103.05 60.392C102.674 60 102.182 59.804 101.574 59.804C100.974 59.804 100.478 60 100.086 60.392C99.7021 60.776 99.5101 61.316 99.5101 62.012V62.12C99.5101 62.816 99.7021 63.36 100.086 63.752C100.478 64.136 100.974 64.328 101.574 64.328ZM108.985 65.168C108.393 65.168 107.873 65.044 107.425 64.796C106.977 64.54 106.629 64.184 106.381 63.728C106.133 63.272 106.009 62.744 106.009 62.144V62C106.009 61.392 106.133 60.86 106.381 60.404C106.629 59.948 106.973 59.596 107.413 59.348C107.853 59.092 108.357 58.964 108.925 58.964C109.477 58.964 109.965 59.084 110.389 59.324C110.813 59.556 111.145 59.892 111.385 60.332C111.625 60.772 111.745 61.288 111.745 61.88V62.312H106.957C106.981 62.944 107.185 63.44 107.569 63.8C107.953 64.152 108.433 64.328 109.009 64.328C109.513 64.328 109.901 64.212 110.173 63.98C110.445 63.748 110.653 63.472 110.797 63.152L111.613 63.548C111.493 63.796 111.325 64.044 111.109 64.292C110.901 64.54 110.625 64.748 110.281 64.916C109.945 65.084 109.513 65.168 108.985 65.168ZM106.969 61.532H110.785C110.753 60.988 110.565 60.564 110.221 60.26C109.885 59.956 109.453 59.804 108.925 59.804C108.389 59.804 107.949 59.956 107.605 60.26C107.261 60.564 107.049 60.988 106.969 61.532ZM116.48 65V56.6H117.428V65H116.48ZM119.422 65V59.132H120.37V65H119.422ZM119.902 58.22C119.694 58.22 119.518 58.152 119.374 58.016C119.238 57.88 119.17 57.708 119.17 57.5C119.17 57.284 119.238 57.108 119.374 56.972C119.518 56.836 119.694 56.768 119.902 56.768C120.11 56.768 120.282 56.836 120.418 56.972C120.554 57.108 120.622 57.284 120.622 57.5C120.622 57.708 120.554 57.88 120.418 58.016C120.282 58.152 120.11 58.22 119.902 58.22ZM124.727 65.168C123.999 65.168 123.383 65 122.879 64.664C122.383 64.328 122.083 63.796 121.979 63.068L122.879 62.864C122.943 63.248 123.063 63.552 123.239 63.776C123.415 63.992 123.631 64.148 123.887 64.244C124.151 64.332 124.431 64.376 124.727 64.376C125.167 64.376 125.515 64.288 125.771 64.112C126.027 63.936 126.155 63.7 126.155 63.404C126.155 63.1 126.031 62.888 125.783 62.768C125.543 62.64 125.211 62.536 124.787 62.456L124.295 62.372C123.919 62.308 123.575 62.208 123.263 62.072C122.951 61.936 122.703 61.752 122.519 61.52C122.335 61.288 122.243 60.996 122.243 60.644C122.243 60.116 122.447 59.704 122.855 59.408C123.263 59.112 123.803 58.964 124.475 58.964C125.139 58.964 125.675 59.116 126.083 59.42C126.499 59.716 126.767 60.136 126.887 60.68L125.999 60.908C125.927 60.484 125.755 60.188 125.483 60.02C125.211 59.844 124.875 59.756 124.475 59.756C124.075 59.756 123.759 59.832 123.527 59.984C123.295 60.128 123.179 60.344 123.179 60.632C123.179 60.912 123.287 61.12 123.503 61.256C123.727 61.384 124.023 61.48 124.391 61.544L124.883 61.628C125.299 61.7 125.671 61.8 125.999 61.928C126.335 62.048 126.599 62.224 126.791 62.456C126.991 62.688 127.091 62.992 127.091 63.368C127.091 63.944 126.875 64.388 126.443 64.7C126.019 65.012 125.447 65.168 124.727 65.168ZM130.722 65C130.386 65 130.126 64.908 129.942 64.724C129.766 64.54 129.678 64.288 129.678 63.968V59.96H127.914V59.132H129.678V57.044H130.626V59.132H132.546V59.96H130.626V63.824C130.626 64.064 130.742 64.184 130.974 64.184H132.282V65H130.722ZM136.559 65.168C135.967 65.168 135.447 65.044 134.999 64.796C134.551 64.54 134.203 64.184 133.955 63.728C133.707 63.272 133.583 62.744 133.583 62.144V62C133.583 61.392 133.707 60.86 133.955 60.404C134.203 59.948 134.547 59.596 134.987 59.348C135.427 59.092 135.931 58.964 136.499 58.964C137.051 58.964 137.539 59.084 137.963 59.324C138.387 59.556 138.719 59.892 138.959 60.332C139.199 60.772 139.319 61.288 139.319 61.88V62.312H134.531C134.555 62.944 134.759 63.44 135.143 63.8C135.527 64.152 136.007 64.328 136.583 64.328C137.087 64.328 137.475 64.212 137.747 63.98C138.019 63.748 138.227 63.472 138.371 63.152L139.187 63.548C139.067 63.796 138.899 64.044 138.683 64.292C138.475 64.54 138.199 64.748 137.855 64.916C137.519 65.084 137.087 65.168 136.559 65.168ZM134.543 61.532H138.359C138.327 60.988 138.139 60.564 137.795 60.26C137.459 59.956 137.027 59.804 136.499 59.804C135.963 59.804 135.523 59.956 135.179 60.26C134.835 60.564 134.623 60.988 134.543 61.532ZM143.457 65.168C142.953 65.168 142.489 65.048 142.065 64.808C141.641 64.568 141.305 64.22 141.057 63.764C140.809 63.308 140.685 62.768 140.685 62.144V61.988C140.685 61.364 140.809 60.828 141.057 60.38C141.305 59.924 141.637 59.576 142.053 59.336C142.477 59.088 142.945 58.964 143.457 58.964C143.865 58.964 144.209 59.02 144.489 59.132C144.777 59.236 145.009 59.372 145.185 59.54C145.361 59.7 145.497 59.872 145.593 60.056H145.761V56.6H146.709V65H145.785V64.028H145.617C145.457 64.324 145.209 64.588 144.873 64.82C144.537 65.052 144.065 65.168 143.457 65.168ZM143.709 64.328C144.317 64.328 144.809 64.136 145.185 63.752C145.569 63.36 145.761 62.816 145.761 62.12V62.012C145.761 61.316 145.569 60.776 145.185 60.392C144.809 60 144.317 59.804 143.709 59.804C143.109 59.804 142.613 60 142.221 60.392C141.837 60.776 141.645 61.316 141.645 62.012V62.12C141.645 62.816 141.837 63.36 142.221 63.752C142.613 64.136 143.109 64.328 143.709 64.328ZM153.577 65.168C153.169 65.168 152.797 65.096 152.461 64.952C152.125 64.808 151.861 64.6 151.669 64.328C151.477 64.056 151.381 63.724 151.381 63.332C151.381 62.932 151.477 62.604 151.669 62.348C151.861 62.084 152.125 61.888 152.461 61.76C152.797 61.624 153.173 61.556 153.589 61.556H155.569V61.124C155.569 60.708 155.445 60.38 155.197 60.14C154.957 59.9 154.597 59.78 154.117 59.78C153.645 59.78 153.277 59.896 153.013 60.128C152.749 60.352 152.569 60.656 152.473 61.04L151.585 60.752C151.681 60.424 151.833 60.128 152.041 59.864C152.249 59.592 152.525 59.376 152.869 59.216C153.221 59.048 153.641 58.964 154.129 58.964C154.881 58.964 155.465 59.16 155.881 59.552C156.297 59.936 156.505 60.48 156.505 61.184V63.836C156.505 64.076 156.617 64.196 156.841 64.196H157.381V65H156.553C156.289 65 156.077 64.928 155.917 64.784C155.757 64.632 155.677 64.432 155.677 64.184V64.124H155.533C155.445 64.276 155.325 64.436 155.173 64.604C155.029 64.764 154.829 64.896 154.573 65C154.317 65.112 153.985 65.168 153.577 65.168ZM153.685 64.352C154.245 64.352 154.697 64.188 155.041 63.86C155.393 63.524 155.569 63.056 155.569 62.456V62.324H153.625C153.249 62.324 152.937 62.408 152.689 62.576C152.449 62.736 152.329 62.98 152.329 63.308C152.329 63.636 152.453 63.892 152.701 64.076C152.957 64.26 153.285 64.352 153.685 64.352ZM161.216 65.168C160.648 65.168 160.136 65.048 159.68 64.808C159.232 64.56 158.876 64.208 158.612 63.752C158.356 63.296 158.228 62.756 158.228 62.132V62C158.228 61.368 158.356 60.828 158.612 60.38C158.876 59.924 159.232 59.576 159.68 59.336C160.136 59.088 160.648 58.964 161.216 58.964C161.776 58.964 162.252 59.068 162.644 59.276C163.044 59.484 163.356 59.76 163.58 60.104C163.812 60.448 163.96 60.816 164.024 61.208L163.1 61.4C163.06 61.112 162.964 60.848 162.812 60.608C162.668 60.368 162.464 60.176 162.2 60.032C161.936 59.888 161.612 59.816 161.228 59.816C160.836 59.816 160.484 59.904 160.172 60.08C159.868 60.256 159.624 60.508 159.44 60.836C159.264 61.164 159.176 61.556 159.176 62.012V62.12C159.176 62.576 159.264 62.968 159.44 63.296C159.624 63.624 159.868 63.876 160.172 64.052C160.484 64.228 160.836 64.316 161.228 64.316C161.812 64.316 162.256 64.164 162.56 63.86C162.872 63.556 163.064 63.18 163.136 62.732L164.072 62.936C163.984 63.32 163.824 63.684 163.592 64.028C163.36 64.372 163.044 64.648 162.644 64.856C162.252 65.064 161.776 65.168 161.216 65.168ZM168.387 65.168C167.819 65.168 167.307 65.048 166.851 64.808C166.403 64.56 166.047 64.208 165.783 63.752C165.527 63.296 165.399 62.756 165.399 62.132V62C165.399 61.368 165.527 60.828 165.783 60.38C166.047 59.924 166.403 59.576 166.851 59.336C167.307 59.088 167.819 58.964 168.387 58.964C168.947 58.964 169.423 59.068 169.815 59.276C170.215 59.484 170.527 59.76 170.751 60.104C170.983 60.448 171.131 60.816 171.195 61.208L170.271 61.4C170.231 61.112 170.135 60.848 169.983 60.608C169.839 60.368 169.635 60.176 169.371 60.032C169.107 59.888 168.783 59.816 168.399 59.816C168.007 59.816 167.655 59.904 167.343 60.08C167.039 60.256 166.795 60.508 166.611 60.836C166.435 61.164 166.347 61.556 166.347 62.012V62.12C166.347 62.576 166.435 62.968 166.611 63.296C166.795 63.624 167.039 63.876 167.343 64.052C167.655 64.228 168.007 64.316 168.399 64.316C168.983 64.316 169.427 64.164 169.731 63.86C170.043 63.556 170.235 63.18 170.307 62.732L171.243 62.936C171.155 63.32 170.995 63.684 170.763 64.028C170.531 64.372 170.215 64.648 169.815 64.856C169.423 65.064 168.947 65.168 168.387 65.168ZM175.571 65.168C174.979 65.168 174.455 65.044 173.999 64.796C173.551 64.548 173.199 64.2 172.943 63.752C172.695 63.296 172.571 62.76 172.571 62.144V61.988C172.571 61.38 172.695 60.848 172.943 60.392C173.199 59.936 173.551 59.584 173.999 59.336C174.455 59.088 174.979 58.964 175.571 58.964C176.163 58.964 176.683 59.088 177.131 59.336C177.587 59.584 177.939 59.936 178.187 60.392C178.443 60.848 178.571 61.38 178.571 61.988V62.144C178.571 62.76 178.443 63.296 178.187 63.752C177.939 64.2 177.587 64.548 177.131 64.796C176.683 65.044 176.163 65.168 175.571 65.168ZM175.571 64.316C176.195 64.316 176.691 64.12 177.059 63.728C177.435 63.328 177.623 62.792 177.623 62.12V62.012C177.623 61.34 177.435 60.808 177.059 60.416C176.691 60.016 176.195 59.816 175.571 59.816C174.955 59.816 174.459 60.016 174.083 60.416C173.707 60.808 173.519 61.34 173.519 62.012V62.12C173.519 62.792 173.707 63.328 174.083 63.728C174.459 64.12 174.955 64.316 175.571 64.316ZM180.277 65V59.132H181.201V59.852H181.369C181.473 59.596 181.633 59.408 181.849 59.288C182.065 59.168 182.349 59.108 182.701 59.108H183.397V59.972H182.641C182.217 59.972 181.873 60.092 181.609 60.332C181.353 60.564 181.225 60.928 181.225 61.424V65H180.277ZM187.074 65.168C186.57 65.168 186.106 65.048 185.682 64.808C185.258 64.568 184.922 64.22 184.674 63.764C184.426 63.308 184.302 62.768 184.302 62.144V61.988C184.302 61.364 184.426 60.828 184.674 60.38C184.922 59.924 185.254 59.576 185.67 59.336C186.094 59.088 186.562 58.964 187.074 58.964C187.482 58.964 187.826 59.02 188.106 59.132C188.394 59.236 188.626 59.372 188.802 59.54C188.978 59.7 189.114 59.872 189.21 60.056H189.378V56.6H190.326V65H189.402V64.028H189.234C189.074 64.324 188.826 64.588 188.49 64.82C188.154 65.052 187.682 65.168 187.074 65.168ZM187.326 64.328C187.934 64.328 188.426 64.136 188.802 63.752C189.186 63.36 189.378 62.816 189.378 62.12V62.012C189.378 61.316 189.186 60.776 188.802 60.392C188.426 60 187.934 59.804 187.326 59.804C186.726 59.804 186.23 60 185.838 60.392C185.454 60.776 185.262 61.316 185.262 62.012V62.12C185.262 62.816 185.454 63.36 185.838 63.752C186.23 64.136 186.726 64.328 187.326 64.328ZM192.312 65V59.132H193.26V65H192.312ZM192.792 58.22C192.584 58.22 192.408 58.152 192.264 58.016C192.128 57.88 192.06 57.708 192.06 57.5C192.06 57.284 192.128 57.108 192.264 56.972C192.408 56.836 192.584 56.768 192.792 56.768C193 56.768 193.172 56.836 193.308 56.972C193.444 57.108 193.512 57.284 193.512 57.5C193.512 57.708 193.444 57.88 193.308 58.016C193.172 58.152 193 58.22 192.792 58.22ZM195.254 65V59.132H196.178V60.128H196.346C196.474 59.848 196.69 59.596 196.994 59.372C197.306 59.14 197.762 59.024 198.362 59.024C198.802 59.024 199.194 59.116 199.538 59.3C199.89 59.484 200.17 59.756 200.378 60.116C200.586 60.476 200.69 60.92 200.69 61.448V65H199.742V61.52C199.742 60.936 199.594 60.512 199.298 60.248C199.01 59.984 198.618 59.852 198.122 59.852C197.554 59.852 197.09 60.036 196.73 60.404C196.378 60.772 196.202 61.32 196.202 62.048V65H195.254ZM202.325 62.096V61.928C202.325 61.312 202.449 60.784 202.697 60.344C202.945 59.904 203.281 59.564 203.705 59.324C204.129 59.084 204.593 58.964 205.097 58.964C205.713 58.964 206.185 59.084 206.513 59.324C206.849 59.556 207.097 59.816 207.257 60.104H207.425V59.132H208.325V66.368C208.325 66.688 208.237 66.94 208.061 67.124C207.885 67.308 207.629 67.4 207.293 67.4H203.309V66.56H207.041C207.281 66.56 207.401 66.44 207.401 66.2V63.968H207.233C207.137 64.144 207.001 64.316 206.825 64.484C206.649 64.652 206.421 64.792 206.141 64.904C205.861 65.008 205.513 65.06 205.097 65.06C204.593 65.06 204.129 64.94 203.705 64.7C203.281 64.46 202.945 64.12 202.697 63.68C202.449 63.232 202.325 62.704 202.325 62.096ZM205.349 64.22C205.957 64.22 206.449 64.028 206.825 63.644C207.209 63.26 207.401 62.732 207.401 62.06V61.964C207.401 61.284 207.209 60.756 206.825 60.38C206.449 59.996 205.957 59.804 205.349 59.804C204.749 59.804 204.253 59.996 203.861 60.38C203.477 60.756 203.285 61.284 203.285 61.964V62.06C203.285 62.732 203.477 63.26 203.861 63.644C204.253 64.028 204.749 64.22 205.349 64.22ZM29.156 80C28.82 80 28.56 79.908 28.376 79.724C28.2 79.54 28.112 79.288 28.112 78.968V74.96H26.348V74.132H28.112V72.044H29.06V74.132H30.98V74.96H29.06V78.824C29.06 79.064 29.176 79.184 29.408 79.184H30.716V80H29.156ZM35.0166 80.168C34.4246 80.168 33.9006 80.044 33.4446 79.796C32.9966 79.548 32.6446 79.2 32.3886 78.752C32.1406 78.296 32.0166 77.76 32.0166 77.144V76.988C32.0166 76.38 32.1406 75.848 32.3886 75.392C32.6446 74.936 32.9966 74.584 33.4446 74.336C33.9006 74.088 34.4246 73.964 35.0166 73.964C35.6086 73.964 36.1286 74.088 36.5766 74.336C37.0326 74.584 37.3846 74.936 37.6326 75.392C37.8886 75.848 38.0166 76.38 38.0166 76.988V77.144C38.0166 77.76 37.8886 78.296 37.6326 78.752C37.3846 79.2 37.0326 79.548 36.5766 79.796C36.1286 80.044 35.6086 80.168 35.0166 80.168ZM35.0166 79.316C35.6406 79.316 36.1366 79.12 36.5046 78.728C36.8806 78.328 37.0686 77.792 37.0686 77.12V77.012C37.0686 76.34 36.8806 75.808 36.5046 75.416C36.1366 75.016 35.6406 74.816 35.0166 74.816C34.4006 74.816 33.9046 75.016 33.5286 75.416C33.1526 75.808 32.9646 76.34 32.9646 77.012V77.12C32.9646 77.792 33.1526 78.328 33.5286 78.728C33.9046 79.12 34.4006 79.316 35.0166 79.316ZM44.9646 80C44.6286 80 44.3686 79.908 44.1846 79.724C44.0086 79.54 43.9206 79.288 43.9206 78.968V74.96H42.1566V74.132H43.9206V72.044H44.8686V74.132H46.7886V74.96H44.8686V78.824C44.8686 79.064 44.9846 79.184 45.2166 79.184H46.5246V80H44.9646ZM48.3241 80V71.6H49.2721V75.068H49.4401C49.5201 74.892 49.6401 74.728 49.8001 74.576C49.9681 74.416 50.1801 74.284 50.4361 74.18C50.7001 74.076 51.0321 74.024 51.4321 74.024C51.8721 74.024 52.2641 74.12 52.6081 74.312C52.9601 74.496 53.2401 74.768 53.4481 75.128C53.6561 75.48 53.7601 75.92 53.7601 76.448V80H52.8121V76.52C52.8121 75.936 52.6641 75.512 52.3681 75.248C52.0801 74.984 51.6881 74.852 51.1921 74.852C50.6241 74.852 50.1601 75.036 49.8001 75.404C49.4481 75.772 49.2721 76.32 49.2721 77.048V80H48.3241ZM58.3715 80.168C57.7795 80.168 57.2595 80.044 56.8115 79.796C56.3635 79.54 56.0155 79.184 55.7675 78.728C55.5195 78.272 55.3955 77.744 55.3955 77.144V77C55.3955 76.392 55.5195 75.86 55.7675 75.404C56.0155 74.948 56.3595 74.596 56.7995 74.348C57.2395 74.092 57.7435 73.964 58.3115 73.964C58.8635 73.964 59.3515 74.084 59.7755 74.324C60.1995 74.556 60.5315 74.892 60.7715 75.332C61.0115 75.772 61.1315 76.288 61.1315 76.88V77.312H56.3435C56.3675 77.944 56.5715 78.44 56.9555 78.8C57.3395 79.152 57.8195 79.328 58.3955 79.328C58.8995 79.328 59.2875 79.212 59.5595 78.98C59.8315 78.748 60.0395 78.472 60.1835 78.152L60.9995 78.548C60.8795 78.796 60.7115 79.044 60.4955 79.292C60.2875 79.54 60.0115 79.748 59.6675 79.916C59.3315 80.084 58.8995 80.168 58.3715 80.168ZM56.3555 76.532H60.1715C60.1395 75.988 59.9515 75.564 59.6075 75.26C59.2715 74.956 58.8395 74.804 58.3115 74.804C57.7755 74.804 57.3355 74.956 56.9915 75.26C56.6475 75.564 56.4355 75.988 56.3555 76.532ZM65.8671 82.4V74.132H66.7911V75.104H66.9591C67.1111 74.808 67.3551 74.544 67.6911 74.312C68.0351 74.08 68.5111 73.964 69.1191 73.964C69.6231 73.964 70.0831 74.088 70.4991 74.336C70.9231 74.576 71.2591 74.92 71.5071 75.368C71.7631 75.816 71.8911 76.356 71.8911 76.988V77.144C71.8911 77.768 71.7671 78.308 71.5191 78.764C71.2711 79.22 70.9351 79.568 70.5111 79.808C70.0951 80.048 69.6311 80.168 69.1191 80.168C68.7111 80.168 68.3631 80.112 68.0751 80C67.7951 79.896 67.5671 79.76 67.3911 79.592C67.2151 79.424 67.0791 79.252 66.9831 79.076H66.8151V82.4H65.8671ZM68.8671 79.328C69.4751 79.328 69.9671 79.136 70.3431 78.752C70.7271 78.36 70.9191 77.816 70.9191 77.12V77.012C70.9191 76.316 70.7271 75.776 70.3431 75.392C69.9671 75 69.4751 74.804 68.8671 74.804C68.2671 74.804 67.7711 75 67.3791 75.392C66.9951 75.776 66.8031 76.316 66.8031 77.012V77.12C66.8031 77.816 66.9951 78.36 67.3791 78.752C67.7711 79.136 68.2671 79.328 68.8671 79.328ZM73.5898 80V71.6H74.5378V80H73.5898ZM78.3312 80.168C77.9232 80.168 77.5512 80.096 77.2152 79.952C76.8792 79.808 76.6152 79.6 76.4232 79.328C76.2312 79.056 76.1352 78.724 76.1352 78.332C76.1352 77.932 76.2312 77.604 76.4232 77.348C76.6152 77.084 76.8792 76.888 77.2152 76.76C77.5512 76.624 77.9272 76.556 78.3432 76.556H80.3232V76.124C80.3232 75.708 80.1992 75.38 79.9512 75.14C79.7112 74.9 79.3512 74.78 78.8712 74.78C78.3992 74.78 78.0312 74.896 77.7672 75.128C77.5032 75.352 77.3232 75.656 77.2272 76.04L76.3392 75.752C76.4352 75.424 76.5872 75.128 76.7952 74.864C77.0032 74.592 77.2792 74.376 77.6232 74.216C77.9752 74.048 78.3952 73.964 78.8832 73.964C79.6352 73.964 80.2192 74.16 80.6352 74.552C81.0512 74.936 81.2592 75.48 81.2592 76.184V78.836C81.2592 79.076 81.3712 79.196 81.5952 79.196H82.1352V80H81.3072C81.0432 80 80.8312 79.928 80.6712 79.784C80.5112 79.632 80.4312 79.432 80.4312 79.184V79.124H80.2872C80.1992 79.276 80.0792 79.436 79.9272 79.604C79.7832 79.764 79.5832 79.896 79.3272 80C79.0712 80.112 78.7392 80.168 78.3312 80.168ZM78.4392 79.352C78.9992 79.352 79.4512 79.188 79.7952 78.86C80.1472 78.524 80.3232 78.056 80.3232 77.456V77.324H78.3792C78.0032 77.324 77.6912 77.408 77.4432 77.576C77.2032 77.736 77.0832 77.98 77.0832 78.308C77.0832 78.636 77.2072 78.892 77.4552 79.076C77.7112 79.26 78.0392 79.352 78.4392 79.352ZM85.2068 80C84.8708 80 84.6108 79.908 84.4268 79.724C84.2508 79.54 84.1628 79.288 84.1628 78.968V74.96H82.3988V74.132H84.1628V72.044H85.1108V74.132H87.0308V74.96H85.1108V78.824C85.1108 79.064 85.2268 79.184 85.4588 79.184H86.7668V80H85.2068ZM89.355 80V74.96H87.555V74.132H89.355V72.632C89.355 72.312 89.443 72.06 89.619 71.876C89.803 71.692 90.063 71.6 90.399 71.6H91.875V72.416H90.663C90.423 72.416 90.303 72.536 90.303 72.776V74.132H92.151V74.96H90.303V80H89.355ZM95.9307 80.168C95.3387 80.168 94.8147 80.044 94.3587 79.796C93.9107 79.548 93.5587 79.2 93.3027 78.752C93.0547 78.296 92.9307 77.76 92.9307 77.144V76.988C92.9307 76.38 93.0547 75.848 93.3027 75.392C93.5587 74.936 93.9107 74.584 94.3587 74.336C94.8147 74.088 95.3387 73.964 95.9307 73.964C96.5227 73.964 97.0427 74.088 97.4907 74.336C97.9467 74.584 98.2987 74.936 98.5467 75.392C98.8027 75.848 98.9307 76.38 98.9307 76.988V77.144C98.9307 77.76 98.8027 78.296 98.5467 78.752C98.2987 79.2 97.9467 79.548 97.4907 79.796C97.0427 80.044 96.5227 80.168 95.9307 80.168ZM95.9307 79.316C96.5547 79.316 97.0507 79.12 97.4187 78.728C97.7947 78.328 97.9827 77.792 97.9827 77.12V77.012C97.9827 76.34 97.7947 75.808 97.4187 75.416C97.0507 75.016 96.5547 74.816 95.9307 74.816C95.3147 74.816 94.8187 75.016 94.4427 75.416C94.0667 75.808 93.8787 76.34 93.8787 77.012V77.12C93.8787 77.792 94.0667 78.328 94.4427 78.728C94.8187 79.12 95.3147 79.316 95.9307 79.316ZM100.637 80V74.132H101.561V74.852H101.729C101.833 74.596 101.993 74.408 102.209 74.288C102.425 74.168 102.709 74.108 103.061 74.108H103.757V74.972H103.001C102.577 74.972 102.233 75.092 101.969 75.332C101.713 75.564 101.585 75.928 101.585 76.424V80H100.637ZM105.16 80V74.132H106.084V74.864H106.252C106.364 74.656 106.548 74.464 106.804 74.288C107.06 74.112 107.42 74.024 107.884 74.024C108.34 74.024 108.708 74.124 108.988 74.324C109.276 74.524 109.484 74.768 109.612 75.056H109.78C109.916 74.768 110.12 74.524 110.392 74.324C110.672 74.124 111.06 74.024 111.556 74.024C111.948 74.024 112.292 74.104 112.588 74.264C112.884 74.424 113.116 74.656 113.284 74.96C113.46 75.256 113.548 75.612 113.548 76.028V80H112.6V76.112C112.6 75.72 112.484 75.412 112.252 75.188C112.028 74.956 111.712 74.84 111.304 74.84C110.872 74.84 110.516 74.98 110.236 75.26C109.964 75.54 109.828 75.944 109.828 76.472V80H108.88V76.112C108.88 75.72 108.764 75.412 108.532 75.188C108.308 74.956 107.992 74.84 107.584 74.84C107.152 74.84 106.796 74.98 106.516 75.26C106.244 75.54 106.108 75.944 106.108 76.472V80H105.16ZM119.274 82.4V81.56H122.634C122.866 81.56 122.982 81.44 122.982 81.2V79.064H122.814C122.734 79.232 122.61 79.4 122.442 79.568C122.282 79.728 122.07 79.86 121.806 79.964C121.542 80.06 121.21 80.108 120.81 80.108C120.386 80.108 119.994 80.016 119.634 79.832C119.282 79.648 119.002 79.376 118.794 79.016C118.594 78.656 118.494 78.216 118.494 77.696V74.132H119.442V77.624C119.442 78.2 119.586 78.62 119.874 78.884C120.17 79.148 120.566 79.28 121.062 79.28C121.622 79.28 122.082 79.096 122.442 78.728C122.802 78.36 122.982 77.812 122.982 77.084V74.132H123.93V81.368C123.93 81.688 123.838 81.94 123.654 82.124C123.478 82.308 123.218 82.4 122.874 82.4H119.274ZM128.626 80.168C128.034 80.168 127.51 80.044 127.054 79.796C126.606 79.548 126.254 79.2 125.998 78.752C125.75 78.296 125.626 77.76 125.626 77.144V76.988C125.626 76.38 125.75 75.848 125.998 75.392C126.254 74.936 126.606 74.584 127.054 74.336C127.51 74.088 128.034 73.964 128.626 73.964C129.218 73.964 129.738 74.088 130.186 74.336C130.642 74.584 130.994 74.936 131.242 75.392C131.498 75.848 131.626 76.38 131.626 76.988V77.144C131.626 77.76 131.498 78.296 131.242 78.752C130.994 79.2 130.642 79.548 130.186 79.796C129.738 80.044 129.218 80.168 128.626 80.168ZM128.626 79.316C129.25 79.316 129.746 79.12 130.114 78.728C130.49 78.328 130.678 77.792 130.678 77.12V77.012C130.678 76.34 130.49 75.808 130.114 75.416C129.746 75.016 129.25 74.816 128.626 74.816C128.01 74.816 127.514 75.016 127.138 75.416C126.762 75.808 126.574 76.34 126.574 77.012V77.12C126.574 77.792 126.762 78.328 127.138 78.728C127.514 79.12 128.01 79.316 128.626 79.316ZM135.576 80.108C135.152 80.108 134.76 80.016 134.4 79.832C134.048 79.648 133.768 79.376 133.56 79.016C133.36 78.648 133.26 78.204 133.26 77.684V74.132H134.208V77.612C134.208 78.196 134.352 78.62 134.64 78.884C134.936 79.148 135.332 79.28 135.828 79.28C136.388 79.28 136.848 79.096 137.208 78.728C137.568 78.36 137.748 77.812 137.748 77.084V74.132H138.696V80H137.772V79.004H137.604C137.476 79.284 137.256 79.54 136.944 79.772C136.632 79.996 136.176 80.108 135.576 80.108ZM146.462 80.168C145.894 80.168 145.382 80.048 144.926 79.808C144.478 79.56 144.122 79.208 143.858 78.752C143.602 78.296 143.474 77.756 143.474 77.132V77C143.474 76.368 143.602 75.828 143.858 75.38C144.122 74.924 144.478 74.576 144.926 74.336C145.382 74.088 145.894 73.964 146.462 73.964C147.022 73.964 147.498 74.068 147.89 74.276C148.29 74.484 148.602 74.76 148.826 75.104C149.058 75.448 149.206 75.816 149.27 76.208L148.346 76.4C148.306 76.112 148.21 75.848 148.058 75.608C147.914 75.368 147.71 75.176 147.446 75.032C147.182 74.888 146.858 74.816 146.474 74.816C146.082 74.816 145.73 74.904 145.418 75.08C145.114 75.256 144.87 75.508 144.686 75.836C144.51 76.164 144.422 76.556 144.422 77.012V77.12C144.422 77.576 144.51 77.968 144.686 78.296C144.87 78.624 145.114 78.876 145.418 79.052C145.73 79.228 146.082 79.316 146.474 79.316C147.058 79.316 147.502 79.164 147.806 78.86C148.118 78.556 148.31 78.18 148.382 77.732L149.318 77.936C149.23 78.32 149.07 78.684 148.838 79.028C148.606 79.372 148.29 79.648 147.89 79.856C147.498 80.064 147.022 80.168 146.462 80.168ZM150.934 80V71.6H151.882V75.068H152.05C152.13 74.892 152.25 74.728 152.41 74.576C152.578 74.416 152.79 74.284 153.046 74.18C153.31 74.076 153.642 74.024 154.042 74.024C154.482 74.024 154.874 74.12 155.218 74.312C155.57 74.496 155.85 74.768 156.058 75.128C156.266 75.48 156.37 75.92 156.37 76.448V80H155.422V76.52C155.422 75.936 155.274 75.512 154.978 75.248C154.69 74.984 154.298 74.852 153.802 74.852C153.234 74.852 152.77 75.036 152.41 75.404C152.058 75.772 151.882 76.32 151.882 77.048V80H150.934ZM161.005 80.168C160.413 80.168 159.889 80.044 159.433 79.796C158.985 79.548 158.633 79.2 158.377 78.752C158.129 78.296 158.005 77.76 158.005 77.144V76.988C158.005 76.38 158.129 75.848 158.377 75.392C158.633 74.936 158.985 74.584 159.433 74.336C159.889 74.088 160.413 73.964 161.005 73.964C161.597 73.964 162.117 74.088 162.565 74.336C163.021 74.584 163.373 74.936 163.621 75.392C163.877 75.848 164.005 76.38 164.005 76.988V77.144C164.005 77.76 163.877 78.296 163.621 78.752C163.373 79.2 163.021 79.548 162.565 79.796C162.117 80.044 161.597 80.168 161.005 80.168ZM161.005 79.316C161.629 79.316 162.125 79.12 162.493 78.728C162.869 78.328 163.057 77.792 163.057 77.12V77.012C163.057 76.34 162.869 75.808 162.493 75.416C162.125 75.016 161.629 74.816 161.005 74.816C160.389 74.816 159.893 75.016 159.517 75.416C159.141 75.808 158.953 76.34 158.953 77.012V77.12C158.953 77.792 159.141 78.328 159.517 78.728C159.893 79.12 160.389 79.316 161.005 79.316ZM168.075 80.168C167.347 80.168 166.731 80 166.227 79.664C165.731 79.328 165.431 78.796 165.327 78.068L166.227 77.864C166.291 78.248 166.411 78.552 166.587 78.776C166.763 78.992 166.979 79.148 167.235 79.244C167.499 79.332 167.779 79.376 168.075 79.376C168.515 79.376 168.863 79.288 169.119 79.112C169.375 78.936 169.503 78.7 169.503 78.404C169.503 78.1 169.379 77.888 169.131 77.768C168.891 77.64 168.559 77.536 168.135 77.456L167.643 77.372C167.267 77.308 166.923 77.208 166.611 77.072C166.299 76.936 166.051 76.752 165.867 76.52C165.683 76.288 165.591 75.996 165.591 75.644C165.591 75.116 165.795 74.704 166.203 74.408C166.611 74.112 167.151 73.964 167.823 73.964C168.487 73.964 169.023 74.116 169.431 74.42C169.847 74.716 170.115 75.136 170.235 75.68L169.347 75.908C169.275 75.484 169.103 75.188 168.831 75.02C168.559 74.844 168.223 74.756 167.823 74.756C167.423 74.756 167.107 74.832 166.875 74.984C166.643 75.128 166.527 75.344 166.527 75.632C166.527 75.912 166.635 76.12 166.851 76.256C167.075 76.384 167.371 76.48 167.739 76.544L168.231 76.628C168.647 76.7 169.019 76.8 169.347 76.928C169.683 77.048 169.947 77.224 170.139 77.456C170.339 77.688 170.439 77.992 170.439 78.368C170.439 78.944 170.223 79.388 169.791 79.7C169.367 80.012 168.795 80.168 168.075 80.168ZM174.727 80.168C174.135 80.168 173.615 80.044 173.167 79.796C172.719 79.54 172.371 79.184 172.123 78.728C171.875 78.272 171.751 77.744 171.751 77.144V77C171.751 76.392 171.875 75.86 172.123 75.404C172.371 74.948 172.715 74.596 173.155 74.348C173.595 74.092 174.099 73.964 174.667 73.964C175.219 73.964 175.707 74.084 176.131 74.324C176.555 74.556 176.887 74.892 177.127 75.332C177.367 75.772 177.487 76.288 177.487 76.88V77.312H172.699C172.723 77.944 172.927 78.44 173.311 78.8C173.695 79.152 174.175 79.328 174.751 79.328C175.255 79.328 175.643 79.212 175.915 78.98C176.187 78.748 176.395 78.472 176.539 78.152L177.355 78.548C177.235 78.796 177.067 79.044 176.851 79.292C176.643 79.54 176.367 79.748 176.023 79.916C175.687 80.084 175.255 80.168 174.727 80.168ZM172.711 76.532H176.527C176.495 75.988 176.307 75.564 175.963 75.26C175.627 74.956 175.195 74.804 174.667 74.804C174.131 74.804 173.691 74.956 173.347 75.26C173.003 75.564 172.791 75.988 172.711 76.532ZM179.575 80.168C179.343 80.168 179.147 80.092 178.987 79.94C178.835 79.788 178.759 79.592 178.759 79.352C178.759 79.112 178.835 78.916 178.987 78.764C179.147 78.612 179.343 78.536 179.575 78.536C179.815 78.536 180.011 78.612 180.163 78.764C180.315 78.916 180.391 79.112 180.391 79.352C180.391 79.592 180.315 79.788 180.163 79.94C180.011 80.092 179.815 80.168 179.575 80.168Z" fill="black"/>
</g>
<path d="M296.105 47.199L289.615 21.1505C289.467 20.472 288.847 20 288.139 20C278.67 20 271 27.67 271 37.1395V53.9545C271 54.9575 271.974 55.695 272.947 55.4L295.072 48.9985C295.839 48.792 296.311 47.9955 296.105 47.199Z" fill="#426EEB"/>
<path d="M297.904 54.6156C297.698 53.7896 296.842 53.2881 296.016 53.5241L272.091 60.4861C271.442 60.6926 271 61.2826 271 61.9611V62.0201C271 71.4896 278.67 79.1596 288.139 79.1596H302.063C303.037 79.1596 303.774 78.2451 303.538 77.2716L297.904 54.6156Z" fill="#426EEB"/>
<path d="M313.065 20H296.102C295.129 20 294.391 20.9145 294.627 21.888L308.61 77.8495C308.787 78.528 309.377 79 310.085 79H313.035C322.534 79 330.204 71.33 330.204 61.8605V37.1395C330.204 27.67 322.534 20 313.065 20Z" fill="#426EEB"/>
<defs>
<filter id="filter0_d_496_990" x="0" y="0" width="352" height="102" filterUnits="userSpaceOnUse" color-interpolation-filters="sRGB">
<feFlood flood-opacity="0" result="BackgroundImageFix"/>
<feColorMatrix in="SourceAlpha" type="matrix" values="0 0 0 0 0 0 0 0 0 0 0 0 0 0 0 0 0 0 127 0" result="hardAlpha"/>
<feOffset dy="2"/>
<feGaussianBlur stdDeviation="2"/>
<feComposite in2="hardAlpha" operator="out"/>
<feColorMatrix type="matrix" values="0 0 0 0 0 0 0 0 0 0 0 0 0 0 0 0 0 0 0.05 0"/>
<feBlend mode="normal" in2="BackgroundImageFix" result="effect1_dropShadow_496_990"/>
<feBlend mode="normal" in="SourceGraphic" in2="effect1_dropShadow_496_990" result="shape"/>
</filter>
</defs>
</svg>
