<svg width="50" height="50" viewBox="0 0 50 50" fill="none" xmlns="http://www.w3.org/2000/svg">
<path d="M0 8C0 3.58172 3.58172 0 8 0H42C46.4183 0 50 3.58172 50 8V42C50 46.4183 46.4183 50 42 50H8C3.58172 50 0 46.4183 0 42V8Z" fill="#F5F5F5"/>
<path d="M15.3306 34L14.4406 30.5H15.1206L15.8606 33.575H15.9306L16.6706 30.5H17.3506L16.4606 34H15.3306Z" fill="black"/>
<path d="M18.77 34.07C18.5234 34.07 18.305 34.0183 18.115 33.915C17.9284 33.8083 17.7817 33.66 17.675 33.47C17.5717 33.2767 17.52 33.05 17.52 32.79V32.73C17.52 32.47 17.5717 32.245 17.675 32.055C17.7784 31.8617 17.9234 31.7133 18.11 31.61C18.2967 31.5033 18.5134 31.45 18.76 31.45C19.0034 31.45 19.215 31.505 19.395 31.615C19.575 31.7217 19.715 31.8717 19.815 32.065C19.915 32.255 19.965 32.4767 19.965 32.73V32.945H18.16C18.1667 33.115 18.23 33.2533 18.35 33.36C18.47 33.4667 18.6167 33.52 18.79 33.52C18.9667 33.52 19.0967 33.4817 19.18 33.405C19.2634 33.3283 19.3267 33.2433 19.37 33.15L19.885 33.42C19.8384 33.5067 19.77 33.6017 19.68 33.705C19.5934 33.805 19.4767 33.8917 19.33 33.965C19.1834 34.035 18.9967 34.07 18.77 34.07ZM18.165 32.475H19.325C19.3117 32.3317 19.2534 32.2167 19.15 32.13C19.05 32.0433 18.9184 32 18.755 32C18.585 32 18.45 32.0433 18.35 32.13C18.25 32.2167 18.1884 32.3317 18.165 32.475Z" fill="black"/>
<path d="M20.5258 34V30.5H21.1558V31.825H21.2458C21.2724 31.7717 21.3141 31.7183 21.3708 31.665C21.4274 31.6117 21.5024 31.5683 21.5958 31.535C21.6924 31.4983 21.8141 31.48 21.9608 31.48C22.1541 31.48 22.3224 31.525 22.4658 31.615C22.6124 31.7017 22.7258 31.8233 22.8058 31.98C22.8858 32.1333 22.9258 32.3133 22.9258 32.52V34H22.2958V32.57C22.2958 32.3833 22.2491 32.2433 22.1558 32.15C22.0658 32.0567 21.9358 32.01 21.7658 32.01C21.5724 32.01 21.4224 32.075 21.3158 32.205C21.2091 32.3317 21.1558 32.51 21.1558 32.74V34H20.5258Z" fill="black"/>
<path d="M23.6068 34V31.52H24.2368V34H23.6068ZM23.9218 31.23C23.8085 31.23 23.7118 31.1933 23.6318 31.12C23.5552 31.0467 23.5168 30.95 23.5168 30.83C23.5168 30.71 23.5552 30.6133 23.6318 30.54C23.7118 30.4667 23.8085 30.43 23.9218 30.43C24.0385 30.43 24.1352 30.4667 24.2118 30.54C24.2885 30.6133 24.3268 30.71 24.3268 30.83C24.3268 30.95 24.2885 31.0467 24.2118 31.12C24.1352 31.1933 24.0385 31.23 23.9218 31.23Z" fill="black"/>
<path d="M26.1 34.07C25.86 34.07 25.6416 34.02 25.445 33.92C25.2516 33.82 25.0983 33.675 24.985 33.485C24.8716 33.295 24.815 33.065 24.815 32.795V32.725C24.815 32.455 24.8716 32.225 24.985 32.035C25.0983 31.845 25.2516 31.7 25.445 31.6C25.6416 31.5 25.86 31.45 26.1 31.45C26.3366 31.45 26.54 31.4917 26.71 31.575C26.88 31.6583 27.0166 31.7733 27.12 31.92C27.2266 32.0633 27.2966 32.2267 27.33 32.41L26.72 32.54C26.7066 32.44 26.6766 32.35 26.63 32.27C26.5833 32.19 26.5166 32.1267 26.43 32.08C26.3466 32.0333 26.2416 32.01 26.115 32.01C25.9883 32.01 25.8733 32.0383 25.77 32.095C25.67 32.1483 25.59 32.23 25.53 32.34C25.4733 32.4467 25.445 32.5783 25.445 32.735V32.785C25.445 32.9417 25.4733 33.075 25.53 33.185C25.59 33.2917 25.67 33.3733 25.77 33.43C25.8733 33.4833 25.9883 33.51 26.115 33.51C26.305 33.51 26.4483 33.4617 26.545 33.365C26.645 33.265 26.7083 33.135 26.735 32.975L27.345 33.12C27.3016 33.2967 27.2266 33.4583 27.12 33.605C27.0166 33.7483 26.88 33.8617 26.71 33.945C26.54 34.0283 26.3366 34.07 26.1 34.07Z" fill="black"/>
<path d="M27.8646 34V30.5H28.4946V34H27.8646Z" fill="black"/>
<path d="M30.3228 34.07C30.0761 34.07 29.8578 34.0183 29.6678 33.915C29.4811 33.8083 29.3344 33.66 29.2278 33.47C29.1244 33.2767 29.0728 33.05 29.0728 32.79V32.73C29.0728 32.47 29.1244 32.245 29.2278 32.055C29.3311 31.8617 29.4761 31.7133 29.6628 31.61C29.8494 31.5033 30.0661 31.45 30.3128 31.45C30.5561 31.45 30.7678 31.505 30.9478 31.615C31.1278 31.7217 31.2678 31.8717 31.3678 32.065C31.4678 32.255 31.5178 32.4767 31.5178 32.73V32.945H29.7128C29.7194 33.115 29.7828 33.2533 29.9028 33.36C30.0228 33.4667 30.1694 33.52 30.3428 33.52C30.5194 33.52 30.6494 33.4817 30.7328 33.405C30.8161 33.3283 30.8794 33.2433 30.9228 33.15L31.4378 33.42C31.3911 33.5067 31.3228 33.6017 31.2328 33.705C31.1461 33.805 31.0294 33.8917 30.8828 33.965C30.7361 34.035 30.5494 34.07 30.3228 34.07ZM29.7178 32.475H30.8778C30.8644 32.3317 30.8061 32.2167 30.7028 32.13C30.6028 32.0433 30.4711 32 30.3078 32C30.1378 32 30.0028 32.0433 29.9028 32.13C29.8028 32.2167 29.7411 32.3317 29.7178 32.475Z" fill="black"/>
<path d="M32.0014 32.035V31.695H32.1964C32.3498 31.695 32.4264 31.6183 32.4264 31.465V31.305H32.3414C32.2081 31.305 32.0964 31.265 32.0064 31.185C31.9198 31.105 31.8764 31.0033 31.8764 30.88C31.8764 30.7467 31.9198 30.6383 32.0064 30.555C32.0964 30.4717 32.2081 30.43 32.3414 30.43C32.4781 30.43 32.5898 30.4733 32.6764 30.56C32.7631 30.6433 32.8064 30.7567 32.8064 30.9V31.475C32.8064 31.8483 32.6198 32.035 32.2464 32.035H32.0014Z" fill="black"/>
<path d="M34.4073 34.07C34.084 34.07 33.819 34 33.6123 33.86C33.4057 33.72 33.2807 33.52 33.2373 33.26L33.8173 33.11C33.8407 33.2267 33.879 33.3183 33.9323 33.385C33.989 33.4517 34.0573 33.5 34.1373 33.53C34.2207 33.5567 34.3107 33.57 34.4073 33.57C34.554 33.57 34.6623 33.545 34.7323 33.495C34.8023 33.4417 34.8373 33.3767 34.8373 33.3C34.8373 33.2233 34.804 33.165 34.7373 33.125C34.6707 33.0817 34.564 33.0467 34.4173 33.02L34.2773 32.995C34.104 32.9617 33.9457 32.9167 33.8023 32.86C33.659 32.8 33.544 32.7183 33.4573 32.615C33.3707 32.5117 33.3273 32.3783 33.3273 32.215C33.3273 31.9683 33.4173 31.78 33.5973 31.65C33.7773 31.5167 34.014 31.45 34.3073 31.45C34.584 31.45 34.814 31.5117 34.9973 31.635C35.1807 31.7583 35.3007 31.92 35.3573 32.12L34.7723 32.3C34.7457 32.1733 34.6907 32.0833 34.6073 32.03C34.5273 31.9767 34.4273 31.95 34.3073 31.95C34.1873 31.95 34.0957 31.9717 34.0323 32.015C33.969 32.055 33.9373 32.1117 33.9373 32.185C33.9373 32.265 33.9707 32.325 34.0373 32.365C34.104 32.4017 34.194 32.43 34.3073 32.45L34.4473 32.475C34.634 32.5083 34.8023 32.5533 34.9523 32.61C35.1057 32.6633 35.2257 32.7417 35.3123 32.845C35.4023 32.945 35.4473 33.0817 35.4473 33.255C35.4473 33.515 35.3523 33.7167 35.1623 33.86C34.9757 34 34.724 34.07 34.4073 34.07Z" fill="black"/>
<path d="M10.571 40L11.491 36.5H12.641L13.561 40H12.881L12.691 39.23H11.441L11.251 40H10.571ZM11.596 38.62H12.536L12.111 36.915H12.021L11.596 38.62Z" fill="black"/>
<path d="M15.1649 40.07C14.9249 40.07 14.7066 40.02 14.5099 39.92C14.3166 39.82 14.1632 39.675 14.0499 39.485C13.9366 39.295 13.8799 39.065 13.8799 38.795V38.725C13.8799 38.455 13.9366 38.225 14.0499 38.035C14.1632 37.845 14.3166 37.7 14.5099 37.6C14.7066 37.5 14.9249 37.45 15.1649 37.45C15.4016 37.45 15.6049 37.4917 15.7749 37.575C15.9449 37.6583 16.0816 37.7733 16.1849 37.92C16.2916 38.0633 16.3616 38.2267 16.3949 38.41L15.7849 38.54C15.7716 38.44 15.7416 38.35 15.6949 38.27C15.6482 38.19 15.5816 38.1267 15.4949 38.08C15.4116 38.0333 15.3066 38.01 15.1799 38.01C15.0532 38.01 14.9382 38.0383 14.8349 38.095C14.7349 38.1483 14.6549 38.23 14.5949 38.34C14.5382 38.4467 14.5099 38.5783 14.5099 38.735V38.785C14.5099 38.9417 14.5382 39.075 14.5949 39.185C14.6549 39.2917 14.7349 39.3733 14.8349 39.43C14.9382 39.4833 15.0532 39.51 15.1799 39.51C15.3699 39.51 15.5132 39.4617 15.6099 39.365C15.7099 39.265 15.7732 39.135 15.7999 38.975L16.4099 39.12C16.3666 39.2967 16.2916 39.4583 16.1849 39.605C16.0816 39.7483 15.9449 39.8617 15.7749 39.945C15.6049 40.0283 15.4016 40.07 15.1649 40.07Z" fill="black"/>
<path d="M18.0946 40.07C17.8546 40.07 17.6363 40.02 17.4396 39.92C17.2463 39.82 17.0929 39.675 16.9796 39.485C16.8663 39.295 16.8096 39.065 16.8096 38.795V38.725C16.8096 38.455 16.8663 38.225 16.9796 38.035C17.0929 37.845 17.2463 37.7 17.4396 37.6C17.6363 37.5 17.8546 37.45 18.0946 37.45C18.3313 37.45 18.5346 37.4917 18.7046 37.575C18.8746 37.6583 19.0113 37.7733 19.1146 37.92C19.2213 38.0633 19.2913 38.2267 19.3246 38.41L18.7146 38.54C18.7013 38.44 18.6713 38.35 18.6246 38.27C18.5779 38.19 18.5113 38.1267 18.4246 38.08C18.3413 38.0333 18.2363 38.01 18.1096 38.01C17.9829 38.01 17.8679 38.0383 17.7646 38.095C17.6646 38.1483 17.5846 38.23 17.5246 38.34C17.4679 38.4467 17.4396 38.5783 17.4396 38.735V38.785C17.4396 38.9417 17.4679 39.075 17.5246 39.185C17.5846 39.2917 17.6646 39.3733 17.7646 39.43C17.8679 39.4833 17.9829 39.51 18.1096 39.51C18.2996 39.51 18.4429 39.4617 18.5396 39.365C18.6396 39.265 18.7029 39.135 18.7296 38.975L19.3396 39.12C19.2963 39.2967 19.2213 39.4583 19.1146 39.605C19.0113 39.7483 18.8746 39.8617 18.7046 39.945C18.5346 40.0283 18.3313 40.07 18.0946 40.07Z" fill="black"/>
<path d="M20.9893 40.07C20.7426 40.07 20.5243 40.0183 20.3343 39.915C20.1476 39.8083 20.0009 39.66 19.8943 39.47C19.7909 39.2767 19.7393 39.05 19.7393 38.79V38.73C19.7393 38.47 19.7909 38.245 19.8943 38.055C19.9976 37.8617 20.1426 37.7133 20.3293 37.61C20.5159 37.5033 20.7326 37.45 20.9793 37.45C21.2226 37.45 21.4343 37.505 21.6143 37.615C21.7943 37.7217 21.9343 37.8717 22.0343 38.065C22.1343 38.255 22.1843 38.4767 22.1843 38.73V38.945H20.3793C20.3859 39.115 20.4493 39.2533 20.5693 39.36C20.6893 39.4667 20.8359 39.52 21.0093 39.52C21.1859 39.52 21.3159 39.4817 21.3993 39.405C21.4826 39.3283 21.5459 39.2433 21.5893 39.15L22.1043 39.42C22.0576 39.5067 21.9893 39.6017 21.8993 39.705C21.8126 39.805 21.6959 39.8917 21.5493 39.965C21.4026 40.035 21.2159 40.07 20.9893 40.07ZM20.3843 38.475H21.5443C21.5309 38.3317 21.4726 38.2167 21.3693 38.13C21.2693 38.0433 21.1376 38 20.9743 38C20.8043 38 20.6693 38.0433 20.5693 38.13C20.4693 38.2167 20.4076 38.3317 20.3843 38.475Z" fill="black"/>
<path d="M23.775 40.07C23.4517 40.07 23.1867 40 22.98 39.86C22.7734 39.72 22.6484 39.52 22.605 39.26L23.185 39.11C23.2084 39.2267 23.2467 39.3183 23.3 39.385C23.3567 39.4517 23.425 39.5 23.505 39.53C23.5884 39.5567 23.6784 39.57 23.775 39.57C23.9217 39.57 24.03 39.545 24.1 39.495C24.17 39.4417 24.205 39.3767 24.205 39.3C24.205 39.2233 24.1717 39.165 24.105 39.125C24.0384 39.0817 23.9317 39.0467 23.785 39.02L23.645 38.995C23.4717 38.9617 23.3134 38.9167 23.17 38.86C23.0267 38.8 22.9117 38.7183 22.825 38.615C22.7384 38.5117 22.695 38.3783 22.695 38.215C22.695 37.9683 22.785 37.78 22.965 37.65C23.145 37.5167 23.3817 37.45 23.675 37.45C23.9517 37.45 24.1817 37.5117 24.365 37.635C24.5484 37.7583 24.6684 37.92 24.725 38.12L24.14 38.3C24.1134 38.1733 24.0584 38.0833 23.975 38.03C23.895 37.9767 23.795 37.95 23.675 37.95C23.555 37.95 23.4634 37.9717 23.4 38.015C23.3367 38.055 23.305 38.1117 23.305 38.185C23.305 38.265 23.3384 38.325 23.405 38.365C23.4717 38.4017 23.5617 38.43 23.675 38.45L23.815 38.475C24.0017 38.5083 24.17 38.5533 24.32 38.61C24.4734 38.6633 24.5934 38.7417 24.68 38.845C24.77 38.945 24.815 39.0817 24.815 39.255C24.815 39.515 24.72 39.7167 24.53 39.86C24.3434 40 24.0917 40.07 23.775 40.07Z" fill="black"/>
<path d="M26.3971 40.07C26.0738 40.07 25.8088 40 25.6021 39.86C25.3954 39.72 25.2704 39.52 25.2271 39.26L25.8071 39.11C25.8304 39.2267 25.8688 39.3183 25.9221 39.385C25.9788 39.4517 26.0471 39.5 26.1271 39.53C26.2104 39.5567 26.3004 39.57 26.3971 39.57C26.5438 39.57 26.6521 39.545 26.7221 39.495C26.7921 39.4417 26.8271 39.3767 26.8271 39.3C26.8271 39.2233 26.7938 39.165 26.7271 39.125C26.6604 39.0817 26.5538 39.0467 26.4071 39.02L26.2671 38.995C26.0938 38.9617 25.9354 38.9167 25.7921 38.86C25.6488 38.8 25.5338 38.7183 25.4471 38.615C25.3604 38.5117 25.3171 38.3783 25.3171 38.215C25.3171 37.9683 25.4071 37.78 25.5871 37.65C25.7671 37.5167 26.0038 37.45 26.2971 37.45C26.5738 37.45 26.8038 37.5117 26.9871 37.635C27.1704 37.7583 27.2904 37.92 27.3471 38.12L26.7621 38.3C26.7354 38.1733 26.6804 38.0833 26.5971 38.03C26.5171 37.9767 26.4171 37.95 26.2971 37.95C26.1771 37.95 26.0854 37.9717 26.0221 38.015C25.9588 38.055 25.9271 38.1117 25.9271 38.185C25.9271 38.265 25.9604 38.325 26.0271 38.365C26.0938 38.4017 26.1838 38.43 26.2971 38.45L26.4371 38.475C26.6238 38.5083 26.7921 38.5533 26.9421 38.61C27.0954 38.6633 27.2154 38.7417 27.3021 38.845C27.3921 38.945 27.4371 39.0817 27.4371 39.255C27.4371 39.515 27.3421 39.7167 27.1521 39.86C26.9654 40 26.7138 40.07 26.3971 40.07Z" fill="black"/>
<path d="M29.1692 40.07C28.9225 40.07 28.7008 40.02 28.5042 39.92C28.3075 39.82 28.1525 39.675 28.0392 39.485C27.9258 39.295 27.8692 39.0667 27.8692 38.8V38.72C27.8692 38.4533 27.9258 38.225 28.0392 38.035C28.1525 37.845 28.3075 37.7 28.5042 37.6C28.7008 37.5 28.9225 37.45 29.1692 37.45C29.4158 37.45 29.6375 37.5 29.8342 37.6C30.0308 37.7 30.1858 37.845 30.2992 38.035C30.4125 38.225 30.4692 38.4533 30.4692 38.72V38.8C30.4692 39.0667 30.4125 39.295 30.2992 39.485C30.1858 39.675 30.0308 39.82 29.8342 39.92C29.6375 40.02 29.4158 40.07 29.1692 40.07ZM29.1692 39.51C29.3625 39.51 29.5225 39.4483 29.6492 39.325C29.7758 39.1983 29.8392 39.0183 29.8392 38.785V38.735C29.8392 38.5017 29.7758 38.3233 29.6492 38.2C29.5258 38.0733 29.3658 38.01 29.1692 38.01C28.9758 38.01 28.8158 38.0733 28.6892 38.2C28.5625 38.3233 28.4992 38.5017 28.4992 38.735V38.785C28.4992 39.0183 28.5625 39.1983 28.6892 39.325C28.8158 39.4483 28.9758 39.51 29.1692 39.51Z" fill="black"/>
<path d="M31.0507 40V37.52H31.6707V37.8H31.7607C31.7973 37.7 31.8574 37.6267 31.9407 37.58C32.0274 37.5333 32.1274 37.51 32.2407 37.51H32.5407V38.07H32.2307C32.0707 38.07 31.939 38.1133 31.8357 38.2C31.7324 38.2833 31.6807 38.4133 31.6807 38.59V40H31.0507Z" fill="black"/>
<path d="M33.0331 40V37.52H33.6631V40H33.0331ZM33.3481 37.23C33.2348 37.23 33.1381 37.1933 33.0581 37.12C32.9814 37.0467 32.9431 36.95 32.9431 36.83C32.9431 36.71 32.9814 36.6133 33.0581 36.54C33.1381 36.4667 33.2348 36.43 33.3481 36.43C33.4648 36.43 33.5614 36.4667 33.6381 36.54C33.7148 36.6133 33.7531 36.71 33.7531 36.83C33.7531 36.95 33.7148 37.0467 33.6381 37.12C33.5614 37.1933 33.4648 37.23 33.3481 37.23Z" fill="black"/>
<path d="M35.4912 40.07C35.2446 40.07 35.0262 40.0183 34.8362 39.915C34.6496 39.8083 34.5029 39.66 34.3962 39.47C34.2929 39.2767 34.2412 39.05 34.2412 38.79V38.73C34.2412 38.47 34.2929 38.245 34.3962 38.055C34.4996 37.8617 34.6446 37.7133 34.8312 37.61C35.0179 37.5033 35.2346 37.45 35.4812 37.45C35.7246 37.45 35.9362 37.505 36.1162 37.615C36.2962 37.7217 36.4362 37.8717 36.5362 38.065C36.6362 38.255 36.6862 38.4767 36.6862 38.73V38.945H34.8812C34.8879 39.115 34.9512 39.2533 35.0712 39.36C35.1912 39.4667 35.3379 39.52 35.5112 39.52C35.6879 39.52 35.8179 39.4817 35.9012 39.405C35.9846 39.3283 36.0479 39.2433 36.0912 39.15L36.6062 39.42C36.5596 39.5067 36.4912 39.6017 36.4012 39.705C36.3146 39.805 36.1979 39.8917 36.0512 39.965C35.9046 40.035 35.7179 40.07 35.4912 40.07ZM34.8862 38.475H36.0462C36.0329 38.3317 35.9746 38.2167 35.8712 38.13C35.7712 38.0433 35.6396 38 35.4762 38C35.3062 38 35.1712 38.0433 35.0712 38.13C34.9712 38.2167 34.9096 38.3317 34.8862 38.475Z" fill="black"/>
<path d="M38.277 40.07C37.9536 40.07 37.6886 40 37.482 39.86C37.2753 39.72 37.1503 39.52 37.107 39.26L37.687 39.11C37.7103 39.2267 37.7486 39.3183 37.802 39.385C37.8586 39.4517 37.927 39.5 38.007 39.53C38.0903 39.5567 38.1803 39.57 38.277 39.57C38.4236 39.57 38.532 39.545 38.602 39.495C38.672 39.4417 38.707 39.3767 38.707 39.3C38.707 39.2233 38.6736 39.165 38.607 39.125C38.5403 39.0817 38.4336 39.0467 38.287 39.02L38.147 38.995C37.9736 38.9617 37.8153 38.9167 37.672 38.86C37.5286 38.8 37.4136 38.7183 37.327 38.615C37.2403 38.5117 37.197 38.3783 37.197 38.215C37.197 37.9683 37.287 37.78 37.467 37.65C37.647 37.5167 37.8836 37.45 38.177 37.45C38.4536 37.45 38.6836 37.5117 38.867 37.635C39.0503 37.7583 39.1703 37.92 39.227 38.12L38.642 38.3C38.6153 38.1733 38.5603 38.0833 38.477 38.03C38.397 37.9767 38.297 37.95 38.177 37.95C38.057 37.95 37.9653 37.9717 37.902 38.015C37.8386 38.055 37.807 38.1117 37.807 38.185C37.807 38.265 37.8403 38.325 37.907 38.365C37.9736 38.4017 38.0636 38.43 38.177 38.45L38.317 38.475C38.5036 38.5083 38.672 38.5533 38.822 38.61C38.9753 38.6633 39.0953 38.7417 39.182 38.845C39.272 38.945 39.317 39.0817 39.317 39.255C39.317 39.515 39.222 39.7167 39.032 39.86C38.8453 40 38.5936 40.07 38.277 40.07Z" fill="black"/>
<path d="M17.6887 17.399C15.6514 17.399 14 19.1006 14 21.1995C14 23.2985 15.6515 25 17.6887 25C19.7259 25 21.3774 23.2985 21.3774 21.1995C21.3774 19.1006 19.7259 17.399 17.6887 17.399ZM17.6887 23.3109C16.5587 23.3109 15.6394 22.3638 15.6394 21.1995C15.6394 20.0353 16.5587 19.0881 17.6887 19.0881C18.8187 19.0881 19.738 20.0353 19.738 21.1995C19.738 22.3638 18.8187 23.3109 17.6887 23.3109Z" fill="black"/>
<path d="M32.6975 17.399C32.2812 17.399 31.8815 17.4711 31.5082 17.6021L30.4937 15.9737C30.712 15.8081 30.9356 15.6589 31.1583 15.5383V13.6689L29.529 14.4255L28.0176 12.0001L25.0644 12L24.5217 12.4654L26.999 13.2966L28.1123 15.0834L25.1732 16.5016L22.2995 14.5487L17.6887 13.7921V15.0062L21.0764 17.6805L23.1738 22.1677H27.2413L28.2919 18.2352C28.2919 18.2352 28.7147 17.6718 29.327 17.0327L30.1882 18.4149C29.463 19.1088 29.0088 20.0993 29.0088 21.1995C29.0088 23.2985 30.6603 25 32.6975 25C34.7348 25 36.3863 23.2985 36.3863 21.1995C36.3863 19.1006 34.7348 17.399 32.6975 17.399ZM32.6975 23.3109C31.5676 23.3109 30.6482 22.3638 30.6482 21.1995C30.6482 20.6999 30.8178 20.2406 31.1003 19.8788L32.1898 21.6271L33.4832 20.7718L32.4446 19.1047C32.5276 19.0941 32.6118 19.0881 32.6975 19.0881C33.8275 19.0881 34.7468 20.0353 34.7468 21.1995C34.7468 22.3638 33.8275 23.3109 32.6975 23.3109Z" fill="black"/>
</svg>
