<svg width="17" height="17" viewBox="0 0 17 17" fill="none" xmlns="http://www.w3.org/2000/svg">
<path d="M4.675 14.95C5.8 15.625 7.15 16 8.5 16C12.625 16 16 12.625 16 8.5C16 4.375 12.625 1 8.5 1C4.375 1 1 4.375 1 8.5C1 9.85 1.375 11.125 1.975 12.25L1.33033 14.7295C1.18429 15.2912 1.70419 15.7988 2.26224 15.6393L4.675 14.95Z" stroke="black" stroke-miterlimit="10" stroke-linecap="round" stroke-linejoin="round"/>
<path d="M11.8752 10.6364C11.8752 10.7579 11.8482 10.8828 11.7907 11.0043C11.7333 11.1258 11.6589 11.2405 11.5609 11.3485C11.3952 11.5308 11.2128 11.6624 11.0066 11.7468C10.8038 11.8311 10.584 11.875 10.3474 11.875C10.0027 11.875 9.63424 11.794 9.24552 11.6286C8.85687 11.4633 8.46814 11.2405 8.08279 10.9604C7.69407 10.6769 7.32567 10.363 6.97414 10.0154C6.62599 9.66438 6.31165 9.2965 6.0311 8.91175C5.75394 8.527 5.53085 8.14225 5.36861 7.76088C5.20636 7.37613 5.12524 7.00825 5.12524 6.65725C5.12524 6.42775 5.1658 6.20838 5.24692 6.00588C5.32805 5.8 5.45649 5.611 5.63563 5.44225C5.85196 5.22962 6.08857 5.125 6.33869 5.125C6.43333 5.125 6.52798 5.14525 6.61247 5.18575C6.70036 5.22625 6.7781 5.287 6.83894 5.37475L7.62312 6.47837C7.68394 6.56275 7.72789 6.64038 7.75834 6.71463C7.78872 6.7855 7.80567 6.85638 7.80567 6.9205C7.80567 7.0015 7.78197 7.0825 7.73464 7.16013C7.69069 7.23775 7.62649 7.31875 7.54534 7.39975L7.28847 7.66638C7.25134 7.7035 7.23439 7.74738 7.23439 7.80138C7.23439 7.82838 7.23777 7.852 7.24452 7.879C7.25472 7.906 7.26484 7.92625 7.27159 7.9465C7.33242 8.05788 7.43719 8.203 7.58592 8.3785C7.73802 8.554 7.90024 8.73288 8.07604 8.91175C8.25859 9.09063 8.43432 9.256 8.61349 9.40788C8.78922 9.55638 8.93457 9.65763 9.04947 9.71838C9.06642 9.72513 9.08667 9.73525 9.11037 9.74538C9.13737 9.7555 9.16444 9.75888 9.19482 9.75888C9.25234 9.75888 9.29622 9.73863 9.33342 9.7015L9.59029 9.44838C9.67482 9.364 9.75597 9.29988 9.83367 9.25938C9.91144 9.21213 9.98915 9.1885 10.0737 9.1885C10.1379 9.1885 10.2055 9.202 10.2798 9.23238C10.3542 9.26275 10.4319 9.30663 10.5165 9.364L11.6352 10.1571C11.7231 10.2179 11.784 10.2888 11.8212 10.3731C11.855 10.4575 11.8752 10.5419 11.8752 10.6364Z" stroke="black" stroke-miterlimit="10"/>
</svg>
