<svg width="29" height="29" viewBox="0 0 29 29" fill="none" xmlns="http://www.w3.org/2000/svg">
<path d="M28.2998 13.3249C27.8184 5.11228 20.3562 -1.2171 11.7613 0.198873C5.84251 1.17589 1.09901 5.97601 0.178628 11.8947C-0.359441 15.3214 0.348573 18.564 1.89198 21.2401L0.631753 25.927C0.348559 26.989 1.32555 27.9518 2.37337 27.6545L6.98945 26.3801C9.08509 27.612 11.5347 28.32 14.1543 28.32C22.1404 28.32 28.7671 21.2826 28.2998 13.3249ZM21.0784 19.4277C20.9509 19.6826 20.7952 19.9233 20.597 20.1498C20.243 20.5322 19.8606 20.8153 19.4359 20.9853C19.0111 21.1693 18.5438 21.2543 18.0482 21.2543C17.3261 21.2543 16.5473 21.0845 15.7402 20.7305C14.9189 20.3765 14.1118 19.9091 13.3047 19.3286C12.4834 18.7339 11.7188 18.0684 10.9825 17.3462C10.2462 16.6099 9.59481 15.8311 9.0001 15.024C8.41955 14.2169 7.95231 13.4098 7.61248 12.6027C7.27265 11.7956 7.10276 11.0169 7.10276 10.2806C7.10276 9.79915 7.1877 9.33188 7.35762 8.90708C7.52753 8.46813 7.7966 8.07168 8.17891 7.71768C8.63202 7.26457 9.12758 7.05218 9.65149 7.05218C9.84971 7.05218 10.0479 7.09464 10.232 7.1796C10.4161 7.26456 10.586 7.392 10.7135 7.57607L12.356 9.89825C12.4834 10.0823 12.5826 10.2381 12.6392 10.3938C12.71 10.5496 12.7383 10.6912 12.7383 10.8328C12.7383 11.0027 12.6817 11.1727 12.5826 11.3425C12.4834 11.5124 12.356 11.6823 12.1861 11.8522L11.648 12.4186C11.5631 12.5036 11.5347 12.5886 11.5347 12.7018C11.5347 12.7585 11.5489 12.8151 11.5631 12.8717C11.5914 12.9284 11.6055 12.9709 11.6197 13.0133C11.7471 13.2541 11.9737 13.5514 12.2852 13.9196C12.6109 14.2877 12.9507 14.67 13.3189 15.0382C13.7012 15.4205 14.0693 15.7603 14.4516 16.086C14.8198 16.3975 15.1313 16.6099 15.372 16.7374C15.4145 16.7515 15.457 16.7798 15.4995 16.794C15.5561 16.8223 15.6127 16.8223 15.6835 16.8223C15.811 16.8223 15.8959 16.7798 15.9809 16.6949L16.519 16.1568C16.703 15.9727 16.8729 15.8453 17.0287 15.7603C17.1986 15.6612 17.3544 15.6046 17.5385 15.6046C17.68 15.6046 17.8216 15.6329 17.9774 15.7037C18.1332 15.7745 18.3031 15.8594 18.473 15.9869L20.8235 17.6577C21.0076 17.7852 21.135 17.9409 21.22 18.1108C21.2908 18.2949 21.3333 18.4648 21.3333 18.6631C21.2483 18.9038 21.1917 19.1728 21.0784 19.4277Z" fill="white"/>
</svg>
