<svg width="183" height="23" viewBox="0 0 183 23" fill="none" xmlns="http://www.w3.org/2000/svg">
<path d="M2.26003 18L0.0520313 1.2H3.19603L4.82803 15.792H5.26003L7.37203 1.2H12.844L14.956 15.792H15.388L17.02 1.2H20.164L17.956 18H12.484L10.324 3.072H9.89203L7.73203 18H2.26003ZM22.5745 18V1.2H25.5985V7.56H26.0305C26.1585 7.304 26.3585 7.048 26.6305 6.792C26.9025 6.536 27.2625 6.328 27.7105 6.168C28.1745 5.992 28.7585 5.904 29.4625 5.904C30.3905 5.904 31.1985 6.12 31.8865 6.552C32.5905 6.968 33.1345 7.552 33.5185 8.304C33.9025 9.04 34.0945 9.904 34.0945 10.896V18H31.0705V11.136C31.0705 10.24 30.8465 9.568 30.3985 9.12C29.9665 8.672 29.3425 8.448 28.5265 8.448C27.5985 8.448 26.8785 8.76 26.3665 9.384C25.8545 9.992 25.5985 10.848 25.5985 11.952V18H22.5745ZM38.4721 22.8V20.16H44.9521C45.4001 20.16 45.6241 19.92 45.6241 19.44V16.44H45.1921C45.0641 16.712 44.8641 16.984 44.5921 17.256C44.3201 17.528 43.9521 17.752 43.4881 17.928C43.0241 18.104 42.4321 18.192 41.7121 18.192C40.7841 18.192 39.9681 17.984 39.2641 17.568C38.5761 17.136 38.0401 16.544 37.6561 15.792C37.2721 15.04 37.0801 14.176 37.0801 13.2V6.096H40.1041V12.96C40.1041 13.856 40.3201 14.528 40.7521 14.976C41.2001 15.424 41.8321 15.648 42.6481 15.648C43.5761 15.648 44.2961 15.344 44.8081 14.736C45.3201 14.112 45.5761 13.248 45.5761 12.144V6.096H48.6001V20.112C48.6001 20.928 48.3601 21.576 47.8801 22.056C47.4001 22.552 46.7601 22.8 45.9601 22.8H38.4721ZM57.9629 18V1.2H61.1309V15.12H68.8109V18H57.9629ZM76.7307 18.336C75.5467 18.336 74.4827 18.096 73.5387 17.616C72.5947 17.136 71.8507 16.44 71.3067 15.528C70.7627 14.616 70.4907 13.52 70.4907 12.24V11.856C70.4907 10.576 70.7627 9.48 71.3067 8.568C71.8507 7.656 72.5947 6.96 73.5387 6.48C74.4827 6 75.5467 5.76 76.7307 5.76C77.9147 5.76 78.9787 6 79.9227 6.48C80.8667 6.96 81.6107 7.656 82.1547 8.568C82.6987 9.48 82.9707 10.576 82.9707 11.856V12.24C82.9707 13.52 82.6987 14.616 82.1547 15.528C81.6107 16.44 80.8667 17.136 79.9227 17.616C78.9787 18.096 77.9147 18.336 76.7307 18.336ZM76.7307 15.648C77.6587 15.648 78.4267 15.352 79.0347 14.76C79.6427 14.152 79.9467 13.288 79.9467 12.168V11.928C79.9467 10.808 79.6427 9.952 79.0347 9.36C78.4427 8.752 77.6747 8.448 76.7307 8.448C75.8027 8.448 75.0347 8.752 74.4267 9.36C73.8187 9.952 73.5147 10.808 73.5147 11.928V12.168C73.5147 13.288 73.8187 14.152 74.4267 14.76C75.0347 15.352 75.8027 15.648 76.7307 15.648ZM89.458 18.336C88.61 18.336 87.85 18.192 87.178 17.904C86.506 17.6 85.97 17.168 85.57 16.608C85.186 16.032 84.994 15.336 84.994 14.52C84.994 13.704 85.186 13.024 85.57 12.48C85.97 11.92 86.514 11.504 87.202 11.232C87.906 10.944 88.706 10.8 89.602 10.8H92.866V10.128C92.866 9.568 92.69 9.112 92.338 8.76C91.986 8.392 91.426 8.208 90.658 8.208C89.906 8.208 89.346 8.384 88.978 8.736C88.61 9.072 88.37 9.512 88.258 10.056L85.474 9.12C85.666 8.512 85.97 7.96 86.386 7.464C86.818 6.952 87.386 6.544 88.09 6.24C88.81 5.92 89.682 5.76 90.706 5.76C92.274 5.76 93.514 6.152 94.426 6.936C95.338 7.72 95.794 8.856 95.794 10.344V14.784C95.794 15.264 96.018 15.504 96.466 15.504H97.426V18H95.41C94.818 18 94.33 17.856 93.946 17.568C93.562 17.28 93.37 16.896 93.37 16.416V16.392H92.914C92.85 16.584 92.706 16.84 92.482 17.16C92.258 17.464 91.906 17.736 91.426 17.976C90.946 18.216 90.29 18.336 89.458 18.336ZM89.986 15.888C90.834 15.888 91.522 15.656 92.05 15.192C92.594 14.712 92.866 14.08 92.866 13.296V13.056H89.818C89.258 13.056 88.818 13.176 88.498 13.416C88.178 13.656 88.018 13.992 88.018 14.424C88.018 14.856 88.186 15.208 88.522 15.48C88.858 15.752 89.346 15.888 89.986 15.888ZM99.637 18V1.2H102.661V10.488H103.093L107.029 6.096H110.965L105.469 11.856L111.157 18H107.269L103.093 13.272H102.661V18H99.637ZM119.182 18V1.2H126.094C127.15 1.2 128.078 1.416 128.878 1.848C129.694 2.264 130.326 2.856 130.774 3.624C131.238 4.392 131.47 5.304 131.47 6.36V6.696C131.47 7.736 131.23 8.648 130.75 9.432C130.286 10.2 129.646 10.8 128.83 11.232C128.03 11.648 127.118 11.856 126.094 11.856H122.35V18H119.182ZM122.35 8.976H125.782C126.534 8.976 127.142 8.768 127.606 8.352C128.07 7.936 128.302 7.368 128.302 6.648V6.408C128.302 5.688 128.07 5.12 127.606 4.704C127.142 4.288 126.534 4.08 125.782 4.08H122.35V8.976ZM139.145 18.336C137.961 18.336 136.897 18.096 135.953 17.616C135.009 17.136 134.265 16.44 133.721 15.528C133.177 14.616 132.905 13.52 132.905 12.24V11.856C132.905 10.576 133.177 9.48 133.721 8.568C134.265 7.656 135.009 6.96 135.953 6.48C136.897 6 137.961 5.76 139.145 5.76C140.329 5.76 141.393 6 142.337 6.48C143.281 6.96 144.025 7.656 144.569 8.568C145.113 9.48 145.385 10.576 145.385 11.856V12.24C145.385 13.52 145.113 14.616 144.569 15.528C144.025 16.44 143.281 17.136 142.337 17.616C141.393 18.096 140.329 18.336 139.145 18.336ZM139.145 15.648C140.073 15.648 140.841 15.352 141.449 14.76C142.057 14.152 142.361 13.288 142.361 12.168V11.928C142.361 10.808 142.057 9.952 141.449 9.36C140.857 8.752 140.089 8.448 139.145 8.448C138.217 8.448 137.449 8.752 136.841 9.36C136.233 9.952 135.929 10.808 135.929 11.928V12.168C135.929 13.288 136.233 14.152 136.841 14.76C137.449 15.352 138.217 15.648 139.145 15.648ZM153.12 18.336C151.568 18.336 150.296 18 149.304 17.328C148.312 16.656 147.712 15.696 147.504 14.448L150.288 13.728C150.4 14.288 150.584 14.728 150.84 15.048C151.112 15.368 151.44 15.6 151.824 15.744C152.224 15.872 152.656 15.936 153.12 15.936C153.824 15.936 154.344 15.816 154.68 15.576C155.016 15.32 155.184 15.008 155.184 14.64C155.184 14.272 155.024 13.992 154.704 13.8C154.384 13.592 153.872 13.424 153.168 13.296L152.496 13.176C151.664 13.016 150.904 12.8 150.216 12.528C149.528 12.24 148.976 11.848 148.56 11.352C148.144 10.856 147.936 10.216 147.936 9.432C147.936 8.248 148.368 7.344 149.232 6.72C150.096 6.08 151.232 5.76 152.64 5.76C153.968 5.76 155.072 6.056 155.952 6.648C156.832 7.24 157.408 8.016 157.68 8.976L154.872 9.84C154.744 9.232 154.48 8.8 154.08 8.544C153.696 8.288 153.216 8.16 152.64 8.16C152.064 8.16 151.624 8.264 151.32 8.472C151.016 8.664 150.864 8.936 150.864 9.288C150.864 9.672 151.024 9.96 151.344 10.152C151.664 10.328 152.096 10.464 152.64 10.56L153.312 10.68C154.208 10.84 155.016 11.056 155.736 11.328C156.472 11.584 157.048 11.96 157.464 12.456C157.896 12.936 158.112 13.592 158.112 14.424C158.112 15.672 157.656 16.64 156.744 17.328C155.848 18 154.64 18.336 153.12 18.336ZM165.088 18C164.304 18 163.664 17.76 163.168 17.28C162.688 16.784 162.448 16.128 162.448 15.312V8.592H159.472V6.096H162.448V2.4H165.472V6.096H168.736V8.592H165.472V14.784C165.472 15.264 165.696 15.504 166.144 15.504H168.448V18H165.088ZM174.809 12.48V11.904C174.809 11.088 174.969 10.416 175.289 9.888C175.625 9.36 176.161 8.92 176.897 8.568L177.305 8.376C178.025 8.04 178.577 7.68 178.961 7.296C179.345 6.912 179.537 6.4 179.537 5.76C179.537 5.296 179.417 4.904 179.177 4.584C178.953 4.248 178.633 3.992 178.217 3.816C177.801 3.64 177.313 3.552 176.753 3.552C176.177 3.552 175.657 3.648 175.193 3.84C174.745 4.032 174.385 4.32 174.113 4.704C173.857 5.088 173.729 5.568 173.729 6.144V6.672H170.609V6.192C170.609 5.088 170.881 4.136 171.425 3.336C171.969 2.536 172.705 1.928 173.633 1.512C174.561 1.08 175.601 0.863999 176.753 0.863999C177.889 0.863999 178.897 1.072 179.777 1.488C180.673 1.904 181.377 2.48 181.889 3.216C182.401 3.952 182.657 4.8 182.657 5.76C182.657 6.72 182.481 7.512 182.129 8.136C181.777 8.744 181.329 9.24 180.785 9.624C180.257 9.992 179.713 10.312 179.153 10.584L178.745 10.776C178.457 10.904 178.257 11.064 178.145 11.256C178.033 11.432 177.977 11.696 177.977 12.048V12.48H174.809ZM176.489 18.336C175.849 18.336 175.305 18.128 174.857 17.712C174.425 17.28 174.209 16.728 174.209 16.056C174.209 15.384 174.425 14.84 174.857 14.424C175.305 13.992 175.849 13.776 176.489 13.776C177.145 13.776 177.689 13.992 178.121 14.424C178.553 14.84 178.769 15.384 178.769 16.056C178.769 16.728 178.553 17.28 178.121 17.712C177.689 18.128 177.145 18.336 176.489 18.336Z" fill="black"/>
</svg>
